<svg width="594" height="512" viewBox="0 0 594 512" fill="none" xmlns="http://www.w3.org/2000/svg">
<g filter="url(#filter0_g_771_6869)">
<circle cx="308.353" cy="256.439" r="160.589" fill="#E60611"/>
</g>
<path d="M201.78 449.097C198.893 447.131 197.151 445.873 195.704 444.886C192.524 442.719 189.098 441.242 187.213 440.58C186.035 440.167 183.108 439.425 179.123 438.308C175.968 437.424 171.281 437.432 167.659 437.267C162.673 437.04 161.478 438.008 158.784 438.711C153.18 440.175 150.157 440.738 147.502 441.647C144.936 442.527 142.521 444.376 141.663 444.958C140.66 445.639 140.463 447.355 139.947 448.596C139.344 450.046 138.235 451.078 137.418 452.072C136.472 453.223 136.428 455.292 136.001 457.896C135.297 462.191 136.768 464.396 137.241 465.968C137.798 467.815 138.739 469.608 139.556 470.933C140.456 472.394 141.739 473.827 143.582 476.018C145.078 477.794 147.137 479.283 150.31 481.726C151.476 482.623 153.139 484.001 156.3 485.98C160.463 488.587 163.866 489.799 165.149 490.335C168.748 491.838 173.637 493.852 175.572 494.473C177.459 495.08 182.102 496.408 185.478 497.287C187.039 497.693 188.735 497.907 190.535 498.361C194.618 499.392 196.196 499.396 197.658 499.522C199.546 499.684 202.793 499.401 205.414 499.151C208.903 498.817 210.605 498.409 213.09 497.664C215.637 496.901 217.124 496.587 218.285 496.05C219.485 495.494 220.726 495.098 222.1 494.56C223.823 493.887 225.275 492.04 226.218 491.252C227.251 490.389 228.018 489.31 228.579 488.316C229.302 487.033 229.567 485.175 230.164 482.409C230.755 479.67 231.707 478.31 232.351 475.997C233.481 471.933 235.129 468.729 236.467 464.828C237.07 463.069 238.474 460.45 240.453 457.709C241.639 456.066 242.169 453.575 245.804 447.344C247.633 444.21 248.174 442.818 249.586 440.626C250.385 439.388 251.344 437.608 252.882 434.848C255.033 430.99 256.15 427.923 256.877 426.809C258.317 424.6 260.174 422.386 261.85 419.697C263.787 416.59 264.64 414.444 266.01 411.425C267.838 407.398 270.645 403.682 271.416 402.894C273.889 400.365 276.99 394.832 277.891 393.753C278.107 393.504 278.277 393.258 278.449 393.009C278.621 392.759 278.791 392.513 279.223 392.012" stroke="black" stroke-width="5.95407" stroke-linecap="round" stroke-linejoin="round"/>
<path d="M192.58 439.815C193.288 438.364 193.995 436.913 195.5 433.907C197.005 430.902 199.285 426.386 200.578 423.697C201.871 421.008 202.106 420.282 203.054 418.215C204.001 416.148 205.652 412.761 206.935 410.291C208.218 407.82 209.083 406.369 210.276 403.968C213.081 398.322 214.816 394.372 215.647 393.276C217.616 390.676 218.944 389.729 219.94 388.75C220.818 387.887 222.117 385.023 223.591 383.05C224.739 381.513 226.092 381.094 227.049 380.158C228.206 379.026 229.113 377.267 229.908 376.491C230.148 376.045 230.465 375.635 230.901 375.27C231.101 375.066 231.258 374.824 231.42 374.086" stroke="black" stroke-width="5.95407" stroke-linecap="round" stroke-linejoin="round"/>
<path d="M359.66 459.796C356.791 459.796 353.922 459.796 350.293 460.483C346.663 461.17 342.36 462.545 339.974 463.334C336.617 464.444 334.786 465.343 333.498 466.408C332.4 467.315 331.795 468.691 330.389 470.286C329.204 471.629 327.959 473.508 327.444 475.512C326.957 477.407 326.932 483.751 327.186 487.563C327.311 489.442 329.478 492.127 330.763 493.649C331.774 494.845 332.807 495.974 334.423 497.485C335.957 498.919 337.497 499.655 338.177 500.021C338.896 500.408 341.736 501.931 346.964 504.214C349.619 505.373 352.444 506.173 355.566 506.874C358.688 507.575 362.063 508.06 364.857 508.31C369.745 508.747 372.439 508.479 374.387 508.033C378.228 507.154 381.217 506.274 382.618 505.989C386.132 505.276 388.368 503.826 392.068 501.995C396.825 499.642 400.987 497.947 402.604 496.927C403.753 496.203 406.681 493.472 411.022 489.272C414.071 486.323 415.142 484.386 415.736 483.329C416.581 481.826 417.778 477.958 419.098 473.305C420.191 469.456 419.578 465.932 417.88 461.815C416.874 459.374 415.321 457.598 413.793 455.888C411.726 453.576 409.105 451.555 407.146 450.045C405.987 449.152 402.984 446.909 398.175 443.403C392.501 439.266 391.882 437.991 390.433 436.766C389.755 436.192 388.141 434.487 384.027 430.02C381.208 426.959 377.466 421.833 375.002 418.401C371.411 413.398 370.317 411.036 368.624 408.199C367.233 405.866 364.906 401.641 363.31 398.383C360.087 390.288 359.409 388.335 358.682 387.02C358.553 386.774 358.468 386.532 358.381 386.037" stroke="black" stroke-width="5.95407" stroke-linecap="round" stroke-linejoin="round"/>
<path d="M321.051 403.963C322.465 408.553 323.878 413.142 324.802 416.004C325.727 418.866 326.12 419.86 327.421 422.17C328.723 424.48 330.922 428.075 332.133 430.118C333.964 433.208 335.241 435.854 337.295 440.13C341.088 448.022 342.068 448.696 342.545 449.74C343.368 451.539 344.447 453.022 345.319 454.26C346.351 455.421 347.146 456.193 347.462 456.771C347.622 457.044 347.779 457.273 347.94 457.741" stroke="black" stroke-width="5.95407" stroke-linecap="round" stroke-linejoin="round"/>
<path d="M258.241 145.008C258.153 145.008 257.933 144.262 257.71 143.001C257.312 140.735 259.746 138.45 260.1 138.383C260.448 138.318 260.766 138.448 261.031 138.647C261.721 139.164 261.964 140.174 262.074 140.949C262.34 142.819 261.126 144.601 260.194 145.736C259.923 146.066 259.617 146.336 259.175 146.536C258.32 146.921 257.446 145.984 257.09 145.52C257.088 144.833 257.616 143.687 258.438 141.648C258.595 141.157 258.682 140.762 258.906 140.089" stroke="black" stroke-width="5.95407" stroke-linecap="round" stroke-linejoin="round"/>
<path d="M346.256 163.355C346.256 163.18 347.002 162.124 348.242 160.705C348.683 160.201 348.955 160.34 349.09 160.451C350.229 161.388 349.625 164.371 349.029 165.72C348.689 166.49 348.208 166.987 347.854 167.297C347.54 167.572 346.969 167.61 346.371 167.544C345.947 167.497 345.77 167.079 345.593 166.704C345.328 166.143 345.325 165.353 345.391 164.602C345.9 163.402 346.519 162.781 346.898 162.294C346.965 162.16 347.009 162.028 347.054 161.76" stroke="black" stroke-width="5.95407" stroke-linecap="round" stroke-linejoin="round"/>
<path d="M256.913 170.135C257.659 171.451 258.404 172.767 259.096 173.84C259.787 174.913 260.401 175.703 262.297 177.514C264.193 179.324 267.352 182.132 269.55 183.93C271.747 185.727 272.888 186.429 274.485 187.23C276.082 188.03 278.1 188.908 279.249 189.381C280.602 189.939 281.634 190.252 283.532 190.914C287.677 192.361 288.553 192.292 289.304 192.382C291.253 192.612 292.584 192.691 294.236 192.868C295.445 192.998 297.423 193.045 300.107 192.827C302.792 192.609 306.126 192.082 309.182 191.394C312.238 190.706 314.914 189.873 316.556 189.399C319.644 188.509 321.078 188.041 321.923 187.664C322.915 187.222 323.74 186.179 324.559 185.671C326.383 184.538 327.151 183.789 327.774 183.364C327.886 183.288 328.039 183.385 328.129 183.539C328.349 183.918 328.308 185.324 328.22 187.557C328.074 191.263 327.422 192.112 327.113 193.351C326.821 194.517 326.714 195.701 326.47 196.607C326.219 197.545 325.698 199.897 324.835 202.974C324.318 204.819 323.789 205.586 323.348 206.489C323.019 207.163 322.556 208.313 321.891 209.515C321.225 210.717 320.392 211.945 319.502 213.105C317.76 215.373 316.478 216.621 315.969 217.085C315.461 217.549 314.664 218.435 313.097 219.76C310.97 221.558 309.254 222.516 308.679 222.804C308.152 223.067 307.484 223.623 305.919 224.461C304.856 225.03 303.169 225.738 300.139 226.692C297.108 227.647 292.764 228.788 290.351 229.397C287.598 230.093 286.919 230.096 286.256 230.118C285.503 230.143 283.168 230.229 279.848 230.185C277.665 230.156 276.461 229.831 275.665 229.588C274.88 229.348 274.067 229.167 272.723 228.55C270.201 227.394 268.438 226.154 267.819 225.734C267.22 225.327 265.743 224.387 263.488 222.73C261.224 221.066 260.061 219.772 259.532 219.155C258.68 218.161 257.276 216.326 255.947 214.267C255.443 213.485 255.32 213.216 254.682 212.006C254.044 210.795 252.903 208.646 252.206 207.209C251.508 205.772 251.289 205.114 250.978 203.722C250.668 202.33 250.273 200.224 250.004 198.613C249.56 195.956 249.467 193.855 249.489 192.194C249.501 191.277 249.688 190.745 250.062 189.052C250.377 187.628 250.831 185.033 251.08 183.568C251.456 181.355 251.682 180.553 251.749 179.733C251.815 178.934 252.126 177.984 252.435 176.722C253.046 174.222 253.19 173.594 253.433 173.04C253.677 172.308 254.03 171.6 254.474 170.185C254.563 169.87 254.607 169.739 254.652 169.603" stroke="black" stroke-width="5.95407" stroke-linecap="round" stroke-linejoin="round"/>
<path d="M282.036 212.946C282.825 211.981 284.066 210.737 285.702 209.454C287.089 208.365 288.808 208.073 290.136 207.719C291.462 207.365 294.815 207.317 296.68 207.583C297.383 207.683 298.777 208.465 300.488 209.309C301.701 209.907 302.242 210.329 302.95 210.728C303.948 211.29 304.502 212.1 305.211 212.899C305.742 213.496 306.363 214.448 307.293 215.733C307.75 216.364 308.137 216.932 308.425 217.552C308.936 218.528 309.2 219.059 309.335 219.591C309.379 219.725 309.466 219.857 309.557 220.258" stroke="black" stroke-width="5.95407" stroke-linecap="round" stroke-linejoin="round"/>
<path d="M256.512 212.015C257.618 210.421 259.203 208.487 260.276 207.298C261.044 206.448 263.67 205.2 265.505 204.416C266.771 203.876 268.209 203.02 271.096 202.578C272.607 202.346 275.032 202.313 276.56 202.289C279.432 202.244 280.568 203.06 281.394 203.505C282.232 203.957 283.451 204.876 284.208 205.499C285.006 206.075 285.494 206.519 285.759 206.718C285.893 206.829 286.025 206.961 286.293 207.096" stroke="black" stroke-width="5.95407" stroke-linecap="round" stroke-linejoin="round"/>
<path d="M439.172 162.374C439.216 162.418 439.26 162.462 440.357 163.033C441.455 163.604 443.605 164.701 445.655 165.485C447.706 166.27 449.593 166.708 451.354 166.934C453.116 167.16 454.696 167.16 455.948 167.073C458.089 166.923 459.245 166.629 460.5 166.344C465.319 165.248 465.893 164.414 466.425 164.082C467.078 163.675 467.972 162.515 468.774 160.94C469.385 159.739 469.174 158.832 469.175 156.866C469.176 155.513 468.602 153.436 468.005 151.287C467.727 150.29 466.833 149.09 465.66 147.319C464.499 145.565 463.683 145.093 461.828 144.032C461.055 143.59 459.891 143.107 458.602 142.616C455.938 141.603 454.198 141.191 453.536 141.037C451.752 140.621 450.744 140.084 448.734 139.487C447.804 139.211 446.293 139.068 444.033 138.911C441.773 138.754 438.789 138.666 437.099 138.643C434.433 138.606 432.229 138.972 430.579 139.372C429.623 139.604 428.411 140.211 426.681 141.077C425.545 141.645 424.728 142.296 424.018 143.049C423.393 143.712 422.558 145.168 421.515 146.945C420.438 148.781 420.56 149.917 420.273 151.876C420.051 153.388 419.942 155.985 419.873 157.428C419.771 159.577 420.113 161.386 420.665 163.928C421.22 166.483 422.02 167.956 422.285 168.53C422.427 168.837 422.55 169.192 423.32 170.535C424.09 171.879 425.494 174.204 427.139 176.543C428.783 178.882 430.626 181.163 433.089 183.479C435.552 185.795 438.579 188.076 440.314 189.318C442.971 191.218 444.176 191.445 444.93 191.755C445.818 192.11 446.788 192.552 448.512 193.479C449.524 194.007 451.366 194.929 453.398 195.878" stroke="black" stroke-width="5.95407" stroke-linecap="round" stroke-linejoin="round"/>
<path d="M496.211 145.089C493.929 146.668 492.535 147.657 491.259 148.603C490.209 149.382 488.316 150.734 487.234 151.544C485.907 152.539 485.4 153.195 484.474 154.232C483.033 155.846 481.809 156.787 481.324 157.315C479.676 159.11 479.549 160.944 479.238 162.213C479.127 162.667 479.105 163.431 478.972 164.996C478.754 167.562 479.102 169.723 479.368 170.653C479.597 171.454 480.033 172.251 480.498 172.895C480.984 173.569 481.496 174.202 482.115 174.646C482.859 175.179 483.445 175.577 485.432 176.461C487.949 177.581 489.816 177.396 491.198 177.506C492.966 177.647 494.387 177.22 495.741 176.976C496.265 176.881 496.74 176.687 497.972 176.314C500.652 175.501 502.634 174.561 503.274 174.23C505.067 173.06 506.844 171.195 507.265 170.597C507.422 170.351 507.466 170.219 507.512 170.083" stroke="black" stroke-width="5.95407" stroke-linecap="round" stroke-linejoin="round"/>
<path d="M477.196 168.225C475.031 167.917 473.609 167.472 472.349 166.964C471.164 166.486 470.153 166.143 469.399 165.502C468.734 164.948 468.157 164.415 467.936 164.216C467.846 164.105 467.802 163.973 467.624 163.838" stroke="black" stroke-width="5.95407" stroke-linecap="round" stroke-linejoin="round"/>
<path d="M466.69 147.083C466.69 146.995 467.129 145.414 468.144 142.408C469.139 139.464 470.322 138 470.764 137.405C472.27 135.374 473.42 134.014 474.376 133.634C475.108 133.257 475.64 132.858 475.972 132.637C476.128 132.547 476.26 132.503 476.661 132.192" stroke="black" stroke-width="5.95407" stroke-linecap="round" stroke-linejoin="round"/>
<path d="M454.86 125.412C453 126.43 451.504 128.012 450.518 129.596C450.084 130.294 449.898 130.993 449.411 132.717C448.966 134.007 448.701 135.769 448.501 137.02C448.478 137.242 448.478 137.505 448.478 137.776" stroke="black" stroke-width="5.95407" stroke-linecap="round" stroke-linejoin="round"/>
<path d="M481.715 204.253C483.164 204.033 486.188 203.588 487.6 203.39C490.052 203.046 491.95 202.836 492.48 202.681C493 202.529 494.379 202.13 496.852 201.093C498.253 200.505 499.852 199.573 502.158 197.892C504.464 196.212 507.404 193.755 509.401 191.875C511.398 189.995 512.363 188.767 512.97 187.958C514.286 186.206 514.95 185.201 515.505 183.851C516.428 181.605 516.899 180.106 517.389 178.886C517.507 178.59 517.697 178.332 518.292 176.793C518.887 175.253 519.896 172.445 520.482 170.472C521.367 167.491 521.335 166.01 521.466 164.557C521.566 163.452 521.861 161.612 521.997 159.457C522.132 157.301 522.132 154.888 522.111 153.491C522.075 151.205 521.824 149.796 521.624 148.596C521.089 145.386 519.564 143.363 519.077 142.809C518.503 142.156 517.399 141.151 516.441 140.416C515.455 139.66 514.735 139.463 513.804 139.108C512.835 138.738 511.765 138.399 510.791 138.066C510.092 137.827 509.196 137.601 508.353 137.379C508.174 137.332 508.042 137.29 507.974 137.202C507.834 137.019 507.863 136.715 507.489 135.989C506.62 134.301 505.079 132.247 503.75 130.609C502.743 129.367 502.192 128.606 501.638 127.963C500.922 127.133 499.626 125.774 498.912 124.95C498.142 124.06 497.539 123.862 496.963 123.53C496.213 123.099 495.59 122.844 494.858 122.599C494.046 122.327 493.242 122.179 491.914 122.045C491.069 121.959 489.175 121.823 486.872 121.866C485.789 121.887 485.395 122.089 484.998 121.957C483.625 121.502 482.827 120.142 482.073 119.499C481.152 118.713 480.566 118.148 478.157 116.555C476.313 115.336 474.405 114.423 473.873 114.355C473.291 114.282 472.589 114.157 467.268 114.155C464.685 114.155 464.168 114.51 462.842 114.996C461.404 115.522 460.491 116.058 459.428 116.79C458.659 117.32 457.699 116.374 456.637 116.041C454.68 115.425 453.931 115.398 453.09 115.286C452.518 115.21 450.927 115.175 448.298 115.329C445.503 115.492 443.826 116.193 443.362 116.326C441.932 116.736 439.178 117.874 438.177 118.386C436.419 119.285 435.586 120.312 434.5 121.396C433.456 122.437 432.66 123.987 431.996 125.138C431.055 126.769 430.353 128.954 429.976 129.929C429.542 131.05 429.157 132.1 429.044 133.385C428.933 134.667 429.021 136.313 429.154 136.71C429.199 136.975 429.199 137.37 429.199 137.777" stroke="black" stroke-width="5.95407" stroke-linecap="round" stroke-linejoin="round"/>
<path d="M443.473 193.082C442.798 197.132 442.123 201.182 441.315 204.465C440.507 207.748 439.587 210.142 438.898 211.712C438.209 213.283 437.779 213.958 435.134 219.061C432.488 224.165 427.64 233.677 423.24 241.431C418.841 249.184 415.036 254.892 412.892 258.016C410.457 261.563 409.816 262.378 409.199 263.705C407.397 267.585 405.793 269.932 404.641 271.399C403.238 273.185 401.635 276.013 400.428 277.656C398.783 279.738 398.162 280.296 397.884 280.667C397.728 280.854 397.544 281.038 397.354 281.414" stroke="black" stroke-width="5.95407" stroke-linecap="round" stroke-linejoin="round"/>
<path d="M491.452 205.169C491.452 205.292 491.452 205.415 490.839 207.687C490.225 209.96 488.998 214.378 488.335 216.839C487.672 219.299 487.61 219.667 486.627 222.465C485.645 225.263 483.742 230.479 481.259 236.234C478.775 241.99 475.768 248.127 471.151 255.86C466.533 263.593 460.397 272.737 453.921 281.16C447.446 289.583 440.818 297.009 437.251 301.049C432.778 306.113 432.071 306.887 431.235 307.663C431.016 307.88 430.832 308.126 430.645 308.313C430.459 308.501 430.274 308.624 430.085 308.936" stroke="black" stroke-width="5.95407" stroke-linecap="round" stroke-linejoin="round"/>
<path d="M120.242 189.143C120.179 189.143 119.175 189.927 116.854 191.429C113.219 193.782 107.776 194.371 103.544 193.976C100.016 193.647 96.3371 190.335 95.2922 186.962C92.3615 177.5 103.11 170.334 109.649 166.142C115.046 162.682 123.007 162.723 127.856 167.054C137.574 175.732 129.894 192.653 125.765 201.932C122.643 208.946 119.317 216.078 114.779 222.308C113.949 223.38 112.762 224.299 112.068 225.453" stroke="black" stroke-width="5.95407" stroke-linecap="round" stroke-linejoin="round"/>
<path d="M118.821 219.18C118.915 219.337 119.009 219.494 121.567 222.272C124.124 225.051 129.143 230.446 133.156 234.354C137.169 238.263 140.023 240.521 141.807 241.889C143.591 243.256 144.219 243.664 145.797 244.548C147.374 245.433 149.884 246.782 151.271 247.508C153.147 248.49 153.608 248.709 154.02 248.915C154.519 249.164 154.939 249.185 155.335 249.406C155.446 249.47 155.572 249.532 155.683 249.596C155.795 249.66 155.889 249.722 156.081 249.882" stroke="black" stroke-width="5.95407" stroke-linecap="round" stroke-linejoin="round"/>
<path d="M19.144 212.152C19.6392 210.585 18.7697 208.912 17.2019 208.417C15.6341 207.922 13.9617 208.791 13.4664 210.359L16.3052 211.256L19.144 212.152ZM60.7736 104.289L60.2282 107.216C62.7872 107.692 65.3552 108.118 67.9321 108.493L68.3607 105.547L68.7893 102.601C66.2904 102.238 63.8003 101.825 61.3189 101.362L60.7736 104.289ZM68.3607 105.547L67.9321 108.493C70.4279 108.856 72.9143 109.273 75.3914 109.742L75.9458 106.817L76.5002 103.892C73.9396 103.407 71.3693 102.977 68.7893 102.601L68.3607 105.547ZM75.9458 106.817L75.3914 109.742C77.9095 110.219 80.4274 110.698 82.9452 111.177L83.5017 108.252L84.0583 105.328C81.539 104.848 79.0197 104.37 76.5002 103.892L75.9458 106.817ZM83.5017 108.252L82.9452 111.177C85.4804 111.659 88.0194 112.12 90.5623 112.559L91.0686 109.625L91.575 106.691C89.0656 106.258 86.56 105.804 84.0583 105.328L83.5017 108.252ZM91.0686 109.625L90.5623 112.559C93.0617 112.99 95.5552 113.456 98.0427 113.955L98.6288 111.036L99.2149 108.118C96.6744 107.607 94.1277 107.132 91.575 106.691L91.0686 109.625ZM98.6288 111.036L98.0427 113.955C100.616 114.472 103.204 114.91 105.805 115.268L106.212 112.319L106.618 109.37C104.137 109.028 101.669 108.61 99.2149 108.118L98.6288 111.036ZM106.212 112.319L105.805 115.268C108.239 115.604 110.638 116.07 113.002 116.666L113.729 113.779L114.457 110.892C111.88 110.243 109.267 109.736 106.618 109.37L106.212 112.319ZM113.729 113.779L113.002 116.666C114.91 117.147 116.418 118.07 117.62 119.443L119.86 117.482L122.099 115.52C120.069 113.201 117.49 111.657 114.457 110.892L113.729 113.779ZM119.86 117.482L117.62 119.443C118.665 120.636 119.068 121.94 118.859 123.583L121.812 123.959L124.765 124.335C125.186 121.033 124.287 118.019 122.099 115.52L119.86 117.482ZM121.812 123.959L118.859 123.583C118.563 125.904 118.087 128.229 117.427 130.559L120.292 131.369L123.156 132.18C123.894 129.574 124.431 126.959 124.765 124.335L121.812 123.959ZM120.292 131.369L117.427 130.559C116.741 132.983 116.001 135.391 115.207 137.782L118.032 138.72L120.857 139.659C121.679 137.184 122.446 134.691 123.156 132.18L120.292 131.369ZM118.032 138.72L115.207 137.782C114.381 140.268 113.625 142.775 112.939 145.305L115.812 146.084L118.685 146.864C119.342 144.441 120.066 142.039 120.857 139.659L118.032 138.72ZM115.812 146.084L112.939 145.305C112.286 147.711 111.546 150.09 110.72 152.441L113.529 153.428L116.338 154.415C117.212 151.927 117.994 149.41 118.685 146.864L115.812 146.084ZM113.529 153.428L110.72 152.441C109.848 154.923 109.059 157.432 108.354 159.966L111.223 160.764L114.091 161.562C114.76 159.155 115.509 156.772 116.338 154.415L113.529 153.428ZM111.223 160.764L108.354 159.966C108.068 160.994 107.788 161.653 107.453 162.373C107.108 163.117 106.638 164.057 106.136 165.395L108.924 166.44L111.712 167.485C112.111 166.419 112.447 165.757 112.853 164.882C113.271 163.983 113.689 163.005 114.091 161.562L111.223 160.764ZM101.455 193.33L98.5886 192.525C98.2936 193.576 97.496 195.647 96.5872 197.938C95.7279 200.104 94.7801 202.441 94.3332 203.739L97.1482 204.708L99.9631 205.677C100.351 204.55 101.21 202.432 102.122 200.133C102.984 197.958 103.923 195.553 104.321 194.134L101.455 193.33ZM97.1482 204.708L94.3332 203.739C93.4845 206.205 92.6903 208.688 91.9507 211.188L94.8054 212.033L97.6602 212.877C98.3751 210.46 99.1427 208.06 99.9631 205.677L97.1482 204.708ZM94.8054 212.033L91.9507 211.188C91.236 213.604 90.4675 216.003 89.645 218.385L92.4589 219.356L95.2729 220.328C96.1245 217.862 96.9202 215.379 97.6602 212.877L94.8054 212.033ZM92.4589 219.356L89.645 218.385C88.7902 220.86 88.0037 223.357 87.2857 225.875L90.1486 226.692L93.0116 227.508C93.6998 225.094 94.4536 222.701 95.2729 220.328L92.4589 219.356ZM90.1486 226.692L87.2857 225.875C86.5926 228.306 85.8551 230.723 85.0733 233.126L87.9042 234.048L90.7352 234.969C91.5396 232.496 92.2984 230.009 93.0116 227.508L90.1486 226.692ZM87.9042 234.048L85.0733 233.126C84.2812 235.561 83.485 237.994 82.6846 240.426L85.5124 241.357L88.3402 242.288C89.1427 239.849 89.941 237.41 90.7352 234.969L87.9042 234.048ZM85.5124 241.357L82.6846 240.426C81.8856 242.854 81.0773 245.278 80.2597 247.699L83.0802 248.652L85.9007 249.604C86.7232 247.169 87.5364 244.73 88.3402 242.288L85.5124 241.357ZM83.0802 248.652L80.2597 247.699C79.6831 249.406 78.6852 250.536 77.1965 251.272L78.5146 253.941L79.8327 256.61C82.7913 255.149 84.8371 252.753 85.9007 249.604L83.0802 248.652ZM78.5146 253.941L77.1965 251.272C75.5489 252.085 73.8275 252.337 71.9368 252.013L71.4351 254.948L70.9334 257.882C74.0348 258.412 77.0331 257.993 79.8327 256.61L78.5146 253.941ZM71.4351 254.948L71.9368 252.013C69.5127 251.599 67.091 251.093 64.6714 250.496L63.9579 253.386L63.2443 256.276C65.8022 256.908 68.3653 257.443 70.9334 257.882L71.4351 254.948ZM63.9579 253.386L64.6714 250.496C62.1495 249.873 59.6168 249.294 57.0736 248.758L56.4601 251.672L55.8466 254.585C58.3229 255.106 60.7888 255.67 63.2443 256.276L63.9579 253.386ZM56.4601 251.672L57.0736 248.758C54.6025 248.238 52.1434 247.669 49.6963 247.051L48.9673 249.937L48.2382 252.823C50.762 253.461 53.2982 254.048 55.8466 254.585L56.4601 251.672ZM48.9673 249.937L49.6963 247.051C47.221 246.425 44.7487 245.787 42.2797 245.136L41.5205 248.015L40.7612 250.893C43.2503 251.55 45.7427 252.193 48.2382 252.823L48.9673 249.937ZM41.5205 248.015L42.2797 245.136C39.7859 244.478 37.2875 243.84 34.7843 243.22L34.0692 246.11L33.3542 249C35.8278 249.612 38.2969 250.243 40.7612 250.893L41.5205 248.015ZM34.0692 246.11L34.7843 243.22C32.2905 242.603 29.7951 241.993 27.298 241.39L26.5989 244.284L25.8998 247.178C28.3863 247.778 30.8711 248.386 33.3542 249L34.0692 246.11ZM26.5989 244.284L27.298 241.39C24.7881 240.784 22.2688 240.2 19.74 239.639L19.0953 242.545L18.4506 245.452C20.9431 246.005 23.4262 246.58 25.8998 247.178L26.5989 244.284ZM19.0953 242.545L19.74 239.639C17.8065 239.21 16.2376 238.309 14.9486 236.918L12.7645 238.941L10.5804 240.964C12.7112 243.264 15.3628 244.767 18.4506 245.452L19.0953 242.545ZM12.7645 238.941L14.9486 236.918C13.7947 235.672 13.3127 234.303 13.4285 232.623L10.4585 232.419L7.48856 232.214C7.2593 235.538 8.31464 238.518 10.5804 240.964L12.7645 238.941ZM10.4585 232.419L13.4285 232.623C13.5876 230.317 13.9738 228.018 14.5903 225.722L11.7151 224.95L8.83989 224.178C8.12605 226.836 7.67463 229.516 7.48856 232.214L10.4585 232.419ZM11.7151 224.95L14.5903 225.722C15.2362 223.316 15.9711 220.938 16.7951 218.587L13.9856 217.602L11.176 216.618C10.303 219.109 9.52427 221.629 8.83989 224.178L11.7151 224.95ZM13.9856 217.602L16.7951 218.587C17.1998 217.432 17.5641 216.514 17.9516 215.509C18.3372 214.509 18.7304 213.462 19.144 212.152L16.3052 211.256L13.4664 210.359C13.1077 211.495 12.7655 212.409 12.3964 213.366C12.0293 214.318 11.6198 215.351 11.176 216.618L13.9856 217.602ZM36.4095 144.04L39.2908 144.789C39.9279 142.339 40.6059 139.901 41.3247 137.475L38.4703 136.629L35.6159 135.783C34.8781 138.273 34.1822 140.776 33.5283 143.291L36.4095 144.04ZM38.4703 136.629L41.3247 137.475C42.0521 135.02 42.7835 132.567 43.519 130.114L40.6674 129.259L37.8159 128.404C37.0785 130.862 36.3452 133.322 35.6159 135.783L38.4703 136.629ZM40.6674 129.259L43.519 130.114C44.2482 127.683 45.0082 125.261 45.7991 122.849L42.9702 121.921L40.1413 120.994C39.3347 123.454 38.5595 125.924 37.8159 128.404L40.6674 129.259ZM42.9702 121.921L45.7991 122.849C46.5999 120.406 47.3926 117.961 48.1771 115.513L45.3422 114.604L42.5072 113.696C41.7266 116.131 40.938 118.564 40.1413 120.994L42.9702 121.921ZM45.3422 114.604L48.1771 115.513C48.8754 113.335 49.845 111.335 51.0843 109.504L48.619 107.835L46.1536 106.167C44.589 108.478 43.374 110.992 42.5072 113.696L45.3422 114.604ZM48.619 107.835L51.0843 109.504C52.1154 107.981 53.1772 107.378 54.269 107.217L53.8372 104.272L53.4055 101.326C50.3436 101.775 47.9264 103.548 46.1536 106.167L48.619 107.835ZM53.8372 104.272L54.269 107.217C55.3156 107.064 56.1377 106.934 56.7131 106.829C56.991 106.779 57.267 106.724 57.4987 106.665C57.5999 106.64 57.7902 106.59 57.9964 106.51C58.086 106.475 58.3096 106.385 58.5618 106.224C58.688 106.143 58.9156 105.986 59.1496 105.734C59.3699 105.497 59.7682 104.991 59.9047 104.217L56.9729 103.7L54.0412 103.183C54.1768 102.414 54.5722 101.913 54.7876 101.681C55.0167 101.435 55.2374 101.282 55.3548 101.207C55.5891 101.058 55.7868 100.98 55.8426 100.959C55.9808 100.905 56.0711 100.885 56.0399 100.893C56.007 100.901 55.8892 100.927 55.6446 100.972C55.1747 101.058 54.4358 101.175 53.4055 101.326L53.8372 104.272ZM56.9729 103.7L59.9047 104.217C59.7117 105.311 59.0037 105.927 58.6019 106.189C58.2138 106.441 57.8612 106.539 57.7151 106.576C57.4047 106.654 57.16 106.659 57.1149 106.66C56.9727 106.664 56.8899 106.653 56.9416 106.658C57.0083 106.664 57.174 106.684 57.4773 106.731C58.0643 106.822 58.9747 106.982 60.2282 107.216L60.7736 104.289L61.3189 101.362C60.0522 101.126 59.0691 100.953 58.3892 100.848C58.0591 100.796 57.748 100.753 57.4946 100.729C57.3862 100.719 57.1825 100.702 56.9586 100.708C56.8727 100.71 56.5969 100.718 56.2652 100.801C56.1084 100.841 55.7477 100.942 55.3539 101.198C54.9463 101.464 54.235 102.084 54.0412 103.183L56.9729 103.7Z" fill="black"/>
<path d="M29.7495 203.786C28.9953 206.236 25.5095 216.144 24.974 218.58C24.4385 221.017 25.2366 222.787 27.3683 223.891C29.5 224.995 31.8247 225.795 34.3423 226.291C36.86 226.787 39.3604 227.353 41.8436 227.99C44.3268 228.627 46.811 229.26 49.2963 229.889C51.7816 230.518 54.278 231.1 56.7856 231.637C59.2932 232.174 61.7842 232.78 64.2586 233.453C66.7329 234.127 69.2112 234.689 71.6933 235.14C74.1755 235.591 76.0177 234.78 77.2198 232.707C78.422 230.633 79.3713 228.362 80.0679 225.894C80.7644 223.425 81.5193 220.975 82.3324 218.544C83.1455 216.113 83.9541 213.68 84.7582 211.246C85.5622 208.811 86.3287 206.365 87.0576 203.907C87.7864 201.449 88.603 199.018 89.5072 196.616C90.4114 194.213 91.2088 191.777 91.8995 189.307C92.5902 186.837 93.3623 184.392 94.2157 181.974C95.0692 179.555 95.8334 177.108 96.5086 174.633C97.1837 172.158 97.927 169.704 98.7384 167.272C99.5499 164.84 100.306 162.391 101.008 159.924C101.71 157.458 102.471 155.01 103.292 152.581C104.113 150.152 104.896 147.711 105.641 145.258C106.387 142.805 107.079 140.35 107.719 137.893C108.358 135.437 107.523 133.798 105.215 132.978C102.906 132.158 100.495 131.497 97.9804 130.994C95.466 130.491 92.9456 130.022 90.4191 129.588C87.8927 129.154 85.37 128.699 82.8511 128.222C80.3323 127.744 77.8133 127.268 75.2941 126.793C72.7749 126.317 70.2462 125.896 67.708 125.529C65.1698 125.161 62.6404 124.744 60.1199 124.276C57.5993 123.809 56.3354 123.596 56.3281 123.637C56.3209 123.678 55.7359 124.198 54.5732 125.197C53.4105 126.196 52.4415 127.917 51.6661 130.361C50.8907 132.804 50.0772 135.236 49.2256 137.656C48.3739 140.077 47.6139 142.525 46.9455 145.001C46.2772 147.477 45.5594 149.938 44.7921 152.384M31.1994 196.479C31.9668 194.033 32.7469 191.591 33.5399 189.153C34.3329 186.715 33.4756 188.31 34.231 185.86" stroke="black" stroke-width="5.95407" stroke-linejoin="round"/>
<path d="M115.824 114.704C118.327 115.336 120.397 116.588 122.034 118.46C123.672 120.333 124.331 122.524 124.012 125.032C123.693 127.541 123.179 130.047 122.472 132.551C121.764 135.054 121.001 137.54 120.182 140.009C119.364 142.477 118.614 144.968 117.934 147.48C117.253 149.992 116.482 152.476 115.621 154.931C114.76 157.386 113.981 159.867 113.284 162.374M102.948 194.823C102.128 197.291 102.051 197.006 101.348 199.511C100.646 202.016 99.8723 204.499 99.0269 206.959C98.1814 209.419 97.3904 211.896 96.6536 214.391C95.9169 216.885 95.1245 219.362 94.2766 221.821C93.4286 224.281 92.6485 226.761 91.9362 229.264C91.2239 231.766 90.466 234.253 89.6626 236.727C88.8591 239.2 88.0515 241.672 87.2396 244.143C86.4278 246.614 85.6065 249.081 84.7757 251.544C83.945 254.008 82.4033 255.796 80.1507 256.91C77.8982 258.024 75.5076 258.365 72.979 257.932C70.4504 257.499 67.9256 256.971 65.4045 256.347C62.8833 255.724 60.3515 255.144 57.8091 254.608C55.2667 254.072 52.7365 253.485 50.2187 252.848C47.7009 252.211 45.1863 251.561 42.675 250.898C40.1636 250.234 37.6475 249.59 35.1267 248.965C32.6059 248.341 30.0834 247.723 27.5592 247.112C25.0349 246.502 22.5012 245.914 19.9579 245.349C17.4145 244.784 13.3171 241.133 11.8232 238.145" stroke="black" stroke-width="5.95407" stroke-linecap="round" stroke-linejoin="round"/>
<path d="M54.2407 165.135C55.0999 169.308 55.6652 171.764 56.0353 173.119C57.4497 178.297 57.1529 180.008 57.2468 180.938C57.3504 181.964 57.8354 182.613 58.0204 182.923C58.1108 183.074 58.3282 183.11 58.4844 183.05C59.6048 182.616 60.8052 180.823 64.3617 176.743C65.3931 175.559 66.4454 174.565 69.0331 171.73C70.9169 169.666 74.0754 166.44 75.8718 164.611C78.0027 162.442 79.5204 161.423 81.3475 160.154C83.5204 158.644 85.2295 156.711 87.1486 155.099C88.3892 154.056 90.7377 152.255 91.9576 151.159C92.1138 151.004 92.2365 150.82 92.3918 150.663C92.5471 150.507 92.7312 150.384 93.1068 150.072" stroke="black" stroke-width="5.95407" stroke-linecap="round" stroke-linejoin="round"/>
<path d="M76.9285 117.528C78.4013 117.651 80.8783 118.205 83.7886 118.949C85.5943 119.202 86.5948 119.263 87.4288 119.356C87.8947 119.388 88.447 119.388 89.016 119.388" stroke="black" stroke-width="5.95407" stroke-linecap="round" stroke-linejoin="round"/>
<path d="M44.98 238.717C45.137 238.471 45.2939 238.224 45.4421 238.097C45.5902 237.97 45.7248 237.97 45.8502 238.015C45.9756 238.06 46.0877 238.149 46.1567 238.229C46.2699 238.36 46.2487 238.58 46.2035 238.818C46.1706 238.991 46.0904 239.124 45.9664 239.226C45.8996 239.281 45.7751 239.261 45.6949 239.227C45.3696 239.091 45.2973 238.718 45.2746 238.583C45.2742 238.514 45.2967 238.447 45.3306 238.379C45.3646 238.31 45.4095 238.243 45.4557 238.106" stroke="black" stroke-width="5.95407" stroke-linecap="round" stroke-linejoin="round"/>
<path d="M16.5355 210.419C17.2375 210.156 19.4418 209.582 22.3216 208.873C23.5491 208.571 24.7679 207.723 26.4949 206.528C27.9249 205.538 28.3204 204.926 28.7877 204.46C29.3879 203.863 30.2269 203.022 30.6271 202.091C30.9435 201.355 31.0698 200.453 31.1163 197.822C31.1518 195.817 30.5407 195.045 30.0102 193.915C29.6511 193.151 28.9904 192.606 28.5916 191.963C28.1694 191.283 27.3099 190.615 25.761 189.462C23.6074 187.859 22.7869 187.908 21.3975 187.465C19.2422 186.778 17.2495 186.754 16.0575 186.863C13.0786 187.138 11.8875 187.727 11.2194 188.038C10.7219 188.27 9.01574 189.402 7.67492 190.651C6.91809 191.355 5.64142 194.135 5.03649 195.923C4.75299 196.761 4.43821 197.915 4.23878 199.724C3.93468 202.482 4.1271 204.39 4.06062 204.854C3.98853 205.357 4.30127 206.335 5.05112 208.057C6.78164 212.03 7.35916 212.807 7.73741 213.475C8.04576 214.02 9.21251 215.987 10.2841 217.374C10.9502 218.218 11.3052 218.528 11.5478 218.837C11.7027 219.015 11.9221 219.234 12.1481 219.46" stroke="black" stroke-width="5.95407" stroke-linecap="round" stroke-linejoin="round"/>
<path d="M28.2309 188.483C29.3796 187.864 30.3555 187.51 31.6345 187.024C33.8457 186.184 35.5845 185.295 36.1156 184.853C36.9137 184.187 37.8885 183.038 38.4443 182.48C38.9548 181.968 39.5292 181.043 39.9294 180.353C40.328 179.666 40.6805 178.299 40.8394 175.001C40.8988 173.769 40.5529 172.976 40.1993 171.718C39.15 167.984 38.1598 167.259 37.2311 166.218C36.3239 165.201 34.7509 164.289 33.9286 163.646C33.1843 163.064 32.3125 162.914 31.2044 162.559C30.2681 162.259 29.2999 161.984 26.4514 161.562C23.684 161.153 21.7628 161.538 21.2988 161.648C20.2054 161.909 17.7463 162.553 15.9595 163.199C15.3092 163.434 14.3215 163.752 13.2373 164.238C12.4404 164.596 11.1785 165.564 9.56249 166.848C8.08986 168.017 7.53829 168.626 6.58569 170.174C5.59148 171.79 5.00955 173.5 4.39066 174.718C3.93562 175.614 3.81298 176.558 3.45933 177.796C2.68011 180.525 3.05782 181.655 3.14689 182.387C3.26638 183.369 3.67737 184.402 3.922 185.311C4.16697 186.222 4.34213 187.191 4.54289 187.994C4.65324 188.88 4.83139 190.028 5.20632 190.653C5.318 190.786 5.40575 190.962 5.62911 191.143" stroke="black" stroke-width="5.95407" stroke-linecap="round" stroke-linejoin="round"/>
<path d="M37.938 165.084C38.5522 164.731 40.5013 163.759 42.8931 161.524C43.5084 160.95 43.8291 160.214 44.3821 159.022C45.0911 157.494 44.9844 155.301 44.9625 153.507C44.9479 152.318 44.676 151.525 44.1455 150.267C43.0038 147.558 42.5035 147.005 42.1718 146.494C41.8468 145.994 40.9586 145.104 40.0898 144.455C39.4815 144.002 38.8713 143.636 38.3169 143.391C37.6717 143.106 36.8797 142.663 34.777 141.93C33.9828 141.653 33.3325 141.684 32.3812 141.574C30.3748 141.341 29.5647 141.817 28.4585 142.082C27.6378 142.278 27.0386 142.524 26.4842 142.769C25.7673 143.085 25.0895 143.588 24.2911 144.252C23.7865 144.672 23.0075 145.005 22.2742 145.538C21.5757 146.045 20.9228 146.734 20.1257 147.795C19.3191 148.87 19.0163 149.789 18.6613 150.567C18.3973 151.146 18.1733 151.653 18.0404 152.736C17.825 154.49 17.5086 154.977 17.353 155.641C17.2005 156.293 17.1097 156.926 17.0426 157.503C16.9786 158.054 16.7986 158.742 16.6883 159.387C16.6657 159.718 16.6218 160.074 16.5553 160.471C16.5327 160.694 16.5327 160.957 16.5327 161.228" stroke="black" stroke-width="5.95407" stroke-linecap="round" stroke-linejoin="round"/>
<path d="M84.6138 256.115C87.3605 260.579 90.1073 265.042 91.8656 267.556C93.6239 270.07 94.3106 270.499 97.6686 273.424C101.027 276.349 107.035 281.757 112.062 285.873C117.088 289.989 120.951 292.65 123.37 294.235C125.789 295.821 126.647 296.25 128.849 297.501C131.051 298.752 134.57 300.812 139.473 303.032C144.376 305.252 150.557 307.57 153.912 308.807C158.193 310.385 159.431 310.478 161.122 310.953C162.116 311.17 163.161 311.43 164.156 311.733C164.636 311.864 165.065 311.95 166.028 312.299" stroke="black" stroke-width="5.95407" stroke-linecap="round" stroke-linejoin="round"/>
<path d="M98.0026 241.422C97.1243 242.676 95.9818 244.076 94.8735 245.263C94.1239 246.066 93.4116 246.425 92.3194 247.075C91.9442 247.298 91.7301 247.441 91.4307 247.614C90.8672 247.94 89.522 248.799 87.8747 249.654C86.9912 250.112 86.5354 250.387 86.1224 250.546C86.0269 250.578 85.9328 250.609 85.8373 250.641C85.7418 250.673 85.6477 250.705 85.3606 250.832" stroke="black" stroke-width="5.95407" stroke-linecap="round" stroke-linejoin="round"/>
<path d="M67.4433 88.8895C67.382 88.8281 67.3206 88.7668 67.5038 87.876C67.6869 86.9853 68.1165 85.267 68.3992 82.4794C68.6818 79.6918 68.8046 75.887 69.117 71.595" stroke="black" stroke-width="5.95407" stroke-linecap="round" stroke-linejoin="round"/>
<path d="M94.4114 95.3992C94.5341 95.3992 96.4997 92.8832 99.5356 88.7948C100.669 87.2225 100.976 86.6702 101.502 85.8947C102.028 85.1192 102.765 84.1374 103.524 83.1257" stroke="black" stroke-width="5.95407" stroke-linecap="round" stroke-linejoin="round"/>
<path d="M37.8788 100.232C37.8788 100.17 37.8788 100.109 36.5901 97.3773C35.3014 94.6455 32.7239 89.2451 31.3655 86.3404C30.007 83.4357 29.9456 83.1902 29.8834 82.941C29.8211 82.6918 29.7597 82.4464 29.5105 81.8215" stroke="black" stroke-width="5.95407" stroke-linecap="round" stroke-linejoin="round"/>
<path d="M23.3727 118.642C23.1272 118.642 20.3619 117.783 15.9035 116.419C11.2331 115.421 9.05545 114.8 8.68446 114.552C8.49756 114.428 8.31346 114.305 8.12378 114.179" stroke="black" stroke-width="5.95407" stroke-linecap="round" stroke-linejoin="round"/>
<path d="M34.0841 284.739C37.0676 286.231 38.9116 287.175 40.386 288.34C41.5868 289.289 43.5716 291.129 44.6771 292.187C45.9847 293.439 46.1814 293.912 46.315 294.133C46.5702 294.556 45.2547 294.445 44.4584 294.731C42.3188 295.501 40.1148 296.79 39.1403 297.544C38.5716 297.984 37.1101 299.266 35.1391 300.838C33.679 302.002 32.5844 303.124 31.2988 304.41C28.6581 307.052 27.1733 307.296 26.2878 307.826C25.1322 308.519 23.2751 308.891 22.498 309.157C21.5469 309.483 20.4379 309.468 19.8164 309.601C19.4187 309.685 19.0619 309.778 18.7967 309.801C18.5109 309.825 18.3081 309.163 17.16 306.664C16.8756 306.045 16.6275 305.708 15.8345 304.738C13.7227 302.154 12.1923 300.429 11.9935 300.142C11.5064 299.438 11.0409 298.835 10.5756 297.971C10.4663 297.769 10.3761 297.638 10.3968 297.549C10.5738 296.778 13.3755 297.106 16.6335 295.978C17.7703 295.585 18.7003 294.979 20.069 294.295C21.913 293.374 23.3988 292.497 24.2836 292.055C26.2561 291.069 27.8753 288.909 28.5201 288.353C29.1028 287.851 29.9573 287.401 31.3074 286.517C31.8598 286.119 32.6934 285.505 33.2106 285.145C33.7278 284.784 33.9033 284.697 34.2171 284.606" stroke="black" stroke-width="5.95407" stroke-linecap="round" stroke-linejoin="round"/>
<path d="M62.9353 327.15C64.076 329.037 65.2168 330.924 66.287 332.948C67.3573 334.973 68.3225 337.079 68.9294 338.515C70.2143 341.555 70.6439 342.743 71.0221 343.634C71.4434 344.626 72.2845 345.717 72.5723 345.984C72.9064 346.293 73.6539 344.794 75.3523 343.404C76.4043 342.542 77.9722 341.53 78.9168 340.812C80.2273 339.816 81.1431 338.899 82.557 337.993C84.0456 337.038 85.1369 336.856 85.3364 336.79C85.5346 336.725 84.9654 336.018 83.616 333.943C83.0179 333.023 82.4048 331.479 81.8238 330.338C80.2117 327.171 79.2006 326.135 78.7805 325.557C78.1932 324.749 77.4324 322.728 76.8966 321.614C76.6079 321.013 75.8795 320.726 75.1702 320.525C73.6755 320.102 72.3775 321.077 71.6257 321.431C69.883 322.253 69.2319 322.805 68.3232 323.16C67.5468 323.464 66.4426 324.265 65.7073 324.646C65.064 324.978 64.4456 325.244 63.868 325.532C63.7343 325.599 63.6027 325.643 63.4691 325.709C63.3355 325.776 63.2039 325.863 62.9353 325.954" stroke="black" stroke-width="5.95407" stroke-linecap="round" stroke-linejoin="round"/>
<path d="M77.5609 382.328C76.8589 384.96 76.4095 386.58 75.6185 387.593C73.8786 389.821 71.9796 390.968 71.493 391.255C71.0466 391.519 70.1236 392.25 67.3914 393.376C65.4996 394.156 62.3778 394.809 60.686 395.26C58.2882 395.899 57.2246 396.064 56.2926 396.199C55.5404 396.307 54.741 396.421 54.275 396.508C53.0256 396.744 56.9028 399.12 58.366 400.448C58.7175 400.768 59.0301 400.981 59.8903 401.884C60.7505 402.786 62.1544 404.366 63.2068 405.443C65.6673 407.961 66.8742 408.692 67.7198 409.205C68.0866 409.427 68.4736 409.802 68.8499 410.2C69.7372 411.139 72.6337 410.559 74.3621 410.426C75.8776 410.309 78.0355 409.455 80.2047 408.592C82.3974 407.719 83.7591 407.28 85.0215 406.662C88.1819 405.114 89.5638 404.092 90.6533 403.226C91.6112 402.466 92.5366 401.167 93.3789 400.301C94.373 399.28 95.2408 397.755 95.663 396.691C96.509 394.556 97.3255 391.592 97.3927 391.304C97.6614 390.152 93.1748 390.044 91.6585 389.332C90.0759 388.589 88.0349 387.478 86.5165 386.584C85.4324 385.946 84.4771 384.811 82.2893 382.713C81.5235 381.978 80.8874 381.753 80.3549 381.332C79.9199 380.988 79.2919 380.91 78.7595 380.711C78.6197 380.659 78.4942 380.557 78.4703 380.577C78.5806 381.041 78.4038 381.529 78.2489 381.816C78.1818 381.971 78.1379 382.147 78.0927 382.328" stroke="black" stroke-width="5.95407" stroke-linecap="round" stroke-linejoin="round"/>
<path d="M116.136 12.6294C114.027 9.36764 111.713 5.61585 110.179 2.97705C108.905 3.84828 106.986 6.66811 103.631 9.46248C101.962 10.8535 99.5971 12.2659 97.1516 13.8C95.3301 14.9428 94.1048 15.6634 93.662 16.3366C93.4779 16.6164 93.4427 16.8786 93.6044 17.1743C93.9763 17.855 94.3185 18.4941 94.6272 18.9707C95.7206 20.6593 97.0455 22.9477 97.5403 23.9917C98.1307 25.2377 99.9414 28.2822 101.571 30.4706C102.471 31.6794 103.701 33.8184 105.945 35.6478C107.615 37.0091 108.651 37.5441 109.411 38.3405C110.032 38.9914 110.788 39.4864 111.333 40.2318C112.015 41.1635 112.502 42.3533 115.917 44.4624C117.646 45.5298 120.346 47.1254 121.917 47.9864C123.488 48.8474 123.984 49.0978 124.323 48.8418C125.716 47.7874 128.402 44.993 130.865 42.8557C132.041 41.8348 133.024 41.0804 133.65 40.6902C135.398 39.6014 139.336 38.2733 139.068 37.0342C139.035 36.8789 138.855 36.751 138.506 36.5051C136.926 35.3912 135.86 34.8858 134.944 34.1824C134.014 33.4683 132.899 32.7356 132.187 31.9509C131.596 31.3 129.813 29.7313 127.863 27.8448C126.918 26.9299 125.261 25.273 123.073 22.4845C120.885 19.696 118.246 15.8912 116.136 12.6294Z" stroke="black" stroke-width="5.95407" stroke-linecap="round" stroke-linejoin="round"/>
<path d="M523.759 398.251C522.442 401.585 521.413 403.786 520.64 404.912C520.205 405.546 519.736 406.345 518.566 407.586C517.396 408.826 515.553 410.493 514.187 411.659C512.034 413.496 510.602 414.336 509.168 414.954C507.038 415.872 505.37 416.243 504.663 416.376C503.77 416.543 501.485 416.687 498.518 416.577C496.862 416.515 495.888 416.332 494.696 416.267C491.826 416.108 490.88 415.58 488.977 414.917C488.244 414.662 486.898 413.989 484.951 413.082C483.484 412.399 482.723 411.77 482.281 411.438C480.772 410.306 478.515 408.757 476.966 407.562C475.756 406.63 474.569 405.699 473.839 405.079C472.797 404.194 472.484 403.836 472.264 403.747C471.889 403.594 471.599 404.409 470.434 405.158C469.471 405.776 467.645 406.696 466.258 407.544C463.885 408.995 462.122 410.3 460.683 411.076C458.888 412.042 456.363 413.801 455.072 414.314C453.286 415.024 452.853 415.224 452.631 415.444C451.986 416.085 454.044 417.303 456.097 418.851C457.899 420.21 459.32 420.764 459.958 421.028C461.212 421.546 462.419 422.225 463.26 422.513C463.826 422.707 464.941 423.021 466.972 423.662C469.498 424.459 471.24 424.708 472.429 424.818C474.944 425.05 476.999 425.373 477.862 425.395C478.682 425.416 480.359 425.506 482.441 425.528C483.559 425.54 484.18 425.639 485.764 425.486C489.292 425.144 491.76 424.665 492.135 424.598C493.037 424.439 494.983 424.134 496.543 423.801C498.085 423.472 499.865 422.983 500.777 422.604C501.646 422.244 502.659 422.095 504.981 420.902C506.152 420.301 507.047 419.704 508.464 418.795C509.307 418.255 509.884 417.665 510.703 416.978C511.813 416.048 512.455 415.583 512.988 415.115C513.565 414.609 514.138 413.854 514.716 413.188C515.17 412.664 515.954 412.038 516.378 411.415C516.811 410.78 517.287 410.265 517.62 409.665C517.974 409.027 518.129 408.358 518.307 407.826C518.489 407.278 518.794 406.675 519.148 405.987C519.72 404.875 519.946 404.236 520.477 403.506C521.306 402.365 521.94 401.577 522.184 401.023C522.469 400.378 522.825 399.674 523.093 398.94C523.197 398.658 523.315 398.385 523.382 398.142C523.448 397.9 522.962 397.852 522.171 397.677C520.298 397.261 518.14 396.218 516.48 395.2C515.35 394.508 513.799 393.471 511.873 392.43C510.417 391.644 509.448 391.561 508.076 391.206C507.083 390.949 504.193 390.191 502.621 389.654C502.021 389.449 501.117 389.255 500.384 389.033C500.234 388.988 500.096 389.12 500.028 389.231C499.897 389.446 499.697 390.53 499.101 392.387C498.11 395.471 497.392 396.164 496.816 397.14C496.584 397.533 496.153 398.246 495.204 399.548C492.97 402.614 492.209 403.561 491.476 404.497C490.882 405.255 490.17 406.047 489.504 406.625C488.958 407.098 488.396 407.688 487.864 408.088C487.359 408.467 486.934 408.93 486.401 409.263C485.871 409.595 484.767 409.86 483.876 410.171C483.522 410.217 483.21 410.261 482.944 410.327C482.811 410.35 482.679 410.35 482.544 410.35" stroke="black" stroke-width="5.95407" stroke-linecap="round"/>
<path d="M529.199 342.245C529.262 342.214 529.324 342.183 531.082 342.104C532.84 342.025 536.29 341.899 538.193 341.866C540.096 341.833 540.347 341.895 541.182 342.241C542.017 342.587 543.428 343.215 544.83 344.087C546.231 344.959 547.58 346.057 548.322 346.669C549.166 347.366 549.632 348.132 550.28 349.224C551.119 350.635 552.042 351.906 552.217 352.398C552.376 352.846 552.675 353.52 552.882 354.22C552.977 354.54 553.34 356.046 553.783 358.137C554.097 359.618 554.07 361.282 554.071 362.519C554.073 364.544 553.975 367.024 554.102 366.786C554.402 366.224 554.799 365.535 555.726 364.795C556.487 364.188 558.002 363.334 558.902 362.802C560.068 362.115 560.972 361.577 561.954 360.833C562.521 360.403 563.724 359.426 565.544 358.159C567.148 357.043 567.851 356.885 568.579 356.458C569.513 355.909 569.975 355.459 570.403 355.142C570.503 355.068 570.515 354.921 570.499 354.794C570.468 354.531 570.2 354.004 569.9 353.277C569.67 352.719 569.094 351.664 567.786 349.173C566.914 347.514 565.505 345.114 564.716 343.776C563.926 342.437 563.77 342.249 563.344 341.65C562.918 341.051 562.228 340.048 561.496 339.123C560.076 337.329 558.922 336.354 558.384 336.022C557.768 335.641 557.086 335.183 555.645 334.312C554.6 333.68 553.726 333.28 552.981 332.963C552.348 332.694 550.82 332.173 549.717 331.869C549.02 331.677 548.152 331.316 547.31 330.999C546.056 330.526 545.204 330.428 544.031 330.175C542.601 329.865 540.702 329.445 539.896 329.397C539.178 329.355 538.674 329.287 538.437 329.271C538.217 329.256 537.789 329.79 536.686 330.815C535.955 331.494 534.767 332.373 534.028 332.983C532.982 333.846 532.559 334.291 532.133 334.717C530.827 336.022 530.123 337.074 529.249 338.028C528.706 338.622 528.44 339.169 528.06 339.835C527.679 340.437 527.363 341.008 527.219 341.404C527.203 341.515 527.203 341.641 527.203 341.77" stroke="black" stroke-width="5.95407" stroke-linecap="round"/>
<path d="M318.429 75.3768C318.429 75.3329 318.429 75.289 318.758 73.8844C319.087 72.4798 319.745 69.7157 320.194 68.0066C320.643 66.2975 320.862 65.7271 321.458 64.5558C322.054 63.3845 323.019 61.6295 324.218 59.8699C325.417 58.1103 326.821 56.3992 327.961 55.1887C329.825 53.2101 331.145 52.291 331.896 51.5837C332.695 50.8315 333.626 50.2954 335.102 49.7437C336.123 49.3622 337.763 48.9725 338.994 48.571C341.044 47.9024 342.048 47.3253 342.929 46.9065C344.647 46.0896 346.168 45.6408 347.205 45.442C350.129 44.8811 350.823 45.0199 352.406 44.9315C356.265 44.7159 358.452 44.7978 357.766 44.7759C356.886 44.7478 356.103 44.3564 352.921 43.1851C352.193 42.917 351.938 42.7185 350.706 41.7945C349.474 40.8704 347.28 39.2032 346.04 38.3005C344.264 37.0071 343.209 36.6027 341.37 35.2745C340.542 34.6765 339.97 34.3851 339.327 33.8094C339.057 33.5669 338.728 33.4531 338.221 33.4963C337.879 33.5254 337.407 33.8027 335.294 34.53C333.18 35.2572 329.451 36.4857 327.31 37.1624C325.17 37.8391 324.731 37.9269 323.343 38.5425C321.954 39.158 319.628 40.2988 316.939 41.9174C314.249 43.5361 311.266 45.5982 309.005 47.3844C306.744 49.1706 305.296 50.6185 304.441 51.5179C303.585 52.4173 303.366 52.7244 302.595 54.0014C301.824 55.2784 300.507 57.516 299.676 59.0416C298.46 61.2726 298.045 62.8713 297.691 64.7041C296.948 68.559 297.157 69.2597 297.245 69.5249C297.491 70.2694 299.404 71.2898 301.556 72.4033C305.74 74.5685 306.99 74.0898 307.79 74.2021C308.502 74.302 310.085 74.4887 311.578 74.601C312.532 74.712 313.42 74.7559 314.453 74.8224C315.312 74.845 316.847 74.845 318.695 74.712" stroke="black" stroke-width="5.95407" stroke-linecap="round"/>
<path d="M423.526 47.3258C425.358 50.0186 425.869 50.8669 426.487 52.4087C427.435 54.7714 427.62 56.7605 427.626 57.3719C427.639 58.5479 427.779 60.0928 427.618 62.5577C427.527 63.9564 427.146 66.4484 426.848 68.1148C426.41 70.5671 425.789 71.807 425.354 72.7187C424.967 73.5276 424.34 74.7853 423.674 76.3415C422.847 78.2733 422.172 79.5802 421.566 80.2006C420.804 80.982 419.613 82.2957 418.929 83.3094C418.368 84.141 416.709 85.4936 415.638 86.58C414.608 87.6239 413.316 88.8234 412.189 90.1059C411.336 91.0763 410.872 91.4975 410.363 91.8565C409.966 92.1366 407.965 91.5333 405.282 90.7925C403.461 90.2898 401.67 89.6763 400.739 89.4241C400.012 89.2274 399.051 88.8436 398.005 88.5236C397.224 88.2849 396.619 88.0872 396.241 87.8274C395.747 87.4885 397.596 86.4628 400.722 83.4547C402.584 81.6622 403.442 80.2136 403.941 79.5114C404.694 78.452 405.649 77.1596 406.308 75.9633C406.669 75.3079 406.713 74.8682 406.919 73.6353C407.093 72.5902 407.238 70.6687 407.322 69.4014C407.406 68.134 407.38 67.5728 407.079 65.99C406.777 64.4073 406.2 61.8202 405.849 60.3596C405.244 57.841 404.277 55.5631 403.769 54.1402C403.001 51.9895 402.282 50.4619 401.898 49.1192C401.729 48.5274 404.39 48.1814 407.284 47.8525C408.511 47.7131 409.742 47.6195 411.514 47.3902C413.53 47.1291 414.868 47.1362 415.802 46.9943C418.228 46.6256 420.073 46.6307 421.74 46.4717C422.508 46.4433 423.239 46.3969 423.821 46.3564C424.09 46.3575 424.305 46.4026 424.726 46.2737" stroke="black" stroke-width="5.95407" stroke-linecap="round"/>
<path d="M575.715 183.158C575.589 184.475 575.462 185.687 575.289 186.762C575.112 187.855 574.389 189.233 573.3 190.829C572.204 192.435 570.776 193.073 570.096 193.452C569.588 193.736 569.158 193.929 568.748 194.151C568.308 194.388 566.918 194.844 564.862 195.683C562.172 196.78 561.208 196.623 560.351 196.671C558.932 196.75 556.896 196.688 556.358 196.561C555.859 196.443 554.999 195.929 554.393 195.784C554.071 195.706 553.791 196.242 552.879 196.997C552.137 197.611 550.775 198.63 549.955 199.289C548.455 200.494 548.152 200.9 547.85 201.216C547.501 201.581 547.106 201.818 546.804 202.088C546.492 202.366 547.387 202.957 547.957 203.576C548.238 203.881 548.78 204.288 550.008 205.265C550.873 205.953 552.303 206.932 553.219 207.543C555.026 208.75 555.815 208.852 556.621 208.996C557.919 209.227 558.697 209.107 559.553 209.281C560.4 209.452 561.168 209.455 562.261 209.456C563.247 209.457 564.366 209.014 566.848 208.665C567.629 208.555 568.474 208.35 569.741 207.908C571.009 207.466 572.671 206.776 573.81 206.327C574.949 205.877 575.513 205.689 576.871 204.871C578.228 204.052 580.361 202.609 581.538 201.772C582.716 200.934 582.872 200.746 583.345 200.273C584.586 199.031 585.661 197.957 586.12 197.419C586.448 197.035 587.493 195.905 588.87 194.258C589.949 192.968 590.574 192.064 590.717 191.572C590.81 191.254 590.796 190.953 590.813 190.795C590.866 190.291 589.378 190.541 587.983 190.099C587.496 189.944 586.849 189.627 585.945 189.184C583.895 188.178 582.435 187.405 581.819 187.136C580.523 186.572 579.646 185.663 578.966 185.204C577.586 184.204 577.205 183.856 576.937 183.54C576.794 183.381 576.637 183.224 576.285 182.873" stroke="black" stroke-width="5.95407" stroke-linecap="round"/>
<path d="M155.738 51.9714C155.119 59.1588 154.381 62.1138 153.664 63.9939C153.157 65.3228 151.588 66.7814 150.752 67.7745C149.971 68.7023 149.233 69.5709 148.334 70.2245C147.266 71.0008 146.072 72.0516 145.082 72.7034C143.213 73.9337 142.167 73.8517 141.237 74.285C140.203 74.7668 139.069 74.9675 137.798 75.3701C136.954 75.6373 136.4 75.8359 136.029 75.9596C135.842 76.0219 135.658 76.0833 136.024 76.2069C137.276 76.6308 138.749 76.8885 139.922 77.2901C141.445 77.8115 143.515 78.5584 145.65 79.6714C149.055 81.4464 150.219 83.5812 151.457 84.9434C152.297 85.8683 152.514 87.4232 152.947 88.4776C153.538 89.9159 154.187 91.1425 154.436 92.3819C154.839 94.3933 154.745 96.4126 154.994 97.3118C155.106 97.7177 155.18 98.1495 155.211 98.4294C155.356 99.7518 155.489 94.5009 155.737 92.9221C156.266 89.5407 157.163 88.0518 157.966 86.8133C158.733 85.6316 159.763 84.8904 160.508 83.8379C161.673 82.1945 162.121 81.1712 162.524 80.3957C163.537 78.45 167.688 77.0205 169.587 76.3957C170.808 75.9938 172.468 75.5923 173.402 75.2176C173.585 75.1443 173.773 75.0939 173.653 75.0623C172.512 74.7616 171.367 74.8447 170.094 74.4747C168.272 73.9451 167.272 73.4835 166.218 72.987C165.313 72.5602 164.482 71.9958 163.676 71.5616C162.396 70.8722 161.325 69.6452 160.421 68.8344C159.401 67.9196 159.212 66.1082 158.5 63.3895C157.794 60.6956 157.475 59.5996 157.381 58.3611C157.226 57.1207 157.103 55.6349 156.886 53.7464C156.854 53.156 156.854 52.4809 156.482 51.4135" stroke="black" stroke-width="5.95407" stroke-linecap="round"/>
<path d="M261.352 10.0609C261.226 11.7547 261.162 12.7842 261.021 13.6178C260.701 15.507 260.087 17.0283 259.613 17.6447C258.742 18.7772 257.778 19.5928 256.198 20.6692C255.314 21.2715 253.529 22.0204 252.546 22.5194C250.906 23.3523 249.668 23.7789 248.65 23.8749C247.652 23.9691 247.286 24.1914 246.826 24.3183C246.619 24.3756 246.43 24.4766 246.365 24.603C246.263 24.8041 247.278 24.9195 248.777 25.3763C251.056 26.0708 252.542 26.947 252.937 27.216C253.438 27.5566 253.841 27.7084 254.631 28.7012C256.114 30.5657 256.44 31.2234 257.009 32.0466C257.534 32.806 257.801 34.2936 258.261 35.1828C258.93 36.476 259.038 37.3999 259.149 38.3809C259.427 40.8463 259.641 41.3 259.657 41.4278C259.734 42.0597 259.799 40.1013 259.847 39.2454C259.899 38.3163 260.242 36.8753 260.527 35.7128C260.655 35.1913 261.002 34.7765 261.506 33.8797C262.573 31.9807 263.346 30.4991 263.788 30.0885C264.917 29.0399 266.226 28.5981 267.494 27.9807C268.319 27.579 269.175 27.0772 270.44 26.649C271.183 26.3979 272.024 26.41 272.629 26.2997C273.368 26.1652 273.802 26.0621 274.167 26.0141C274.535 25.9658 272.796 25.8092 270.075 25.0978C268.933 24.7989 268.232 24.5735 267.47 24.1776C266.872 23.8672 266.171 23.3702 265.426 22.6425C264.89 22.119 264.648 21.5014 264.364 20.7743C263.66 18.9778 263.348 18.2696 263.238 17.7464C263.105 17.1176 262.937 16.1196 262.352 14.3611C261.845 12.8349 261.892 11.903 261.654 11.3142C261.511 10.9173 261.384 10.5694 261.274 10.2377C261.226 10.0628 261.194 9.87459 261.067 9.58563" stroke="black" stroke-width="5.95407" stroke-linecap="round"/>
<path d="M508.298 37.0806C511.174 36.8147 512.9 36.9902 515.105 37.7167C516.586 38.2049 518.714 39.1892 519.975 39.7735C521.574 40.5143 522.123 40.9348 522.609 41.2001C523.03 41.4293 524.33 42.3029 526.365 43.6078C527.93 44.6111 528.814 45.4977 529.565 46.336C530.652 47.5508 531.605 48.8641 532.423 49.8366C533.19 50.7476 533.909 52.2716 534.772 54.0851C535.493 55.6008 535.774 56.7096 536.039 57.5924C536.883 60.4103 537.415 62.3388 537.525 63.6178C537.853 67.4221 537.415 68.5383 537.459 69.5807C537.466 69.7593 538.032 69.2576 538.94 68.6148C539.635 68.1237 541.696 66.7395 543.945 65.2045C545.496 64.1454 546.583 63.8943 548.73 62.6126C550.321 61.6625 551.904 60.8364 552.657 60.5918C553.347 60.3677 554.558 59.8632 555.582 59.5282C555.763 59.4689 555.892 59.3739 555.982 59.2629C556.698 58.3777 556.073 55.9225 555.785 54.6568C555.561 53.6701 555.585 53.0374 554.817 51.4979C554.161 50.1847 552.688 47.9401 551.855 46.6551C550.857 45.1146 550.401 44.7054 549.609 43.8245C547.987 42.0218 546.547 40.5413 545.753 39.614C544.678 38.3593 543.14 37.1311 541.855 36.1565C540.879 35.4156 540.034 34.8682 539.236 34.2028C537.837 33.0369 536.053 32.1241 534.891 31.3876C534.226 30.9656 533.256 30.2601 530.931 29.2397C529.79 28.7392 528.161 28.3084 526.937 28.0186C526.062 27.8111 525.452 27.6862 524.897 27.5306C524.578 27.441 524.122 27.6835 523.614 27.9933C523.174 28.2612 521.387 29.2271 518.929 30.667C517.044 31.7708 515.483 32.4698 513.932 33.1558C513.193 33.4826 512.601 33.7116 510.412 34.595C509.186 35.174 508.698 35.3961 508.433 35.5064C508.3 35.5729 508.168 35.6606 507.899 35.751" stroke="black" stroke-width="5.95407" stroke-linecap="round"/>
<path d="M508.297 245.614C508.297 245.702 508.209 247.02 508.054 249.057C507.979 250.045 507.415 251.584 506.596 253.732C506.151 254.898 505.553 255.713 504.648 256.906C502.569 259.647 501.298 260.191 500.456 260.857C499.754 261.412 498.95 261.611 495.526 262.386C493.141 262.925 492.39 262.765 491.592 262.876C491.413 262.9 491.282 262.898 491.389 262.942C491.831 263.122 492.429 263.164 492.937 263.186C493.579 263.214 495.737 263.736 498.682 264.488C500.907 265.057 501.381 265.687 502.023 266.264C502.388 266.591 503.631 268.115 505.448 270.042C506.933 271.618 507.72 273.885 508.25 275.015C508.564 275.682 508.871 276.278 509.094 276.922C509.414 277.847 509.493 278.847 509.626 279.625C509.653 279.786 509.714 279.913 509.758 279.915C509.915 279.922 509.892 278.246 509.914 276.009C509.934 273.942 511.219 272.032 511.729 270.814C512.402 269.205 513.607 267.828 515.425 265.918C516.671 264.609 517.555 264.276 518.133 264.051C519.165 263.65 521.361 262.989 522.277 262.744C523.014 262.547 523.583 262.233 523.962 262.057C524.823 261.657 521.906 261.127 520.425 260.684C518.264 260.039 517.165 259.444 516.277 258.713C515.319 257.923 512.833 255.868 511.579 254.525C510.871 253.768 510.294 253.195 509.915 252.663C509.485 252.058 508.876 250.675 508.541 249.717C508.297 248.852 508.209 248.055 508.053 247.169C508.031 246.903 508.031 246.596 508.164 246.146" stroke="black" stroke-width="5.95407" stroke-linecap="round"/>
<defs>
<filter id="filter0_g_771_6869" x="144.554" y="92.6396" width="327.599" height="327.598" filterUnits="userSpaceOnUse" color-interpolation-filters="sRGB">
<feFlood flood-opacity="0" result="BackgroundImageFix"/>
<feBlend mode="normal" in="SourceGraphic" in2="BackgroundImageFix" result="shape"/>
<feTurbulence type="fractalNoise" baseFrequency="0.017763495445251465 0.017763495445251465" numOctaves="3" seed="3160" />
<feDisplacementMap in="shape" scale="6.4202852249145508" xChannelSelector="R" yChannelSelector="G" result="displacedImage" width="100%" height="100%" />
<feMerge result="effect1_texture_771_6869">
<feMergeNode in="displacedImage"/>
</feMerge>
</filter>
</defs>
</svg>
