<svg width="29" height="27" viewBox="0 0 29 27" fill="none" xmlns="http://www.w3.org/2000/svg">
<g filter="url(#filter0_g_452_4858)">
<circle cx="15.294" cy="13.0943" r="12.794" fill="#E60611"/>
</g>
<path d="M10.3646 5.82334C10.3723 5.70901 10.4438 5.44597 10.557 5.33438C10.6103 5.28184 10.6826 5.30216 10.7223 5.31601C10.8092 5.34633 10.8338 5.44502 10.8519 5.53656C10.8749 5.65368 10.8143 5.79112 10.7607 5.87472C10.679 6.00216 10.5164 6.01812 10.4304 6.02032C10.3711 6.02185 10.3371 5.84029 10.3208 5.63705C10.3156 5.57232 10.3564 5.52916 10.402 5.48751C10.5171 5.38219 10.6109 5.38988 10.6826 5.37383C10.6986 5.37377 10.7104 5.37771 10.7244 5.38761C10.7384 5.39752 10.7541 5.41327 10.7703 5.4295" stroke="#020205" stroke-linecap="round"/>
<path d="M17.836 5.96719C17.8281 5.95932 17.828 5.88437 17.8478 5.76711C17.8609 5.68918 17.9353 5.67289 17.9887 5.65505C18.182 5.59048 18.3091 5.62897 18.359 5.66268C18.4361 5.71478 18.3692 5.89487 18.3294 6.00861C18.3063 6.07476 18.2738 6.13786 18.2003 6.22152C18.175 6.25032 18.1267 6.2615 18.0593 6.27344C17.985 6.28658 17.9198 6.26568 17.88 6.23596C17.7869 6.16632 17.8241 5.92065 17.8498 5.78257C17.8655 5.69831 17.963 5.65713 18.0406 5.61131C18.1219 5.56324 18.2096 5.5576 18.2991 5.54155C18.3208 5.53766 18.3408 5.54543 18.353 5.55533C18.3651 5.56524 18.369 5.58099 18.373 5.59502C18.377 5.60904 18.3809 5.62085 18.385 5.64496" stroke="#020205" stroke-linecap="round"/>
<path d="M9.08008 16.1452C9.1577 16.1064 9.27973 16.0842 9.80965 16.084C9.9813 16.0839 10.1473 16.1284 10.3363 16.1562C10.5411 16.1863 10.7267 16.2731 10.8795 16.3314C11.0395 16.3923 11.1053 16.4955 11.1914 16.59C11.2623 16.6679 11.3223 16.7956 11.4057 16.9377C11.4564 17.024 11.4782 17.1405 11.5282 17.3492C11.5629 17.4939 11.5229 17.6523 11.5118 17.7669C11.5007 17.88 11.4452 17.9755 11.3867 18.1173C11.3491 18.2085 11.2178 18.3918 11.0199 18.5653C10.9353 18.6395 10.7781 18.699 10.6635 18.7465C10.5642 18.7876 10.3394 18.8435 10.1129 18.869C9.88285 18.8829 9.56435 18.8774 9.52553 18.8691C9.50325 18.8662 9.4757 18.8662 9.43063 18.8495" stroke="#020205" stroke-linecap="round"/>
<path d="M9.34766 17.9811C9.40842 17.9921 9.6301 18.0145 9.75079 17.9812C9.84213 17.9561 9.91489 17.909 10.0233 17.8505C10.0486 17.8365 10.0651 17.8255 10.0819 17.8171C10.0987 17.8086 10.1152 17.8031 10.1489 17.7808" stroke="#020205" stroke-linecap="round"/>
<path d="M9.66546 18.1147C9.63241 18.17 9.54327 18.2924 9.49319 18.4285C9.42106 18.6246 9.40405 18.7154 9.3513 18.785C9.29016 18.8657 9.23178 18.9491 9.16768 19.0298C9.09882 19.1165 8.99807 19.2162 8.92571 19.2719C8.82164 19.3521 8.70895 19.4275 8.50329 19.5499C8.40414 19.609 8.2973 19.6392 8.18854 19.6837C8.03473 19.7468 7.89633 19.7894 7.81011 19.8146C7.75949 19.8294 7.66847 19.834 7.56013 19.8618C7.4802 19.8823 7.21942 19.8842 6.8662 19.8815C6.73883 19.8787 6.71679 19.8732 6.68341 19.8704C6.65002 19.8675 6.60595 19.8675 6.56055 19.8675" stroke="#020205" stroke-linecap="round"/>
<path d="M10.9993 16.1789C11.0048 16.1068 11.016 16.018 11.0326 15.9233C11.0787 15.661 11.0384 15.2668 10.9829 15.1112C10.9151 14.9211 10.7993 14.8047 10.7463 14.7435C10.6883 14.6765 10.5827 14.6047 10.424 14.4961C10.3147 14.4212 10.2154 14.3764 10.1315 14.3289C10.0587 14.2876 9.94265 14.2649 9.80627 14.2564C9.65866 14.2473 9.48059 14.2535 9.37217 14.2785C9.29069 14.2974 9.06493 14.4031 8.89908 14.4871C8.82939 14.5206 8.76278 14.554 8.70978 14.604C8.69585 14.6152 8.67932 14.6208 8.62891 14.6598" stroke="#020205" stroke-linecap="round"/>
<path d="M10.3499 14.3594C10.5222 14.2816 10.6 14.2372 10.6696 14.1788C10.7436 14.1167 10.8941 14.0372 11.0146 13.9645C11.0959 13.9155 11.1953 13.8366 11.2788 13.7699C11.4044 13.6697 11.5125 13.6253 11.6265 13.5196C11.709 13.4433 11.7852 13.3415 11.8603 13.2802C11.9719 13.1892 12.0022 13.1078 12.0497 13.0271C12.0983 12.9445 12.1581 12.8076 12.1667 12.4882C12.17 12.3661 12.1031 12.2568 11.9835 12.1174C11.9203 12.0438 11.8306 11.9893 11.7386 11.9197C11.6085 11.8212 11.2928 11.8388 10.9906 11.8803C10.8735 11.8964 10.6741 11.9606 10.4453 12.0388C10.2585 12.1026 9.97301 12.222 9.73305 12.3198C9.658 12.3503 9.6046 12.384 9.4582 12.4585C9.3381 12.5196 9.13001 12.6377 8.98361 12.7276C8.63687 12.9405 8.5364 13.0236 8.33367 13.1432C8.26157 13.1857 8.0316 13.3231 7.72011 13.5289C7.51812 13.658 7.40661 13.7471 7.36221 13.7915C7.33984 13.8139 7.31781 13.8359 7.26172 13.892" stroke="#020205" stroke-linecap="round"/>
<path d="M8.36215 13.04C8.36215 12.9958 8.35113 12.8958 8.32885 12.7707C8.3044 12.6334 8.24563 12.5342 8.20373 12.445C8.14492 12.3197 7.99624 12.0685 7.83673 11.8691C7.77815 11.7958 7.66705 11.766 7.57515 11.738C7.4794 11.7089 7.36691 11.6935 7.22193 11.6851C7.02238 11.6735 6.70986 11.6822 6.535 11.7847C6.34954 11.8934 6.35931 12.0434 6.30906 12.1742C6.28106 12.2471 6.27 12.3219 6.26165 12.5427C6.25456 12.7304 6.25882 13.072 6.26157 13.259C6.26465 13.4681 6.28102 13.5293 6.28937 13.6924C6.3183 14.2577 6.27551 14.3471 6.2589 14.4363C6.23311 14.5748 6.22543 14.6976 6.10908 15.1084C6.06925 15.249 5.94265 15.4642 5.84174 15.6298C5.77623 15.7374 5.69159 15.8217 5.62473 15.897C5.48283 16.0568 5.24655 16.2781 5.15741 16.3588C5.07671 16.4319 5.00717 16.5062 4.85726 16.634C4.69196 16.775 4.47432 16.9338 4.27317 17.093C3.93982 17.3568 3.71713 17.4019 3.55787 17.4829C3.38556 17.5705 3.17226 17.6633 2.96251 17.7694C2.85459 17.824 2.75927 17.8419 2.65628 17.8781C2.5643 17.9087 2.48651 17.9421 2.42541 17.9615C2.39737 17.97 2.37533 17.9755 2.33594 17.9978" stroke="#020205" stroke-linecap="round"/>
<path d="M7.52864 20.1019C7.45102 20.235 7.35103 20.3907 7.13552 20.6091C6.96921 20.7777 6.66661 21.0424 6.41696 21.2531C6.16732 21.4638 5.97451 21.607 5.85866 21.689C5.65342 21.8344 5.52613 21.8934 5.33976 21.9934C5.21654 22.0595 4.97092 22.1545 4.77753 22.2079C4.65692 22.2412 4.51353 22.2553 4.20788 22.2969C4.03563 22.3203 3.758 22.3221 3.42648 22.336C3.08722 22.3501 2.78312 22.3223 2.63305 22.2917C2.46377 22.2573 2.32106 22.2166 2.2012 22.1859C2.0764 22.1539 1.98152 22.0831 1.87285 22.0219C1.82248 21.9935 1.76985 21.955 1.65642 21.8832C1.44093 21.7466 1.23067 21.5551 1.05856 21.383C0.886103 21.2107 0.801485 21.076 0.740639 20.9433C0.611617 20.6621 0.539904 20.4031 0.523211 20.2864C0.51134 20.2034 0.512027 20.1301 0.50368 20.0139C0.489831 19.821 0.517369 19.5856 0.547917 19.3911C0.577958 19.1997 0.606343 19.0676 0.695067 18.7127C0.731739 18.566 0.811 18.3698 0.872681 18.2126C0.934362 18.0554 0.983941 17.9452 1.06732 17.8058C1.25415 17.4935 1.39659 17.3033 1.42155 17.2478C1.44752 17.1901 1.47455 17.1474 1.53799 17.0287C1.69576 16.7335 1.86367 16.4912 1.99379 16.3444C2.34172 15.9518 2.46462 15.8846 2.56762 15.7954C2.68163 15.6953 2.80416 15.5951 2.88487 15.5449C2.90448 15.5337 2.92101 15.5227 2.97142 15.4946" stroke="#020205" stroke-linecap="round"/>
<path d="M12.9829 8.81614C12.9983 8.81614 13.1295 8.87008 13.3125 8.96721C13.3775 9.00175 13.3644 9.04122 13.3528 9.06866C13.3303 9.12143 13.2173 9.20467 13.0233 9.29806C12.8324 9.38994 12.6719 9.32211 12.6098 9.29888C12.5413 9.27325 12.4928 9.2133 12.4501 9.16672C12.4107 9.12378 12.3992 9.07321 12.403 9.02278C12.4076 8.96367 12.4534 8.90977 12.5155 8.86704C12.6347 8.78498 12.8031 8.79279 12.9237 8.8082C12.9695 8.81406 12.975 8.85443 12.9789 8.89342C12.9829 8.93242 12.9829 8.97865 12.9637 9.02173C12.9444 9.06481 12.9059 9.10333 12.8706 9.12318C12.8354 9.14302 12.8045 9.14302 12.7728 9.14302" stroke="#020205" stroke-linecap="round"/>
<path d="M9.55078 3.60956C9.65118 3.54792 9.97713 3.37654 10.2077 3.33334C10.3107 3.31405 10.4142 3.32167 10.5998 3.31C11.2997 3.26598 11.5504 3.38354 11.6518 3.42651C11.6984 3.45359 11.7762 3.50799 11.8694 3.57407C11.9088 3.60162 11.9319 3.61703 11.9791 3.65626" stroke="#020205" stroke-linecap="round"/>
<defs>
<filter id="filter0_g_452_4858" x="2.1997" y="-6.73532e-06" width="26.1885" height="26.1885" filterUnits="userSpaceOnUse" color-interpolation-filters="sRGB">
<feFlood flood-opacity="0" result="BackgroundImageFix"/>
<feBlend mode="normal" in="SourceGraphic" in2="BackgroundImageFix" result="shape"/>
<feTurbulence type="fractalNoise" baseFrequency="0.15984031558036804 0.15984031558036804" numOctaves="3" seed="3160" />
<feDisplacementMap in="shape" scale="0.60059940814971924" xChannelSelector="R" yChannelSelector="G" result="displacedImage" width="100%" height="100%" />
<feMerge result="effect1_texture_452_4858">
<feMergeNode in="displacedImage"/>
</feMerge>
</filter>
</defs>
</svg>
