<svg width="168" height="140" viewBox="0 0 168 140" fill="none" xmlns="http://www.w3.org/2000/svg">
<g filter="url(#filter0_g_643_5423)">
<circle cx="112.784" cy="54.9741" r="53.7134" fill="#E60611"/>
</g>
<path d="M110.472 77.9736C110.21 77.9876 108.939 78.3401 108.228 78.6777C107.914 78.8267 107.447 79.1557 106.386 79.9591C105.899 80.3275 105.757 80.8114 105.567 81.5238C105.393 82.1773 105.606 83.3364 105.76 83.9331C105.928 84.5825 106.338 85.3143 106.857 86.0422C107.108 86.3936 107.624 86.7054 108.24 87.0278C109.051 87.452 109.957 87.2098 110.499 87.1451C110.796 87.1096 111.105 86.9806 111.806 86.6888C112.874 86.2445 113.507 86.8428 113.971 87.069C115.19 87.6629 115.729 87.8154 116.146 87.967C116.469 88.0845 116.829 88.1707 117.361 88.2745C117.735 88.3474 118.326 88.4256 119.171 88.4838C120.016 88.542 121.098 88.5687 121.734 88.5731C122.527 88.5785 123.111 88.4518 123.792 88.3059C124.517 88.1504 125.472 87.9099 125.822 87.7812C126.076 87.6882 126.311 87.3393 126.667 87.0811C126.896 86.9151 127.093 86.7192 127.291 86.5248C127.473 86.3466 127.708 86.1631 127.918 85.9298C128.101 85.7334 128.267 85.5685 128.371 85.476C128.421 85.4312 128.466 85.3905 128.526 85.3486" stroke="#020205" stroke-width="2.34365" stroke-linecap="round"/>
<path d="M105.88 79.5949C105.372 79.1091 104.944 78.6278 104.486 77.9268C104.102 77.3395 103.824 76.5285 103.636 75.9453C103.548 75.6754 103.575 75.3382 103.568 74.3164C103.565 73.7544 104.029 73.2049 104.319 72.8342C104.548 72.541 105.034 72.2732 105.599 71.9333C106.471 71.408 106.888 71.2377 107.617 70.915C108.162 70.6946 108.517 70.5144 109.068 70.3426C109.329 70.288 109.767 70.2096 110.246 70.1152" stroke="#020205" stroke-width="2.34365" stroke-linecap="round"/>
<path d="M104.246 71.6668C103.611 70.961 102.944 69.9761 102.414 68.9637C102.147 68.4539 102.168 67.611 102.172 66.5504C102.174 65.9212 102.328 65.5669 102.658 65.0788C102.982 64.5995 103.349 64.3318 103.641 64.0912C103.796 63.9634 104.358 63.7286 105.11 63.4061C105.549 63.2176 106.47 63.0336 107.822 62.7876C108.403 62.6817 108.779 62.647 109.953 62.6298C111.127 62.6125 113.089 62.622 114.236 62.6493C115.655 62.6831 115.998 62.7918 116.266 62.8831C116.81 63.0588 117.271 63.2112 117.525 63.307C117.667 63.3625 117.837 63.4318 118.027 63.531" stroke="#020205" stroke-width="2.34365" stroke-linecap="round"/>
<path d="M113.99 61.9106C113.958 61.8578 113.764 61.3829 113.469 60.5166C113.207 59.748 113.231 59.2082 113.205 58.6727C113.151 57.5791 113.268 56.5846 113.424 56.0307C113.569 55.5123 113.745 55.1613 113.876 54.8996C114.046 54.5581 114.427 53.9847 114.904 53.3071C115.251 52.8154 115.618 52.572 115.941 52.3582C116.315 52.1113 116.963 51.855 117.7 51.6063C118.188 51.442 118.762 51.3609 119.451 51.3654C120.364 51.3714 120.788 52.3226 121.143 52.9028C121.272 53.1141 121.352 53.4581 121.451 53.8624C121.52 54.1488 121.528 55.2614 121.531 56.8266C121.533 58.0737 121.474 59.1367 121.558 59.5089C121.653 59.926 121.834 60.3657 122.056 60.7419C122.249 61.0682 122.619 61.7132 122.975 62.1829C123.445 62.8031 123.974 63.4278 124.469 63.9837C124.749 64.298 124.974 64.5507 125.619 65.2761C126.452 66.2127 126.908 66.9872 127 67.1756C127.225 67.6349 127.415 68.0992 127.613 68.6429C127.878 69.2949 128.065 69.9483 128.506 71.2301C128.591 71.4895 128.602 71.5518 128.612 71.6159" stroke="#020205" stroke-width="2.34365" stroke-linecap="round"/>
<path d="M129.15 70.0292C129.198 70.0292 129.245 70.0292 129.921 70.0391C130.597 70.0491 131.9 70.0689 132.634 70.0873C133.496 70.1089 133.753 70.1565 134.416 70.1832C135.89 70.2426 137.019 70.1761 137.341 70.1441C138.101 70.0684 139.119 69.9298 140.298 69.6333C140.608 69.5552 140.882 69.4106 141.436 69.1795C141.989 68.9483 142.805 68.6097 143.551 68.2738C145.741 67.2039 146.042 67.0017 146.176 66.9083C146.254 66.8573 146.351 66.7986 146.521 66.7109" stroke="#020205" stroke-width="2.34365" stroke-linecap="round"/>
<path d="M139.742 55.6826C139.99 56.1677 140.238 56.6528 140.526 57.3045C140.814 57.9562 141.135 58.7597 141.338 59.2898C141.741 60.3414 141.818 60.7646 141.974 61.5191C142.06 61.9354 142.173 62.6781 142.267 63.194C142.36 63.7099 142.417 63.9791 142.446 64.6008C142.52 66.1871 142.461 67.2636 142.438 67.4287C142.407 67.7541 142.379 67.9346 142.356 68.0546C142.342 68.1151 142.324 68.1746 142.305 68.236" stroke="#020205" stroke-width="2.34365" stroke-linecap="round"/>
<path d="M128.064 86.8579C128.074 86.8579 128.736 86.9347 129.825 87.0717C130.447 87.15 131.163 87.2719 132.181 87.3556C133.105 87.4318 133.705 87.4076 134.257 87.4379C135.319 87.4964 136.221 87.4051 136.635 87.3672C136.986 87.3352 137.209 87.2893 137.373 87.2523C137.611 87.199 138.644 87.0327 140.056 86.7315C140.728 86.5879 140.927 86.4916 141.913 86.1735C142.84 85.8746 144.62 85.261 145.929 84.7844C147.239 84.3078 148.02 83.9777 148.581 83.6967C149.142 83.4156 149.457 83.1937 149.883 82.9168C150.308 82.6399 150.834 82.3148 151.309 81.9697C152.223 81.3069 152.686 80.8014 153.035 80.3663C153.776 79.4455 154.357 78.8325 154.527 78.5951C155.123 77.7649 155.45 77.1719 155.938 76.3617C156.106 76.0817 156.413 75.3372 156.869 74.1275C157.287 73.0154 157.414 72.3474 157.471 71.989C157.582 71.2909 157.715 70.6899 157.772 70.301C157.805 70.0735 157.848 69.7852 157.85 68.4776C157.851 67.17 157.809 64.852 157.727 62.845C157.644 60.8379 157.522 59.2121 157.345 57.7947C157.168 56.3773 156.941 55.2175 156.796 54.535C156.613 53.6781 156.524 53.4452 156.385 52.9875C155.771 50.972 155.574 50.6024 155.432 50.2106C155.298 49.8383 155.113 49.4833 154.947 49.0157C154.868 48.8254 154.797 48.6858 154.737 48.5742C154.709 48.5168 154.686 48.458 154.634 48.2607" stroke="#020205" stroke-width="2.34365" stroke-linecap="round"/>
<path d="M89.7375 16.1906C90.0009 15.8033 90.7632 15.2745 91.0463 15.261C91.0985 15.2585 91.1442 15.2728 91.1905 15.2848C91.2836 15.3087 91.5513 15.713 91.8995 16.3599C92.0981 16.7288 92.0772 17.0375 92.0597 17.3446C92.0419 17.6559 91.8775 18.02 91.6157 18.4619C91.295 19.0032 90.8546 19.212 90.625 19.2533C90.3669 19.2997 89.9723 19.1258 89.5608 18.8354C89.297 18.6492 89.2095 18.3098 89.1174 17.8662C89.0009 17.3054 89.1227 16.7208 89.2445 16.2992C89.328 16.0101 89.5014 15.8934 89.6205 15.8145C89.9048 15.6264 90.2264 15.6777 90.4824 15.7616C90.6773 15.8255 90.8042 15.9759 90.8839 16.0623C91.1256 16.3246 90.9471 17.0355 90.73 17.609C90.6042 17.9415 90.2764 18.139 90.1645 18.2007C90.12 18.2253 90.0814 18.1829 90.0599 18.1384C89.8043 17.6102 90.0486 16.3365 90.135 15.9691C90.1519 15.8975 90.1975 15.8244 90.2528 15.7743C90.3081 15.7243 90.3816 15.7026 90.4762 15.7165C90.6911 15.7479 90.9113 16.0274 91.0903 16.3829C91.3283 16.8556 91.1458 17.4668 90.9482 17.8866C90.8123 18.029 90.6791 18.1206 90.5724 18.1437C90.5219 18.1422 90.4786 18.1141 90.421 18.045" stroke="#020205" stroke-width="2.34" stroke-linecap="round"/>
<path d="M120.746 23.813C120.924 23.2996 121.338 22.5646 121.461 22.5516C121.622 22.5346 121.894 22.6353 122.218 22.884C122.863 23.3785 122.629 23.9137 122.654 24.241C122.694 24.7604 122.43 25.5348 122.248 25.8366C122.184 25.9438 122.055 25.9923 121.879 26.0252C121.775 26.0446 121.636 26.0362 121.526 25.9757C120.831 25.5914 120.795 24.4389 120.798 23.9406C120.799 23.5343 120.981 23.342 121.192 23.1313C121.307 23.0166 121.5 22.9841 121.672 22.9765C122.003 22.962 122.104 23.63 122.321 24.6208C122.342 25.2906 122.284 25.4528 122.226 25.5583C122.199 25.6098 122.178 25.6569 122.145 25.7281" stroke="#020205" stroke-width="2.34" stroke-linecap="round"/>
<path d="M87.6211 26.6475C87.7244 27.3551 87.9004 28.1626 88.1203 28.9163C88.2613 29.3998 88.4017 29.7025 88.4769 29.9405C88.5231 30.0869 88.7091 30.592 89.01 31.3004C89.1461 31.6207 89.2526 31.798 89.5333 32.3359C89.7501 32.7513 90.1569 33.4352 90.5299 33.9965C90.9029 34.5579 91.2398 34.9706 91.6268 35.3607C92.0138 35.7508 92.4406 36.1058 92.787 36.3815C93.1335 36.6573 93.3867 36.843 93.852 37.1127C94.3173 37.3823 94.9871 37.7302 95.4801 37.9563C96.2537 38.3109 96.8444 38.421 97.3186 38.4994C97.9426 38.6027 98.4093 38.6363 98.9315 38.6797C99.4883 38.7261 99.9606 38.6609 100.461 38.5923C100.833 38.5414 101.449 38.4982 102.194 38.3565C102.939 38.2147 103.795 37.986 104.537 37.7341C105.278 37.4823 105.879 37.2143 106.753 36.7086C107.628 36.2029 108.758 35.4676 109.646 34.8157C110.533 34.1638 111.143 33.6176 111.608 33.1553C112.073 32.6931 112.375 32.3312 112.557 32.1055C112.739 31.8797 112.793 31.8012 112.939 31.6287" stroke="#020205" stroke-width="2.34" stroke-linecap="round"/>
<path d="M22.8438 44.7855C22.8302 44.7763 22.5999 44.6007 22.2375 44.3233C22.0983 44.2168 22.0499 44.1799 21.8744 44.0407C21.699 43.9015 21.3979 43.661 21.2026 43.5014C21.0073 43.3418 20.9268 43.2704 20.7247 43.0938C20.5226 42.9172 20.2012 42.6378 20.0038 42.4598C19.647 42.138 19.5573 42.0357 19.2363 41.7076C18.9731 41.4385 18.5077 40.96 18.2306 40.6655C17.7632 40.1685 17.7383 40.0365 17.7113 39.9272C17.6819 39.808 17.6793 39.6931 17.6953 39.5886C17.7124 39.4769 17.9312 39.4618 18.0558 39.4418C18.2388 39.4123 18.6799 39.5788 18.933 39.7707C19.054 39.8626 19.1956 39.9816 19.3045 40.0916C19.4874 40.2762 19.7297 40.544 19.9182 40.6948C20.1065 40.8453 20.2621 40.9309 20.5632 41.1604C20.9211 41.4332 21.1024 41.6035 21.256 41.7604C21.5573 42.0681 21.8787 42.3637 22.0002 42.4626C22.0631 42.5138 22.1504 42.5634 22.2424 42.6053C22.3141 42.638 22.49 42.4201 22.7123 42.1449C22.8588 41.9635 22.9262 41.7721 23.023 41.5535C23.1336 41.3036 23.3089 41.0661 23.5681 40.6572C23.7507 40.3693 24.0093 39.9013 24.1741 39.6234C24.3389 39.3454 24.3951 39.2674 24.5177 39.0765C24.6403 38.8857 24.8276 38.5844 24.9337 38.4051C25.0399 38.2258 25.0591 38.1777 25.1799 37.9537C25.3007 37.7297 25.5225 37.3313 26.0144 36.6265C26.5063 35.9217 27.2616 34.9225 27.7485 34.2666C28.2353 33.6108 28.4307 33.3287 28.5644 33.1459C28.837 32.7733 28.9727 32.6753 29.2298 32.4678C29.4931 32.2554 29.6823 32.2481 30.0485 32.173C30.3672 32.1077 30.586 32.1434 30.628 32.1731C30.7959 32.2919 30.6485 32.6646 30.5661 32.9957C30.5365 33.1143 30.4679 33.25 30.3184 33.5342C30.2176 33.7256 30.0726 34.0163 29.8698 34.3437C29.667 34.6711 29.4124 35.0273 29.2751 35.2229C29.1223 35.4406 29.0143 35.5873 28.8559 35.7813C28.7759 35.8792 28.5919 36.0971 28.2759 36.4627C28.1256 36.6366 28.0106 36.7994 27.7139 37.1397C27.4172 37.4799 26.9461 37.9959 26.4401 38.5145C25.9341 39.033 25.4076 39.5386 25.1249 39.815C24.8423 40.0913 24.8197 40.123 24.7252 40.2197C24.6307 40.3165 24.465 40.4774 24.2308 40.6952C23.9965 40.9131 23.6987 41.1832 23.5267 41.346C23.311 41.5501 23.1446 41.7558 22.8735 42.0518C22.4146 42.5527 22.2436 42.7641 22.1962 42.873C22.1299 43.0251 22.2387 43.3119 22.3068 43.6834C22.3424 43.8774 22.4581 44.0002 22.5381 44.1332C22.6103 44.2532 22.6946 44.3686 22.7933 44.5159C22.867 44.626 22.9297 44.7135 23.0251 44.773C23.2093 44.8878 23.4595 44.3894 23.6522 44.0532C23.859 43.6923 23.9445 43.3822 24.01 43.2758C24.0489 43.2127 24.107 43.136 24.2543 42.8859C24.4016 42.6358 24.6382 42.2159 24.7641 41.9874C24.9023 41.7368 24.9574 41.5993 25.0386 41.4201C25.1847 41.0977 25.4 40.6263 25.5448 40.3768C25.6603 40.1779 25.8605 39.8315 26.0252 39.5717C26.1899 39.3119 26.3128 39.149 26.4967 38.8583C26.6806 38.5675 26.9218 38.1538 27.0885 37.8474C27.2552 37.541 27.3401 37.3546 27.5093 37.0112C27.6786 36.6679 27.9296 36.1733 28.0813 35.8671C28.2826 35.4605 28.3861 35.228 28.5133 34.9974C28.7821 34.6087 28.9715 34.3181 29.0839 34.1318C29.1067 34.0918 29.1178 34.0688 29.1345 34.0398" stroke="#020205" stroke-width="2.34" stroke-linecap="round"/>
<path d="M26.4039 35.7964C26.1026 35.8319 25.8013 35.8674 25.4031 35.9131C25.0049 35.9589 24.5189 36.0138 24.2356 36.0497C23.9522 36.0856 23.8863 36.1008 23.5645 36.1389C23.2427 36.1769 22.667 36.2373 21.546 36.4048C20.425 36.5722 18.7762 36.8449 17.8998 36.9854C17.0234 37.1258 16.9693 37.1258 16.7216 37.1661C16.474 37.2063 16.0343 37.2869 15.7678 37.3399C15.4199 37.4091 15.3029 37.4415 15.2419 37.4556C15.1362 37.4801 15.1869 37.6571 15.1803 37.8081C15.1751 37.9287 15.1781 38.139 15.2399 38.84C15.3017 39.541 15.4252 40.7264 15.5039 41.5707C15.5827 42.415 15.6128 42.8824 15.7043 43.4925C15.7957 44.1027 15.9475 44.8414 16.1403 45.5424C16.333 46.2433 16.5621 46.8841 16.6866 47.2392C16.8696 47.7609 16.9161 48.0139 16.9747 48.1605C17.0356 48.3129 17.0816 48.3888 17.1302 48.4502C17.1555 48.4823 17.2091 48.4895 17.6083 48.4988C18.0075 48.5082 18.7575 48.5127 19.3722 48.491C19.9869 48.4694 20.4435 48.4213 20.8465 48.3915C21.2495 48.3617 21.5851 48.3515 21.8539 48.3336C22.1226 48.3157 22.3144 48.2904 23.5842 48.0772C24.854 47.864 27.196 47.4636 28.4357 47.2463C29.6754 47.029 29.7419 47.0068 29.7976 46.9855C29.9727 46.9188 30.0426 46.8567 30.0668 46.8203C30.079 46.8018 30.0618 46.7707 29.8187 45.5296C29.5757 44.2886 29.0999 41.8353 28.8082 40.4086C28.5166 38.982 28.4236 38.6564 28.3733 38.4705C28.3231 38.2846 28.3186 38.2484 28.2173 37.8759C28.116 37.5034 27.9182 36.7957 27.8125 36.4189C27.7067 36.0422 27.6991 36.0178 27.6858 35.9655" stroke="#020205" stroke-width="2.34" stroke-linecap="round"/>
<path d="M34.3066 38.3773C34.4686 38.3614 34.6305 38.3455 37.3678 38.003C40.1051 37.6605 45.4129 36.9918 48.2337 36.6248C51.0545 36.2579 51.2274 36.2129 51.3459 36.1797C51.4644 36.1465 51.5232 36.1265 51.7267 36.1092C51.9302 36.0919 52.2765 36.0779 52.6334 36.0635" stroke="#020205" stroke-width="2.34" stroke-linecap="round"/>
<path d="M35.5625 45.7612C36.3677 45.7203 37.1729 45.6795 39.2254 45.4143C41.278 45.1492 44.5535 44.661 46.8142 44.3824C49.0749 44.1038 50.2217 44.0497 50.9505 44.0024C52.2912 43.9156 52.6073 43.8103 52.8846 43.7403C52.9551 43.7259 53.0489 43.7128 53.1174 43.6967C53.186 43.6807 53.2265 43.6619 53.2784 43.6426" stroke="#020205" stroke-width="2.34" stroke-linecap="round"/>
<path d="M22.8145 64.0551C22.8145 64.0584 22.8145 64.0616 27.2072 63.5757C31.5999 63.0897 40.3853 62.1144 45.2879 61.5841C50.1906 61.0539 50.9443 60.9983 52.0313 60.8623C53.1184 60.7263 54.516 60.5117 55.3201 60.3809C56.5573 60.128 56.8624 60.0059 57.0831 59.8996C57.136 59.8744 57.1868 59.8551 57.2687 59.8252" stroke="#020205" stroke-width="2.34" stroke-linecap="round"/>
<path d="M21.7207 56.6225C21.8438 56.5976 21.9669 56.5728 25.8196 56.2173C29.6724 55.8617 37.2511 55.1762 42.2403 54.6074C47.2295 54.0385 49.3995 53.607 50.6289 53.3459C51.8584 53.0849 52.0814 53.0072 52.4595 52.9148C52.8377 52.8224 53.3642 52.7176 53.7714 52.6242C54.8337 52.3573 55.1357 52.33 55.3134 52.3279C55.3975 52.3258 55.4694 52.3216 55.6608 52.2871" stroke="#020205" stroke-width="2.34" stroke-linecap="round"/>
<path d="M24.5098 72.1077C24.5332 72.1018 24.5565 72.0959 29.0704 71.3504C33.5843 70.6049 42.5879 69.1199 47.5321 68.2796C52.4763 67.4393 53.0883 67.2885 53.6931 67.1978C54.8694 67.0212 55.5544 67.0357 55.7452 66.987C55.855 66.9561 55.991 66.913 56.0899 66.8878C56.1888 66.8626 56.2465 66.8567 56.4265 66.8506" stroke="#020205" stroke-width="2.34" stroke-linecap="round"/>
<path d="M25.5508 79.9073C25.554 79.9073 25.5573 79.9073 30.6395 79.1069C35.7218 78.3065 45.8829 76.7057 51.157 75.8704C56.4311 75.0351 56.5104 75.0139 56.6385 74.9851C57.1652 74.8668 57.3998 74.83 57.6274 74.7744C57.6797 74.7618 57.7304 74.7476 57.7822 74.7386C57.8339 74.7297 57.8851 74.7264 57.9677 74.7129" stroke="#020205" stroke-width="2.34" stroke-linecap="round"/>
<path d="M11.3187 73.5609C11.3203 73.5593 11.3219 73.5576 12.0556 73.0326C12.7892 72.5076 14.2549 71.4592 15.0998 70.8095C15.9446 70.1598 16.1242 69.9406 16.3266 69.6386C16.529 69.3366 16.7488 68.9584 16.8867 68.6954C17.0916 68.3046 17.1413 68.0843 17.1684 67.9605C17.1799 67.9078 17.183 67.8748 17.1787 67.6619C17.1745 67.4489 17.1617 67.0568 17.1512 66.8411C17.1363 66.5358 17.0327 66.1748 16.9341 65.8358C16.8947 65.7004 16.789 65.4682 16.7023 65.2815C16.5523 64.9586 16.4129 64.7685 16.3015 64.65C16.0687 64.4021 15.8442 64.3473 15.4169 64.1825C15.2462 64.1166 14.9299 64.081 14.4199 64.0361C14.1554 64.0128 13.8771 64.0208 13.6768 64.0272C13.3617 64.0371 13.19 64.0728 12.7576 64.1602C12.3799 64.2365 11.679 64.3676 11.2121 64.4775C10.7452 64.5873 10.533 64.6693 10.4041 64.7224C10.2752 64.7756 10.2361 64.7973 10.0426 64.8871C9.84919 64.9769 9.50268 65.1341 8.96127 65.4494C8.41985 65.7646 7.69403 66.2331 7.19676 66.5888C6.69949 66.9446 6.45276 67.1733 6.17751 67.4654C5.90227 67.7574 5.60598 68.1058 5.37143 68.4114C5.13689 68.717 4.97307 68.9693 4.86537 69.1564C4.69644 69.4498 4.63132 69.684 4.56739 69.9594C4.52893 70.1251 4.50338 70.3487 4.4824 70.6259C4.46143 70.903 4.45222 71.2283 4.44973 71.423C4.44725 71.6177 4.45175 71.6719 4.50915 71.9388C4.56656 72.2056 4.67672 72.6834 4.79437 73.0538C4.91201 73.4241 5.03379 73.6725 5.12554 73.8482C5.21729 74.0238 5.27531 74.1191 5.36648 74.2381C5.45765 74.3571 5.5802 74.497 5.99561 74.8699C6.41102 75.2427 7.11558 75.8443 7.66511 76.266C8.21464 76.6878 8.5878 76.9116 8.86837 77.0709C9.14894 77.2303 9.32561 77.3185 9.47112 77.3828C9.61662 77.447 9.72561 77.4846 9.93743 77.5322C10.1493 77.5798 10.4606 77.6361 10.6702 77.6652C10.9764 77.7076 11.1119 77.6983 11.3441 77.7045C11.5434 77.7098 11.9086 77.7066 12.116 77.7031C12.3235 77.6996 12.3622 77.6925 12.5349 77.6889C12.7076 77.6853 13.013 77.6853 13.2339 77.6746C13.737 77.6504 13.8462 77.6076 13.9645 77.5872C14.0442 77.5667 14.1237 77.5503 14.1848 77.5427C14.2124 77.5385 14.2332 77.5336 14.2594 77.5285" stroke="#020205" stroke-width="2.34" stroke-linecap="round"/>
<path d="M4.58323 68.3815C4.57999 68.3782 4.29217 68.1248 3.79699 67.6707C3.5826 67.4742 3.46471 67.3234 3.35955 67.1894C3.25439 67.0555 3.17104 66.9372 2.98912 66.5577C2.8072 66.1782 2.52923 65.5413 2.35786 65.1071C2.1865 64.6728 2.13015 64.4607 2.0832 64.1749C2.03625 63.8892 2.00039 63.5363 1.98193 63.2108C1.96346 62.8853 1.96346 62.5979 1.98798 62.3304C2.01249 62.0628 2.06153 61.8238 2.10888 61.6301C2.15623 61.4363 2.20041 61.2951 2.26764 61.1313C2.33488 60.9676 2.42383 60.7856 2.51598 60.6367C2.60812 60.4878 2.70076 60.3774 2.93602 60.1511C3.17128 59.9247 3.54636 59.5856 3.96962 59.2558C4.39289 58.926 4.85296 58.6157 5.23812 58.384C5.62327 58.1524 5.91956 58.0088 6.3799 57.814C6.84024 57.6191 7.45565 57.3775 7.90824 57.2236C8.36083 57.0697 8.63195 57.0108 9.23199 56.9691C9.83203 56.9274 10.7528 56.9046 11.444 56.9197C12.1352 56.9349 12.569 56.9887 12.9334 57.0528C13.2977 57.1169 13.5796 57.1895 13.7465 57.2356C13.9584 57.2941 14.1471 57.4124 14.5439 57.7204C14.8041 57.9223 15.1488 58.2598 15.373 58.4593C15.5972 58.6587 15.6816 58.721 15.8202 58.8504C15.9588 58.9798 16.1491 59.1745 16.3219 59.3808C16.4948 59.5871 16.6444 59.799 16.7958 60.0568C16.9472 60.3146 17.0959 60.612 17.1854 60.806C17.3105 61.0772 17.3554 61.2912 17.4001 61.5564C17.482 62.0426 17.4002 62.1935 17.3763 62.3684C17.3448 62.6002 17.2358 62.7596 17.1114 63.026C17.0427 63.1731 16.9805 63.2648 16.9323 63.3694C16.8879 63.4656 16.8196 63.5427 16.759 63.6401C16.7436 63.6666 16.7277 63.6933 16.7039 63.7348C16.6802 63.7763 16.6491 63.8318 16.6171 63.889" stroke="#020205" stroke-width="2.34" stroke-linecap="round"/>
<path d="M2.92216 59.3576C2.92054 59.356 2.91892 59.3544 2.75906 59.1248C2.5992 58.8952 2.28116 58.4377 2.04135 58.0595C1.80155 57.6813 1.64963 57.3962 1.53561 57.1212C1.42159 56.8462 1.35008 56.59 1.29397 56.3412C1.23786 56.0924 1.19932 55.8587 1.18158 55.5042C1.16383 55.1496 1.16807 54.6812 1.18277 54.3689C1.19748 54.0567 1.22253 53.9149 1.2743 53.7244C1.32607 53.5339 1.40379 53.2991 1.54312 53.005C1.68246 52.7109 1.88106 52.3646 2.02106 52.1442C2.16106 51.9238 2.23644 51.8399 2.33302 51.7477C2.4296 51.6556 2.5451 51.5577 2.79158 51.3789C3.03807 51.2001 3.41205 50.9433 3.7117 50.7655C4.01135 50.5877 4.22533 50.4966 4.51997 50.3933C4.81461 50.29 5.18343 50.1774 5.39785 50.1149C5.65972 50.0386 5.89072 49.9949 6.35751 49.9149C6.64371 49.8658 7.03532 49.8334 7.67796 49.8056C8.3206 49.7777 9.20375 49.764 9.96231 49.8088C10.7209 49.8537 11.3281 49.9576 11.8612 50.0883C12.3944 50.2191 12.8352 50.3735 13.199 50.5381C13.5627 50.7026 13.8361 50.8725 14.0791 51.0471C14.3221 51.2216 14.5264 51.3955 14.7482 51.6148C14.97 51.8341 15.2031 52.0934 15.3695 52.2913C15.5359 52.4892 15.6284 52.6178 15.7679 52.898C15.9074 53.1781 16.0911 53.6059 16.2001 53.8754C16.3092 54.1449 16.338 54.2432 16.3698 54.5124C16.4015 54.7816 16.4353 55.2187 16.4462 55.4694C16.4628 55.8512 16.3426 56.1485 16.2178 56.4686C16.171 56.5886 16.0922 56.7044 15.8961 56.9866C15.6376 57.294 15.3764 57.578 15.333 57.6228C15.3125 57.6426 15.295 57.6563 15.2524 57.6897" stroke="#020205" stroke-width="2.34" stroke-linecap="round"/>
<path d="M13.5703 72.2607C14.237 75.5941 15.8703 83.4607 17.0703 88.2607C18.062 92.2275 19.3496 97.1504 20.1431 100.151C20.39 101.085 21.2677 101.706 22.2296 101.618C26.8495 101.198 34.5387 100.32 38.0703 99.2607C42.7087 97.8692 65.4196 92.1747 71.8736 89.3625C72.6224 89.0362 72.9769 88.2359 72.8309 87.4323C71.9204 82.4235 70.3007 73.952 69.5703 71.7607C68.7703 69.3607 65.197 48.9274 64.5303 44.7607M64.5703 45.2607C64.4036 43.0941 63.8703 37.4607 63.0703 32.2607C62.3784 27.7631 61.8859 23.4401 61.6577 21.168C61.606 20.6534 61.1771 20.2606 60.6599 20.2626C56.6651 20.2776 49.2671 20.3911 45.5703 20.7607C40.5703 21.2607 29.0703 22.2607 22.5703 23.2607C18.1077 23.9473 11.6073 25.4195 7.74665 26.3499C6.78157 26.5825 6.14297 27.4909 6.24834 28.478C6.65504 32.288 7.38699 38.5025 8.07031 42.2607C8.87031 46.6607 9.40365 49.0941 9.57031 49.7607" stroke="#020205" stroke-width="2.34" stroke-linecap="round"/>
<path d="M76.6079 120.025C76.3495 119.651 76.1746 119.404 75.9836 119.148C75.5754 118.6 74.9696 117.902 74.4064 117.359C73.8007 116.774 73.042 116.351 72.4955 115.992C72.1346 115.754 71.4904 115.296 70.9414 114.95C69.9835 114.344 69.4379 114.12 69.0073 113.967C68.6551 113.843 68.0411 113.598 67.441 113.42C66.8408 113.242 66.2756 113.132 65.3474 113.07C64.4192 113.008 63.1451 112.997 61.8711 113.097C60.5971 113.197 59.3617 113.409 58.6692 113.536C57.9767 113.662 57.8644 113.698 57.4855 113.797C57.1065 113.896 56.4643 114.059 55.6337 114.361C54.8032 114.663 53.8037 115.1 53.1545 115.411C52.2171 115.861 51.7027 116.315 51.2255 116.782C50.8101 117.188 50.3601 117.78 49.7186 118.78C49.3277 119.389 48.9551 120.286 48.7137 120.92C48.4722 121.554 48.4118 121.918 48.4283 122.652C48.4448 123.386 48.5401 124.479 48.6283 125.179C48.7516 126.159 49.0398 126.759 49.3861 127.362C49.9404 128.327 50.4547 128.58 51.2588 129.172C51.962 129.689 53.2585 130.654 55.0938 131.728C56.929 132.802 59.2623 133.958 61.0594 134.738C62.8565 135.519 64.0468 135.89 65.1167 136.17C66.1867 136.449 67.1002 136.626 68.5809 136.765C70.0617 136.904 72.0819 136.999 73.1709 137.042C74.5194 137.096 75.1087 136.943 76.066 136.727C77.329 136.442 78.2142 136.18 78.3768 136.152C78.5417 136.125 78.7678 136.071 79.2903 135.932C80.2932 135.665 81.0498 135.301 81.4384 135.075C81.9977 134.749 82.4589 134.34 82.7888 134.007C83.1204 133.672 83.4168 133.315 83.7499 133.008C84.0813 132.702 84.5877 131.845 85.2162 130.595C85.7115 129.611 85.8168 129.05 85.8644 128.798C85.9497 128.347 86.1073 127.597 86.2858 126.663C86.4597 125.753 86.6243 125.225 86.8913 124.459C87.1309 123.772 87.553 122.469 87.7983 121.759C88.0435 121.05 88.0918 120.97 88.3413 120.285C88.5909 119.601 89.0403 118.313 90.0303 116.187C91.0202 114.062 92.5371 111.136 93.7197 109.002C94.9023 106.868 95.7047 105.613 96.2658 104.794C97.0821 103.601 97.5288 103.167 97.7155 102.961C97.865 102.757 98.0437 102.528 98.2367 102.303C98.3176 102.205 98.3639 102.137 98.4258 102.053" stroke="#020205" stroke-width="2.34" stroke-linecap="round"/>
<path d="M71.4258 114.053C71.6968 113.555 71.9678 113.056 72.4988 112.117C73.0297 111.179 73.8124 109.816 74.3732 108.787C74.9339 107.758 75.249 107.105 75.8734 106.037C76.4979 104.969 77.4221 103.506 77.9497 102.695C78.5606 101.755 78.851 101.411 79.1435 101C79.3439 100.718 79.5146 100.572 80.1792 99.9304C80.7816 99.349 81.9037 98.2296 82.5102 97.6345C83.1642 96.9928 83.2785 96.9053 83.5781 96.6668C84.7523 95.7592 84.9961 95.5201 85.2189 95.2937C85.3111 95.1939 85.3608 95.1246 85.4258 95.0532" stroke="#020205" stroke-width="2.34" stroke-linecap="round"/>
<path d="M49.4258 123.656C50.2445 122.916 51.0954 122.432 51.4044 122.267C51.6063 122.16 52.4899 121.831 53.6829 121.412C54.1675 121.242 54.3823 121.207 55.0256 121.123C55.5229 121.059 56.3783 121.035 57.2595 121.068C58.1407 121.102 59.0245 121.215 59.535 121.291C60.0456 121.366 60.156 121.4 60.7972 121.523C61.4383 121.646 62.6068 121.858 63.2959 121.993C64.4388 122.218 64.6544 122.388 65.5422 122.765C66.3694 123.115 67.9486 123.816 70.0379 124.929C72.1272 126.043 74.6754 127.555 76.1408 128.447C77.9319 129.537 78.2973 129.863 78.5166 130.036C78.869 130.315 79.3162 130.634 79.8457 131.181C80.632 132.076 81.1519 132.673 81.2464 132.773C81.2907 132.824 81.3276 132.874 81.4258 133.053" stroke="#020205" stroke-width="2.34" stroke-linecap="round"/>
<path d="M128.08 122.555C128.076 122.555 128.071 122.555 127.392 122.585C126.714 122.615 125.361 122.674 124.071 122.826C122.78 122.977 121.592 123.219 120.932 123.361C120.174 123.523 119.736 123.748 119.051 124.152C118.328 124.578 117.796 125.197 117.247 125.843C116.538 126.677 116.083 127.444 115.853 127.929C115.62 128.42 115.546 129.106 115.458 130.101C115.404 130.7 115.428 131.496 115.458 132.036C115.503 132.84 115.769 133.386 116.081 133.914C116.359 134.384 116.898 134.916 117.676 135.559C118.074 135.888 118.534 136.16 119.044 136.428C120.09 136.979 120.865 137.241 121.232 137.343C121.623 137.451 121.906 137.48 122.406 137.593C122.84 137.692 123.647 137.852 124.921 137.95C126.195 138.048 127.913 138.074 129.319 138.038C130.724 138.002 131.765 137.905 132.577 137.808C133.947 137.644 134.623 137.484 135.455 137.309C136.174 137.158 137.506 136.926 138.278 136.773C139.229 136.584 139.704 136.368 140.243 136.108C140.661 135.906 141.008 135.64 141.43 135.308C141.667 135.12 141.928 134.869 142.642 134.102C143.357 133.336 144.509 132.055 145.328 130.977C146.147 129.899 146.597 129.063 146.849 128.578C147.155 127.991 147.265 127.465 147.387 126.564C147.453 126.075 147.426 125.513 147.372 124.966C147.266 123.898 147.058 123.251 146.959 122.889C146.798 122.302 146.66 121.64 146.272 120.811C145.629 119.437 144.992 118.634 144.859 118.452C144.617 118.122 144.174 117.509 143.666 116.895C143.427 116.606 142.762 115.866 141.746 114.67C141.081 113.887 140.809 113.421 140.659 113.138C140.504 112.845 140.358 112.634 139.832 111.683C139.346 110.804 138.39 109.136 137.802 107.995C137.214 106.854 137.016 106.296 136.794 105.592C136.572 104.888 136.333 104.055 136.156 103.49C135.78 102.286 135.601 101.804 135.436 101.246C135.287 100.739 135.073 99.8302 134.928 99.2695C134.845 98.8285 134.786 98.5981 134.768 98.4294C134.758 98.3274 134.748 98.1924 134.737 98.0532" stroke="#020205" stroke-width="2.34" stroke-linecap="round"/>
<path d="M113.426 102.053C113.654 102.493 114.14 103.48 114.637 104.641C115.106 105.738 116.035 107.862 116.711 109.354C117.387 110.846 117.787 111.641 118.026 112.101C118.32 112.667 118.452 112.877 118.981 113.71C119.443 114.438 120.355 115.754 120.88 116.522C121.804 117.874 122.381 118.487 122.791 118.931C123.272 119.452 123.715 119.928 124.058 120.347C125.001 121.396 125.136 121.583 125.228 121.726C125.275 121.798 125.323 121.868 125.426 122.053" stroke="#020205" stroke-width="2.34" stroke-linecap="round"/>
<defs>
<filter id="filter0_g_643_5423" x="57.8096" y="-1.27554e-05" width="109.949" height="109.948" filterUnits="userSpaceOnUse" color-interpolation-filters="sRGB">
<feFlood flood-opacity="0" result="BackgroundImageFix"/>
<feBlend mode="normal" in="SourceGraphic" in2="BackgroundImageFix" result="shape"/>
<feTurbulence type="fractalNoise" baseFrequency="0.038072429597377777 0.038072429597377777" numOctaves="3" seed="3160" />
<feDisplacementMap in="shape" scale="2.5215098857879639" xChannelSelector="R" yChannelSelector="G" result="displacedImage" width="100%" height="100%" />
<feMerge result="effect1_texture_643_5423">
<feMergeNode in="displacedImage"/>
</feMerge>
</filter>
</defs>
</svg>
