<svg width="129" height="162" viewBox="0 0 129 162" fill="none" xmlns="http://www.w3.org/2000/svg">
<g filter="url(#filter0_g_1156_2876)">
<circle cx="62.7499" cy="85.8349" r="53.7499" fill="#E60611"/>
</g>
<path d="M35.541 49.8758C35.6232 49.8347 36.3433 49.3001 37.5655 48.4193C38.0981 48.0354 38.5 47.8467 38.9989 47.6484C40.8509 47.0543 41.5126 46.9305 41.9094 46.8262C41.9924 46.8054 42.0951 46.7848 42.2632 46.7637" stroke="#020205" stroke-width="2.34" stroke-linecap="round"/>
<path d="M78.3633 53.7354C80.0886 54.8856 81.0596 55.5603 81.3792 55.9518C82.0441 56.7662 82.5117 57.5303 82.7084 57.9439C82.9344 58.419 83.1746 59.5774 83.4961 60.9256C83.6122 61.4111 83.6327 61.4932 83.6022 61.5356C83.5717 61.5779 83.4896 61.5779 83.4672 61.5779" stroke="#020205" stroke-width="2.34" stroke-linecap="round"/>
<path d="M41.1424 58.3419C41.2033 57.6218 41.5563 56.3713 41.7838 56.2885C42.0479 56.1924 42.3032 56.1634 42.4999 56.184C42.8879 56.2245 43.1739 56.7423 43.3722 57.1886C43.6309 57.7709 43.2399 58.6071 43 59.2012C42.9081 59.4287 42.6791 59.6272 42.4202 59.7931C42.2397 59.9087 42.015 59.9185 41.7872 59.9394C41.6001 59.9565 41.4542 59.8569 41.33 59.7536C41.011 59.4882 40.9145 58.9668 40.8831 58.4166C40.8722 57.8869 41.161 57.2664 41.4424 56.9113C41.4946 56.8487 41.5357 56.7871 41.7025 56.5991" stroke="#020205" stroke-width="2.34" stroke-linecap="round"/>
<path d="M70.9133 63.9244C70.9116 62.8705 71.7945 61.9447 71.9609 61.7869C72.1144 61.6414 72.3226 61.5704 72.5583 61.5415C72.8211 61.5093 73.1561 61.7981 73.5169 62.2849C73.9461 62.8641 73.9369 63.523 73.8264 63.9244C73.6063 64.7238 73.0484 64.9037 72.7835 65.1914C72.6637 65.3215 72.4085 65.3928 72.1311 65.5079C71.8737 65.6147 71.6293 65.4229 71.4629 65.294C71.1012 64.821 70.8776 64.0741 70.8914 63.5859C70.9051 63.3824 70.9327 63.2685 70.961 63.1513" stroke="#020205" stroke-width="2.34" stroke-linecap="round"/>
<path d="M56.8386 75.5109C57.3316 75.2644 57.6472 75.158 57.7508 75.2404C57.8094 75.287 57.8134 75.4051 57.8137 75.4888C57.814 75.5725 57.7934 75.6341 57.7418 75.6864C57.509 75.922 57.1723 75.9466 56.8604 75.9469C56.7855 75.947 56.7565 75.8034 56.7559 75.6992C56.7552 75.5949 56.7963 75.4922 56.8586 75.4187C56.9208 75.3453 57.003 75.3042 57.0876 75.2619" stroke="#020205" stroke-width="2.34" stroke-linecap="round"/>
<path d="M27.9654 53.2951C27.613 54.3524 27.3874 54.9999 27.0269 55.7504C26.7149 56.4002 26.1231 57.5876 25.8132 58.2297C25.408 59.0692 25.2812 59.5224 25.1402 59.9242C25.0166 60.2762 25.073 61.0915 25.1099 61.5638C25.1268 61.7795 25.3969 62.4273 25.7834 63.0239C26.1891 63.6501 26.8788 63.8398 27.5847 64.093C28.3096 64.3529 29.3565 64.1388 29.7074 64.0053C30.1474 63.8379 30.5304 63.2212 30.6648 62.7159C30.7108 62.5431 30.7533 62.0656 30.8646 61.3914C30.987 60.6493 30.7547 60.1054 30.7097 59.7859C30.6596 59.4293 30.5322 59.1112 30.1917 58.1198C30.0581 57.7305 29.8807 57.0829 29.7383 56.5523C29.6398 56.1853 29.5087 55.8031 29.4344 55.4774C29.2528 54.6813 28.9898 54.2901 28.8855 53.9862C28.7532 53.6011 28.6774 53.4295 28.5595 53.1705C28.5003 53.045 28.4122 52.8395 28.3595 52.7115C28.3067 52.5836 28.2921 52.5395 28.2769 52.4941" stroke="#020205" stroke-width="2.34" stroke-linecap="round"/>
<path d="M102.514 38.2366C101.602 38.8161 101.518 39.6832 101.363 40.8362C101.29 41.3809 101.434 41.8859 101.631 42.2693C101.853 42.7029 102.202 42.8413 102.667 43.1628C103.321 43.6138 104.745 43.5895 105.593 43.4656C105.989 43.4079 106.577 42.8874 106.849 42.3988C107.415 41.3836 107.079 40.5209 106.8 39.6925C106.501 38.8073 105.96 38.3624 105.638 38.1131C105.312 37.8613 104.839 37.7188 104.507 37.6145C104.175 37.552 103.843 37.5109 103.16 37.5C103.013 37.5103 102.951 37.5308 102.887 37.6142" stroke="#020205" stroke-width="2.34" stroke-linecap="round"/>
<path d="M103.759 33.5071C105.115 33.8357 105.936 34.0256 106.369 34.1183C107.177 34.2913 107.762 34.4613 107.918 34.4719C107.991 34.4769 108.052 34.4208 108.094 34.3688C108.345 34.0592 108.591 33.3851 108.923 32.66C109.047 32.3902 109.232 32.0207 109.502 31.3373C109.772 30.6539 110.121 29.668 110.496 28.8212C111.187 27.2614 111.705 26.4339 111.798 26.113C111.972 25.5134 112.201 24.6126 112.42 23.5103C112.572 22.7463 113.032 21.625 113.106 21.0701C113.161 20.6525 113.613 20.1885 113.759 19.7845C113.861 19.5022 113.821 19.2542 113.852 19.1403C113.937 18.8324 113.118 18.9013 111.97 18.6841C110.722 18.4479 109.783 18.1556 109 17.9368C108.027 17.6646 107.64 17.6353 107.184 17.5319C107.021 17.495 106.793 17.5108 106.666 17.5621C106.32 17.7022 106.435 18.173 106.053 20.0241C105.942 20.5638 105.875 20.8084 105.865 21.0465C105.855 21.266 105.566 22.212 105.162 23.5393C105.013 24.0273 104.943 24.1272 104.798 24.8373C104.653 25.5475 104.427 26.8621 104.311 27.5906C104.146 28.6262 104.132 29.0443 104.029 29.4906C103.895 30.0704 103.842 30.5381 103.708 31.0053C103.566 31.497 103.303 31.9498 103.209 32.3435C103.199 32.4683 103.199 32.612 103.188 32.7169C103.178 32.8218 103.158 32.8834 103.074 33.0092" stroke="#020205" stroke-width="2.34" stroke-linecap="round"/>
<path d="M69.0542 10.5025C66.9082 11.7501 66.3867 11.9234 64.7852 12.4287C63.7594 12.7525 61.9519 13.3633 60.8614 13.6885C59.4716 14.1029 58.8421 14.1294 58.2775 14.2596C57.7329 14.3852 56.2973 14.6797 54.1104 14.9408C52.3076 15.1561 51.2958 15.0584 50.776 15.1019C48.925 15.2569 47.3537 14.7127 46.6385 14.2339C46.1426 13.9019 46.0704 13.3477 46.0992 13.1017C46.1326 12.8158 46.3595 12.5354 46.9789 11.8293C47.4772 11.2614 48.374 10.2901 49.0914 9.60017C49.8088 8.91022 50.3259 8.53674 51.8421 7.65482C53.3582 6.77291 55.8577 5.39389 57.5475 4.5542C59.2373 3.71451 60.0418 3.45594 60.9302 3.23655C61.8187 3.01716 62.7667 2.84478 63.4419 2.74161C64.117 2.63845 64.4905 2.60972 65.3006 2.45127C66.1107 2.29282 67.3461 2.00553 68.6433 1.7857C69.9405 1.56587 71.262 1.42223 72.3163 1.34823C74.1147 1.222 75.0308 1.24549 75.3634 1.20197C76.6421 1.0346 78.3939 1.56326 79.2663 1.85361C79.7997 2.03113 80.4259 2.46172 82.1937 3.69231C83.107 4.32814 82.8967 5.56452 82.7957 6.22008C82.7551 6.48325 82.3195 6.90089 81.2373 7.7963C80.4973 8.40864 79.2645 9.20884 78.4849 9.70987C77.7053 10.2109 77.3893 10.3545 75.8331 11.1611C74.2769 11.9678 71.4901 13.433 69.9252 14.274C68.3603 15.115 68.1018 15.2873 67.0348 15.6203C65.9679 15.9533 64.1005 16.4418 62.3915 16.8226C60.6825 17.2035 59.1886 17.4621 58.2897 17.5953C56.6743 17.8347 55.8542 17.8156 55.1416 17.8878C54.4308 17.9599 53.5611 18.0767 53.0513 17.8748C52.4545 17.6383 52.889 16.0813 53.5258 14.267C53.7335 13.6754 54.0791 13.406 54.382 13.0303C54.8746 12.4196 55.5861 11.9843 57.4291 11.1198C58.9707 10.3967 61.8004 9.22103 64.0552 8.38395C66.3101 7.54687 67.9189 7.11592 69.193 6.8221C70.4672 6.52827 71.3578 6.38462 72.3194 6.32499C73.2809 6.26535 74.2865 6.29408 75.1636 6.36634C77.8064 6.58406 78.7143 7.10548 79.1374 7.49725C79.7324 8.04816 79.82 8.99119 79.8352 9.47045C79.8626 10.3305 78.8954 11.744 77.7362 13.1814C77.1003 13.9699 76.3698 14.3898 75.8775 14.6936C75.6363 14.8424 75.4426 15.0262 74.0175 15.7183C72.5923 16.4104 69.9492 17.6171 67.6251 18.5403C65.301 19.4636 63.3762 20.0669 62.2984 20.3777C61.0606 20.7347 60.6695 20.7172 59.9195 20.7608C58.4823 20.8442 57.4761 20.6607 57.3168 20.4004C57.1375 20.1073 57.1557 19.7901 57.2424 19.5585C57.3379 19.303 57.9637 18.8637 59.0915 18.169C60.4338 17.3422 61.5932 16.9467 62.4881 16.4844C63.0863 16.1754 64.0152 15.7923 65.0634 15.4127C66.1116 15.0331 67.2608 14.6884 68.2693 14.4246C69.2779 14.1608 70.1111 13.9884 70.8563 13.8852C71.6016 13.7821 72.2336 13.7534 73.0189 13.8104C73.8042 13.8674 74.7235 14.011 75.5706 14.2C77.1792 14.5587 77.9917 14.9992 78.0788 15.3605C78.1973 15.8522 78.0797 16.3051 78.0074 16.5945C77.9331 16.892 77.761 17.1469 76.8978 17.9818C76.1364 18.7183 74.6556 20.0234 72.8809 21.1208C71.1062 22.2182 69.0664 23.0513 67.3979 23.6098C65.7294 24.1683 64.494 24.4269 63.3692 24.5744C61.2781 24.8488 60.2324 24.6941 60.1889 24.4774C60.1292 24.18 60.2316 23.8531 60.3761 23.5637C60.5337 23.2479 60.9838 22.8389 61.9075 22.1881C62.5066 21.766 63.5207 21.3937 64.4117 21.0999C65.3028 20.8061 66.0785 20.6624 66.8372 20.5597C68.3094 20.3603 69.3128 20.2828 69.9918 20.1958C70.9793 20.0692 72.1822 20.3673 73.2831 20.7725C74.1847 21.1044 74.5964 21.4712 74.6835 21.6449C74.9311 22.139 74.2795 23.0652 73.8442 23.5454C73.2188 24.2352 71.7287 24.6341 70.2095 25.1547C68.2138 25.8386 66.5904 26.2011 66.1551 26.3178C66.0121 26.3561 66.0071 26.2046 66.0646 26.1023C66.4545 25.4081 68.7234 25.4768 69.893 25.6644C70.245 25.7209 70.475 25.9983 70.6778 26.1863C71.0496 26.531 70.9695 27.2145 70.8685 27.652C70.4785 28.0868 69.8682 28.5805 69.4782 28.9274C69.2318 29.1307 68.887 29.3893 68.3577 29.7427" stroke="#020205" stroke-width="2.34" stroke-linecap="round"/>
<path d="M22.4707 45.955C23.4865 45.561 24.1052 45.355 24.7712 45.2498C25.9212 45.0682 27.2186 45.2691 27.8008 45.4462C28.1947 45.566 28.4447 45.6849 28.8073 45.8299C29.4152 46.0731 29.8551 46.1617 30.363 46.3176C30.8353 46.4626 31.2656 46.4318 32.4354 46.4324C32.9275 46.4327 33.4017 45.9986 33.7873 45.8206C33.9261 45.7565 34.0472 45.665 34.1713 45.5411C34.5783 45.1352 34.5457 43.8674 34.4735 43.2693C34.4285 42.8959 34.1113 42.513 33.9137 42.2214C33.7116 41.9232 33.4677 41.6615 33.1982 41.4122C32.95 41.1827 32.3921 40.6271 31.9947 40.333C31.7211 40.1305 31.4349 40.0009 31.1548 39.8559C30.7659 39.6545 29.7207 39.3598 28.3358 39.0778C27.7837 39.005 27.0804 38.9216 26.3338 38.87C25.983 38.8594 25.3874 38.8594 24.7737 38.8594" stroke="#020205" stroke-width="2.34" stroke-linecap="round"/>
<path d="M32.9886 40.789C34.2116 40.4155 34.6256 40.3745 36.0743 40.3738C36.7302 40.3736 37.2597 40.5599 37.7377 40.7467C38.4606 41.0291 38.878 41.1824 39.3358 41.2866C39.7097 41.3718 40.0407 41.4114 40.6516 41.4631C41.7602 41.5568 42.0125 41.3703 42.3442 41.2048C42.8238 40.9655 43.0706 40.5624 43.2063 40.2403C43.3486 39.9025 43.5076 39.34 43.4456 38.8713C43.3994 38.5215 43.2387 38.1972 43.1241 37.9268C43.0027 37.64 42.5976 37.2026 42.0467 36.6723C41.7202 36.358 41.3303 36.2665 40.8744 36.0284C40.556 35.8621 40.2099 35.7274 39.8782 35.5924C39.3819 35.3903 39.0896 35.1461 38.4684 34.908C38.0413 34.7443 37.4526 34.566 36.519 34.2959C36.0517 34.1607 35.5019 34.088 34.9097 34.0049C34.504 33.948 34.0069 33.9012 33.6745 33.8284C33.3216 33.7973 32.8871 33.7556 32.514 33.7453C32.3668 33.7351 32.3052 33.7145 32.1172 33.6934" stroke="#020205" stroke-width="2.34" stroke-linecap="round"/>
<path d="M41.7023 35.8097C43.6704 35.7892 44.8705 35.5832 45.3939 35.3127C45.9971 35.0011 46.307 34.7939 46.5666 34.5658C46.8703 34.2988 47.0751 33.9649 47.1691 33.6017C47.2917 33.128 47.2419 32.6179 47.18 32.2423C47.1169 31.8596 46.9519 31.5785 46.6005 30.9265C46.2618 30.298 45.8116 30.2913 45.459 30.1049C45.1623 29.948 44.8157 29.8145 44.4012 29.6483C44.0037 29.489 43.5098 29.3166 42.8358 29.0471C42.2582 28.8162 41.9525 28.7352 41.1247 28.5074C40.7175 28.3954 40.2944 28.3618 39.9502 28.289C39.5916 28.2131 39.0906 28.1539 38.7159 28.1022C38.4055 28.0594 37.7039 28.0294 36.6336 27.9261C36.0468 27.8694 35.5627 27.8844 34.5127 27.8533C33.6273 27.827 32.0249 27.8427 31.1071 27.853C29.6694 27.8691 29.1318 27.9871 28.2633 28.0705C27.0486 28.1871 26.0813 28.3195 25.7088 28.392C24.5716 28.6134 23.2387 28.983 22.9477 29.1492C22.7711 29.25 22.2453 29.5002 21.5099 29.935C20.9273 30.2794 20.6239 30.5807 20.3245 30.8179C19.7993 31.2339 19.4413 31.6594 18.9982 32.092C18.0454 33.022 17.3257 33.8989 17.0254 34.2614C16.6114 34.7612 16.2265 35.206 15.8832 35.6214C15.567 36.0042 15.2095 36.4297 14.4641 37.3101C14.0388 37.8124 13.6746 38.3592 13.3223 38.7942C13.0788 39.0949 12.9059 39.3358 12.2059 40.4773C11.5796 41.4988 10.5201 43.488 9.91823 44.5551C9.25249 45.7355 9.00575 46.0772 8.76736 46.5123C8.60395 46.8106 8.50719 47.0744 8.04379 47.8978C7.65279 48.5927 6.98474 49.8715 6.50205 50.8357C6.01936 51.7998 5.75234 52.416 5.471 52.9902C4.93092 54.0925 4.52367 54.8123 4.34784 55.216C4.17591 55.6107 3.86079 56.303 3.52935 57.1838C3.39009 57.5538 3.28007 57.7564 2.94987 58.653C2.61968 59.5496 2.0651 61.1312 1.76913 62.0486C1.41097 63.1589 1.39039 63.568 1.28707 64.5772C1.20287 65.3997 1.14266 66.86 1.1825 67.8988C1.22233 68.9376 1.38665 69.5128 1.58427 70.0658C1.78189 70.6188 2.00783 71.1323 2.41179 71.7974C2.81574 72.4624 3.39086 73.2635 3.74876 73.7378C4.21085 74.3502 4.43902 74.5855 4.75864 74.9879C4.98658 75.2749 5.38635 75.6984 6.16252 76.3622C6.93868 77.026 8.08892 77.9093 8.83552 78.4361C10.2898 79.2755 10.5799 79.3583 10.8808 79.5447C10.9539 79.5867 11.0156 79.6072 11.1413 79.6906" stroke="#020205" stroke-width="2.34" stroke-linecap="round"/>
<path d="M22.4068 51.5566C21.1744 52.5015 20.3958 53.1115 19.6234 53.9349C18.9796 54.6213 17.8856 55.9086 17.1088 56.7495C16.332 57.5904 15.9212 57.9601 15.5144 58.3971C14.6799 59.2935 14.2537 59.9581 14.1501 60.1859C13.9142 60.7045 13.7141 61.5129 13.7032 62.9311C13.6974 63.6829 14.1684 64.3761 14.7591 65.4224C14.8954 65.6433 14.9776 65.7255 15.0507 65.7884C15.1239 65.8512 15.1855 65.8923 15.3735 65.9346" stroke="#020205" stroke-width="2.34" stroke-linecap="round"/>
<path d="M25.9185 22.8567C24.9199 22.1812 24.3467 21.7891 24.1843 21.6636C23.9312 21.468 23.7384 21.2849 23.4294 20.9389C23.169 20.6475 22.6798 20.1377 22.0997 19.3884C21.5197 18.639 20.8588 17.6698 20.4891 17.1118C20.0472 16.4449 19.9266 16.0656 19.8153 15.6286C19.677 15.0854 19.733 14.5966 19.8289 13.9296C19.9041 13.4068 20.4138 13.0089 20.7109 12.7931C20.8604 12.6844 21.1988 12.4896 21.6948 12.2526C22.5361 11.8506 23.3499 11.8652 23.685 11.9465C24.2803 12.0907 25.2047 12.6502 25.5464 13.0723C25.7297 13.2986 25.8139 13.9078 25.9251 14.7441C26.022 15.4723 25.9483 15.9285 25.926 16.2898C25.8849 16.9583 25.8744 17.7944 25.8076 18.4835C25.7681 18.8922 25.7556 19.2353 25.7111 19.8331C25.696 20.7981 25.7253 21.4763 25.7698 21.7933C25.785 22.0223 25.785 22.3894 25.785 22.7677" stroke="#020205" stroke-width="2.34" stroke-linecap="round"/>
<path d="M17.5521 27.4412C17.5227 27.4412 17.2286 27.4852 16.5342 27.5593C15.5798 27.6612 14.81 27.6485 14.4178 27.693C14.0715 27.7323 13.8003 27.7229 13.1013 27.7304C12.505 27.7369 11.4183 27.6939 10.719 27.6494C9.7372 27.587 9.32101 27.3976 9.09139 27.2347C8.9238 27.1158 8.78657 26.9819 8.4842 26.7388C7.90755 26.275 7.46671 25.752 7.27403 25.4483C7.15269 25.257 7.08046 24.8486 6.99146 24.1976C6.90318 23.5519 6.99057 23.0962 7.0938 22.7787C7.37177 21.9239 7.6278 21.6874 8.09393 21.2499C8.69008 20.6905 9.77802 20.5589 10.0381 20.4772C10.1722 20.4351 10.7681 20.6901 11.6497 21.0308C12.2339 21.2565 12.4934 21.4333 12.7366 21.6469C13.2448 22.0932 13.7087 22.5889 14.0048 22.9367C14.27 23.2481 14.3922 23.5243 14.6058 23.8414C15.3495 24.9453 15.7116 25.1699 15.9859 25.5039C16.3947 26.1053 16.8659 26.666 17.1881 26.9586C17.2255 26.9957 17.2549 27.0398 17.2851 27.0852" stroke="#020205" stroke-width="2.34" stroke-linecap="round"/>
<path d="M110.913 47.2431C113.16 46.2445 115.406 45.2459 116.938 44.636C118.47 44.0262 119.219 43.8353 119.745 43.7222C120.543 43.5504 120.954 43.5496 121.367 43.579C121.663 43.6 122.132 43.6671 122.734 43.8001C123.336 43.9332 124.055 44.1388 124.463 44.2593C125.14 44.4598 125.507 44.7502 125.812 44.958C126.028 45.1056 126.263 45.5779 126.406 46.0033C126.521 46.3466 126.62 46.8248 126.651 47.4707C126.675 47.9711 126.311 48.3689 125.94 48.7547C125.815 48.8858 125.673 48.9336 125.451 49.0591C125.042 49.2914 124.326 49.4818 123.622 49.6449C123.23 49.7358 122.9 49.7791 122.427 49.8458C121.842 49.9284 121.386 49.8832 120.907 49.9055C119.945 49.9502 119.191 49.8983 118.844 49.8394C118.628 49.8026 118.335 49.7217 117.883 49.6471C117.431 49.5726 116.829 49.4992 115.821 49.3145C114.813 49.1298 113.418 48.8361 112.656 48.6702C111.636 48.4483 111.256 48.3119 110.966 48.2149C110.78 48.1184 110.632 48.0592 110.521 48.0073C110.468 47.9849 110.424 47.9702 110.379 47.9105" stroke="#020205" stroke-width="2.34" stroke-linecap="round"/>
<path d="M85.5469 29.0874C85.5616 29.058 85.5762 29.0286 85.973 28.3233C86.3697 27.618 87.148 26.2376 87.8279 25.1741C88.5079 24.1105 89.0659 23.4056 89.4855 22.9691C89.9052 22.5326 90.1695 22.3857 90.5627 22.2146C91.4582 21.8249 92.1021 21.5972 92.3533 21.4641C92.6857 21.288 93.1243 21.1669 93.6638 21.1001C94.7644 20.964 95.0093 21.2697 95.3281 21.4917C95.5127 21.6202 95.7208 22.0827 95.9729 22.6311C96.2444 23.2218 96.0345 24.1301 95.9157 24.4289C95.862 24.564 95.7235 24.7696 95.4356 25.0873C95.0223 25.5434 94.5229 25.882 94.1896 26.1043C93.7955 26.3671 93.2195 26.6087 92.5217 26.8317C91.8387 27.0499 91.3327 27.2624 91.1552 27.3439C90.9827 27.4229 90.7694 27.4556 90.3197 27.5439C89.4372 27.7172 88.7962 27.9299 88.6187 28.0114C88.2651 28.1735 87.9365 28.3157 87.1667 28.5672C86.8231 28.7015 86.4102 28.8488 85.971 28.9832C85.8886 28.9984 85.8299 28.9984 85.7694 29.0429" stroke="#020205" stroke-width="2.34" stroke-linecap="round"/>
<path d="M106.418 119.199C106.066 119.992 105.752 120.636 105.53 121.043C105.383 121.312 105.306 121.498 105.137 121.829C104.785 122.517 104.579 123.04 104.535 123.181C104.475 123.37 104.342 123.809 104.231 124.446C104.08 125.312 104.238 125.621 104.482 126.25C104.569 126.477 104.815 126.733 105.104 127.051C105.534 127.525 106.43 128.053 106.766 128.195C106.971 128.282 107.174 128.38 107.389 128.492C107.602 128.602 107.945 128.589 108.337 128.626C108.937 128.682 109.176 128.485 109.406 128.404C109.72 128.292 110.257 128.16 110.6 128.003C110.919 127.858 111.547 127.405 111.98 126.959C112.373 126.553 112.586 125.717 112.9 124.949C113.034 124.392 113.093 124.139 113.101 124.05C113.108 124.006 113.123 123.962 113.138 123.916" stroke="#020205" stroke-width="2.34" stroke-linecap="round"/>
<path d="M111.803 127.253C111.832 127.283 112.009 127.445 112.4 127.748C112.885 128.123 113.418 128.291 113.832 128.38C114.589 128.543 114.842 128.366 115.154 128.314C115.693 128.225 115.984 128.085 116.252 127.914C116.522 127.742 116.902 127.463 117.179 127.254C117.361 127.117 117.498 126.869 118.178 126.159C118.448 125.877 118.698 125.432 118.98 124.921C119.135 124.64 119.277 124.245 119.5 123.668C119.679 122.76 119.694 122.537 119.716 122.448C119.724 122.403 119.724 122.359 119.724 122.314" stroke="#020205" stroke-width="2.34" stroke-linecap="round"/>
<path d="M118.655 126.898C119.841 127.135 120.137 127.165 120.721 127.246C121.414 127.343 121.976 127.269 122.206 127.225C122.417 127.184 122.79 127.136 123.228 127.01C123.477 126.938 124.02 126.487 124.776 125.805C125.176 125.444 125.461 125.061 125.919 124.514C126.172 124.213 126.407 123.82 126.609 123.411C127.01 122.599 127.124 122.048 127.176 121.798C127.21 121.634 127.272 121.4 127.302 120.831C127.332 120.262 127.332 119.366 127.156 118.178C126.98 116.989 126.627 115.536 126.402 114.684C126.176 113.832 126.088 113.626 125.896 112.955C125.703 112.284 125.41 111.153 125.244 110.475C125.078 109.797 125.048 109.606 124.901 109.17C124.754 108.734 124.489 108.059 123.766 106.631C123.042 105.204 121.868 103.045 120.594 101.052C119.321 99.0591 117.985 97.2969 116.701 95.7797C115.418 94.2625 114.229 93.0436 113.476 92.3056C112.445 91.3473 112.084 91.0763 111.907 90.9582C111.803 90.8841 111.671 90.7813 111.49 90.6309" stroke="#020205" stroke-width="2.34" stroke-linecap="round"/>
<path d="M104.995 122.181C104.29 122.357 103.721 122.448 103.277 122.396C102.345 122.288 102.074 121.855 101.467 121.345C101.031 120.979 100.797 120.609 100.694 120.41C100.4 119.844 100.56 118.889 100.552 118.363C100.547 118.056 100.677 117.527 100.907 116.932C101.098 116.437 101.33 116.1 101.463 115.856C101.71 115.403 102.218 114.9 102.876 114.382C103.231 114.103 103.666 113.835 104.069 113.515C104.472 113.195 104.839 112.843 105.197 112.566C106.315 111.701 106.848 111.591 107.078 111.398C107.53 111.018 108.064 110.922 108.301 110.789C108.775 110.596 109.457 110.36 109.748 110.211C109.8 110.181 109.844 110.151 109.979 110.032" stroke="#020205" stroke-width="2.34" stroke-linecap="round"/>
<path d="M103.703 103.002C103.835 103.193 103.967 103.384 104.491 104.304C105.014 105.225 105.925 106.87 106.408 107.754C106.994 108.824 106.981 109.082 107.151 109.697C107.233 110.047 107.263 110.255 107.307 110.433C107.322 110.477 107.337 110.522 107.352 110.611" stroke="#020205" stroke-width="2.34" stroke-linecap="round"/>
<path d="M54 81.1738C55.9432 82.2473 57.2108 82.3056 58.4801 82.118C58.6995 82.0453 58.8719 81.9591 59.0038 81.886C59.1356 81.8128 59.2218 81.7554 59.4848 81.6091" stroke="#020205" stroke-width="2.34" stroke-linecap="round"/>
<path d="M24.5302 141.439C21.9341 139.898 21.2862 139.654 20.1117 139.229C18.2154 138.543 17.0266 138.478 15.8893 138.294C15.0524 138.159 13.5001 138.474 11.5956 138.899C10.0604 139.242 8.50627 140.135 7.02553 141.007C5.94283 141.645 5.53626 142.167 4.36116 144.11C3.43077 145.648 3.87042 146.997 3.84911 148.92C3.82778 150.846 5.12467 152.922 5.77493 153.634C6.11387 154.005 7.38962 154.908 9.23508 156.004C10.6048 156.817 11.2133 157.065 11.8026 157.41C13.0318 158.13 14.9054 158.446 15.9411 158.73C17.3282 159.11 18.6389 159.218 19.9181 159.319C20.6243 159.375 21.24 159.38 22.6099 159.441C23.7378 159.491 25.7479 159.462 27.0442 159.502C28.866 159.558 30.5263 159.705 32.4119 159.665C34.1193 159.628 35.0781 159.301 36.3579 158.632C37.3068 158.137 38.4049 156.912 39.2019 155.549C39.6729 154.744 39.7882 152.374 39.935 150.174C40.0218 148.872 39.6299 147.896 39.5094 146.847C39.4161 146.036 39.1477 144.674 39.0235 143.427C38.792 141.104 38.8591 139.616 38.7982 138.606C38.7592 137.959 38.7775 137.034 39.1794 135.452C39.5812 133.871 40.3849 131.661 40.9798 130.181C41.9363 128.018 42.55 126.992 43.1966 126.264C43.6021 125.857 44.1647 125.375 44.9879 124.635" stroke="#020205" stroke-width="2.34" stroke-linecap="round"/>
<path d="M21.3652 138.516C21.6477 136.533 22.0545 134.99 22.5604 133.389C22.8578 132.448 23.5109 130.816 24.5039 128.93C24.9111 128.157 25.2157 127.808 26.3652 126.657C27.5147 125.506 29.5239 123.578 30.6193 122.503C31.7146 121.429 31.8352 121.269 31.9576 121.126C32.0799 120.983 32.2005 120.862 32.4465 120.738" stroke="#020205" stroke-width="2.34" stroke-linecap="round"/>
<path d="M84.3214 127.192C85.3662 128.639 86.1456 129.665 86.5913 130.212C86.9859 130.696 88.0063 131.931 89.9485 133.895C90.972 134.93 92.2123 135.899 92.994 136.496C94.0576 137.31 95.7546 138.345 97.8442 139.826C99.1985 140.785 99.8644 141.517 100.515 142.268C101.276 143.148 102.258 144.598 102.728 145.677C103.288 146.965 103.966 148.982 104.069 149.859C104.245 151.368 104.09 153.653 103.302 155.213C102.734 156.338 101.536 156.902 100.284 157.468C99.4883 157.828 98.3081 158.195 96.1406 158.623C93.9731 159.051 90.8387 159.493 87.8376 159.721C84.8365 159.949 82.0638 159.949 79.8317 159.828C77.5996 159.707 75.9922 159.466 75.0637 159.302C73.3125 158.992 72.3099 158.124 71.4575 157.637C70.7022 157.205 69.9572 156.139 69.0823 154.717C68.6459 154.008 68.6129 152.652 69.0372 150.397C69.2904 149.052 70.2714 146.975 71.2072 145.098C71.9191 143.67 73.8758 142.625 75.6507 141.725C76.0413 141.527 76.5244 141.278 77.3336 140.995C80.0874 140.709 82.8176 140.749 83.2224 140.81C83.4264 140.83 83.6273 140.83 83.8343 140.83" stroke="#020205" stroke-width="2.34" stroke-linecap="round"/>
<path d="M76.8924 139.734C76.6513 139.654 76.1655 139.251 75.296 138.241C74.0247 136.764 73.2417 135.113 72.8362 134.019C72.5278 133.187 72.5087 132.512 72.4082 131.503C72.1068 129.61 71.8998 127.807 71.8797 126.833C71.8596 126.462 71.8194 126.342 71.6562 125.974" stroke="#020205" stroke-width="2.34" stroke-linecap="round"/>
<path d="M72.3595 64.0015C72.3293 63.6535 72.3215 63.4335 72.3367 63.3424C72.3392 63.3275 72.3595 63.5748 72.3483 63.8857C72.3446 63.987 72.3145 63.9715 72.3066 63.9375C72.3063 63.8509 72.329 63.7517 72.3555 63.6647C72.367 63.6228 72.3745 63.5852 72.3823 63.5466" stroke="#020205" stroke-width="2.34" stroke-linecap="round"/>
<defs>
<filter id="filter0_g_1156_2876" x="7.73839" y="30.8233" width="110.023" height="110.023" filterUnits="userSpaceOnUse" color-interpolation-filters="sRGB">
<feFlood flood-opacity="0" result="BackgroundImageFix"/>
<feBlend mode="normal" in="SourceGraphic" in2="BackgroundImageFix" result="shape"/>
<feTurbulence type="fractalNoise" baseFrequency="0.045198779553174973 0.045198779553174973" numOctaves="3" seed="3160" />
<feDisplacementMap in="shape" scale="2.5232253074645996" xChannelSelector="R" yChannelSelector="G" result="displacedImage" width="100%" height="100%" />
<feMerge result="effect1_texture_1156_2876">
<feMergeNode in="displacedImage"/>
</feMerge>
</filter>
</defs>
</svg>
