<svg width="217" height="174" viewBox="0 0 217 174" fill="none" xmlns="http://www.w3.org/2000/svg">
<g filter="url(#filter0_g_392_3193)">
<ellipse cx="132.817" cy="89.8935" rx="81.3622" ry="81.3623" fill="#E60611"/>
</g>
<path d="M100.93 34.6075C100.979 33.8805 101.434 32.2077 102.154 31.4981C102.493 31.1639 102.952 31.2931 103.205 31.3812C103.758 31.574 103.914 32.2016 104.029 32.7837C104.175 33.5286 103.79 34.4026 103.449 34.9343C102.929 35.7447 101.895 35.8462 101.349 35.8602C100.971 35.8699 100.755 34.7153 100.651 33.4228C100.618 33.0112 100.878 32.7367 101.168 32.4718C101.9 31.8021 102.496 31.851 102.952 31.7489C103.054 31.7485 103.129 31.7736 103.218 31.8366C103.307 31.8995 103.407 31.9997 103.51 32.103" stroke="#020205" stroke-width="3.54451" stroke-linecap="round"/>
<path d="M148.444 41.7466C148.393 41.6965 148.393 41.2198 148.518 40.4741C148.602 39.9785 149.075 39.8749 149.415 39.7615C150.644 39.3509 151.452 39.5956 151.769 39.81C152.26 40.1414 151.835 41.2866 151.582 42.0099C151.434 42.4306 151.227 42.8319 150.76 43.3639C150.599 43.5471 150.292 43.6182 149.864 43.6941C149.391 43.7776 148.976 43.6447 148.724 43.4557C148.131 43.0129 148.368 41.4506 148.531 40.5724C148.631 40.0366 149.251 39.7748 149.744 39.4833C150.262 39.1776 150.819 39.1418 151.389 39.0397C151.527 39.015 151.654 39.0644 151.731 39.1274C151.808 39.1903 151.833 39.2905 151.859 39.3797C151.884 39.4689 151.909 39.544 151.935 39.6973" stroke="#020205" stroke-width="3.54451" stroke-linecap="round"/>
<path d="M20.0537 17.9916C20.6143 17.6099 21.2886 17.2795 22.2852 17.1081C22.641 17.0188 22.7607 16.9783 22.8775 16.9546C22.9943 16.931 23.1048 16.9243 23.2171 16.9176C23.6645 16.8907 24.2595 16.6266 26.7683 17.5587C27.6489 17.8858 28.2227 18.144 28.6285 18.4605C29.0235 18.7685 29.5723 19.0592 30.0948 19.8996C30.6965 20.8675 31.3832 21.6458 31.1883 22.3011C30.7998 23.6076 30.3656 24.3607 29.6315 25.2338L29.625 25.2416C29.2509 25.6866 28.9071 26.0955 27.8267 26.8384C27.174 27.2872 26.2706 27.9208 25.5126 28.4345C24.7955 28.9204 23.7873 29.5884 23.1043 30.2444C22.0388 31.2679 20.7632 32.9626 20.2622 33.6773C19.7872 34.3551 18.8887 34.9427 18.3772 38.3251C18.1623 39.7468 18.1133 41.1715 19.2184 43.4752C19.6401 44.3542 20.0524 45.0352 20.5188 45.4491C20.9623 45.8427 21.8148 46.6339 22.7763 47.153C24.0533 47.8425 25.0656 48.1666 25.8182 48.2962C26.3976 48.3959 27.21 48.4928 27.9544 48.3916C28.5435 48.3115 30.0005 48.0393 31.2852 47.3778C31.9647 47.028 33.4777 45.8705 33.8167 44.5524C34.2741 42.7736 34.5305 41.1571 34.9005 39.8225C35.4757 37.7477 35.735 36.7024 36.1728 35.8288C36.4079 35.3598 36.3699 34.5724 37.9192 32.6666C38.4921 31.9618 38.9078 31.6048 39.7416 30.4447C40.3251 29.6328 40.7546 29.0453 41.2136 28.5708C41.5944 28.1771 42.1226 27.6097 43.3629 25.4056C43.7101 24.7886 44.3274 23.1564 44.7787 20.5178C44.9765 19.3613 45.0243 18.5252 44.9639 18.0507C44.858 17.2195 44.8775 16.3245 44.5993 15.722C44.3673 15.2196 44.3431 14.5852 43.9428 14.136C43.5342 13.6776 43.0577 13.1523 42.3697 12.2116C41.9539 11.6429 41.4745 11.1851 41.0165 10.7692C40.0936 9.93116 38.3486 8.6377 37.2702 8.11626C35.4094 7.21651 34.4107 6.82987 33.5899 6.49051C32.9631 6.23134 32.3988 6.11746 31.3203 5.66255C30.7273 5.41245 30.1058 4.97451 28.2025 4.6447C27.2389 4.47772 26.4128 4.23251 25.8255 4.2276C25.1862 4.22225 23.7984 4.40299 22.8447 4.62024C22.102 4.78942 21.3068 4.84536 18.607 5.99769C17.847 6.32211 17.206 6.46335 16.5875 6.84684C15.9074 7.26853 15.2541 7.89577 14.7242 8.26977C14.2722 8.58881 13.4867 9.12915 12.6911 9.63126C11.877 10.1451 11.4318 10.3765 11.0183 10.6837C10.398 11.1446 9.76201 11.9506 9.29528 12.6042C8.8546 13.2214 8.4077 13.9157 8.04639 14.394C7.67767 14.8821 7.15207 15.3718 6.80751 16.3535C6.4962 17.2406 5.80777 19.5539 5.52049 20.9538C5.33886 21.8387 5.30753 22.5113 5.37946 23.2602C5.47182 24.2219 5.60133 25.0636 5.80351 25.6439C5.97964 26.1494 5.95494 26.8619 6.908 27.7543C7.72685 28.521 8.26939 28.6873 8.85138 28.7663C9.54173 28.8601 10.2484 29.0378 10.7792 28.9526C11.3344 28.8634 12.7137 28.6817 13.706 28.2158C14.5056 27.8404 15.4132 27.3976 15.8938 26.9518C16.3085 26.5672 16.9511 26.1455 17.195 24.5507C17.3162 23.7578 16.945 22.8832 18.1292 20.3834C18.6833 19.2136 19.3419 18.4763 20.0537 17.9916Z" stroke="#020205" stroke-width="3.54451" stroke-linecap="round"/>
<path d="M27.0884 54.5527C26.2642 54.9132 24.9228 55.8012 24.4535 56.4618C23.4682 57.8486 23.3459 58.6757 23.0778 59.3359C22.6108 60.4858 22.7635 61.12 22.8904 61.9426C22.9915 62.598 23.6862 63.673 25.3034 65.6274C26.0399 66.5174 26.8875 66.7706 28.0106 67.0908C28.6776 67.2809 29.5931 67.0582 30.2684 66.9457C30.9715 66.8285 31.701 66.4514 33.0166 65.9077C33.863 65.5578 34.4844 64.8167 35.1035 64.1424C36.7469 62.3528 36.9252 61.589 37.1235 60.853C37.4129 59.7791 36.6659 58.3323 35.8636 56.8903C35.2984 55.8741 34.7918 55.4826 34.2429 54.9327C33.5276 54.2162 32.4942 53.8031 31.8177 53.5306C30.1899 52.875 29.6726 53.1196 29.0347 53.3141C28.1539 53.5908 27.3388 54.1758 26.8572 54.599C26.7609 54.6836 26.666 54.767 26.4383 54.928" stroke="#020205" stroke-width="3.54451" stroke-linecap="round"/>
<path d="M92.7617 106.474C93.2554 106.226 94.0314 106.085 97.4014 106.084C98.493 106.084 99.5484 106.366 100.751 106.543C102.053 106.735 103.233 107.287 104.205 107.657C105.222 108.045 105.641 108.701 106.189 109.302C106.64 109.797 107.021 110.61 107.551 111.513C107.873 112.062 108.012 112.803 108.33 114.13C108.551 115.05 108.297 116.058 108.226 116.786C108.156 117.505 107.802 118.113 107.431 119.015C107.192 119.595 106.356 120.76 105.098 121.864C104.56 122.336 103.56 122.714 102.831 123.016C102.2 123.277 100.77 123.633 99.3297 123.795C97.8669 123.884 95.8414 123.848 95.5945 123.795C95.4528 123.777 95.2777 123.777 94.991 123.671" stroke="#020205" stroke-width="3.54451" stroke-linecap="round"/>
<path d="M94.459 118.152C94.8454 118.222 96.2552 118.364 97.0227 118.153C97.6035 117.993 98.0662 117.693 98.7557 117.322C98.9166 117.232 99.0217 117.162 99.1283 117.109C99.235 117.055 99.3401 117.02 99.5546 116.878" stroke="#020205" stroke-width="3.54451" stroke-linecap="round"/>
<path d="M96.4778 119.001C96.2676 119.352 95.7008 120.13 95.3823 120.996C94.9236 122.243 94.8154 122.821 94.4799 123.263C94.0911 123.776 93.7198 124.307 93.3122 124.82C92.8743 125.371 92.2336 126.005 91.7734 126.36C91.1116 126.87 90.395 127.349 89.0871 128.128C88.4566 128.503 87.7771 128.695 87.0855 128.979C86.1074 129.38 85.2272 129.651 84.6789 129.811C84.3569 129.905 83.7781 129.934 83.0892 130.111C82.5809 130.241 80.9225 130.254 78.6762 130.236C77.8662 130.219 77.7261 130.184 77.5137 130.166C77.3014 130.148 77.0212 130.148 76.7324 130.148" stroke="#020205" stroke-width="3.54451" stroke-linecap="round"/>
<path d="M104.969 106.686C105.004 106.227 105.075 105.662 105.181 105.06C105.473 103.392 105.217 100.885 104.864 99.8957C104.433 98.6869 103.697 97.9467 103.36 97.5576C102.991 97.1314 102.319 96.6749 101.31 95.9838C100.615 95.5077 99.9838 95.2227 99.4504 94.9206C98.9873 94.6585 98.2492 94.5135 97.3819 94.4599C96.4432 94.4019 95.3107 94.4413 94.6212 94.6006C94.1031 94.7202 92.6674 95.3925 91.6127 95.927C91.1695 96.1399 90.7459 96.3522 90.4089 96.6701C90.3202 96.7418 90.2151 96.7768 89.8945 97.0252" stroke="#020205" stroke-width="3.54451" stroke-linecap="round"/>
<path d="M100.831 95.1141C101.926 94.6194 102.421 94.337 102.864 93.9654C103.334 93.5706 104.291 93.0652 105.057 92.6029C105.574 92.2909 106.207 91.7892 106.738 91.3651C107.536 90.7277 108.224 90.4452 108.949 89.7733C109.473 89.2879 109.958 88.6406 110.436 88.251C111.146 87.6722 111.338 87.1543 111.64 86.6411C111.949 86.1163 112.33 85.2456 112.384 83.2143C112.405 82.4377 111.979 81.7424 111.219 80.8565C110.817 80.3882 110.247 80.0417 109.662 79.5991C108.834 78.9726 106.826 79.0842 104.905 79.3485C104.16 79.451 102.892 79.8592 101.437 80.3565C100.249 80.7624 98.4336 81.5216 96.9076 82.1431C96.4303 82.3375 96.0907 82.5513 95.1597 83.0253C94.396 83.4142 93.0726 84.1649 92.1416 84.7366C89.9365 86.0906 89.2976 86.6193 88.0083 87.3794C87.5498 87.6497 86.0874 88.5238 84.1065 89.8327C82.822 90.6533 82.1129 91.2202 81.8305 91.5026C81.6882 91.6448 81.5481 91.785 81.1914 92.1416" stroke="#020205" stroke-width="3.54451" stroke-linecap="round"/>
<path d="M88.1981 86.7283C88.1981 86.447 88.128 85.8111 87.9863 85.0155C87.8308 84.1425 87.4571 83.5117 87.1906 82.9443C86.8166 82.1479 85.8711 80.5499 84.8567 79.2819C84.4842 78.8161 83.7776 78.6263 83.1932 78.4485C82.5843 78.2633 81.8689 78.1656 80.9469 78.112C79.6779 78.0382 77.6905 78.0934 76.5785 78.7452C75.3991 79.4366 75.4612 80.3907 75.1417 81.2224C74.9636 81.686 74.8933 82.1614 74.8402 83.5659C74.7951 84.7594 74.8222 86.9322 74.8397 88.1211C74.8593 89.4511 74.9633 89.8398 75.0164 90.877C75.2004 94.4721 74.9283 95.0405 74.8227 95.6079C74.6587 96.4889 74.6098 97.2698 73.8699 99.8818C73.6166 100.776 72.8115 102.145 72.1698 103.198C71.7532 103.882 71.2149 104.419 70.7897 104.897C69.8874 105.913 68.3847 107.321 67.8178 107.834C67.3046 108.299 66.8624 108.771 65.9091 109.584C64.8579 110.481 63.4739 111.491 62.1946 112.503C60.0747 114.18 58.6585 114.467 57.6458 114.982C56.5499 115.539 55.1935 116.13 53.8596 116.805C53.1733 117.152 52.5672 117.266 51.9122 117.496C51.3272 117.69 50.8325 117.903 50.444 118.026C50.2657 118.08 50.1255 118.115 49.875 118.257" stroke="#020205" stroke-width="3.54451" stroke-linecap="round"/>
<path d="M82.8913 131.634C82.3976 132.48 81.7618 133.47 80.3912 134.859C79.3336 135.931 77.4093 137.615 75.8217 138.954C74.2341 140.294 73.008 141.205 72.2712 141.727C70.966 142.651 70.1565 143.027 68.9713 143.662C68.1877 144.083 66.6257 144.687 65.3959 145.027C64.6289 145.238 63.717 145.328 61.7732 145.592C60.6778 145.741 58.9123 145.753 56.804 145.841C54.6465 145.931 52.7127 145.754 51.7583 145.559C50.6817 145.34 49.7742 145.082 49.012 144.886C48.2183 144.683 47.6149 144.232 46.9239 143.843C46.6035 143.663 46.2689 143.418 45.5475 142.961C44.1771 142.093 42.8399 140.875 41.7455 139.781C40.6487 138.685 40.1106 137.828 39.7237 136.985C38.9032 135.196 38.4471 133.549 38.341 132.807C38.2655 132.279 38.2698 131.813 38.2168 131.074C38.1287 129.847 38.3038 128.35 38.4981 127.113C38.6891 125.896 38.8696 125.056 39.4339 122.799C39.6671 121.866 40.1711 120.619 40.5634 119.619C40.9556 118.619 41.2709 117.918 41.8012 117.032C42.9893 115.045 43.8952 113.836 44.0539 113.483C44.219 113.116 44.3909 112.845 44.7943 112.09C45.7977 110.213 46.8655 108.672 47.693 107.738C49.9056 105.241 50.6872 104.814 51.3422 104.247C52.0672 103.61 52.8464 102.973 53.3597 102.654C53.4844 102.582 53.5895 102.512 53.9101 102.334" stroke="#020205" stroke-width="3.54451" stroke-linecap="round"/>
<path d="M117.575 59.8612C117.673 59.8612 118.507 60.2042 119.671 60.8219C120.084 61.0416 120.001 61.2926 119.927 61.4671C119.784 61.8027 119.066 62.332 117.832 62.926C116.618 63.5103 115.597 63.0789 115.202 62.9312C114.766 62.7682 114.458 62.387 114.186 62.0907C113.936 61.8176 113.863 61.4961 113.887 61.1753C113.916 60.7995 114.207 60.4567 114.602 60.1849C115.361 59.6631 116.432 59.7128 117.198 59.8108C117.49 59.848 117.524 60.1048 117.55 60.3527C117.575 60.6007 117.575 60.8947 117.452 61.1687C117.33 61.4426 117.085 61.6876 116.861 61.8138C116.636 61.94 116.44 61.94 116.239 61.94" stroke="#020205" stroke-width="3.54451" stroke-linecap="round"/>
<path d="M95.7461 25.6455C96.3846 25.2535 98.4574 24.1636 99.9237 23.8889C100.579 23.7662 101.237 23.8147 102.418 23.7404C106.868 23.4605 108.462 24.2081 109.108 24.4814C109.404 24.6536 109.898 24.9996 110.491 25.4198C110.742 25.595 110.889 25.693 111.189 25.9424" stroke="#020205" stroke-width="3.54451" stroke-linecap="round"/>
<defs>
<filter id="filter0_g_392_3193" x="49.5454" y="6.62152" width="166.544" height="166.544" filterUnits="userSpaceOnUse" color-interpolation-filters="sRGB">
<feFlood flood-opacity="0" result="BackgroundImageFix"/>
<feBlend mode="normal" in="SourceGraphic" in2="BackgroundImageFix" result="shape"/>
<feTurbulence type="fractalNoise" baseFrequency="0.025134507566690445 0.025134507566690445" numOctaves="3" seed="3160" />
<feDisplacementMap in="shape" scale="3.8194503784179688" xChannelSelector="R" yChannelSelector="G" result="displacedImage" width="100%" height="100%" />
<feMerge result="effect1_texture_392_3193">
<feMergeNode in="displacedImage"/>
</feMerge>
</filter>
</defs>
</svg>
