<svg width="145" height="146" viewBox="0 0 145 146" fill="none" xmlns="http://www.w3.org/2000/svg">
<g filter="url(#filter0_g_1156_2749)">
<circle cx="86.7134" cy="54.9741" r="53.7134" fill="#E60611"/>
</g>
<path d="M65.6623 18.4757C65.6949 17.9957 65.995 16.8914 66.4703 16.4229C66.6941 16.2023 66.9976 16.2876 67.1642 16.3458C67.5292 16.4731 67.6325 16.8874 67.7081 17.2717C67.8049 17.7634 67.5503 18.3404 67.3253 18.6914C66.9824 19.2265 66.2997 19.2934 65.9389 19.3027C65.6898 19.3091 65.5471 18.5469 65.4784 17.6936C65.4566 17.4218 65.6283 17.2406 65.8194 17.0658C66.3027 16.6236 66.6965 16.6559 66.9974 16.5885C67.0648 16.5883 67.1144 16.6048 67.173 16.6464C67.2316 16.688 67.2978 16.7541 67.3659 16.8223" stroke="#020205" stroke-width="2.34" stroke-linecap="round"/>
<path d="M97.0288 23.1892C96.9957 23.1562 96.9952 22.8415 97.0781 22.3492C97.1333 22.022 97.4457 21.9536 97.6699 21.8787C98.4813 21.6077 99.015 21.7693 99.2244 21.9108C99.548 22.1295 99.2675 22.8856 99.1004 23.3631C99.0032 23.6408 98.8666 23.9057 98.5582 24.257C98.4521 24.3779 98.2493 24.4248 97.9663 24.4749C97.6545 24.5301 97.3805 24.4424 97.2137 24.3176C96.8227 24.0252 96.9787 22.9938 97.0867 22.4141C97.1525 22.0604 97.5619 21.8875 97.8876 21.6951C98.2292 21.4933 98.5971 21.4696 98.9731 21.4022C99.0641 21.3859 99.1482 21.4185 99.1991 21.4601C99.2499 21.5017 99.2665 21.5678 99.2833 21.6267C99.3001 21.6856 99.3166 21.7352 99.3336 21.8364" stroke="#020205" stroke-width="2.34" stroke-linecap="round"/>
<path d="M13.2394 12.1384C13.6094 11.8864 14.0546 11.6683 14.7125 11.5551C14.9475 11.4961 15.0264 11.4694 15.1035 11.4538C15.1806 11.4382 15.2537 11.4338 15.3278 11.4293C15.6231 11.4116 16.016 11.2372 17.6722 11.8526C18.2535 12.0685 18.6324 12.239 18.9003 12.4479C19.161 12.6513 19.5233 12.8432 19.8683 13.398C20.2655 14.037 20.7188 14.5508 20.5902 14.9834C20.3337 15.8459 20.047 16.3431 19.5624 16.9195L19.5581 16.9246C19.3111 17.2184 19.0842 17.4884 18.3709 17.9788C17.94 18.2751 17.3436 18.6934 16.8432 19.0325C16.3698 19.3533 15.7042 19.7943 15.2533 20.2274C14.5498 20.903 13.7078 22.0219 13.377 22.4937C13.0634 22.9412 12.4703 23.3291 12.1326 25.562C11.9907 26.5006 11.9583 27.4412 12.6879 28.962C12.9663 29.5423 13.2385 29.9919 13.5464 30.2652C13.8392 30.525 14.402 31.0473 15.0368 31.39C15.8798 31.8452 16.5481 32.0592 17.045 32.1447C17.4275 32.2106 17.9638 32.2745 18.4552 32.2077C18.8442 32.1548 19.806 31.9751 20.6541 31.5384C21.1028 31.3075 22.1016 30.5433 22.3254 29.6732C22.6273 28.4989 22.7966 27.4317 23.0409 26.5506C23.4206 25.1809 23.5918 24.4908 23.8808 23.9141C24.036 23.6045 24.0109 23.0846 25.0337 21.8265C25.412 21.3612 25.6864 21.1255 26.2368 20.3596C26.6221 19.8236 26.9056 19.4357 27.2086 19.1225C27.46 18.8626 27.8087 18.488 28.6276 17.0329C28.8568 16.6256 29.2643 15.548 29.5622 13.8061C29.6928 13.0426 29.7244 12.4906 29.6845 12.1774C29.6146 11.6286 29.6274 11.0378 29.4438 10.64C29.2906 10.3084 29.2747 9.88956 29.0104 9.59298C28.7406 9.29035 28.426 8.94357 27.9719 8.32253C27.6973 7.94714 27.3809 7.64487 27.0785 7.37029C26.4692 6.81706 25.3172 5.96315 24.6053 5.6189C23.3768 5.02491 22.7175 4.76966 22.1757 4.54562C21.7619 4.37452 21.3893 4.29934 20.6773 3.99902C20.2858 3.83391 19.8755 3.5448 18.619 3.32706C17.9829 3.21683 17.4375 3.05494 17.0498 3.0517C16.6277 3.04817 15.7115 3.16749 15.0819 3.31091C14.5916 3.4226 14.0666 3.45953 12.2843 4.22027C11.7825 4.43445 11.3594 4.52769 10.9511 4.78086C10.5021 5.05925 10.0708 5.47334 9.72097 5.72024C9.42256 5.93087 8.90397 6.28759 8.37874 6.61907C7.84128 6.95827 7.5474 7.11105 7.27438 7.3139C6.86491 7.61811 6.44503 8.15022 6.13691 8.58175C5.84599 8.98919 5.55096 9.44757 5.31242 9.76332C5.069 10.0855 4.72202 10.4088 4.49455 11.057C4.28903 11.6425 3.83454 13.1698 3.64488 14.0939C3.52498 14.6781 3.5043 15.1222 3.55178 15.6166C3.61275 16.2514 3.69825 16.8071 3.83173 17.1902C3.94801 17.5239 3.9317 17.9943 4.56089 18.5835C5.10147 19.0896 5.45964 19.1994 5.84386 19.2516C6.29961 19.3135 6.76614 19.4308 7.11654 19.3746C7.48311 19.3157 8.3937 19.1957 9.04879 18.8881C9.57664 18.6403 10.1758 18.348 10.4931 18.0537C10.7668 17.7998 11.1911 17.5214 11.3521 16.4685C11.4321 15.9451 11.1871 15.3677 11.9688 13.7174C12.3347 12.9451 12.7695 12.4584 13.2394 12.1384Z" stroke="#020205" stroke-width="2.34" stroke-linecap="round"/>
<path d="M17.8825 36.2751C17.3384 36.5132 16.4529 37.0994 16.1431 37.5355C15.4926 38.451 15.4119 38.9971 15.2349 39.4329C14.9266 40.192 15.0274 40.6107 15.1111 41.1538C15.1779 41.5865 15.6365 42.2962 16.7042 43.5864C17.1904 44.174 17.7499 44.3411 18.4914 44.5525C18.9317 44.678 19.5361 44.531 19.9819 44.4567C20.4461 44.3794 20.9277 44.1304 21.7962 43.7714C22.355 43.5405 22.7652 43.0512 23.174 42.6061C24.2589 41.4246 24.3766 40.9203 24.5075 40.4345C24.6985 39.7255 24.2054 38.7704 23.6758 37.8184C23.3026 37.1475 22.9681 36.8891 22.6058 36.526C22.1336 36.053 21.4513 35.7803 21.0047 35.6004C19.9301 35.1676 19.5886 35.3291 19.1675 35.4575C18.586 35.6401 18.0479 36.0263 17.73 36.3057C17.6664 36.3616 17.6037 36.4167 17.4534 36.5229" stroke="#020205" stroke-width="2.34" stroke-linecap="round"/>
<path d="M60.2695 65.9203C60.5954 65.757 61.1077 65.6638 63.3325 65.6631C64.0532 65.6629 64.7499 65.8495 65.5436 65.9662C66.4036 66.0926 67.1825 66.4571 67.8241 66.7017C68.4956 66.9577 68.772 67.3906 69.1336 67.7877C69.4313 68.1145 69.6831 68.6507 70.0331 69.2471C70.2459 69.6096 70.3377 70.0986 70.5476 70.9747C70.6932 71.5825 70.5255 72.2474 70.4785 72.7285C70.4322 73.2032 70.1989 73.6042 69.9536 74.1995C69.7958 74.5826 69.2444 75.3521 68.4135 76.0806C68.0582 76.3921 67.3984 76.6416 66.9173 76.841C66.5002 77.0138 65.5566 77.2485 64.6056 77.3554C63.6398 77.4139 62.3026 77.3908 62.1397 77.3557C62.0461 77.3438 61.9305 77.3438 61.7413 77.2737" stroke="#020205" stroke-width="2.34" stroke-linecap="round"/>
<path d="M61.3906 73.6296C61.6457 73.6758 62.5764 73.7697 63.0831 73.6303C63.4666 73.5247 63.772 73.3268 64.2272 73.0815C64.3334 73.0227 64.4028 72.9764 64.4732 72.941C64.5437 72.9056 64.613 72.8825 64.7546 72.7886" stroke="#020205" stroke-width="2.34" stroke-linecap="round"/>
<path d="M62.7229 74.1904C62.5842 74.4224 62.2099 74.9361 61.9997 75.5076C61.6969 76.3308 61.6254 76.712 61.404 77.0043C61.1473 77.343 60.9022 77.6932 60.6331 78.032C60.344 78.396 59.921 78.8145 59.6172 79.0486C59.1803 79.3852 58.7072 79.7018 57.8438 80.2158C57.4275 80.4637 56.9789 80.5904 56.5223 80.7775C55.8766 81.0422 55.2955 81.2212 54.9336 81.327C54.721 81.3891 54.3389 81.4083 53.8841 81.525C53.5485 81.6111 52.4537 81.6192 50.9707 81.6077C50.436 81.5961 50.3435 81.573 50.2033 81.5611C50.0631 81.5491 49.8781 81.5491 49.6875 81.5491" stroke="#020205" stroke-width="2.34" stroke-linecap="round"/>
<path d="M68.3287 66.0605C68.3519 65.7577 68.3988 65.3849 68.4686 64.9875C68.6618 63.8864 68.4927 62.2312 68.2597 61.578C67.975 60.7799 67.4891 60.2913 67.2666 60.0344C67.0229 59.7531 66.5795 59.4517 65.9133 58.9954C65.4544 58.6811 65.0376 58.4929 64.6855 58.2935C64.3798 58.1205 63.8925 58.0248 63.3199 57.9894C62.7002 57.9511 61.9526 57.9771 61.4974 58.0822C61.1553 58.1612 60.2075 58.6051 59.5112 58.9579C59.2187 59.0985 58.939 59.2386 58.7165 59.4485C58.658 59.4958 58.5886 59.519 58.377 59.6829" stroke="#020205" stroke-width="2.34" stroke-linecap="round"/>
<path d="M65.5962 58.4212C66.3195 58.0947 66.6461 57.9082 66.9383 57.6629C67.2489 57.4023 67.8809 57.0686 68.3866 56.7634C68.7278 56.5575 69.1452 56.2262 69.496 55.9463C70.0232 55.5254 70.4768 55.339 70.9558 54.8954C71.3018 54.5749 71.622 54.1476 71.9373 53.8904C72.4059 53.5083 72.533 53.1664 72.7324 52.8276C72.9363 52.4811 73.1876 51.9063 73.2237 50.5653C73.2375 50.0526 72.9563 49.5936 72.4545 49.0087C72.1893 48.6996 71.8126 48.4709 71.4264 48.1786C70.88 47.7651 69.5545 47.8387 68.286 48.0132C67.7944 48.0808 66.9572 48.3503 65.9964 48.6787C65.2123 48.9466 64.0137 49.4478 63.0063 49.8582C62.6912 49.9865 62.467 50.1276 61.8524 50.4405C61.3482 50.6972 60.4746 51.1929 59.8599 51.5703C58.4042 52.4641 57.9824 52.8132 57.1312 53.315C56.8285 53.4934 55.8631 54.0705 54.5553 54.9346C53.7073 55.4764 53.2392 55.8506 53.0528 56.037C52.9588 56.1309 52.8663 56.2234 52.6309 56.4589" stroke="#020205" stroke-width="2.34" stroke-linecap="round"/>
<path d="M57.257 52.885C57.257 52.6993 57.2108 52.2795 57.1172 51.7542C57.0145 51.1779 56.7678 50.7615 56.5919 50.3869C56.345 49.8611 55.7208 48.8062 55.0511 47.9691C54.8052 47.6616 54.3387 47.5363 53.9529 47.4189C53.551 47.2966 53.0787 47.2321 52.47 47.1967C51.6322 47.148 50.3202 47.1845 49.5861 47.6148C48.8074 48.0712 48.8484 48.7011 48.6375 49.2502C48.5199 49.5562 48.4735 49.8701 48.4385 50.7973C48.4087 51.5852 48.4265 53.0196 48.4381 53.8045C48.451 54.6826 48.5198 54.9392 48.5548 55.6239C48.6763 57.9973 48.4966 58.3725 48.4269 58.7471C48.3186 59.3287 48.2864 59.8443 47.7979 61.5687C47.6307 62.159 47.0992 63.0625 46.6755 63.7581C46.4005 64.2097 46.0451 64.5637 45.7644 64.8797C45.1687 65.5506 44.1767 66.4797 43.8025 66.8186C43.4637 67.1254 43.1717 67.4371 42.5424 67.9739C41.8484 68.5659 40.9347 69.2326 40.0902 69.9008C38.6906 71.0083 37.7557 71.1977 37.0871 71.5376C36.3637 71.9054 35.4682 72.2952 34.5876 72.7406C34.1345 72.9698 33.7343 73.0451 33.3019 73.1968C32.9158 73.3254 32.5892 73.4656 32.3327 73.5473C32.2149 73.5827 32.1224 73.6058 31.957 73.6997" stroke="#020205" stroke-width="2.34" stroke-linecap="round"/>
<path d="M53.7526 82.5299C53.4267 83.0885 53.007 83.7424 52.1022 84.6594C51.404 85.3671 50.1335 86.4784 49.0855 87.3629C48.0374 88.2473 47.2279 88.8486 46.7415 89.1931C45.8798 89.8033 45.3455 90.0512 44.563 90.471C44.0457 90.7486 43.0145 91.1473 42.2026 91.3716C41.6962 91.5115 41.0942 91.5706 39.811 91.7451C39.0878 91.8435 37.9223 91.851 36.5304 91.9091C35.1061 91.9687 33.8294 91.8517 33.1994 91.7234C32.4887 91.5787 31.8895 91.408 31.3863 91.2791C30.8624 91.1448 30.464 90.8474 30.0078 90.5905C29.7963 90.4715 29.5754 90.3098 29.0992 90.0081C28.1945 89.435 27.3117 88.6307 26.5892 87.9085C25.8651 87.1848 25.5099 86.6193 25.2544 86.0625C24.7127 84.8818 24.4117 83.7942 24.3416 83.3043C24.2917 82.956 24.2946 82.6484 24.2596 82.1602C24.2014 81.3503 24.3171 80.3623 24.4453 79.5454C24.5714 78.7422 24.6906 78.1876 25.0631 76.6976C25.2171 76.0818 25.5498 75.2581 25.8088 74.5979C26.0677 73.9377 26.2759 73.4752 26.6259 72.89C27.4103 71.5788 28.0083 70.7805 28.1131 70.5475C28.2221 70.305 28.3356 70.1259 28.6019 69.6276C29.2643 68.3883 29.9693 67.371 30.5156 66.7546C31.9763 65.1065 32.4922 64.8242 32.9247 64.4499C33.4033 64.0294 33.9177 63.6089 34.2566 63.398C34.3389 63.351 34.4083 63.3048 34.62 63.187" stroke="#020205" stroke-width="2.34" stroke-linecap="round"/>
<path d="M59.0784 125.421C59.0784 125.375 58.3615 124.865 57.1942 124.094C56.2978 123.503 55.7165 123.319 54.9849 123.156C54.4658 123.04 53.6288 122.947 52.402 122.899C51.1752 122.851 49.5794 122.874 48.26 122.978C46.9407 123.083 45.9463 123.268 45.1217 123.467C43.6587 123.821 42.8444 124.182 42.4253 124.414C41.443 124.96 40.9998 125.582 40.3463 126.374C38.9699 128.042 39.0122 128.596 38.8136 129.353C38.4548 130.721 38.4277 131.259 38.276 131.785C38.0904 132.428 38.3324 133.892 38.7638 135.134C39.0654 136.003 39.6864 136.678 40.1872 137.179C41.1194 138.112 41.8814 138.315 42.5364 138.642C42.8464 138.797 43.2375 138.899 43.8189 139.109C44.7037 139.428 45.989 139.623 47.1794 139.798C48.254 139.956 48.8211 139.998 49.8877 140.091C50.7709 140.167 52.342 140.368 53.2678 140.463C54.4227 140.582 54.8713 140.582 56.4818 140.617C57.8839 140.647 60.4745 140.629 62.5836 140.525C64.6928 140.421 66.2423 140.213 67.1331 140.082C68.2117 139.924 68.7001 139.742 69.2135 139.532C69.959 139.228 71.1958 138.762 72.1577 138.376C72.9413 138.062 73.5814 137.221 74.3425 136.496C74.668 136.186 74.8219 135.517 74.9985 135.012C75.0763 134.79 75.2662 133.932 75.4764 132.729C75.6414 131.786 75.618 131.17 75.6762 130.366C75.7372 129.521 75.6418 128.833 75.5718 128.495C75.4983 128.141 75.4092 126.949 75.1989 125.373C75.0658 124.375 75.0573 123.58 74.9761 122.24C74.9303 121.487 74.8948 120.145 74.8941 119.373C74.8934 118.601 74.9396 118.439 75.1138 117.269C75.2879 116.098 75.5886 113.924 75.7781 112.712C75.9977 111.308 76.2011 110.754 76.376 110.112C76.5866 109.339 76.9005 108.328 77.1125 107.494C77.2577 106.923 77.4626 106.477 77.6382 106.149C77.7668 105.868 77.9069 105.635 78.0117 105.425C78.0702 105.308 78.1396 105.17 78.2812 104.957" stroke="#020205" stroke-width="2.34" stroke-linecap="round"/>
<path d="M54.313 122.548C54.313 122.316 54.313 121.85 54.3014 121.232C54.2928 120.775 54.2429 120.308 54.1735 118.662C54.1158 117.292 53.9654 114.841 53.917 113.37C53.8686 111.899 53.9149 111.483 53.9618 111.176C54.0088 110.869 54.0551 110.684 54.1483 109.837C54.2415 108.99 54.3802 107.487 54.498 106.493C54.6684 105.054 54.8729 104.421 55.0012 104.049C55.2513 103.322 55.3166 102.601 55.4455 102.039C55.5898 101.41 55.9473 100.313 56.1229 99.6909C56.2515 99.1645 56.5304 98.2359 56.6954 97.6693C56.7189 97.5989 56.742 97.5295 56.836 97.458" stroke="#020205" stroke-width="2.34" stroke-linecap="round"/>
<path d="M108.487 126.612C108.719 126.403 109.092 126.216 109.606 125.959C110.468 125.529 111.193 125.445 111.86 125.409C112.222 125.39 112.92 125.351 114.281 125.478C115.138 125.558 116.312 125.86 117.082 126.037C118.179 126.29 118.994 126.61 119.881 127.006C120.596 127.326 121.123 127.708 121.67 128.197C122.423 128.87 123.084 129.854 123.609 130.776C124.005 131.471 124.347 132.515 124.697 133.671C124.943 134.483 124.886 135.019 124.944 135.766C124.997 136.437 124.91 137.076 124.771 137.611C124.591 138.301 124.164 139.037 123.64 139.771C123.369 140.151 123.001 140.482 122.522 140.88C122.042 141.279 121.441 141.718 120.888 142.072C119.875 142.72 118.771 143.15 117.826 143.5C117.312 143.69 116.784 143.898 116.096 144.085C115.624 144.213 115.24 144.249 113.086 144.354C111.119 144.45 107.371 144.482 105.337 144.506C103.095 144.533 102.695 144.483 102.334 144.472C101.636 144.45 100.898 144.227 100.161 144.075C99.4961 143.938 98.6569 143.737 97.3656 143.354C96.5728 143.118 95.5424 142.67 94.9369 142.409C93.9288 141.975 93.538 141.635 92.8148 140.901C91.8481 139.92 91.7383 139.393 91.5505 138.716C91.4121 138.217 91.4566 137.249 91.5838 135.55C91.6577 134.562 91.9654 133.342 92.1196 132.641C92.305 131.798 92.4602 131.149 92.6813 130.147C92.8965 129.172 93.3005 128.368 93.592 127.692C93.8565 127.079 93.9557 126.429 94.0258 125.846C94.1515 124.799 94.1898 123.533 94.248 122.425C94.273 121.948 94.2599 121.207 94.2368 120.641C94.2136 120.075 94.1674 119.705 93.9701 118.624C93.7728 117.543 93.4259 115.762 93.2472 114.741C93.0331 113.517 93.0454 113.088 92.9409 112.449C92.7634 111.363 92.4391 110.287 92.2173 109.575C92.0776 109.127 91.9254 108.304 91.5992 107.114C91.083 105.635 90.7586 104.707 90.4064 104.024C90.3359 103.907 90.2666 103.768 90.125 103.625" stroke="#020205" stroke-width="2.34" stroke-linecap="round"/>
<path d="M105.824 101.172C106.31 101.912 106.796 102.652 107.508 104.409C108.221 106.167 109.146 108.919 109.646 110.441C110.146 111.963 110.192 112.171 110.343 112.717C110.494 113.264 110.748 114.143 110.949 114.769C111.263 115.751 111.616 116.747 111.896 117.786C112.092 118.511 112.154 118.994 112.504 120.718C112.624 121.308 112.669 121.635 112.704 121.985C112.742 122.366 112.879 122.732 112.984 123.083C113.136 123.621 113.229 123.947 113.265 124.286C113.276 124.369 113.299 124.438 113.323 124.58" stroke="#020205" stroke-width="2.34" stroke-linecap="round"/>
<path d="M76.6503 35.148C76.715 35.148 77.2659 35.3744 78.034 35.7822C78.3071 35.9272 78.2521 36.0929 78.2031 36.2081C78.1088 36.4297 77.6345 36.7791 76.8199 37.1712C76.0186 37.557 75.3446 37.2722 75.0839 37.1747C74.7962 37.0671 74.5927 36.8154 74.4134 36.6198C74.248 36.4395 74.1997 36.2272 74.2158 36.0155C74.2348 35.7674 74.4271 35.5411 74.6878 35.3617C75.1886 35.0172 75.8955 35.0499 76.4018 35.1146C76.5942 35.1392 76.617 35.3087 76.6337 35.4724C76.6503 35.6361 76.6503 35.8302 76.5695 36.0111C76.4886 36.192 76.3268 36.3537 76.1788 36.437C76.0308 36.5203 75.9014 36.5203 75.7681 36.5203" stroke="#020205" stroke-width="2.34" stroke-linecap="round"/>
<path d="M62.2402 12.5592C62.6617 12.3004 64.0302 11.5809 64.9982 11.3995C65.4306 11.3185 65.8653 11.3505 66.6446 11.3015C69.5829 11.1167 70.6352 11.6103 71.0611 11.7906C71.2567 11.9043 71.5831 12.1327 71.9747 12.4102C72.1399 12.5258 72.237 12.5905 72.435 12.7552" stroke="#020205" stroke-width="2.34" stroke-linecap="round"/>
<path d="M115 70.3408C115.362 70.9349 115.643 71.3298 116.062 72.0635C116.354 72.5747 116.853 73.5464 117.166 74.187C117.478 74.8275 117.578 75.114 118.066 76.3846C118.555 77.6553 119.429 79.9015 120.027 81.5624C120.624 83.2234 120.918 84.231 121.272 85.9853C121.626 87.7396 122.03 90.2102 122.239 91.5344C122.492 93.1446 122.477 93.474 122.607 94.8994C122.688 95.7868 122.848 96.5659 122.484 97.4936C122.132 98.3927 121.579 99.4686 121.38 100.135C121.276 100.484 121.194 100.996 121.014 101.844C120.727 103.194 120.625 103.986 120.497 105.481C120.441 106.135 120.512 107.187 120.589 108.044C120.724 109.543 121.041 110.462 121.23 110.917C121.492 111.549 122.874 111.95 123.855 112.023C124.405 112.064 124.992 111.665 125.352 111.42C125.802 111.113 126.041 110.484 126.262 109.871C126.589 109.024 126.844 108.202 126.902 107.659C126.921 107.384 126.921 107.109 126.904 106.678" stroke="#020205" stroke-width="2.34445" stroke-linecap="round"/>
<path d="M123.564 112.472C123.564 112.479 123.584 112.624 123.664 113.128C123.814 114.073 124.021 114.93 124.201 115.399C124.342 115.766 124.607 116.104 124.962 116.483C125.329 116.873 125.647 117.085 125.83 117.204C126.048 117.343 126.56 117.553 127.189 117.772C127.508 117.883 127.765 117.879 128.139 117.859C128.599 117.835 129.065 117.673 129.72 117.276C130.181 116.997 130.826 116.441 131.205 116.129C131.668 115.747 131.913 115.357 132.342 114.581C132.605 114.103 132.905 113.426 133.104 112.958C133.303 112.49 133.377 112.243 133.424 111.946C133.47 111.648 133.486 111.309 133.514 110.862" stroke="#020205" stroke-width="2.34445" stroke-linecap="round"/>
<path d="M129.76 117.618C130.286 117.671 131.149 117.72 131.863 117.772C132.244 117.8 132.603 117.754 132.985 117.655C133.599 117.496 134.112 117.268 134.54 116.998C135.241 116.554 135.686 116.089 135.895 115.834C136.209 115.451 136.376 115.058 136.488 114.837C136.602 114.613 136.806 114.265 137.093 113.473C137.265 112.93 137.491 112.1 137.616 111.55C137.74 111 137.757 110.754 137.773 110.502" stroke="#020205" stroke-width="2.34445" stroke-linecap="round"/>
<path d="M136.838 115.58C137.04 115.64 137.621 115.653 138.042 115.625C138.327 115.606 138.51 115.463 139.029 115.186C139.315 115.034 139.509 114.803 139.828 114.507C140.396 113.98 140.948 113.475 141.237 113.112C141.611 112.645 141.904 111.928 142.356 111.059C142.593 110.605 142.753 110.08 142.922 109.4C143.091 108.721 143.241 107.89 143.322 107.395C143.426 106.767 143.45 106.48 143.488 106.012C143.553 105.204 143.445 104.463 143.25 103.698C143.112 103.159 142.803 102.341 142.422 101.447C142.041 100.552 141.573 99.6115 141.31 99.0933C141.01 98.5032 140.914 98.3392 140.572 97.8233C140.288 97.3945 139.712 96.6732 139.201 96.0992C138.689 95.5253 138.242 95.1323 137.989 94.9085C137.736 94.6846 137.69 94.6418 137.643 94.5977" stroke="#020205" stroke-width="2.34445" stroke-linecap="round"/>
<path d="M130.307 67.2607C130.307 67.2751 130.488 67.7974 130.831 68.7136C130.983 69.1187 131.129 69.387 131.565 70.5776C132.001 71.7681 132.734 73.8687 133.704 77.388C134.673 80.9073 135.858 85.7816 136.56 88.6637C137.263 91.5458 137.448 92.288 137.584 92.8403C137.72 93.3926 137.802 93.7325 137.844 93.9703C137.886 94.208 137.886 94.3333 137.886 94.4624" stroke="#020205" stroke-width="2.34445" stroke-linecap="round"/>
<defs>
<filter id="filter0_g_1156_2749" x="31.7392" y="-1.27554e-05" width="109.949" height="109.948" filterUnits="userSpaceOnUse" color-interpolation-filters="sRGB">
<feFlood flood-opacity="0" result="BackgroundImageFix"/>
<feBlend mode="normal" in="SourceGraphic" in2="BackgroundImageFix" result="shape"/>
<feTurbulence type="fractalNoise" baseFrequency="0.038072429597377777 0.038072429597377777" numOctaves="3" seed="3160" />
<feDisplacementMap in="shape" scale="2.5215098857879639" xChannelSelector="R" yChannelSelector="G" result="displacedImage" width="100%" height="100%" />
<feMerge result="effect1_texture_1156_2749">
<feMergeNode in="displacedImage"/>
</feMerge>
</filter>
</defs>
</svg>
