<svg width="222" height="141" viewBox="0 0 222 141" fill="none" xmlns="http://www.w3.org/2000/svg">
<g filter="url(#filter0_g_509_3738)">
<ellipse cx="144.637" cy="70.5027" rx="68.8855" ry="68.8855" fill="#E60611"/>
</g>
<path d="M202.098 82.6172C200.993 82.6172 200.299 82.6343 199.21 82.9685C198.239 83.2665 196.445 83.9021 195.384 84.2882C194.041 84.7768 193.708 85.0552 193.582 85.2452C193.256 85.7375 192.486 86.5581 191.989 87.225C191.719 87.588 191.727 88.0475 191.637 88.4108C191.566 88.6996 191.565 89.4954 191.627 90.0458C191.665 90.3737 191.871 90.5904 191.996 90.859C192.103 91.0854 192.23 91.2827 192.455 91.5333C192.842 91.965 193.094 92.3029 193.507 92.6486C193.95 93.0181 194.444 93.3066 194.955 93.5479C195.74 93.919 196.532 94.1027 196.973 94.2065C197.409 94.3091 197.847 94.3455 198.988 94.5178C199.374 94.5762 199.613 94.5874 200.3 94.6136C200.881 94.6357 201.933 94.5542 202.947 94.4164C203.962 94.2786 204.906 94.056 205.438 93.9242C206.058 93.7581 206.221 93.7057 206.356 93.6626C206.419 93.6367 206.473 93.6024 206.582 93.5671" stroke="#020205" stroke-width="3" stroke-linecap="round"/>
<path d="M193.656 84.6172C193.618 84.6172 193.339 84.4277 192.89 84.0716C192.551 83.8034 192.307 83.1945 192.008 82.3868C191.756 81.7077 191.65 81.1735 191.593 80.7655C191.54 80.3775 191.686 79.7487 191.864 79.0272C191.968 78.6023 192.079 78.112 192.369 77.4004C192.689 76.6131 193.13 76.1604 193.836 75.642C194.432 75.2048 195.583 74.5033 196.213 74.0874C196.948 73.6018 197.384 73.3244 198.215 72.9686C198.686 72.7673 199.288 72.5956 199.984 72.4204C200.68 72.2453 201.46 72.0902 202.26 71.9672C203.854 71.7226 204.793 71.6694 204.99 71.6608C205.075 71.6522 205.131 71.6349 205.225 71.6261C205.318 71.6172 205.448 71.6172 205.582 71.6172" stroke="#020205" stroke-width="3" stroke-linecap="round"/>
<path d="M194.955 74.4175C194.353 74.3497 193.244 74.1782 192.641 73.8127C191.667 73.2228 191.015 72.5024 190.775 72.2033C190.61 71.998 190.568 71.7831 190.586 71.5102C190.608 71.1664 190.887 70.2998 191.243 69.2052C191.426 68.6423 191.725 68.2928 192.258 67.7812C192.579 67.4725 193.073 67.134 193.592 66.7898C194.111 66.4455 194.658 66.1236 195.152 65.8646C196.054 65.3913 196.718 65.1594 197.215 64.9805C197.867 64.7463 198.642 64.4411 199.39 64.2445C199.919 64.1054 200.356 64.0299 200.95 63.8764C201.33 63.7784 201.88 63.689 203.027 63.6451C204.174 63.6012 205.904 63.6181 206.822 63.6353C207.793 63.6535 207.935 63.7038 208.678 63.9328C209.336 64.1356 210.551 64.5515 211.214 64.7864C212.105 65.1022 212.251 65.3802 212.589 65.6369C212.877 65.8555 212.946 66.1329 213.124 66.5516C213.384 67.1623 213.535 67.3825 213.624 67.5882C213.72 67.8081 213.82 68.1516 213.971 68.4861C214.111 68.7965 214.621 69.0075 215.118 69.5271C215.43 69.8528 215.828 70.3347 216.196 70.9857C216.564 71.6368 216.881 72.45 217.072 72.9706C217.334 73.6884 217.44 74.3784 217.547 75.309C217.647 76.1842 217.513 76.9132 217.388 77.392C217.267 77.8569 217.066 78.1809 216.897 78.4725C216.748 78.7309 216.568 78.9346 216.362 79.1828C216.275 79.2887 216.193 79.3972 216.095 79.4996C216.048 79.5492 216.015 79.602 216.155 80.2466C216.296 80.8912 216.614 82.1281 216.786 82.8669C217.005 83.8033 216.959 84.3235 216.888 84.8449C216.814 85.3918 216.64 86.0332 216.443 86.4989C216.356 86.7046 216.158 86.8927 215.989 87.1145C215.808 87.3518 215.358 88.052 214.655 88.9582C214.218 89.5204 213.575 89.9711 212.88 90.4841C212.316 90.9006 212.181 91.1202 212.011 91.3084C211.967 91.36 211.914 91.4108 211.86 91.4539C211.806 91.497 211.753 91.5309 211.592 91.6172" stroke="#020205" stroke-width="3" stroke-linecap="round"/>
<path d="M193.75 84.3595C193.021 85.5273 191.905 86.4116 191.188 87.5865C190.471 88.7614 190.071 90.0181 189.342 91.1409C188.614 92.2637 187.652 93.1664 186.459 93.8489C185.265 94.5315 184.029 95.1246 182.751 95.6285C181.473 96.1323 180.218 96.6829 178.984 97.2805C177.75 97.878 177.03 97.6803 176.825 96.6873C176.619 95.6944 176.544 94.5087 176.6 93.1303C176.655 91.7519 176.752 90.3758 176.89 89.0021C177.029 87.6283 177.2 86.7106 177.403 86.249C177.607 85.7874 178.086 84.98 178.841 83.827C179.595 82.6739 180.337 81.5132 181.065 80.3448C181.794 79.1764 182.484 77.9851 183.135 76.7709C183.787 75.5567 184.467 74.3594 185.175 73.179C185.883 71.9986 186.564 70.8017 187.217 69.5883C187.87 68.3749 188.544 67.1744 189.24 65.9868C189.937 64.7992 190.666 63.6313 191.429 62.4833C192.192 61.3353 192.912 60.1617 193.589 58.9625C194.266 57.7634 194.96 56.5749 195.673 55.3972C196.386 54.2195 197.092 53.0373 197.789 51.8506C198.487 50.6639 199.157 49.4605 199.798 48.2403C200.44 47.0202 201.133 45.8307 201.877 44.6717C202.622 43.5127 203.348 42.3432 204.057 41.1631C204.766 39.9831 205.412 38.7654 205.994 37.5101C206.576 36.2548 207.302 35.0931 208.173 34.025C209.043 32.957 210.122 32.2441 211.411 31.8865C212.7 31.5289 213.98 31.5274 215.251 31.8821C216.522 32.2368 217.542 32.9533 218.309 34.0316C219.077 35.1099 219.498 36.3116 219.571 37.6367C219.644 38.9617 219.356 40.2244 218.706 41.4246C218.056 42.6248 217.391 43.8232 216.709 45.0196C216.028 46.216 215.355 47.418 214.692 48.6254C214.029 49.8328 213.317 51.011 212.556 52.1599C211.795 53.3088 211.094 54.4934 210.452 55.7135C209.81 56.9336 209.105 58.1161 208.337 59.2609C207.57 60.4058 206.836 61.5707 206.135 62.7555" stroke="#020205" stroke-width="3"/>
<path d="M183.496 75.6172C183.367 75.3459 183.239 75.0746 182.992 74.4698C182.746 73.865 182.385 72.9349 182.18 72.3847C181.976 71.8345 181.937 71.6924 181.885 71.4513C181.833 71.2102 181.768 70.8743 181.71 70.1975C181.651 69.5206 181.599 68.513 181.586 67.9035C181.572 67.294 181.598 67.1132 181.669 66.8585C181.832 66.2738 182.104 65.6898 182.325 65.2273C182.421 65.0252 182.468 64.8811 182.688 64.4332C182.907 63.9854 183.293 63.2362 183.537 62.7856C183.856 62.1972 184.183 61.8402 184.559 61.4492C184.972 61.0209 185.354 60.86 185.799 60.6134C186.134 60.4283 186.721 60.1859 187.09 60.0399C187.841 59.7427 188.329 59.6982 188.817 59.6719C189.199 59.6514 189.938 59.6066 190.744 59.6195C191.225 59.6272 191.682 59.8148 191.958 59.8804C192.035 59.9064 192.152 59.9456 192.301 59.9847C192.373 59.998 192.438 59.998 192.582 60.0763" stroke="#020205" stroke-width="3" stroke-linecap="round"/>
<path d="M178.582 84.4071C179.372 84.0943 179.728 84.0094 180.162 83.9238C180.29 83.8985 180.428 83.8532 180.784 83.7963C181.705 83.6487 182.407 83.5963 182.61 83.6245C182.911 83.6661 183.083 83.8942 183.281 84.0792C183.55 84.3304 183.581 84.8185 183.613 85.3647C183.66 86.1791 184.002 86.696 184.059 86.8815C184.088 86.9745 184.167 87.0242 184.244 87.0526C184.394 87.1083 184.55 87.0391 184.747 86.996C185.015 86.9377 185.667 86.7131 186.22 86.4703C186.385 86.3977 186.615 86.37 186.863 86.3771C186.999 86.3809 187.075 86.4549 187.139 86.5401C187.263 86.7064 187.317 86.9666 187.451 87.5836C187.536 87.9762 187.56 88.2604 187.636 88.5452C187.706 88.806 187.688 89.0712 187.745 89.4053C187.795 89.7039 187.955 90.0522 188.101 90.4774C188.398 91.3418 188.401 91.885 188.516 92.2225C188.529 92.3288 188.542 92.4431 188.567 92.5496C188.58 92.5997 188.593 92.642 188.567 92.6002" stroke="#020205" stroke-width="3" stroke-linecap="round"/>
<path d="M177.582 94.6172C177.96 94.7768 178.338 94.9365 178.623 95.1284C179.115 95.4609 179.29 95.786 179.359 95.8911C179.5 96.1052 179.568 96.31 179.579 96.4002C179.586 96.4599 179.582 96.5503 179.565 96.5916C179.536 96.661 179.437 96.5727 179.35 96.5221C179.215 96.4917 179.082 96.5016 179.031 96.5218C178.999 96.5319 178.958 96.5419 178.895 96.5521" stroke="#020205" stroke-width="3" stroke-linecap="round"/>
<path d="M205.582 39.6172C206.496 39.7775 207.41 39.9378 208.397 40.1382C209.384 40.3386 210.417 40.5743 211.281 40.8278C212.144 41.0812 212.806 41.3452 213.359 41.5425C213.912 41.7398 214.336 41.8623 214.852 42.0716C215.369 42.2809 215.965 42.5732 216.391 42.8086C217.055 43.2138 217.328 43.4169 217.388 43.4786C217.421 43.512 217.461 43.5498 217.582 43.6172" stroke="#020205" stroke-width="3" stroke-linecap="round"/>
<path d="M214.582 90.6172C214.53 91.6157 214.478 92.6142 214.277 93.645C214.076 94.6759 213.728 95.7088 213.357 96.5422C212.986 97.3756 212.603 97.9781 212.371 98.3315C212.139 98.685 212.07 98.7711 211.773 99.2458C211.476 99.7205 210.954 100.581 210.572 101.154C209.759 102.372 209.38 102.545 208.819 102.919C208.192 103.336 207.325 103.71 206.477 103.953C205.929 104.11 205.124 104.264 203.954 104.387C202.785 104.511 201.271 104.579 200.447 104.606C199.537 104.636 199.378 104.598 199.098 104.572C198.537 104.521 197.938 104.373 197.108 104.062C196.513 103.839 195.599 103.407 195.063 103.151C194.393 102.831 193.862 102.479 192.916 101.899C191.732 101.173 191.046 100.617 190.844 100.392C190.162 99.6288 189.833 99.1571 189.692 98.8005C189.429 98.1317 188.834 97.3876 188.54 96.887C188.42 96.6812 188.338 96.4611 188.163 95.9837C187.987 95.6608 187.882 95.4177 187.732 95.0703C187.688 94.9826 187.636 94.9137 187.582 94.7906" stroke="#020205" stroke-width="3" stroke-linecap="round"/>
<path d="M115.082 20.7648C115.42 20.268 116.398 19.5899 116.761 19.5726C116.828 19.5694 116.886 19.5877 116.946 19.6031C117.065 19.6338 117.408 20.1523 117.855 20.9819C118.11 21.455 118.083 21.8509 118.06 22.2448C118.038 22.644 117.827 23.1109 117.491 23.6776C117.08 24.3719 116.515 24.6396 116.22 24.6926C115.889 24.752 115.383 24.5291 114.856 24.1566C114.517 23.9178 114.405 23.4826 114.287 22.9136C114.138 22.1945 114.294 21.4448 114.45 20.904C114.557 20.5333 114.779 20.3837 114.932 20.2825C115.297 20.0412 115.709 20.107 116.037 20.2146C116.287 20.2965 116.45 20.4894 116.552 20.6002C116.862 20.9366 116.634 21.8483 116.355 22.5839C116.194 23.0102 115.773 23.2636 115.63 23.3427C115.573 23.3742 115.523 23.3198 115.496 23.2627C115.168 22.5853 115.481 20.9518 115.592 20.4807C115.614 20.3889 115.672 20.2952 115.743 20.2309C115.814 20.1667 115.908 20.139 116.03 20.1567C116.305 20.197 116.588 20.5555 116.817 21.0114C117.122 21.6176 116.888 22.4014 116.635 22.9398C116.461 23.1224 116.29 23.2399 116.153 23.2695C116.088 23.2677 116.033 23.2316 115.959 23.143" stroke="#020205" stroke-width="3.00096" stroke-linecap="round"/>
<path d="M154.852 30.54C155.08 29.8816 155.61 28.9389 155.768 28.9223C155.974 28.9004 156.324 29.0296 156.74 29.3486C157.566 29.9827 157.267 30.6691 157.299 31.0889C157.349 31.7549 157.011 32.7481 156.778 33.1351C156.695 33.2726 156.531 33.3348 156.305 33.3769C156.171 33.4019 155.992 33.3912 155.852 33.3136C154.961 32.8207 154.915 31.3426 154.918 30.7036C154.92 30.1825 155.153 29.9358 155.423 29.6657C155.571 29.5186 155.818 29.4769 156.039 29.4672C156.464 29.4485 156.593 30.3053 156.871 31.5759C156.898 32.435 156.824 32.643 156.75 32.7782C156.715 32.8442 156.688 32.9047 156.646 32.9959" stroke="#020205" stroke-width="3.00096" stroke-linecap="round"/>
<path d="M112.369 34.1748C112.502 35.0823 112.727 36.1179 113.009 37.0845C113.19 37.7045 113.37 38.0927 113.467 38.398C113.526 38.5858 113.764 39.2335 114.15 40.1421C114.325 40.5528 114.461 40.7802 114.821 41.47C115.1 42.0028 115.621 42.8798 116.1 43.5997C116.578 44.3196 117.01 44.8489 117.506 45.3492C118.003 45.8495 118.55 46.3048 118.994 46.6584C119.439 47.012 119.763 47.2502 120.36 47.596C120.957 47.9419 121.816 48.3881 122.448 48.6779C123.44 49.1328 124.198 49.2739 124.806 49.3745C125.606 49.507 126.205 49.55 126.874 49.6058C127.588 49.6652 128.194 49.5816 128.836 49.4936C129.313 49.4283 130.103 49.373 131.059 49.1912C132.014 49.0093 133.112 48.716 134.063 48.3931C135.013 48.0701 135.784 47.7264 136.906 47.0778C138.027 46.4292 139.477 45.4862 140.615 44.6502C141.753 43.8142 142.536 43.1138 143.132 42.5209C143.728 41.9281 144.114 41.4639 144.348 41.1745C144.582 40.885 144.652 40.7843 144.839 40.563" stroke="#020205" stroke-width="3.00096" stroke-linecap="round"/>
<path d="M33.8592 45.9082C33.4728 45.9537 33.0864 45.9992 32.5757 46.0579C32.065 46.1166 31.4418 46.1871 31.0784 46.2331C30.715 46.2791 30.6305 46.2986 30.2177 46.3474C29.805 46.3962 29.0667 46.4737 27.6291 46.6884C26.1915 46.9032 24.077 47.2529 22.953 47.433C21.829 47.6132 21.7597 47.6132 21.4421 47.6648C21.1244 47.7164 20.5605 47.8197 20.2188 47.8877C19.7726 47.9765 19.6225 48.018 19.5443 48.0361C19.4087 48.0676 19.4738 48.2944 19.4654 48.4881C19.4586 48.6428 19.4625 48.9125 19.5418 49.8115C19.621 50.7105 19.7794 52.2307 19.8804 53.3136C19.9814 54.3964 20.02 54.9958 20.1373 55.7782C20.2546 56.5607 20.4493 57.5081 20.6964 58.4071C20.9436 59.306 21.2374 60.1278 21.3971 60.5832C21.6318 61.2522 21.6914 61.5767 21.7666 61.7647C21.8447 61.9602 21.9037 62.0575 21.966 62.1363C21.9985 62.1774 22.0672 62.1866 22.5792 62.1986C23.0911 62.2106 24.053 62.2164 24.8413 62.1886C25.6296 62.1608 26.2152 62.0992 26.7321 62.061C27.2489 62.0227 27.6792 62.0097 28.0239 61.9867C28.3686 61.9638 28.6146 61.9313 30.2431 61.6578C31.8715 61.3844 34.875 60.871 36.4649 60.5923C38.0548 60.3136 38.1401 60.2851 38.2115 60.2579C38.436 60.1722 38.5257 60.0927 38.5567 60.0459C38.5724 60.0222 38.5502 59.9824 38.2386 58.3907C37.9269 56.7991 37.3167 53.6528 36.9427 51.8232C36.5686 49.9936 36.4493 49.576 36.3849 49.3377C36.3205 49.0993 36.3147 49.0528 36.1848 48.5751C36.0549 48.0973 35.8012 47.1898 35.6656 46.7066C35.53 46.2234 35.5202 46.1922 35.5031 46.1251" stroke="#020205" stroke-width="3.00096" stroke-linecap="round"/>
<path d="M43.9961 49.2174C44.2038 49.197 44.4114 49.1766 47.9219 48.7373C51.4325 48.2981 58.2395 47.4405 61.857 46.9699C65.4746 46.4993 65.6964 46.4416 65.8484 46.3991C66.0003 46.3565 66.0757 46.3308 66.3367 46.3086C66.5976 46.2864 67.0418 46.2685 67.4994 46.25" stroke="#020205" stroke-width="3.00096" stroke-linecap="round"/>
<path d="M45.6055 58.6877C46.6381 58.6354 47.6708 58.583 50.3031 58.2429C52.9354 57.9029 57.136 57.2768 60.0353 56.9195C62.9347 56.5622 64.4053 56.4928 65.34 56.4322C67.0594 56.3208 67.4648 56.1858 67.8204 56.096C67.9109 56.0775 68.0311 56.0608 68.119 56.0402C68.2069 56.0195 68.2589 55.9955 68.3255 55.9707" stroke="#020205" stroke-width="3.00096" stroke-linecap="round"/>
<path d="M29.2559 82.1484C29.2559 82.1525 29.2559 82.1567 34.8893 81.5335C40.5228 80.9102 51.7898 79.6594 58.0773 78.9794C64.3647 78.2994 65.3313 78.2281 66.7254 78.0537C68.1196 77.8793 69.9119 77.604 70.9431 77.4363C72.5298 77.1119 72.9211 76.9553 73.2042 76.819C73.272 76.7867 73.3371 76.762 73.4422 76.7236" stroke="#020205" stroke-width="3.00096" stroke-linecap="round"/>
<path d="M27.8535 72.6166C28.0114 72.5847 28.1692 72.5529 33.1102 72.0969C38.0512 71.6409 47.7707 70.7618 54.1692 70.0323C60.5676 69.3027 63.3506 68.7494 64.9273 68.4146C66.504 68.0797 66.79 67.9801 67.2749 67.8616C67.7599 67.7431 68.4351 67.6087 68.9574 67.489C70.3197 67.1467 70.707 67.1117 70.9349 67.109C71.0428 67.1063 71.1349 67.1009 71.3804 67.0566" stroke="#020205" stroke-width="3.00096" stroke-linecap="round"/>
<path d="M31.4316 92.4755C31.4616 92.4679 31.4916 92.4603 37.2805 91.5042C43.0693 90.5481 54.6161 88.6438 60.9569 87.5661C67.2977 86.4884 68.0826 86.2951 68.8582 86.1786C70.3668 85.9522 71.2453 85.9708 71.4899 85.9083C71.6307 85.8688 71.8052 85.8134 71.932 85.7811C72.0589 85.7488 72.1328 85.7412 72.3636 85.7334" stroke="#020205" stroke-width="3.00096" stroke-linecap="round"/>
<path d="M32.7656 102.478C32.7698 102.478 32.774 102.478 39.2918 101.452C45.8095 100.425 58.8408 98.3721 65.6047 97.3009C72.3685 96.2296 72.4702 96.2024 72.6345 96.1655C73.3099 96.0138 73.6109 95.9666 73.9027 95.8953C73.9698 95.8791 74.0348 95.8609 74.1012 95.8494C74.1675 95.8379 74.2332 95.8337 74.3391 95.8164" stroke="#020205" stroke-width="3.00096" stroke-linecap="round"/>
<path d="M14.513 94.3397C14.5151 94.3376 14.5171 94.3355 15.458 93.6622C16.3989 92.9889 18.2786 91.6444 19.362 90.8112C20.4455 89.978 20.6758 89.6968 20.9354 89.3095C21.195 88.9222 21.4769 88.4372 21.6538 88.0999C21.9165 87.5987 21.9803 87.3162 22.015 87.1574C22.0298 87.0898 22.0338 87.0475 22.0283 86.7744C22.0228 86.5013 22.0064 85.9985 21.9929 85.7218C21.9739 85.3303 21.841 84.8673 21.7145 84.4325C21.6641 84.2588 21.5285 83.961 21.4173 83.7217C21.2249 83.3076 21.0461 83.0638 20.9033 82.9118C20.6047 82.5938 20.3168 82.5236 19.7687 82.3122C19.5498 82.2278 19.1442 82.1821 18.4901 82.1245C18.1509 82.0946 17.794 82.1049 17.5372 82.113C17.1331 82.1258 16.9129 82.1716 16.3583 82.2836C15.874 82.3814 14.9751 82.5497 14.3763 82.6905C13.7775 82.8314 13.5054 82.9366 13.3401 83.0047C13.1748 83.0728 13.1245 83.1007 12.8765 83.2159C12.6284 83.331 12.184 83.5327 11.4897 83.9369C10.7953 84.3412 9.86448 84.942 9.22675 85.3983C8.58902 85.8545 8.27259 86.1479 7.9196 86.5224C7.56661 86.897 7.18663 87.3438 6.88583 87.7357C6.58504 88.1276 6.37495 88.4511 6.23683 88.691C6.02018 89.0674 5.93666 89.3677 5.85467 89.7209C5.80536 89.9334 5.77258 90.2202 5.74568 90.5756C5.71878 90.931 5.70698 91.3482 5.70379 91.5979C5.7006 91.8476 5.70637 91.9172 5.77999 92.2594C5.85361 92.6016 5.99489 93.2143 6.14576 93.6893C6.29664 94.1643 6.45282 94.4829 6.57048 94.7081C6.68815 94.9333 6.76256 95.0555 6.87948 95.2082C6.9964 95.3608 7.15357 95.5403 7.68632 96.0184C8.21907 96.4966 9.12263 97.268 9.82739 97.8089C10.5321 98.3498 11.0107 98.6368 11.3705 98.8412C11.7303 99.0456 11.9569 99.1587 12.1435 99.2411C12.3301 99.3235 12.4699 99.3717 12.7416 99.4327C13.0132 99.4937 13.4125 99.566 13.6812 99.6033C14.0739 99.6577 14.2478 99.6458 14.5455 99.6537C14.8012 99.6605 15.2695 99.6564 15.5355 99.6519C15.8016 99.6474 15.8513 99.6384 16.0727 99.6337C16.2942 99.6291 16.6859 99.6291 16.9691 99.6154C17.6143 99.5843 17.7544 99.5294 17.9061 99.5033C18.0083 99.477 18.1103 99.4559 18.1887 99.4462C18.2241 99.4408 18.2507 99.4345 18.2844 99.4279" stroke="#020205" stroke-width="3.00096" stroke-linecap="round"/>
<path d="M5.87642 87.6975C5.87226 87.6933 5.50314 87.3683 4.86808 86.786C4.59314 86.5339 4.44196 86.3405 4.30709 86.1687C4.17222 85.997 4.06533 85.8452 3.83202 85.3585C3.59871 84.8719 3.24223 84.055 3.02246 83.4981C2.80269 82.9413 2.73043 82.6692 2.67021 82.3027C2.61 81.9363 2.56402 81.4837 2.54033 81.0663C2.51665 80.6489 2.51665 80.2803 2.54809 79.9372C2.57954 79.5941 2.64243 79.2875 2.70315 79.039C2.76388 78.7906 2.82053 78.6094 2.90676 78.3994C2.99298 78.1894 3.10706 77.9561 3.22524 77.7651C3.34341 77.5741 3.46221 77.4326 3.76392 77.1423C4.06564 76.8519 4.54667 76.4171 5.08948 75.9941C5.6323 75.5711 6.22234 75.1732 6.71628 74.8761C7.21023 74.579 7.59021 74.3949 8.18058 74.145C8.77094 73.8952 9.56018 73.5852 10.1406 73.3879C10.721 73.1905 11.0687 73.115 11.8383 73.0615C12.6078 73.0081 13.7886 72.9788 14.6751 72.9982C15.5615 73.0177 16.1178 73.0867 16.5851 73.1689C17.0525 73.251 17.4139 73.3442 17.628 73.4033C17.8997 73.4784 18.1417 73.6301 18.6506 74.025C18.9843 74.2839 19.4264 74.7167 19.7139 74.9726C20.0015 75.2284 20.1096 75.3083 20.2874 75.4742C20.4651 75.6402 20.7092 75.8899 20.9308 76.1544C21.1525 76.4189 21.3444 76.6907 21.5386 77.0214C21.7328 77.3521 21.9235 77.7334 22.0382 77.9821C22.1987 78.33 22.2563 78.6045 22.3135 78.9446C22.4186 79.5681 22.3137 79.7616 22.2831 79.9859C22.2426 80.2832 22.1028 80.4876 21.9433 80.8292C21.8552 81.0179 21.7754 81.1356 21.7136 81.2697C21.6567 81.393 21.5691 81.4919 21.4914 81.6168C21.4716 81.6508 21.4512 81.6851 21.4208 81.7383C21.3903 81.7915 21.3505 81.8627 21.3094 81.936" stroke="#020205" stroke-width="3.00096" stroke-linecap="round"/>
<path d="M3.74718 76.124C3.74511 76.1219 3.74303 76.1198 3.53801 75.8254C3.333 75.531 2.92512 74.9443 2.61758 74.4593C2.31004 73.9742 2.1152 73.6086 1.96898 73.2559C1.82276 72.9033 1.73105 72.5746 1.65909 72.2555C1.58713 71.9365 1.5377 71.6368 1.51495 71.1821C1.49219 70.7274 1.49762 70.1267 1.51648 69.7262C1.53534 69.3258 1.56747 69.1439 1.63386 68.8996C1.70025 68.6554 1.79992 68.3542 1.97862 67.977C2.15731 67.5998 2.412 67.1557 2.59155 66.8731C2.77109 66.5905 2.86777 66.4828 2.99163 66.3646C3.11549 66.2464 3.26361 66.1209 3.57972 65.8916C3.89583 65.6623 4.37545 65.333 4.75974 65.1049C5.14402 64.8769 5.41845 64.76 5.79631 64.6276C6.17418 64.4952 6.64717 64.3507 6.92216 64.2706C7.25801 64.1727 7.55425 64.1168 8.1529 64.0141C8.51993 63.9512 9.02216 63.9096 9.84632 63.8739C10.6705 63.8381 11.8031 63.8205 12.7759 63.8781C13.7487 63.9356 14.5274 64.0689 15.2112 64.2365C15.895 64.4042 16.4603 64.6023 16.9268 64.8133C17.3933 65.0243 17.7439 65.2422 18.0555 65.4661C18.3671 65.6899 18.6292 65.913 18.9137 66.1942C19.1981 66.4754 19.4971 66.8079 19.7104 67.0617C19.9238 67.3155 20.0425 67.4805 20.2214 67.8398C20.4003 68.1991 20.6358 68.7477 20.7757 69.0933C20.9155 69.439 20.9526 69.565 20.9933 69.9102C21.034 70.2554 21.0772 70.8161 21.0912 71.1376C21.1125 71.6273 20.9585 72.0085 20.7983 72.419C20.7383 72.5729 20.6373 72.7214 20.3858 73.0833C20.0543 73.4775 19.7192 73.8418 19.6636 73.8993C19.6373 73.9246 19.6149 73.9421 19.5603 73.985" stroke="#020205" stroke-width="3.00096" stroke-linecap="round"/>
<path d="M17.4017 92.6725C18.2567 96.9473 20.3513 107.036 21.8903 113.192C23.1621 118.279 24.8134 124.593 25.831 128.441C26.1476 129.638 27.2732 130.435 28.5068 130.322C34.4318 129.783 44.2928 128.658 48.822 127.299C54.7706 125.514 83.8965 118.211 92.1735 114.605C93.1338 114.186 93.5885 113.16 93.4011 112.129C92.2335 105.706 90.1564 94.8415 89.2196 92.0312C88.1936 88.9533 86.1625 77.0925 85.3722 72.153C84.5819 67.2136 81.9096 48.0427 80.8836 41.3739C79.9962 35.6059 79.3647 30.0617 79.0719 27.1479C79.0056 26.4879 78.4557 25.9842 77.7924 25.9867C72.6692 26.006 63.1815 26.1515 58.4405 26.6256C52.0282 27.2668 37.2799 28.5493 28.9438 29.8318C23.2206 30.7123 14.8842 32.6003 9.93305 33.7935C8.69537 34.0918 7.87638 35.2568 8.01151 36.5227C8.53309 41.4089 9.4718 49.3787 10.3481 54.1986C11.3741 59.8414 12.0581 62.9621 12.2718 63.817" stroke="#020205" stroke-width="3.00096"/>
<defs>
<filter id="filter0_g_509_3738" x="74.1351" y="0.000315666" width="141.005" height="141.004" filterUnits="userSpaceOnUse" color-interpolation-filters="sRGB">
<feFlood flood-opacity="0" result="BackgroundImageFix"/>
<feBlend mode="normal" in="SourceGraphic" in2="BackgroundImageFix" result="shape"/>
<feTurbulence type="fractalNoise" baseFrequency="0.029686957597732544 0.029686957597732544" numOctaves="3" seed="3160" />
<feDisplacementMap in="shape" scale="3.2337436676025391" xChannelSelector="R" yChannelSelector="G" result="displacedImage" width="100%" height="100%" />
<feMerge result="effect1_texture_509_3738">
<feMergeNode in="displacedImage"/>
</feMerge>
</filter>
</defs>
</svg>
