<svg width="148" height="123" viewBox="0 0 148 123" fill="none" xmlns="http://www.w3.org/2000/svg">
<g filter="url(#filter0_g_1156_1259)">
<circle cx="99.0762" cy="48.378" r="47.1172" fill="#E60611"/>
</g>
<path d="M78.8607 14.3572C79.0917 14.0174 79.7603 13.5536 80.0087 13.5418C80.0545 13.5396 80.0946 13.5521 80.1353 13.5626C80.2169 13.5836 80.4517 13.9382 80.7571 14.5057C80.9313 14.8293 80.913 15.1001 80.8976 15.3695C80.8821 15.6425 80.7378 15.9619 80.5082 16.3496C80.2268 16.8244 79.8406 17.0076 79.6391 17.0438C79.4127 17.0844 79.0666 16.932 78.7057 16.6772C78.4743 16.5138 78.3975 16.2161 78.3167 15.827C78.2145 15.3351 78.3213 14.8223 78.4282 14.4524C78.5015 14.1989 78.6535 14.0965 78.758 14.0273C79.0074 13.8622 79.2895 13.9072 79.5141 13.9808C79.685 14.0369 79.7964 14.1688 79.8662 14.2446C80.0783 14.4747 79.9217 15.0983 79.7313 15.6014C79.6209 15.893 79.3334 16.0663 79.2352 16.1204C79.1962 16.142 79.1623 16.1048 79.1434 16.0657C78.9193 15.6024 79.1336 14.4851 79.2094 14.1629C79.2241 14.1001 79.2641 14.036 79.3126 13.992C79.3612 13.9481 79.4256 13.9291 79.5086 13.9413C79.6971 13.9688 79.8903 14.214 80.0473 14.5259C80.2561 14.9405 80.096 15.4766 79.9226 15.8449C79.8034 15.9698 79.6866 16.0501 79.593 16.0704C79.5487 16.0691 79.5107 16.0445 79.4602 15.9839" stroke="#020205" stroke-width="2.34" stroke-linecap="round"/>
<path d="M106.062 21.0437C106.219 20.5933 106.581 19.9486 106.689 19.9372C106.83 19.9222 107.07 20.0106 107.354 20.2287C107.919 20.6625 107.715 21.132 107.736 21.4191C107.771 21.8747 107.539 22.554 107.38 22.8187C107.324 22.9127 107.211 22.9553 107.057 22.9841C106.965 23.0012 106.843 22.9938 106.747 22.9408C106.137 22.6037 106.106 21.5927 106.108 21.1556C106.109 20.7992 106.268 20.6304 106.454 20.4456C106.554 20.3451 106.724 20.3165 106.874 20.3099C107.165 20.2971 107.253 20.8831 107.444 21.7522C107.462 22.3398 107.412 22.4821 107.361 22.5746C107.337 22.6197 107.319 22.6611 107.29 22.7235" stroke="#020205" stroke-width="2.34" stroke-linecap="round"/>
<path d="M77.0039 23.5298C77.0946 24.1505 77.2489 24.8589 77.4418 25.52C77.5655 25.9441 77.6887 26.2096 77.7546 26.4184C77.7952 26.5469 77.9583 26.9899 78.2223 27.6114C78.3416 27.8923 78.435 28.0478 78.6813 28.5196C78.8715 28.8841 79.2283 29.484 79.5555 29.9764C79.8827 30.4688 80.1783 30.8308 80.5177 31.173C80.8572 31.5152 81.2315 31.8266 81.5355 32.0685C81.8394 32.3104 82.0614 32.4733 82.4696 32.7098C82.8778 32.9464 83.4653 33.2516 83.8978 33.4498C84.5764 33.7609 85.0946 33.8575 85.5106 33.9263C86.0579 34.0169 86.4673 34.0463 86.9253 34.0845C87.4137 34.1251 87.8281 34.0679 88.2674 34.0078C88.5936 33.9631 89.1341 33.9252 89.7874 33.8009C90.4408 33.6765 91.1918 33.4759 91.8421 33.255C92.4925 33.0341 93.0195 32.799 93.7867 32.3554C94.554 31.9117 95.5454 31.2667 96.3239 30.6949C97.1023 30.1231 97.6376 29.644 98.0455 29.2385C98.4533 28.833 98.7175 28.5155 98.8774 28.3175C99.0374 28.1195 99.085 28.0506 99.213 27.8993" stroke="#020205" stroke-width="2.34" stroke-linecap="round"/>
<path d="M74.6543 64.3672C74.6825 64.3954 74.7106 64.4235 75.0881 64.7617C75.4656 65.0999 76.1916 65.7472 76.6322 66.1556C77.0729 66.5641 77.2064 66.7142 77.5325 67.0043C77.8587 67.2944 78.3734 67.7201 78.7402 67.9989C79.1069 68.2776 79.31 68.3966 79.6156 68.5319C79.9211 68.6673 80.3229 68.8154 80.6814 68.922C81.0399 69.0286 81.3428 69.0891 81.841 69.1248C82.3393 69.1605 83.0237 69.1694 83.5329 69.1542C84.042 69.1389 84.3551 69.0991 84.6416 69.0485C84.928 68.998 85.1784 68.9378 85.4222 68.8542C85.666 68.7707 85.8955 68.6654 86.5043 68.247C87.1131 67.8285 88.0942 67.0999 88.6979 66.5997C89.3017 66.0996 89.4984 65.8499 89.6597 65.6148C89.821 65.3797 89.9408 65.1668 90.0643 64.9474" stroke="#020205" stroke-width="2.34" stroke-linecap="round"/>
<path d="M72.2734 65.2621C72.2768 65.2637 72.2802 65.2654 72.5852 65.2717C72.8901 65.278 73.4965 65.289 73.8349 65.2906C74.2253 65.2924 74.319 65.2759 74.5011 65.2601C75.1598 65.1777 75.2317 65.1672 75.2784 65.1547C75.3021 65.1481 75.3257 65.1413 75.3652 65.1343" stroke="#020205" stroke-width="2.34" stroke-linecap="round"/>
<path d="M71.4512 54.8291C71.2181 55.0816 70.985 55.334 70.7051 55.6509C70.4253 55.9678 70.1057 56.3414 69.6679 56.9274C69.2302 57.5135 68.6839 58.3006 68.3969 58.7227C68.0012 59.3049 67.8568 59.7307 67.7377 60.0339C67.6705 60.2048 67.5451 60.5301 67.4454 60.8685C67.4048 61.0062 67.4151 61.5862 67.439 62.4776C67.4493 62.8629 67.4882 63.1108 67.6397 63.6327C67.7911 64.1546 68.0621 64.9425 68.2677 65.4716C68.4732 66.0006 68.6051 66.2468 68.7246 66.4527C68.9389 66.8217 69.1132 67.0447 69.2979 67.2597C69.6208 67.6354 69.9409 68.0074 70.2813 68.3052C70.4845 68.4828 70.7701 68.6898 71.0919 68.9075C71.4138 69.1252 71.7684 69.3411 72.227 69.5465C72.6856 69.7519 73.2373 69.9403 73.854 70.0553C74.4707 70.1702 75.1355 70.206 75.5524 70.2179C76.1181 70.2342 76.3964 70.1801 76.6992 70.1054C76.8793 70.061 77.1058 69.9768 77.3923 69.8655C77.6787 69.7541 78.0163 69.6113 78.2906 69.4816C78.9973 69.1037 79.1472 69.0036 79.3062 68.8771C79.3419 68.8496 79.3759 68.8299 79.4255 68.8097" stroke="#020205" stroke-width="2.34" stroke-linecap="round"/>
<path d="M67.3685 60.6797C67.0827 60.3968 66.8197 60.149 66.3305 59.6125C66.1313 59.3941 65.8978 59.0278 65.5966 58.5642C65.3743 58.222 65.241 57.6137 65.069 56.907C64.8941 56.1887 64.885 55.5129 64.8809 54.5056C64.8794 54.1454 64.9795 53.8789 65.2306 53.2788C65.4267 52.8103 65.8224 52.0354 66.1198 51.523C66.5648 50.7564 66.9005 50.5085 67.1778 50.3233C68.3009 49.6713 68.8782 49.3962 69.2046 49.2839C69.4313 49.2088 69.7821 49.0968 70.1767 48.9702" stroke="#020205" stroke-width="2.34" stroke-linecap="round"/>
<path d="M85.6582 69.0465C86.5916 69.7459 86.8493 69.9184 87.4238 70.2376C88.2756 70.7107 88.954 70.9116 89.232 71.0147C90.233 71.386 90.5786 71.519 91.5466 71.7388C92.2656 71.9021 93.6405 72.1906 94.3946 72.3597C95.2447 72.5503 95.4331 72.6026 96.2059 72.7106C96.8853 72.8055 98.1463 72.9924 100.186 73.068C102.226 73.1436 105.007 73.1048 107.628 72.8662C110.248 72.6276 112.624 72.1905 114.305 71.7926C115.985 71.3948 116.897 71.0496 118.888 69.8021C120.879 68.5547 123.921 66.4154 125.772 65.0396C127.623 63.6637 128.192 63.116 128.884 62.4429" stroke="#020205" stroke-width="2.34" stroke-linecap="round"/>
<path d="M65.959 50.9472C65.3415 50.6911 65.1929 50.6327 64.9144 50.5453C64.667 50.4678 64.2099 50.3052 63.6987 50.1686C63.1875 50.032 62.6377 49.9219 61.7177 49.7726C60.7977 49.6234 59.5243 49.4384 58.792 49.3279C58.0596 49.2174 57.9068 49.1869 57.4978 49.0632C57.0888 48.9394 56.4284 48.7233 55.9833 48.5522C55.5382 48.381 55.3286 48.2613 55.023 48.0323C54.7174 47.8033 54.3222 47.4687 54.0114 47.1715C53.4634 46.6473 53.2258 46.298 53.1058 46.0411C53.0193 45.856 52.9048 45.5491 52.7936 45.2299C52.5707 44.59 52.4718 44.1531 52.4525 43.8349C52.4186 43.2744 52.4419 42.8407 52.467 42.6835C52.4899 42.5398 52.5359 42.3593 52.6423 42.0217C52.7148 41.792 52.8985 41.4699 53.0504 41.2341C53.3028 40.842 53.684 40.5904 54.2228 40.3137C54.5394 40.151 54.9884 40.038 55.5409 39.9473C56.0934 39.8567 56.7472 39.816 57.6723 39.8954C58.5973 39.9749 59.7737 40.1757 62.6675 40.7523C65.5613 41.3289 70.1368 42.2751 73.9946 43.3243C77.8524 44.3735 80.8538 45.4969 83.0071 46.4343C85.1603 47.3717 87.0471 49.0681 90.5559 51.2611C94.0647 53.4541 95.2051 56.0857 103.275 56.0857C111.345 56.0857 117.164 52.5769 119.065 50.8225" stroke="#020205" stroke-width="2.34" stroke-linecap="round"/>
<path d="M23.3041 31.5552C23.0398 31.5863 22.7755 31.6174 22.4262 31.6576C22.0769 31.6977 21.6506 31.7459 21.4021 31.7774C21.1535 31.8089 21.0957 31.8222 20.8134 31.8556C20.5311 31.8889 20.0261 31.9419 19.0428 32.0888C18.0594 32.2357 16.6131 32.4749 15.8443 32.5981C15.0756 32.7214 15.0281 32.7214 14.8109 32.7567C14.5936 32.792 14.2079 32.8626 13.9741 32.9091C13.669 32.9698 13.5663 32.9983 13.5128 33.0107C13.4201 33.0322 13.4646 33.1874 13.4588 33.3198C13.4542 33.4256 13.4569 33.6101 13.5111 34.225C13.5653 34.8399 13.6737 35.8797 13.7427 36.6204C13.8118 37.361 13.8382 37.771 13.9184 38.3062C13.9986 38.8414 14.1318 39.4894 14.3009 40.1043C14.4699 40.7192 14.6709 41.2813 14.7801 41.5928C14.9406 42.0504 14.9814 42.2723 15.0328 42.4009C15.0862 42.5346 15.1266 42.6012 15.1692 42.6551C15.1915 42.6832 15.2385 42.6895 15.5886 42.6977C15.9388 42.7059 16.5967 42.7099 17.1359 42.6909C17.6751 42.6719 18.0757 42.6297 18.4292 42.6036C18.7827 42.5774 19.0771 42.5685 19.3128 42.5528C19.5486 42.5371 19.7168 42.5149 20.8307 42.3278C21.9446 42.1408 23.9989 41.7897 25.0864 41.599C26.1739 41.4084 26.2322 41.3889 26.2811 41.3703C26.4346 41.3117 26.496 41.2573 26.5172 41.2253C26.5279 41.2091 26.5128 41.1818 26.2996 40.0932C26.0864 39.0045 25.669 36.8525 25.4132 35.601C25.1574 34.3496 25.0757 34.0639 25.0317 33.9009C24.9876 33.7379 24.9836 33.7061 24.8948 33.3793C24.806 33.0525 24.6325 32.4318 24.5397 32.1013C24.447 31.7708 24.4402 31.7494 24.4285 31.7036" stroke="#020205" stroke-width="2.34" stroke-linecap="round"/>
<path d="M30.2383 33.8192C30.3803 33.8053 30.5224 33.7913 32.9235 33.4909C35.3247 33.1904 39.9807 32.6039 42.4551 32.282C44.9294 31.9601 45.0811 31.9206 45.1851 31.8915C45.289 31.8624 45.3406 31.8448 45.5191 31.8297C45.6976 31.8145 46.0014 31.8022 46.3144 31.7896" stroke="#020205" stroke-width="2.34" stroke-linecap="round"/>
<path d="M31.3398 40.2964C32.0462 40.2606 32.7525 40.2248 34.553 39.9922C36.3534 39.7596 39.2267 39.3313 41.2098 39.087C43.1929 38.8426 44.1988 38.7951 44.8381 38.7537C46.0142 38.6775 46.2915 38.5851 46.5347 38.5237C46.5966 38.511 46.6788 38.4996 46.739 38.4855C46.7991 38.4714 46.8347 38.4549 46.8802 38.438" stroke="#020205" stroke-width="2.34" stroke-linecap="round"/>
<path d="M20.1562 56.3438C20.1562 56.3466 20.1562 56.3495 24.0095 55.9232C27.8628 55.4969 35.5693 54.6414 39.8699 54.1762C44.1705 53.7111 44.8316 53.6623 45.7852 53.543C46.7388 53.4238 47.9648 53.2355 48.6701 53.1208C49.7553 52.8989 50.023 52.7918 50.2166 52.6985C50.263 52.6765 50.3075 52.6595 50.3794 52.6333" stroke="#020205" stroke-width="2.34" stroke-linecap="round"/>
<path d="M19.1973 49.824C19.3052 49.8022 19.4132 49.7804 22.7928 49.4685C26.1724 49.1566 32.8205 48.5553 37.197 48.0563C41.5735 47.5573 43.477 47.1788 44.5555 46.9498C45.6339 46.7208 45.8296 46.6527 46.1613 46.5716C46.493 46.4906 46.9548 46.3986 47.312 46.3167C48.2439 46.0826 48.5088 46.0587 48.6647 46.0568C48.7385 46.055 48.8015 46.0513 48.9694 46.021" stroke="#020205" stroke-width="2.34" stroke-linecap="round"/>
<path d="M21.6445 63.4074C21.665 63.4022 21.6856 63.3971 25.6451 62.7431C29.6046 62.0892 37.5026 60.7866 41.8396 60.0494C46.1767 59.3123 46.7135 59.1801 47.244 59.1004C48.2759 58.9455 48.8768 58.9583 49.0441 58.9155C49.1404 58.8885 49.2598 58.8506 49.3465 58.8285C49.4333 58.8064 49.4839 58.8012 49.6418 58.7959" stroke="#020205" stroke-width="2.34" stroke-linecap="round"/>
<path d="M22.5566 70.2489C22.5595 70.2489 22.5624 70.2489 27.0205 69.5468C31.4786 68.8447 40.3919 67.4405 45.0183 66.7077C49.6448 65.975 49.7143 65.9564 49.8267 65.9312C50.2887 65.8274 50.4945 65.7951 50.6941 65.7464C50.74 65.7353 50.7845 65.7228 50.8299 65.715C50.8753 65.7071 50.9202 65.7042 50.9927 65.6924" stroke="#020205" stroke-width="2.34" stroke-linecap="round"/>
<path d="M10.0728 64.6818C10.0742 64.6803 10.0756 64.6789 10.7191 64.2184C11.3627 63.7578 12.6484 62.8382 13.3895 62.2683C14.1306 61.6984 14.2881 61.5061 14.4657 61.2412C14.6432 60.9762 14.836 60.6445 14.957 60.4138C15.1367 60.071 15.1803 59.8778 15.2041 59.7691C15.2142 59.7229 15.2169 59.694 15.2132 59.5072C15.2094 59.3204 15.1982 58.9764 15.189 58.7872C15.176 58.5194 15.0851 58.2028 14.9986 57.9053C14.964 57.7866 14.8713 57.5829 14.7952 57.4191C14.6637 57.1359 14.5413 56.9692 14.4437 56.8652C14.2395 56.6477 14.0425 56.5997 13.6677 56.4551C13.5179 56.3973 13.2405 56.3661 12.7931 56.3267C12.5611 56.3062 12.317 56.3133 12.1413 56.3188C11.8649 56.3276 11.7143 56.3589 11.335 56.4355C11.0037 56.5024 10.3888 56.6175 9.97924 56.7138C9.56967 56.8102 9.38356 56.8821 9.2705 56.9287C9.15744 56.9753 9.12307 56.9944 8.95339 57.0732C8.78371 57.1519 8.47975 57.2899 8.00483 57.5664C7.5299 57.8429 6.89322 58.2539 6.45701 58.5659C6.02081 58.878 5.80438 59.0786 5.56293 59.3348C5.32148 59.591 5.06158 59.8966 4.85584 60.1647C4.6501 60.4327 4.5064 60.654 4.41192 60.8181C4.26374 61.0756 4.20661 61.281 4.15053 61.5226C4.1168 61.6679 4.09438 61.8641 4.07598 62.1072C4.05758 62.3503 4.04951 62.6356 4.04733 62.8064C4.04514 62.9772 4.0491 63.0248 4.09945 63.2589C4.1498 63.4929 4.24644 63.912 4.34964 64.2369C4.45283 64.5618 4.55966 64.7797 4.64014 64.9338C4.72063 65.0878 4.77152 65.1714 4.85149 65.2758C4.93146 65.3802 5.03897 65.503 5.40337 65.83C5.76776 66.1571 6.3858 66.6848 6.86784 67.0547C7.34989 67.4247 7.67722 67.621 7.92334 67.7608C8.16945 67.9006 8.32443 67.978 8.45207 68.0343C8.5797 68.0907 8.6753 68.1237 8.86112 68.1654C9.04693 68.2071 9.32007 68.2566 9.50386 68.282C9.77246 68.3193 9.89135 68.3111 10.095 68.3165C10.2699 68.3212 10.5902 68.3184 10.7722 68.3153C10.9542 68.3122 10.9881 68.3061 11.1396 68.3029C11.2911 68.2997 11.559 68.2997 11.7527 68.2904C12.1941 68.2691 12.2899 68.2315 12.3937 68.2136C12.4636 68.1956 12.5333 68.1812 12.5869 68.1746C12.6111 68.1709 12.6294 68.1666 12.6524 68.1621" stroke="#020205" stroke-width="2.34" stroke-linecap="round"/>
<path d="M4.16451 60.1389C4.16167 60.136 3.90919 59.9137 3.47482 59.5154C3.28676 59.343 3.18335 59.2107 3.0911 59.0932C2.99885 58.9758 2.92574 58.8719 2.76616 58.5391C2.60658 58.2062 2.36275 57.6475 2.21242 57.2666C2.0621 56.8857 2.01267 56.6996 1.97149 56.4489C1.9303 56.1983 1.89885 55.8887 1.88265 55.6032C1.86645 55.3177 1.86645 55.0656 1.88796 54.8309C1.90947 54.5962 1.95248 54.3865 1.99402 54.2166C2.03555 54.0466 2.0743 53.9227 2.13328 53.7791C2.19226 53.6354 2.27029 53.4758 2.35112 53.3452C2.43195 53.2146 2.51321 53.1178 2.71958 52.9192C2.92595 52.7206 3.25497 52.4232 3.62625 52.1339C3.99754 51.8445 4.40112 51.5724 4.73897 51.3692C5.07683 51.1659 5.33673 51.04 5.74054 50.8691C6.14435 50.6982 6.68418 50.4862 7.08119 50.3512C7.4782 50.2162 7.71603 50.1646 8.24238 50.128C8.76874 50.0914 9.5764 50.0714 10.1827 50.0847C10.7891 50.098 11.1696 50.1452 11.4892 50.2014C11.8089 50.2576 12.0561 50.3213 12.2025 50.3618C12.3884 50.4131 12.5539 50.5169 12.902 50.787C13.1302 50.9641 13.4326 51.2601 13.6293 51.4351C13.826 51.6101 13.8999 51.6648 14.0215 51.7783C14.1431 51.8918 14.31 52.0626 14.4616 52.2435C14.6133 52.4244 14.7445 52.6103 14.8773 52.8365C15.0102 53.0627 15.1406 53.3235 15.2191 53.4937C15.3288 53.7316 15.3682 53.9193 15.4074 54.1519C15.4792 54.5785 15.4075 54.7108 15.3866 54.8642C15.3589 55.0675 15.2633 55.2074 15.1542 55.441C15.0939 55.5701 15.0393 55.6506 14.997 55.7423C14.9581 55.8267 14.8982 55.8943 14.8451 55.9797C14.8315 56.003 14.8176 56.0265 14.7967 56.0629C14.7759 56.0993 14.7487 56.1479 14.7206 56.1981" stroke="#020205" stroke-width="2.34" stroke-linecap="round"/>
<path d="M2.70698 52.2229C2.70556 52.2215 2.70414 52.2201 2.56391 52.0187C2.42368 51.8173 2.14469 51.416 1.93434 51.0842C1.72398 50.7525 1.59072 50.5024 1.4907 50.2612C1.39069 50.0199 1.32796 49.7952 1.27874 49.5769C1.22952 49.3587 1.19571 49.1537 1.18014 48.8427C1.16458 48.5317 1.16829 48.1208 1.18119 47.8469C1.1941 47.573 1.21607 47.4486 1.26148 47.2815C1.30689 47.1144 1.37507 46.9084 1.49729 46.6504C1.61952 46.3924 1.79373 46.0886 1.91653 45.8953C2.03934 45.702 2.10547 45.6284 2.19019 45.5476C2.27491 45.4667 2.37622 45.3809 2.59244 45.224C2.80865 45.0672 3.13671 44.8419 3.39956 44.6859C3.66241 44.5299 3.85011 44.45 4.10857 44.3595C4.36703 44.2689 4.69055 44.17 4.87864 44.1152C5.10836 44.0483 5.31099 44.01 5.72046 43.9398C5.97151 43.8968 6.31503 43.8683 6.87875 43.8439C7.44247 43.8194 8.21717 43.8074 8.88257 43.8468C9.54798 43.8861 10.0806 43.9773 10.5483 44.0919C11.016 44.2066 11.4027 44.3421 11.7218 44.4864C12.0409 44.6308 12.2806 44.7798 12.4938 44.9329C12.7069 45.086 12.8862 45.2386 13.0808 45.431C13.2753 45.6233 13.4798 45.8508 13.6257 46.0244C13.7717 46.198 13.8529 46.3108 13.9752 46.5565C14.0976 46.8023 14.2587 47.1776 14.3544 47.414C14.45 47.6504 14.4753 47.7366 14.5032 47.9727C14.531 48.2088 14.5606 48.5923 14.5702 48.8122C14.5848 49.1472 14.4794 49.4079 14.3698 49.6887C14.3288 49.7939 14.2597 49.8956 14.0877 50.1431C13.8609 50.4127 13.6318 50.6619 13.5937 50.7012C13.5757 50.7185 13.5604 50.7305 13.523 50.7598" stroke="#020205" stroke-width="2.34" stroke-linecap="round"/>
<path d="M12.0477 63.5415C12.6325 66.4655 14.0653 73.3661 15.1179 77.5766C15.9663 80.9701 17.0615 85.1612 17.7608 87.8081C18.0075 88.7419 18.886 89.3638 19.8478 89.2751C23.9194 88.8994 30.4926 88.1397 33.539 87.2258C37.5724 86.0158 57.1836 81.0968 63.0399 78.6081C63.7916 78.2887 64.1474 77.4895 64.001 76.6859C63.1973 72.2737 61.8036 65.0014 61.1707 63.1029C60.469 60.9976 59.1239 53.1613 58.5391 49.5063M56.7848 39.8572C56.6386 37.9566 56.1707 33.015 55.469 28.4536C54.8732 24.5811 54.446 20.8561 54.2411 18.8352C54.1889 18.3207 53.7591 17.9271 53.2419 17.9293C49.7128 17.9442 43.3264 18.045 40.118 18.3658C35.732 18.8044 25.6443 19.6816 19.9425 20.5588C16.1069 21.1489 10.5553 22.4006 7.14718 23.2186C6.18188 23.4503 5.54148 24.3599 5.64757 25.3469C6.00839 28.7037 6.63622 33.9975 7.22314 37.2256C7.9249 41.0852 8.39274 43.2197 8.53894 43.8045" stroke="#020205" stroke-width="2.34"/>
<path d="M67.3443 105.441C67.1176 105.113 66.9643 104.896 66.7967 104.671C66.4386 104.191 65.9072 103.579 65.4132 103.102C64.8818 102.589 64.2163 102.218 63.7369 101.902C63.4203 101.694 62.8552 101.293 62.3737 100.988C61.5334 100.457 61.0548 100.261 60.6771 100.127C60.3681 100.018 59.8296 99.8029 59.3031 99.6469C58.7767 99.4908 58.2809 99.3944 57.4666 99.3399C56.6524 99.2853 55.5348 99.2755 54.4172 99.3634C53.2997 99.4512 52.216 99.637 51.6086 99.7481C51.0011 99.8593 50.9026 99.8903 50.5702 99.9774C50.2377 100.065 49.6744 100.207 48.9458 100.472C48.2173 100.737 47.3405 101.12 46.771 101.393C45.9487 101.788 45.4976 102.186 45.079 102.596C44.7146 102.952 44.3198 103.471 43.7571 104.348C43.4142 104.883 43.0874 105.67 42.8756 106.226C42.6638 106.782 42.6108 107.101 42.6253 107.745C42.6398 108.389 42.7234 109.347 42.8007 109.961C42.9089 110.821 43.1617 111.348 43.4654 111.877C43.9516 112.723 44.4028 112.945 45.1082 113.464C45.725 113.918 46.8623 114.764 48.4722 115.706C50.0821 116.648 52.1288 117.662 53.7052 118.347C55.2816 119.032 56.3257 119.357 57.2643 119.603C58.2028 119.848 59.0042 120.003 60.3031 120.125C61.602 120.247 63.3741 120.33 64.3294 120.368C65.5122 120.415 66.0292 120.281 66.869 120.092C67.9768 119.841 68.7534 119.612 68.8959 119.588C69.0406 119.563 69.239 119.516 69.6973 119.394C70.5771 119.16 71.2407 118.841 71.5816 118.642C72.0722 118.356 72.4768 117.998 72.7662 117.705C73.0571 117.412 73.3171 117.099 73.6093 116.829C73.8999 116.561 74.3442 115.809 74.8955 114.713C75.33 113.849 75.4223 113.357 75.4641 113.136C75.5389 112.74 75.6771 112.082 75.8337 111.263C75.9863 110.465 76.1306 110.002 76.3648 109.33C76.5751 108.728 76.9453 107.585 77.1605 106.962C77.3756 106.339 77.4179 106.269 77.6368 105.669C77.8557 105.068 78.25 103.939 79.1184 102.074C79.9868 100.21 81.3173 97.6432 82.3547 95.7711C83.3921 93.899 84.0959 92.7988 84.5881 92.0797C85.3042 91.0336 85.696 90.6525 85.8599 90.4724C85.991 90.2934 86.1477 90.0919 86.317 89.8952C86.388 89.8087 86.4286 89.7491 86.4829 89.6758" stroke="#020205" stroke-width="2.34" stroke-linecap="round"/>
<path d="M62.7988 100.202C63.0366 99.7644 63.2743 99.327 63.7401 98.5038C64.2058 97.6806 64.8924 96.485 65.3843 95.5825C65.8761 94.6801 66.1525 94.1071 66.7003 93.1702C67.248 92.2333 68.0588 90.95 68.5216 90.2383C69.0575 89.4143 69.3122 89.112 69.5688 88.7513C69.7446 88.5043 69.8943 88.376 70.4773 87.8134C71.0057 87.3034 71.99 86.3214 72.522 85.7994C73.0957 85.2366 73.196 85.1598 73.4588 84.9506C74.4888 84.1544 74.7027 83.9447 74.8981 83.7461C74.979 83.6586 75.0226 83.5978 75.0796 83.5352" stroke="#020205" stroke-width="2.34" stroke-linecap="round"/>
<path d="M43.5 108.626C44.2181 107.976 44.9646 107.552 45.2356 107.407C45.4128 107.313 46.1878 107.025 47.2343 106.657C47.6594 106.508 47.8478 106.477 48.4121 106.404C48.8484 106.347 49.5988 106.326 50.3717 106.356C51.1447 106.385 51.92 106.485 52.3678 106.551C52.8156 106.617 52.9125 106.646 53.4749 106.754C54.0374 106.862 55.0624 107.048 55.6668 107.167C56.6694 107.364 56.8585 107.513 57.6373 107.844C58.3629 108.151 59.7482 108.765 61.5809 109.742C63.4136 110.719 65.6489 112.046 66.9343 112.828C68.5054 113.785 68.826 114.07 69.0183 114.222C69.3275 114.467 69.7198 114.746 70.1842 115.227C70.874 116.011 71.33 116.535 71.4129 116.623C71.4518 116.667 71.4842 116.712 71.5703 116.869" stroke="#020205" stroke-width="2.34" stroke-linecap="round"/>
<path d="M112.495 107.66C112.491 107.66 112.487 107.66 111.892 107.686C111.296 107.712 110.11 107.765 108.978 107.897C107.845 108.03 106.803 108.242 106.225 108.367C105.56 108.509 105.175 108.707 104.574 109.061C103.94 109.435 103.474 109.977 102.992 110.544C102.37 111.276 101.971 111.949 101.769 112.374C101.565 112.805 101.5 113.406 101.423 114.279C101.376 114.804 101.396 115.503 101.423 115.976C101.463 116.682 101.696 117.16 101.97 117.624C102.213 118.036 102.686 118.503 103.368 119.067C103.717 119.356 104.121 119.594 104.568 119.829C105.486 120.313 106.165 120.542 106.488 120.631C106.831 120.727 107.079 120.752 107.517 120.851C107.898 120.938 108.606 121.078 109.723 121.164C110.841 121.25 112.348 121.273 113.581 121.241C114.814 121.21 115.727 121.125 116.44 121.039C117.641 120.896 118.235 120.755 118.964 120.602C119.595 120.469 120.763 120.266 121.44 120.131C122.274 119.966 122.692 119.777 123.164 119.548C123.53 119.372 123.836 119.138 124.205 118.846C124.413 118.682 124.643 118.462 125.269 117.789C125.895 117.117 126.906 115.994 127.625 115.048C128.343 114.102 128.738 113.368 128.959 112.943C129.227 112.428 129.324 111.967 129.431 111.176C129.489 110.748 129.465 110.254 129.417 109.775C129.325 108.838 129.143 108.271 129.055 107.953C128.914 107.438 128.793 106.858 128.453 106.13C127.889 104.925 127.33 104.22 127.213 104.061C127.001 103.771 126.613 103.234 126.167 102.695C125.957 102.441 125.374 101.793 124.483 100.743C123.9 100.056 123.661 99.6478 123.529 99.3992C123.393 99.1426 123.265 98.9569 122.803 98.1226C122.377 97.3522 121.539 95.8884 121.023 94.8879C120.507 93.8874 120.333 93.3974 120.139 92.7799C119.944 92.1623 119.734 91.4319 119.579 90.9361C119.249 89.8804 119.092 89.4568 118.948 88.9673C118.817 88.5227 118.629 87.7257 118.502 87.2339C118.429 86.8471 118.377 86.645 118.362 86.4969C118.353 86.4075 118.344 86.289 118.334 86.167" stroke="#020205" stroke-width="2.34" stroke-linecap="round"/>
<path d="M99.6406 89.6758C99.8407 90.0613 100.267 90.9272 100.703 91.9457C101.115 92.9085 101.929 94.7709 102.522 96.0799C103.116 97.3889 103.466 98.0865 103.676 98.4899C103.934 98.9859 104.05 99.1707 104.514 99.9012C104.919 100.54 105.719 101.694 106.18 102.368C106.99 103.554 107.496 104.092 107.855 104.481C108.278 104.938 108.667 105.355 108.967 105.723C109.794 106.644 109.913 106.807 109.994 106.933C110.035 106.996 110.077 107.058 110.167 107.22" stroke="#020205" stroke-width="2.34" stroke-linecap="round"/>
<defs>
<filter id="filter0_g_1156_1259" x="50.6982" y="-1.27554e-05" width="96.7559" height="96.7559" filterUnits="userSpaceOnUse" color-interpolation-filters="sRGB">
<feFlood flood-opacity="0" result="BackgroundImageFix"/>
<feBlend mode="normal" in="SourceGraphic" in2="BackgroundImageFix" result="shape"/>
<feTurbulence type="fractalNoise" baseFrequency="0.038072429597377777 0.038072429597377777" numOctaves="3" seed="3160" />
<feDisplacementMap in="shape" scale="2.5215098857879639" xChannelSelector="R" yChannelSelector="G" result="displacedImage" width="100%" height="100%" />
<feMerge result="effect1_texture_1156_1259">
<feMergeNode in="displacedImage"/>
</feMerge>
</filter>
</defs>
</svg>
