<svg width="430" height="378" viewBox="0 0 430 378" fill="none" xmlns="http://www.w3.org/2000/svg">
<g clip-path="url(#clip0_621_4752)">
<g filter="url(#filter0_g_621_4752)">
<circle cx="307.801" cy="168.883" r="89.6464" fill="#E60611"/>
</g>
<path d="M268.597 104.642C268.976 104.642 269.645 105.033 270.37 105.724C270.653 105.993 270.638 106.217 270.629 106.396C270.611 106.738 270.487 107.029 270.341 107.297C270.179 107.595 269.905 107.828 269.456 107.993C268.704 108.269 268.001 108.068 267.701 107.975C267.555 107.93 267.442 107.839 267.373 107.525C267.189 106.677 267.288 105.906 267.384 105.501C267.501 105.009 267.856 104.713 268.15 104.523C268.59 104.239 269.161 104.22 269.569 104.247C270.113 104.576 270.418 105.146 270.516 105.495C270.547 105.658 270.54 105.791 270.505 105.982" stroke="black" stroke-width="3.94532" stroke-linecap="round"/>
<path d="M313.961 129.09C314.266 129.172 314.85 129.49 315.535 130.372C316.354 131.426 315.888 132.309 315.777 132.586C315.491 133.297 314.418 133.207 313.026 133.186C312.738 133.181 312.598 133.117 312.465 133.011C311.706 132.407 311.911 130.973 311.99 130.331C312.03 129.998 312.333 129.748 312.693 129.551C313.2 129.415 313.69 129.362 314.032 129.436C314.18 129.509 314.278 129.657 314.461 129.974" stroke="black" stroke-width="3.94532" stroke-linecap="round"/>
<path d="M265.094 118.969C264.478 119.641 263.745 120.555 263.156 121.524C262.925 121.903 262.833 122.404 262.704 123.655C262.604 124.624 262.579 126.282 262.606 127.544C262.65 129.627 263.027 131.038 263.276 131.986C263.414 132.513 263.63 133.193 264.553 134.771C265.197 135.87 266.392 137.456 267.142 138.468C267.891 139.48 268.209 139.839 268.912 140.482C270.658 142.08 272.434 143.312 273.499 143.846C274.541 144.369 275.651 144.685 277.29 144.953C277.734 145.026 278.025 145.086 279.548 145.115C280.911 145.14 283.473 145.124 285.062 145.06C287.982 144.941 288.968 144.539 290.102 144.359C291.668 144.112 292.46 143.564 294.398 142.362C295.247 141.708 296.451 140.66 297.121 140.074C297.791 139.488 297.891 139.396 298.021 139.246" stroke="black" stroke-width="3.94532" stroke-linecap="round"/>
<path d="M20.4661 46.1722C20.1472 49.2697 19.9038 51.2609 19.5265 58.1563C19.171 64.6533 18.7139 77.2483 18.6059 85.8678C18.4979 94.4873 18.812 98.7525 19.0359 101.278C19.3186 104.467 19.7818 106.61 20.2318 108.97C20.5601 110.692 20.8289 111.716 21.0857 112.575C21.3717 113.532 21.7686 114.542 22.5793 115.413C23.2488 116.132 25.7697 115.965 27.545 115.835C28.4701 115.768 30.0373 115.11 32.2044 114.106C34.6027 112.995 36.3441 111.651 37.661 110.76C40.351 108.94 42.2354 107.593 45.5772 105.276C49.5206 102.541 50.5694 101.605 53.1625 99.8518C54.6615 98.8382 56.7537 97.4177 58.1786 96.5284C59.0668 95.9741 59.945 95.5538 60.8423 94.8901C61.7784 94.1976 63.4446 94.1728 64.9088 93.9981C65.5091 93.9264 65.8127 93.8353 77.0674 93.8503C88.3221 93.8654 110.517 93.9756 125.576 94.4171C140.636 94.8585 147.888 95.6279 151.824 96.0243C155.76 96.4206 156.16 96.4206 158.087 96.6917C160.013 96.9628 163.453 97.5051 165.598 97.8036C168.482 98.205 170.949 98.4587 173.664 98.8877C176.124 99.2764 177.962 99.6799 178.329 99.7879C178.511 99.8416 178.628 100.037 178.702 100.242C178.859 100.673 178.72 101.173 178.522 101.647C177.884 103.166 175.659 104.675 172.053 107.467C169.836 109.182 167.957 110.39 166.797 111.417C166.254 111.898 165.699 112.705 165.094 113.407C164.72 113.842 164.828 114.368 164.966 114.83C165.224 115.691 166.498 115.69 167.482 115.847C169.332 116.143 171.436 116.363 173.03 116.429C174.721 116.5 176.636 114.842 177.648 114.032C179.691 112.398 181.157 111.208 182.535 109.776C183.723 108.541 185.032 106.701 187.753 103.341C189.107 101.669 191.074 100.402 192.431 99.145C193.691 97.9784 193.347 94.0555 193.654 91.9873C194.197 88.3319 194.41 86.3486 194.567 85.1338C194.676 84.2941 194.777 83.611 194.817 80.9783C194.852 78.6026 194.83 74.1148 194.795 70.8163C194.738 65.5438 194.498 63.0015 194.313 62.0765C193.92 60.1188 193.359 57.743 192.568 56.1527C192.135 55.2812 191.413 54.4946 190.132 53.6732C188.316 52.5085 186.543 52.1845 185.965 52.0521C185.701 51.9917 185.491 51.9722 180.715 51.4503C175.938 50.9284 166.599 49.9116 161.539 49.3879C156.48 48.8641 155.981 48.8641 155.475 48.8283C154.969 48.7926 154.47 48.7211 150.956 48.4098C147.441 48.0985 140.927 47.5495 130.345 46.197C119.763 44.8445 105.311 42.705 94.7235 41.3901C84.1356 40.0752 77.8497 39.6496 73.8215 39.2676C68.1941 38.7339 66.0239 38.1636 65.0208 38.0712C64.5799 38.0306 64.2743 38.0398 61.6278 37.8943C58.9813 37.7489 54.0025 37.458 50.9765 37.3779C47.9505 37.2978 47.0282 37.4372 45.5399 37.7136C39.6612 38.8052 38.4384 39.1807 36.3178 39.7233C34.8078 40.1096 33.7623 40.3143 32.2403 40.7815C31.2799 41.0764 30.1312 41.335 29.0383 41.7583C28.1061 42.1194 27.2883 42.434 25.5593 42.845C23.5566 43.321 22.0381 43.7556 21.2089 44.1464C21.0395 44.2624 20.8921 44.4221 20.7645 44.5913C20.637 44.7605 20.5338 44.9344 20.4714 45.421" stroke="black" stroke-width="3.94532" stroke-linecap="round"/>
<path d="M23.0566 112.925C23.5896 112.609 24.1226 112.294 26.1795 111.009C28.2363 109.724 31.8008 107.478 34.2344 105.856C37.9261 103.395 39.5738 101.867 40.7725 100.737C43.4819 98.1822 44.5295 97.3241 46.0585 96.072C47.2421 95.1027 48.9855 93.8316 49.8067 93.1183C50.5306 92.4895 51.9819 91.5335 53.0115 90.7895C53.7955 90.2229 54.1511 88.9797 54.3618 87.3002C54.5129 86.0952 54.458 84.1459 54.2584 76.1013C54.0587 68.0568 53.6404 53.9689 53.4322 46.5051C53.224 39.0412 53.2385 38.6284 53.2534 38.2031" stroke="black" stroke-width="3.94532" stroke-linecap="round"/>
<path d="M44.7871 38.873V95.3442" stroke="black" stroke-width="3.94532" stroke-linecap="round"/>
<path d="M55.1855 80.69C56.6654 80.5885 59.239 80.7749 61.496 81.0738C62.439 81.1987 64.0982 81.3313 69.0137 81.3572C72.7076 81.3766 78.8366 81.4348 84.3654 81.6328C89.8943 81.8309 94.6373 82.1737 97.2807 82.4003C99.9242 82.6269 100.325 82.7269 102.966 83.0214C105.607 83.3159 110.478 83.8019 114.879 84.3023C119.28 84.8026 123.065 85.3026 131.935 86.2835C140.804 87.2643 154.644 88.7109 162.846 89.4842C171.048 90.2575 173.193 90.3137 175.281 90.3274C179.334 90.3541 181.58 90.2498 183.049 90.2051C189.384 90.2604 190.593 90.4324 191.232 90.4836C191.641 90.5058 192.22 90.5203 192.817 90.5352" stroke="black" stroke-width="3.94532" stroke-linecap="round"/>
<path d="M55.7539 108.016C57.9139 108.94 61.239 110.377 64.8572 112.083C66.9395 113.064 68.3945 115.269 70.1592 117.763C72.2868 120.77 72.8239 123.368 73.4911 125.966C74.9465 131.634 74.4863 133.56 74.8099 134.59C75.1397 135.723 75.543 136.906 76.4076 138.537C76.9842 139.442 78.0167 140.988 79.3167 142.818" stroke="black" stroke-width="3.94532" stroke-linecap="round"/>
<path d="M77.5254 109.289C77.5544 109.289 78.6036 109.746 81.0309 111.201C84.4694 113.263 86.3041 115.763 86.9706 116.62C87.8652 117.771 88.5929 120.465 89.9895 124.479C92.0109 130.287 91.9355 131.33 92.4323 132.727C93.3091 135.191 95.6767 138 98.388 140.198C99.6142 141.002 101.461 142.071 102.54 142.662C103.619 143.253 103.875 143.336 104.6 143.42" stroke="black" stroke-width="3.94532" stroke-linecap="round"/>
<path d="M97.1367 109.148C97.1657 109.177 99.2311 110.387 102.724 112.585C105.126 114.096 106.397 116.231 107.763 118.57C109.299 121.199 110.512 124.339 111.619 127.115C112.394 129.058 114.252 131.026 116.94 133.478C119.761 135.577 122.096 136.909 123.546 137.473C124.14 137.684 124.444 137.745 125.219 137.807" stroke="black" stroke-width="3.94532" stroke-linecap="round"/>
<path d="M116.922 110.713C116.98 110.713 119.215 111.657 122.864 113.261C125.947 114.615 127.108 115.791 129.759 118.506C131.207 119.989 131.939 121.858 133.795 125.806C134.688 127.706 134.908 130.014 135.293 132.199C135.718 134.602 138.149 137.539 140.779 138.854" stroke="black" stroke-width="3.94532" stroke-linecap="round"/>
<path d="M143.021 112.254C144.688 112.614 147.134 113.25 148.425 114.098C149.545 114.834 150.64 116.237 152.015 118.162C153.958 120.884 154.896 123.817 155.447 125.455C155.978 127.031 155.447 129.648 157.221 132.059" stroke="black" stroke-width="3.94532" stroke-linecap="round"/>
<path d="M25.9277 116.009C26.7256 115.972 27.5235 115.934 33.5619 115.932C39.6003 115.929 50.8551 115.962 57.3831 115.97C63.911 115.978 65.3711 115.959 66.8753 115.94" stroke="black" stroke-width="3.94532" stroke-linecap="round"/>
<path d="M165.606 115.25C165.007 115.31 164.136 115.457 163.134 115.647C162.387 115.752 161.389 115.938 160.257 116.202C159.809 116.311 159.617 116.369 159.42 116.429" stroke="black" stroke-width="3.94532" stroke-linecap="round"/>
<path d="M54.3945 100.143C54.5205 100.176 54.6464 100.209 66.0538 100.553C77.4612 100.897 100.146 101.551 111.96 101.905C123.775 102.259 124.03 102.292 125.562 102.341C127.093 102.39 129.892 102.453 131.959 102.553C136.881 102.79 137.747 102.951 139.711 103.038C141.418 103.115 144.57 103.197 148.571 103.602C152.572 104.007 157.326 104.717 160.474 105.165C163.621 105.614 165.018 105.779 166.759 105.864C168.5 105.95 170.545 105.95 171.893 105.94C173.242 105.931 173.833 105.912 174.978 105.937" stroke="black" stroke-width="3.94532" stroke-linecap="round"/>
<path d="M147.123 77.2188C148.05 77.3964 148.977 77.5741 150.998 77.9225C153.02 78.2708 156.108 78.7845 158.317 79.1456C160.526 79.5068 161.762 79.6999 164.658 79.9269C167.554 80.1539 172.071 80.4089 176.725 80.6717" stroke="black" stroke-width="3.94532" stroke-linecap="round"/>
<path d="M184.611 81.0039L184.913 81.0585" stroke="black" stroke-width="3.94532" stroke-linecap="round"/>
<path d="M259.627 232.605C259.593 232.605 256.661 234.374 250.982 238.121C248.144 239.994 245.687 242.234 243.624 244.29C239.838 248.065 238.155 250.749 237.252 252.312C234.743 256.659 234.372 257.579 232.203 261.078C229.55 265.359 227.975 268.038 227.539 269.371C227.058 270.836 226.744 271.847 226.366 272.912C225.963 274.311 225.474 275.466 225.255 276.036C225.117 276.335 224.926 276.652 224.678 277.237" stroke="black" stroke-width="3.94532" stroke-linecap="round"/>
<path d="M227.621 280.493C226.917 279.718 225.335 278.228 222.354 276.61C221.168 275.967 219.778 275.319 217.808 274.605C215.67 273.831 213.375 273.713 211.198 273.78C207.222 273.903 205.351 275.317 203.768 276.223C201.836 277.328 201.07 279.193 200.079 281.25C199.628 282.183 199.214 282.849 199.104 283.435C198.885 284.599 199.77 286.513 201.005 288.713C203.377 292.935 207.174 295.028 208.143 295.755C209.306 296.627 213.479 298.326 217.561 299.881C218.14 300.101 218.442 300.23 220.387 300.637C222.332 301.045 225.913 301.718 228.691 302.172C233.322 302.929 235.557 303.059 236.486 303.125C239.537 303.34 241.091 303.527 243.735 303.518C244.94 303.514 246.296 302.848 248.249 301.443C253.388 297.746 253.673 294.984 254.351 293.684C255.516 291.455 256.312 290.07 258.099 286.564C259.645 283.53 262.6 278.004 264.238 274.982C266.078 271.589 267.37 269.611 269.197 266.683C270.586 264.455 271.763 263.499 273.277 261.881C276.908 257.999 279.863 255.352 281.136 254.207C283.681 251.92 285.684 249.889 286.898 248.901C288.473 247.565 289.836 246.522 290.645 246.041C290.991 245.827 291.206 245.676 291.581 245.363" stroke="black" stroke-width="3.94532" stroke-linecap="round"/>
<path d="M346.332 176.971C347.474 178.886 348.93 181.11 350.618 183.418C352.088 185.428 353.161 186.544 354.166 188.26C354.989 189.664 356.351 192.206 357.402 194.291C358.453 196.376 359.127 197.94 359.55 199.038C360.191 200.696 360.36 201.512 360.54 202.041C361.268 204.175 361.515 206.384 361.617 206.99C361.815 208.168 362.077 209.956 362.246 211.039C362.534 212.885 362.58 214.947 362.39 216.041C362.256 216.811 360.312 217.865 358.72 218.775C357.445 219.504 356.402 220.07 355.714 220.707C353.408 222.841 352.863 224.205 352.39 225.026C352.045 225.624 351.814 227.03 351.763 228.974C351.739 229.855 352.25 230.303 352.956 231.02C353.623 231.697 354.781 232.009 356.557 232.139C357.957 232.242 360.499 231.787 362.04 231.402C362.775 231.219 363.13 230.914 363.256 230.894C363.839 230.798 363.052 232.108 362.856 234.256C362.595 237.118 362.791 239.359 362.964 240.077C363.081 240.56 363.313 240.855 363.746 241.189C365.091 242.229 366.893 242.055 368.574 241.784C369.798 241.586 370.496 240.62 371.156 239.923C372.395 238.497 373.268 237.421 373.423 237.125C373.491 236.985 373.536 236.864 373.729 236.409" stroke="black" stroke-width="3.94532" stroke-linecap="round"/>
<path d="M369.77 241.592C370.1 241.9 371.668 242.479 373.27 242.661C375.205 242.881 376.608 242.575 377.134 242.315C379.211 241.359 380.867 239.95 381.847 238.762C382.037 238.403 382.336 237.814 382.671 236.988" stroke="black" stroke-width="3.94532" stroke-linecap="round"/>
<path d="M380.233 241.417C381.681 241.664 383.228 241.852 384.443 241.794C385.366 241.751 386.459 240.926 387.59 240.226C389.342 239.139 390.285 237.33 390.961 235.742C391.406 234.696 391.845 233.076 392.216 231.19C392.586 229.305 392.82 227.182 392.93 225.009C393.04 222.837 393.019 220.68 392.85 218.462C392.68 216.245 392.363 214.032 392.166 212.814C391.969 211.596 391.901 211.439 391.096 209.155C390.291 206.87 388.749 202.462 386.068 196.377C383.387 190.292 379.613 182.664 376.893 177.625C374.174 172.587 372.623 170.37 371.743 169.151C370.864 167.931 370.703 167.775 370.583 167.641C370.463 167.507 370.388 167.4 370.17 167.148" stroke="black" stroke-width="3.94532" stroke-linecap="round"/>
<path d="M300.908 259.73C301.983 260.269 303.057 260.808 304.531 261.377C306.005 261.947 307.846 262.532 309.999 263.347C311.093 263.761 312.253 264.23 313.718 264.749M405.118 248.883C407.024 249.494 418.919 253.63 418.269 254.582C418.175 254.719 416.005 254.744 415.21 254.909C413.448 255.274 411.495 255.509 409.118 256.078C407.515 256.462 405.171 257.112 403.77 257.505C402.369 257.897 401.924 258.029 399.987 258.395C398.05 258.761 394.73 259.415 392.724 259.636C390.079 259.928 388.273 260.095 386.3 260.289C385.455 260.372 384.909 260.4 380.904 261.159C376.898 261.919 369.652 263.367 365.235 264.238C360.819 265.109 359.278 265.394 355.249 266.27C351.22 267.146 344.894 268.571 341.531 269.344C338.168 270.117 337.779 270.235 337.465 270.294C337.152 270.353 336.919 270.353 333.464 269.655C330.37 269.03 324.851 267.879 320.512 266.779" stroke="black" stroke-width="3.94532" stroke-linecap="round"/>
<path d="M299.41 259.24C299.41 259.26 299.437 260.566 299.647 263.952C299.777 266.046 300.171 268.889 300.369 270.892C300.673 273.963 300.731 275.383 300.882 276.357C300.984 277.017 301.049 278.027 301.517 281.089C301.985 284.151 302.831 289.237 303.36 292.261C303.888 295.284 304.074 296.091 304.303 296.911C305.042 299.553 305.484 300.695 305.865 301.727C305.929 301.902 306.009 302.019 306.136 302.135C306.263 302.251 306.445 302.358 311.045 303.94C315.645 305.522 324.657 308.575 329.404 310.158C334.348 311.806 334.756 311.843 335.754 312.1C336.572 312.31 338.036 312.629 338.914 312.8C339.791 312.972 340.041 312.972 340.268 312.133C340.495 311.294 340.693 309.616 340.701 305.181C340.709 300.745 340.522 293.602 340.376 289.595C340.23 285.587 340.13 284.931 340.048 284.123C339.871 282.378 339.69 280.432 339.425 278.832C339.249 277.965 339.015 276.64 338.763 274.657C338.677 273.747 338.677 273.033 338.677 272.297" stroke="black" stroke-width="3.94532" stroke-linecap="round"/>
<path d="M340.619 313.107C340.619 313.117 340.619 313.127 343.449 312.892C346.279 312.657 351.939 312.176 356.188 311.688C360.437 311.199 363.104 310.717 364.65 310.456C366.196 310.195 366.54 310.169 367.422 309.882C368.303 309.594 369.713 309.045 371.397 308.551C373.08 308.056 374.996 307.632 378.678 306.715C382.361 305.797 387.753 304.399 391.927 303.438C396.1 302.477 398.892 301.997 400.486 301.689C402.402 301.319 403.214 300.843 404.348 300.226C406.911 298.833 408.474 298.495 409.086 298.172C409.955 297.713 411.198 297.503 411.927 297.322C412.065 297.288 412.172 297.198 412.324 296.949C412.476 296.7 412.665 296.279 413.407 292.544C414.15 288.81 415.441 281.774 416.155 277.427C416.869 273.08 416.966 271.635 417.059 270.594C417.206 268.957 417.326 267.308 417.338 265.626C417.344 264.773 417.396 263.281 417.529 260.554C417.929 257.519 418.204 255.705 418.209 255.344C418.214 255.164 418.224 254.991 418.234 254.812" stroke="black" stroke-width="3.94532" stroke-linecap="round"/>
<path d="M373.329 272.774C373.349 272.774 375.271 272.529 378.598 272.034C380.901 271.691 381.931 271.207 382.81 270.982C386.262 270.102 387.42 270.3 388.101 270.292C388.719 270.284 389.289 270.088 389.552 270.193C391.182 270.846 389.582 274.68 389.169 275.719C388.292 277.927 385.895 276.889 384.81 277.077C383.78 277.256 381.593 277.606 379.147 277.864C377.769 278.009 376.984 278.099 375.742 278.257C374.709 278.388 373.656 278.716 373.15 278.724C372.246 278.739 373.252 276.743 373.336 275.586C373.447 274.859 373.587 274.311 373.611 273.888C373.623 273.687 373.633 273.514 373.643 273.336" stroke="black" stroke-width="3.94532" stroke-linecap="round"/>
<path d="M320.404 265.953C320.404 265.875 320.404 264.797 320.295 261.068C320.216 258.376 319.967 254.064 319.833 251.685C319.681 248.988 319.614 247.928 319.624 246.74C319.636 245.394 319.742 243.82 319.973 243.149C320.105 242.766 320.41 242.436 320.787 242.128C321.242 241.756 323.563 241.367 326.717 240.824C327.905 240.62 328.247 240.51 331.67 239.993C335.093 239.476 341.584 238.542 345.083 238.014C348.9 237.437 349.766 237.245 351.089 237.071C354.409 236.631 355.921 235.889 357.511 235.497C359.922 234.871 361.735 234.434 362.186 234.219C362.384 234.126 362.52 234.064 362.721 234" stroke="black" stroke-width="3.94532" stroke-linecap="round"/>
<path d="M313.799 264.052C313.843 263.282 313.886 262.512 313.883 260.811C313.879 259.111 313.826 256.502 313.824 254.969C313.822 253.436 313.871 253.058 313.955 251.618C314.038 250.179 314.154 247.688 314.243 246.178C314.414 243.256 314.588 240.973 314.722 239.669C314.793 238.974 315.124 238.417 315.665 237.891C317.072 236.521 318.477 236.554 320.758 235.97C321.575 235.76 322.089 235.76 325.317 235.316C328.333 234.902 334.154 234.151 337.846 233.556C341.537 232.961 342.925 232.557 343.745 232.338C345.24 231.94 346.08 231.829 346.782 231.69C348 231.519 348.707 231.47 349.555 231.396C350.027 231.371 350.586 231.371 351.161 231.371" stroke="black" stroke-width="3.94532" stroke-linecap="round"/>
<path d="M393.689 228.521C395.822 228.335 397.372 228.402 397.662 228.554C398.387 228.936 398.801 229.644 399.266 230.359C399.688 231.008 399.768 232.688 399.931 234.542C400.009 235.44 399.964 237.122 399.963 238.059C399.962 238.997 399.947 239.143 399.931 240.179C399.897 243.139 399.9 245.266 399.932 245.564C399.943 245.718 399.931 247.095 399.931 247.258" stroke="black" stroke-width="3.94532" stroke-linecap="round"/>
<path d="M393.43 224.605C395.668 224.385 398.677 224.482 400.275 224.498C401.981 224.515 402.424 224.78 402.992 225.162C404.045 225.87 404.401 227.436 404.597 228.478C404.729 229.18 404.599 229.696 404.553 230.558C404.443 232.671 404.58 234.436 404.653 235.179C404.733 235.996 404.797 236.869 404.916 237.593C404.987 238.026 405.01 239.903 405.099 242.584C405.148 243.678 405.164 243.971 405.176 244.765C405.189 245.407 405.214 246.535 405.24 247.696" stroke="black" stroke-width="3.94532" stroke-linecap="round"/>
<path d="M299.844 258.569C300.105 258.512 302.307 258.097 305.595 257.5C307.574 257.141 308.77 256.924 310.628 256.405C311.014 256.304 311.268 256.273 311.488 256.257C311.709 256.241 311.888 256.241 312.225 256.18" stroke="black" stroke-width="3.94532" stroke-linecap="round"/>
<path d="M82.0342 212.061C77.5238 212.061 72.5751 212.206 70.642 212.689C66.5983 213.7 63.7604 215.268 62.2876 216.411C61.5863 216.955 61.254 217.618 61.2301 218.208C61.1634 219.862 63.1895 220.789 64.4696 221.529C66.5391 222.724 69.4497 222.65 70.9802 222.885C73.9895 223.348 76.8849 223.842 81.5303 224.191C83.9687 224.374 86.5867 224.358 88.5141 224.277C91.6137 224.145 94.4437 223.332 97.0751 222.573C98.3639 222.202 98.8273 221.817 99.1868 221.421C99.5544 221.015 99.6809 220.335 99.7881 219.673C99.951 218.668 98.9262 217.755 96.9355 216.2C95.2164 214.857 92.4707 214.489 90.0366 213.863C88.9578 213.585 88.0774 213.388 87.013 212.923C86.4737 212.662 85.8531 212.446 85.0838 212.309C84.6645 212.257 84.1866 212.241 83.6942 212.224" stroke="black" stroke-width="3.94532" stroke-linecap="round"/>
<path d="M40.7663 243.887C40.6131 246.1 40.4804 249.966 40.7079 250.916C40.7597 251.132 40.8282 251.316 40.9733 251.476C42.2562 252.888 45.3968 253.237 46.4062 253.317C48.849 253.51 51.5575 253.062 52.543 252.76C53.9341 252.335 54.9394 252.288 55.8662 251.983C57.0149 251.605 57.8515 251.139 58.549 250.738C60.7111 249.497 59.133 244.095 59.1947 243.336C59.2454 242.714 57.1989 243.679 54.2216 243.873C52.269 244 49.4077 243.939 47.8479 243.928C45.7562 243.913 45.0543 243.695 43.9411 243.488C43.5453 243.41 43.0302 243.31 42.6174 243.221C42.2046 243.132 41.9096 243.057 41.2311 242.867" stroke="black" stroke-width="3.94532" stroke-linecap="round"/>
<path d="M40.1204 251.486C38.0458 252.145 35.3763 253.515 32.6815 255.574C32.0118 256.086 31.5134 257.231 30.6784 259.34C29.5344 262.23 29.3201 264.25 29.1643 264.964C29.0458 265.507 28.7856 266.403 28.6579 269.808C28.5303 273.214 28.5274 279.099 28.7052 283.814C28.883 288.529 29.2417 291.897 29.4265 293.799C29.6113 295.702 29.6113 296.037 29.8063 297.491C30.0012 298.945 30.3912 301.508 30.5766 305.229C30.7621 308.95 30.7313 313.753 30.7535 317.002C30.7862 321.802 30.9983 323.924 31.1592 324.934C31.4266 326.612 32.4505 327.86 33.417 328.771C33.9171 329.242 34.6729 329.43 36.4195 329.882C40.2353 330.87 42.979 331.406 43.432 331.477C43.935 331.556 44.4435 331.707 46.0472 332.028C47.4009 332.299 49.8297 332.889 52.1051 333.286C54.3805 333.684 56.4236 333.896 58.2298 334.005C60.0361 334.115 61.5436 334.115 63.1964 334.221C64.8492 334.326 66.6017 334.538 70.6559 334.569C74.7101 334.6 81.0129 334.445 84.7819 334.291C88.5508 334.137 89.5948 333.988 90.6165 333.814C92.6109 333.474 94.3462 332.954 95.6344 332.407C96.5442 332.02 98.7634 330.829 102.105 329.183C104.479 328.014 105.624 326.627 106.449 325.309C106.925 324.549 107.311 323.485 107.648 322.506C107.985 321.527 108.209 320.635 108.477 316.697C108.745 312.759 109.052 305.801 109.217 302.123C109.392 298.257 109.43 297.266 109.43 295.926C109.317 293.78 109.366 291.223 109.458 290.185C109.477 289.738 109.489 289.048 109.502 288.337" stroke="black" stroke-width="3.94532" stroke-linecap="round"/>
<path d="M95.2715 250.006C95.8213 250.244 98.2753 251.624 100.051 252.981C102.149 254.583 103.466 256.126 104.963 257.378C106.023 258.264 107.045 259.458 107.553 260.024C108.661 261.258 109.409 263.108 109.769 264.367C109.964 266.438 109.863 270.293 109.757 272.33C109.749 273.074 109.733 274.309 109.717 275.582" stroke="black" stroke-width="3.94532" stroke-linecap="round"/>
<path d="M89.2738 247.506C89.2361 250.027 89.6731 251.697 90.0141 252.911C90.2464 253.739 90.6701 255.059 91.3132 257.268C91.6353 258.375 92.3464 259.567 92.8705 260.778C93.4642 262.15 95.1504 264.302 96.9787 266.557C97.9815 267.794 99.9001 269.566 102.847 272.166C105.231 274.27 107.121 275.283 108.226 275.908C110.18 277.012 112.321 278.102 113.227 278.636C113.559 278.832 115.081 279.749 117.603 281.356C119.813 282.764 120.981 283.589 121.542 283.899C122.566 284.464 124.918 286.048 127.668 287.943C129.455 289.175 130.603 290.169 133.69 292.32C134.361 292.788 134.715 292.928 136.128 293.94C137.54 294.951 140.018 296.804 141.843 298.332C144.881 300.875 146.138 302.571 146.552 303.253C147.294 304.477 147.575 306.139 147.716 307.563C147.832 308.745 147.561 309.903 147.231 311.072C146.932 312.129 145.832 313.21 141.852 316.004C140.136 317.209 138.499 317.197 134.277 317.824C132.319 318.115 129.307 318.002 126.06 317.657C122.814 317.312 119.406 316.567 117.412 316.15C114.294 315.498 113.374 315.456 111.907 315.224C111.345 315.12 110.938 315.066 110.587 315.035C110.406 315.016 110.221 314.991 110.03 314.966" stroke="black" stroke-width="3.94532" stroke-linecap="round"/>
<path d="M108.932 307.412C109.026 307.443 110.303 307.697 112.306 308.09C113.362 308.297 116.109 308.891 120.014 309.7C121.801 310.07 122.814 310.248 124.593 310.475C125.716 310.618 127.308 310.614 128.88 310.547C133.708 310.339 134.581 309.986 135.9 309.537C136.961 309.176 137.536 308.457 138.021 307.698C138.514 306.927 137.941 305.291 137.603 304.218C137.33 303.352 136.574 302.737 135.231 301.782C133.844 300.796 132.099 299.535 130.178 298.378C129.205 297.791 128.175 297.309 126.387 296.245C124.599 295.181 122.068 293.576 120.657 292.7C119.046 291.7 118.198 291.255 116.622 290.346C112.876 288.185 111.928 287.92 111.031 287.55C109.975 287.114 107.894 286.328 105.227 285.015C104.119 284.469 103.303 284.019 101.372 282.668C100.34 281.946 98.6504 280.758 96.9772 279.429C95.304 278.1 93.7016 276.66 92.3418 275.302C90.982 273.943 89.9135 272.708 89.0022 271.591C86.2389 268.204 85.535 266.351 84.9828 264.968C84.3237 263.317 83.6209 262.163 83.3516 261.251C82.7497 259.213 82.4792 257.633 82.2706 256.311C81.4052 250.827 80.8649 250.094 80.3325 248.458C80.2153 248.099 80.0985 247.974 80.0624 247.818C80.0263 247.663 80.0502 247.49 80.1654 247.323C80.7276 246.51 81.8959 246.13 83.9646 245.605C86.7375 245.613 87.279 245.87 87.6104 246.042C87.7713 246.128 87.9173 246.213 88.2519 246.411" stroke="black" stroke-width="3.94532" stroke-linecap="round"/>
<path d="M61.1562 245.725C61.5464 245.725 62.3323 245.725 63.3142 245.745C63.7111 245.764 63.9022 245.804 64.0921 245.843C64.282 245.882 64.4649 245.918 65.0229 246.066" stroke="black" stroke-width="3.94532" stroke-linecap="round"/>
<path d="M66.0371 234.416L66.0371 254.143" stroke="black" stroke-width="3.94532" stroke-linecap="round"/>
<path d="M66.6992 254.174C67.4826 254.588 68.5492 255.156 72.0604 256.244C74.1309 256.886 75.1342 257.019 76.0128 257.185C76.4856 257.29 77.0134 257.403 77.7747 257.486C78.2574 257.519 78.9356 257.534 79.7455 257.475" stroke="black" stroke-width="3.94532" stroke-linecap="round"/>
<path d="M91.9102 254.471C92.6372 253.905 94.1173 252.631 94.5492 251.872C94.6438 251.698 94.7603 251.515 94.8523 251.311C94.9444 251.106 95.0085 250.886 95.2219 250.285" stroke="black" stroke-width="3.94532" stroke-linecap="round"/>
<path d="M95.1797 237.955V250.668" stroke="black" stroke-width="3.94532" stroke-linecap="round"/>
<path d="M61.2285 217.322C61.2285 217.788 61.2285 218.254 61.2285 220.575C61.2285 222.897 61.2285 227.061 61.2285 231.35" stroke="black" stroke-width="3.94532" stroke-linecap="round"/>
<path d="M99.8066 220.391V234.418" stroke="black" stroke-width="3.94532" stroke-linecap="round"/>
<path d="M201.27 151.41C202.564 152.049 203.858 152.687 205.912 153.487C207.966 154.287 210.74 155.229 212.377 155.749C214.014 156.269 214.429 156.339 216.227 156.374C218.024 156.409 221.192 156.408 223.154 156.336C225.117 156.265 225.779 156.123 226.67 155.896" stroke="black" stroke-width="3.94532" stroke-linecap="round"/>
<path d="M195.533 178.668C195.694 178.752 198.129 179.905 202.816 181.946C205.121 182.95 207.399 183.596 208.98 184.04C210.561 184.484 211.408 184.63 213.862 184.794C216.315 184.958 220.349 185.134 222.59 185.212C224.831 185.29 225.156 185.266 225.462 185.216C225.768 185.167 226.044 185.094 226.781 184.936" stroke="black" stroke-width="3.94532" stroke-linecap="round"/>
<path d="M186.654 146.316C186.485 145.705 186.316 145.094 185.924 144.055C185.532 143.017 184.922 141.569 184.293 139.779" stroke="black" stroke-width="3.94532" stroke-linecap="round"/>
<path d="M152.144 146.141C152.509 145.623 152.874 145.104 153.428 144.142C153.982 143.18 154.713 141.79 155.697 140.168" stroke="black" stroke-width="3.94532" stroke-linecap="round"/>
<path d="M196.657 157.433L195.187 156.118L196.657 157.433ZM193.16 160.256L194.136 161.97L193.16 160.256ZM179.931 161.438L179.235 163.284L179.931 161.438ZM176.113 158.975L174.716 160.368L176.113 158.975ZM171.158 142.408L169.318 141.698L171.158 142.408ZM173.344 138.376L171.747 137.219L173.344 138.376ZM184.989 131.961L184.734 130.005L184.989 131.961ZM193.74 134.195L194.682 132.461L193.74 134.195ZM200.585 149.417L198.655 149.011C198.373 150.35 197.942 151.628 197.363 152.849L199.144 153.695L200.926 154.542C201.641 153.038 202.171 151.464 202.516 149.823L200.585 149.417ZM199.144 153.695L197.363 152.849C196.797 154.04 196.073 155.128 195.187 156.118L196.657 157.433L198.128 158.748C199.263 157.479 200.198 156.075 200.926 154.542L199.144 153.695ZM196.657 157.433L195.187 156.118C194.319 157.088 193.32 157.895 192.184 158.542L193.16 160.256L194.136 161.97C195.642 161.113 196.974 160.037 198.128 158.748L196.657 157.433ZM193.16 160.256L192.184 158.542C191.019 159.205 189.786 159.699 188.477 160.027L188.956 161.94L189.435 163.854C191.09 163.44 192.658 162.812 194.136 161.97L193.16 160.256ZM188.956 161.94L188.477 160.027C187.187 160.35 185.872 160.477 184.524 160.408L184.424 162.378L184.323 164.348C186.056 164.437 187.762 164.273 189.435 163.854L188.956 161.94ZM184.424 162.378L184.524 160.408C183.189 160.34 181.892 160.069 180.627 159.592L179.931 161.438L179.235 163.284C180.879 163.903 182.577 164.259 184.323 164.348L184.424 162.378ZM179.931 161.438L180.627 159.592C179.433 159.142 178.4 158.475 177.51 157.582L176.113 158.975L174.716 160.368C176.007 161.662 177.519 162.637 179.235 163.284L179.931 161.438ZM176.113 158.975L177.51 157.582C176.508 156.578 175.624 155.501 174.855 154.351L173.215 155.447L171.575 156.544C172.489 157.911 173.537 159.186 174.716 160.368L176.113 158.975ZM173.215 155.447L174.855 154.351C174.091 153.209 173.447 151.985 172.923 150.675L171.092 151.408L169.26 152.141C169.884 153.7 170.656 155.169 171.575 156.544L173.215 155.447ZM171.092 151.408L172.923 150.675C172.448 149.489 172.223 148.254 172.249 146.955L170.276 146.917L168.304 146.878C168.269 148.7 168.587 150.459 169.26 152.141L171.092 151.408ZM170.276 146.917L172.249 146.955C172.275 145.623 172.525 144.348 172.999 143.118L171.158 142.408L169.318 141.698C168.677 143.36 168.339 145.09 168.304 146.878L170.276 146.917ZM171.158 142.408L172.999 143.118C173.496 141.83 174.143 140.636 174.942 139.533L173.344 138.376L171.747 137.219C170.746 138.601 169.936 140.095 169.318 141.698L171.158 142.408ZM173.344 138.376L174.942 139.533C175.738 138.434 176.665 137.461 177.728 136.611L176.496 135.07L175.264 133.53C173.924 134.601 172.751 135.832 171.747 137.219L173.344 138.376ZM176.496 135.07L177.728 136.611C178.738 135.803 179.852 135.211 181.081 134.828L180.495 132.945L179.908 131.061C178.208 131.591 176.656 132.416 175.264 133.53L176.496 135.07ZM180.495 132.945L181.081 134.828C182.437 134.406 183.824 134.103 185.245 133.917L184.989 131.961L184.734 130.005C183.09 130.22 181.481 130.572 179.908 131.061L180.495 132.945ZM184.989 131.961L185.245 133.917C186.486 133.755 187.694 133.865 188.888 134.252L189.495 132.375L190.103 130.498C188.353 129.932 186.556 129.767 184.734 130.005L184.989 131.961ZM189.495 132.375L188.888 134.252C190.245 134.691 191.548 135.25 192.799 135.929L193.74 134.195L194.682 132.461C193.217 131.666 191.69 131.012 190.103 130.498L189.495 132.375ZM193.74 134.195L192.799 135.929C193.904 136.528 194.819 137.325 195.562 138.333L197.15 137.162L198.738 135.991C197.651 134.517 196.293 133.336 194.682 132.461L193.74 134.195ZM197.15 137.162L195.562 138.333C196.399 139.468 197.107 140.664 197.688 141.922L199.479 141.095L201.27 140.268C200.576 138.764 199.731 137.338 198.738 135.991L197.15 137.162ZM199.479 141.095L197.688 141.922C198.272 143.188 198.691 144.415 198.955 145.602L200.881 145.175L202.806 144.747C202.475 143.257 201.96 141.763 201.27 140.268L199.479 141.095ZM200.881 145.175L198.955 145.602C199.102 146.263 199.19 146.714 199.232 146.982C199.255 147.131 199.251 147.149 199.25 147.095C199.25 147.093 199.242 146.911 199.303 146.67C199.331 146.556 199.416 146.257 199.66 145.949C199.956 145.576 200.484 145.21 201.191 145.21V147.183V149.155C201.909 149.155 202.447 148.784 202.751 148.401C203.004 148.083 203.095 147.767 203.129 147.633C203.2 147.35 203.196 147.105 203.195 147.02C203.191 146.798 203.16 146.565 203.131 146.38C203.069 145.978 202.957 145.425 202.806 144.747L200.881 145.175ZM201.191 147.183V145.21C200.498 145.21 200.04 145.559 199.861 145.718C199.663 145.894 199.543 146.071 199.487 146.159C199.371 146.342 199.3 146.515 199.266 146.601C199.189 146.797 199.123 147.021 199.068 147.225C198.951 147.654 198.813 148.258 198.655 149.011L200.585 149.417L202.516 149.823C202.67 149.087 202.79 148.574 202.875 148.258C202.921 148.09 202.942 148.034 202.938 148.044C202.935 148.051 202.926 148.073 202.911 148.106C202.897 148.136 202.866 148.198 202.816 148.277C202.775 148.341 202.669 148.501 202.484 148.665C202.319 148.812 201.873 149.155 201.191 149.155V147.183Z" fill="black"/>
<path d="M164.659 157.433L163.189 156.118L164.659 157.433ZM161.162 160.256L162.138 161.97L161.162 160.256ZM147.933 161.438L147.237 163.284L147.933 161.438ZM144.115 158.975L142.718 160.368L144.115 158.975ZM139.16 142.408L137.32 141.698L139.16 142.408ZM141.346 138.376L139.748 137.219L141.346 138.376ZM152.991 131.961L152.736 130.005L152.991 131.961ZM161.742 134.195L162.684 132.461L161.742 134.195ZM168.587 149.417L166.657 149.011C166.375 150.35 165.944 151.628 165.365 152.849L167.146 153.695L168.928 154.542C169.643 153.038 170.173 151.464 170.517 149.823L168.587 149.417ZM167.146 153.695L165.365 152.849C164.799 154.04 164.075 155.128 163.189 156.118L164.659 157.433L166.13 158.748C167.265 157.479 168.199 156.075 168.928 154.542L167.146 153.695ZM164.659 157.433L163.189 156.118C162.321 157.088 161.322 157.895 160.186 158.542L161.162 160.256L162.138 161.97C163.644 161.113 164.976 160.037 166.13 158.748L164.659 157.433ZM161.162 160.256L160.186 158.542C159.021 159.205 157.787 159.699 156.479 160.027L156.958 161.94L157.437 163.854C159.092 163.44 160.66 162.812 162.138 161.97L161.162 160.256ZM156.958 161.94L156.479 160.027C155.189 160.35 153.874 160.477 152.526 160.408L152.425 162.378L152.325 164.348C154.058 164.437 155.764 164.273 157.437 163.854L156.958 161.94ZM152.425 162.378L152.526 160.408C151.191 160.34 149.894 160.069 148.629 159.592L147.933 161.438L147.237 163.284C148.881 163.903 150.579 164.259 152.325 164.348L152.425 162.378ZM147.933 161.438L148.629 159.592C147.435 159.142 146.402 158.475 145.512 157.582L144.115 158.975L142.718 160.368C144.009 161.662 145.521 162.637 147.237 163.284L147.933 161.438ZM144.115 158.975L145.512 157.582C144.51 156.578 143.626 155.501 142.857 154.351L141.217 155.447L139.577 156.544C140.491 157.911 141.539 159.186 142.718 160.368L144.115 158.975ZM141.217 155.447L142.857 154.351C142.093 153.209 141.449 151.985 140.925 150.675L139.094 151.408L137.262 152.141C137.886 153.7 138.658 155.169 139.577 156.544L141.217 155.447ZM139.094 151.408L140.925 150.675C140.45 149.489 140.225 148.254 140.251 146.955L138.278 146.917L136.306 146.878C136.271 148.7 136.589 150.459 137.262 152.141L139.094 151.408ZM138.278 146.917L140.251 146.955C140.277 145.623 140.527 144.348 141.001 143.118L139.16 142.408L137.32 141.698C136.679 143.36 136.341 145.09 136.306 146.878L138.278 146.917ZM139.16 142.408L141.001 143.118C141.498 141.83 142.145 140.636 142.944 139.533L141.346 138.376L139.748 137.219C138.748 138.601 137.938 140.095 137.32 141.698L139.16 142.408ZM141.346 138.376L142.944 139.533C143.74 138.434 144.667 137.461 145.73 136.611L144.498 135.07L143.265 133.53C141.926 134.601 140.753 135.832 139.748 137.219L141.346 138.376ZM144.498 135.07L145.73 136.611C146.74 135.803 147.854 135.211 149.083 134.828L148.496 132.945L147.91 131.061C146.21 131.591 144.658 132.416 143.265 133.53L144.498 135.07ZM148.496 132.945L149.083 134.828C150.439 134.406 151.826 134.103 153.247 133.917L152.991 131.961L152.736 130.005C151.092 130.22 149.483 130.572 147.91 131.061L148.496 132.945ZM152.991 131.961L153.247 133.917C154.488 133.755 155.696 133.865 156.89 134.252L157.497 132.375L158.104 130.498C156.355 129.932 154.558 129.767 152.736 130.005L152.991 131.961ZM157.497 132.375L156.89 134.252C158.247 134.691 159.55 135.25 160.801 135.929L161.742 134.195L162.684 132.461C161.219 131.666 159.692 131.012 158.104 130.498L157.497 132.375ZM161.742 134.195L160.801 135.929C161.906 136.528 162.821 137.325 163.564 138.333L165.152 137.162L166.74 135.991C165.653 134.517 164.295 133.336 162.684 132.461L161.742 134.195ZM165.152 137.162L163.564 138.333C164.401 139.468 165.109 140.664 165.69 141.922L167.481 141.095L169.272 140.268C168.578 138.764 167.733 137.338 166.74 135.991L165.152 137.162ZM167.481 141.095L165.69 141.922C166.274 143.188 166.693 144.415 166.957 145.602L168.883 145.175L170.808 144.747C170.477 143.257 169.962 141.763 169.272 140.268L167.481 141.095ZM168.883 145.175L166.957 145.602C167.104 146.263 167.192 146.714 167.234 146.982C167.257 147.131 167.253 147.149 167.252 147.095C167.252 147.093 167.244 146.911 167.305 146.67C167.333 146.556 167.418 146.257 167.662 145.949C167.958 145.576 168.486 145.21 169.193 145.21V147.183V149.155C169.911 149.155 170.449 148.784 170.753 148.401C171.006 148.083 171.097 147.767 171.131 147.633C171.202 147.35 171.198 147.105 171.197 147.02C171.193 146.798 171.162 146.565 171.133 146.38C171.071 145.978 170.959 145.425 170.808 144.747L168.883 145.175ZM169.193 147.183V145.21C168.499 145.21 168.042 145.559 167.863 145.718C167.665 145.894 167.545 146.071 167.489 146.159C167.373 146.342 167.302 146.515 167.268 146.601C167.191 146.797 167.125 147.021 167.07 147.225C166.953 147.654 166.815 148.258 166.657 149.011L168.587 149.417L170.517 149.823C170.672 149.087 170.792 148.574 170.877 148.258C170.923 148.09 170.944 148.034 170.94 148.044C170.937 148.051 170.928 148.073 170.913 148.106C170.899 148.136 170.868 148.198 170.818 148.277C170.777 148.341 170.671 148.501 170.486 148.665C170.321 148.812 169.875 149.155 169.193 149.155V147.183Z" fill="black"/>
<path d="M194.652 160.098C194.652 160.702 194.57 161.508 194.345 163.842C194.201 165.33 194.223 168.01 194.201 169.458C194.169 171.528 194.248 172.501 194.32 174.427C194.382 176.101 194.29 178.637 194.202 179.448C194.131 180.094 193.682 181.331 193.319 182.335C193.002 183.212 192.18 183.84 191.001 184.262C190.627 184.395 190.13 184.398 188.391 184.439C186.651 184.48 183.669 184.502 180.125 184.41C176.581 184.318 172.567 184.111 170.179 183.983C167.154 183.821 165.887 183.667 164.877 183.515C163.762 183.346 162.372 183.314 158.81 182.981C157.042 182.815 154.92 182.297 154.013 182.024C153.496 181.868 153.083 181.551 152.767 181.307C152.041 180.745 151.705 178.706 151.413 177.163C151.207 176.074 150.974 174.773 150.853 173.481C150.733 172.195 150.601 170.862 150.44 168.894C150.386 165.712 150.398 163.591 150.427 163.26C150.443 163.102 150.462 162.964 150.511 162.584" stroke="black" stroke-width="3.94532" stroke-linecap="round"/>
<path d="M138.24 149.941C137.039 150.314 135.507 150.945 134.362 151.878C133.464 152.609 132.917 155.059 132.663 156.516C132.527 157.298 132.781 158.602 133.016 159.587C133.481 161.529 135.253 163.453 136.261 164.514C136.9 165.187 138.181 165.451 139.012 165.606C140.205 165.829 141.351 165.682 141.982 165.497C142.89 164.921 143.827 163.859 144.034 163.082C144.067 162.751 144.079 162.257 144.121 161.659" stroke="black" stroke-width="3.94532" stroke-linecap="round"/>
<path d="M136.779 166.465C136.902 167.986 137.147 169.274 137.852 171.215C138.369 172.64 140.325 174.436 141.767 175.576C142.609 176.241 143.666 176.283 144.865 176.287C146.032 176.291 147.302 175.453 148.006 175.086C148.586 174.558 148.861 174.17 149.031 173.912C149.125 173.783 149.232 173.655 149.518 173.254" stroke="black" stroke-width="3.94532" stroke-linecap="round"/>
<path d="M159.064 184.131C159.167 185.771 159.41 187.15 159.634 188.297C159.748 188.882 159.823 189.319 160.007 189.59C160.443 190.234 162.482 190.066 163.704 190.118C164.232 190.141 166.378 190.142 169.261 190.119C170.309 190.111 170.515 190.125 170.673 190.074C171.116 189.655 171.414 188.609 171.538 186.138C171.557 185.656 171.58 185.515 171.604 185.338" stroke="black" stroke-width="3.94532" stroke-linecap="round"/>
<path d="M161.359 191.805C161.394 193.486 161.562 196.413 161.699 197.145C161.765 197.498 161.932 197.776 162.176 198.001C163.366 199.095 165.858 198.874 167.531 198.879C168.078 198.88 168.364 198.673 168.584 198.51C169.04 198.171 169.285 196.947 169.539 195.448C169.591 193.416 169.566 191.802 169.494 191.25C169.47 190.981 169.47 190.732 169.47 190.477" stroke="black" stroke-width="3.94532" stroke-linecap="round"/>
<path d="M162.627 199.852C162.59 200.039 162.494 200.939 162.264 202.771C162.135 203.802 161.885 205.026 160.96 208.632C160.034 212.239 158.416 218.188 157.419 221.59C156.422 224.992 156.094 225.666 154.797 227.691C153.5 229.716 151.243 233.071 149.755 235.147C147.715 237.992 146.498 239.011 145.401 239.831C143.988 240.887 142.517 241.646 141.294 242.431C140.607 242.873 139.74 243.33 138.597 243.862C137.454 244.394 136.051 244.968 134.088 245.598C132.125 246.227 129.645 246.895 128.175 247.264C126.705 247.633 126.319 247.685 124.145 248.102C121.97 248.519 118.018 249.302 114.125 249.657C110.233 250.013 106.52 249.918 104.093 249.812C99.4197 249.607 98.773 249.267 97.7433 249.021C97.4864 248.937 97.2748 248.842 97.0943 248.749C96.9137 248.657 96.7706 248.568 96.889 248.639" stroke="black" stroke-width="3.94532" stroke-linecap="round"/>
<path d="M105.727 256.285C105.805 256.285 106.795 256.4 108.993 256.574C111.751 256.792 113.853 256.536 115.265 256.314C117.356 255.986 118.793 255.89 119.803 255.787C122.134 255.547 123.975 255.163 124.683 254.977C125.518 254.758 126.78 254.536 128.467 254.121C129.373 253.898 130.394 253.713 131.904 253.299C133.413 252.884 135.385 252.261 137.44 251.37C139.495 250.48 141.574 249.34 142.746 248.674C144.141 247.882 145.365 246.702 147.096 245.088C148.082 244.168 148.593 243.793 149.327 243.038C150.935 241.386 152.445 240.103 153.144 239.388C153.918 238.597 155.352 237.163 156.884 235.428C157.646 234.566 158.572 232.982 159.973 230.481C161.136 228.406 161.654 226.803 162.093 225.963C162.334 225.502 162.94 223.858 164.013 220.927C165.028 218.151 165.123 216.48 165.215 216.168C165.314 215.831 165.769 213.925 166.586 210.71C167.276 207.995 167.347 206.524 167.464 206.182C167.838 204.491 168.204 202.292 168.209 201.761C168.214 201.389 168.224 200.806 168.235 200.205" stroke="black" stroke-width="3.94532" stroke-linecap="round"/>
<path d="M186.949 168.267C186.957 168.301 186.966 168.334 186.941 169.208C186.915 170.081 186.856 171.795 186.757 173.051C186.599 175.062 186.312 175.956 186.149 176.187C185.997 176.403 185.68 176.443 182.755 176.395C179.975 176.349 174.565 176.137 171.729 176.037C168.892 175.936 168.793 175.921 168.269 175.889C165.653 175.726 164.827 175.658 164.17 175.622C162.633 175.536 160.994 175.326 160.313 174.863C160.05 174.684 159.915 174.373 159.768 174.076C159.293 173.118 159.639 171.294 159.669 169.992C159.708 168.252 160.007 167.605 160.14 167.076C160.265 166.58 161.088 166.515 161.828 166.439C162.346 166.386 163.162 166.413 165.912 166.392C168.662 166.371 173.325 166.329 175.827 166.318C178.836 166.305 179.279 166.374 180.145 166.438C180.502 166.464 181.126 166.578 182.432 166.697C185.824 167.005 186.527 166.994 186.866 167.233C186.908 167.324 186.908 167.455 186.923 167.567C186.938 167.679 186.967 167.767 186.997 167.859" stroke="black" stroke-width="3.94532" stroke-linecap="round"/>
<path d="M45.8713 117.183C45.8176 119.365 45.432 121.161 44.9099 122.132C43.8975 124.016 36.9992 122.509 34.5195 122.363C33.6903 122.314 32.4998 122.343 31.8879 122.213C31.2761 121.824 31.2039 121.337 31.0676 120.321C31.0035 119.526 30.9498 118.161 30.9718 116.496" stroke="black" stroke-width="3.94532" stroke-linecap="round"/>
<path d="M42.2288 124.584C51.2164 153.05 11.5255 181.185 27.8451 207.446C33.1025 215.905 40.9677 223.348 47.7094 230.623C50.4635 233.595 54.2171 238.101 54.3232 242.406" stroke="black" stroke-width="3.94532" stroke-linecap="round"/>
<path d="M35.6155 122.74C35.6777 122.937 35.9279 127.488 36.1022 132.485C36.6996 149.611 26.9487 163.885 20.2726 179.166C17.9386 184.508 17.4977 185.834 17.0848 187.923C15.7363 194.743 15.6062 202.17 19.3936 208.264C24.651 216.724 32.266 223.407 39.0076 230.682C41.7617 233.654 46.5345 237.568 46.6407 241.872" stroke="black" stroke-width="3.94532" stroke-linecap="round"/>
<path d="M40.8086 242.942C40.8086 242.933 40.846 242.853 40.9424 242.715C41.1297 242.446 41.8472 242.384 42.5157 242.272C43.1905 242.167 43.8294 242.097 44.2098 242.095C44.3873 242.093 44.5333 242.088 44.6836 242.084" stroke="black" stroke-width="3.94532" stroke-linecap="round"/>
<path d="M55.1289 241.562C55.6612 241.581 56.8245 241.646 57.4498 241.782C57.8111 241.861 58.017 242.035 58.2487 242.175C58.4699 242.366 58.6422 242.559 58.7196 242.645C58.7596 242.689 58.8011 242.735 58.8563 242.795" stroke="black" stroke-width="3.94532" stroke-linecap="round"/>
<path d="M62.5488 232.664C62.6334 232.748 63.4112 233.215 64.8566 234.012C65.5597 234.399 66.2336 234.692 67.4613 235.153C68.6889 235.614 70.4583 236.219 72.5876 236.766C74.717 237.313 77.1527 237.785 79.7463 238.055C82.3399 238.325 85.0177 238.38 87.1387 238.359C89.2597 238.337 90.7429 238.237 92.4216 238.014C94.1003 237.792 95.9297 237.449 96.9587 237.231C98.1609 236.931 98.4436 236.767 98.685 236.619C98.8222 236.55 98.9891 236.491 99.3718 236.359" stroke="black" stroke-width="3.94532" stroke-linecap="round"/>
<path d="M67.8027 223.896V233.979" stroke="black" stroke-width="3.94532" stroke-linecap="round"/>
<path d="M75.6934 225.211V234.855" stroke="black" stroke-width="3.94532" stroke-linecap="round"/>
<path d="M84.0254 225.648C84.0254 225.674 84.0254 225.699 84.0254 225.791C84.0254 225.883 84.0254 226.042 84.0254 227.84C84.0254 229.638 84.0254 233.071 84.0254 236.608" stroke="black" stroke-width="3.94532" stroke-linecap="round"/>
<path d="M92.3496 225.648C92.3496 225.696 92.3496 225.744 92.3496 226.114C92.3496 226.485 92.3496 227.176 92.3496 228.899C92.3496 230.621 92.3496 233.354 92.3496 236.169" stroke="black" stroke-width="3.94532" stroke-linecap="round"/>
<path d="M34.0391 282.639C55.5469 288.265 77.6099 287.89 99.7944 284.799" stroke="black" stroke-width="3.94532" stroke-linecap="round"/>
<path d="M34.1133 289.652C45.2138 294.255 52.2689 294.142 68.009 294.255C73.8737 294.298 94.599 293.74 100.257 291.229" stroke="black" stroke-width="3.94532" stroke-linecap="round"/>
<path d="M34.0547 330.655C34.1735 331.757 34.5277 333.685 34.8603 334.776C35.0248 335.316 35.5163 335.84 36.0817 336.481C36.7802 337.273 37.7055 337.978 38.6012 338.599C40.0307 339.59 41.1352 339.973 43.1108 340.619C43.8752 340.87 44.9945 341.051 46.0008 341.18C47.8725 341.42 48.8961 341.331 49.6032 341.31C51.2708 341.259 52.4958 341.239 52.7222 341.106C53.1647 340.847 53.3973 340.349 53.7382 339.718C53.866 339.481 54.3371 339.389 55.0227 339.275C55.3762 339.216 55.7446 339.177 60.479 339.075C65.2135 338.974 74.3037 338.818 78.9954 338.822C83.6872 338.827 83.705 338.998 83.7232 339.156C83.8041 339.862 84.2959 340.627 84.7328 341.027C85.3033 341.549 86.3971 341.346 88.7841 341.292C89.6605 341.272 90.0748 341.193 91.4839 340.907C92.7892 340.642 95.2748 340.049 96.6381 339.724C98.6628 339.241 99.7461 338.876 100.629 338.511C101.502 338.15 102.065 337.693 102.278 337.539C102.953 337.053 102.954 335.999 103.149 335.245C103.517 332.564 103.562 331.092 103.589 330.663C103.601 330.375 103.609 329.948 103.641 329.386" stroke="black" stroke-width="3.94532" stroke-linecap="round"/>
<path d="M36.877 264.164C38.1502 264.447 39.4234 264.729 41.2047 265.107C42.986 265.485 45.2368 265.95 46.4629 266.212C47.6891 266.473 47.8224 266.518 48.5796 266.687C49.3369 266.855 50.7139 267.147 53.9026 267.321C57.0913 267.496 62.0498 267.543 64.6708 267.556C67.4252 267.57 68.166 267.524 69.1815 267.513C70.6509 267.497 73.0321 267.33 75.4175 267.25C75.8956 267.234 76.1541 267.201 76.3544 267.185C76.5546 267.168 76.6888 267.168 76.827 267.168" stroke="black" stroke-width="3.94532" stroke-linecap="round"/>
<path d="M108.283 261.898C108.106 262.015 107.589 262.198 106.949 262.275C105.946 262.379 104.522 262.675 102.509 263.028C102.072 263.102 101.945 263.131 101.783 263.16" stroke="black" stroke-width="3.94532" stroke-linecap="round"/>
<path d="M299.312 258.937C299.402 258.892 299.492 258.847 312.229 256.291C324.965 253.735 350.346 248.67 363.615 246.046C376.884 243.422 377.272 243.393 377.77 243.312C378.87 243.132 379.749 242.88 380.41 242.759C381.282 242.599 383.268 243.004 386.865 243.891C389.02 244.422 397.655 247 399.863 247.789" stroke="black" stroke-width="3.94532" stroke-linecap="round"/>
</g>
<defs>
<filter id="filter0_g_621_4752" x="216.05" y="77.1322" width="183.501" height="183.501" filterUnits="userSpaceOnUse" color-interpolation-filters="sRGB">
<feFlood flood-opacity="0" result="BackgroundImageFix"/>
<feBlend mode="normal" in="SourceGraphic" in2="BackgroundImageFix" result="shape"/>
<feTurbulence type="fractalNoise" baseFrequency="0.022811843082308769 0.022811843082308769" numOctaves="3" seed="3160" />
<feDisplacementMap in="shape" scale="4.2083406448364258" xChannelSelector="R" yChannelSelector="G" result="displacedImage" width="100%" height="100%" />
<feMerge result="effect1_texture_621_4752">
<feMergeNode in="displacedImage"/>
</feMerge>
</filter>
<clipPath id="clip0_621_4752">
<rect width="430" height="378" fill="white"/>
</clipPath>
</defs>
</svg>
