<svg width="216" height="141" viewBox="0 0 216 141" fill="none" xmlns="http://www.w3.org/2000/svg">
<g filter="url(#filter0_g_509_3831)">
<ellipse cx="144.637" cy="70.5027" rx="68.8855" ry="68.8855" fill="#E60611"/>
</g>
<path d="M115.082 20.7648C115.42 20.268 116.398 19.5899 116.761 19.5726C116.828 19.5694 116.886 19.5877 116.946 19.6031C117.065 19.6338 117.408 20.1523 117.855 20.9819C118.11 21.455 118.083 21.8509 118.06 22.2448C118.038 22.644 117.827 23.1109 117.491 23.6776C117.08 24.3719 116.515 24.6396 116.22 24.6926C115.889 24.752 115.383 24.5291 114.856 24.1566C114.517 23.9178 114.405 23.4826 114.287 22.9136C114.138 22.1945 114.294 21.4448 114.45 20.904C114.557 20.5333 114.779 20.3837 114.932 20.2825C115.297 20.0412 115.709 20.107 116.037 20.2146C116.287 20.2965 116.45 20.4894 116.552 20.6002C116.862 20.9366 116.634 21.8483 116.355 22.5839C116.194 23.0102 115.773 23.2636 115.63 23.3427C115.573 23.3742 115.523 23.3198 115.496 23.2627C115.168 22.5853 115.481 20.9518 115.592 20.4807C115.614 20.3889 115.672 20.2952 115.743 20.2309C115.814 20.1667 115.908 20.139 116.03 20.1567C116.305 20.197 116.588 20.5555 116.817 21.0114C117.122 21.6176 116.888 22.4014 116.635 22.9398C116.461 23.1224 116.29 23.2399 116.153 23.2695C116.088 23.2677 116.033 23.2316 115.959 23.143" stroke="#020205" stroke-width="3.00096" stroke-linecap="round"/>
<path d="M154.852 30.54C155.08 29.8816 155.61 28.9389 155.768 28.9223C155.974 28.9004 156.324 29.0296 156.74 29.3486C157.566 29.9827 157.267 30.6691 157.299 31.0889C157.349 31.7549 157.011 32.7481 156.778 33.1351C156.695 33.2726 156.531 33.3348 156.305 33.3769C156.171 33.4019 155.992 33.3912 155.852 33.3136C154.961 32.8207 154.915 31.3426 154.918 30.7036C154.92 30.1825 155.153 29.9358 155.423 29.6657C155.571 29.5186 155.818 29.4769 156.039 29.4672C156.464 29.4485 156.593 30.3053 156.871 31.5759C156.898 32.435 156.824 32.643 156.75 32.7782C156.715 32.8442 156.688 32.9047 156.646 32.9959" stroke="#020205" stroke-width="3.00096" stroke-linecap="round"/>
<path d="M112.369 34.1748C112.502 35.0823 112.727 36.1179 113.009 37.0845C113.19 37.7045 113.37 38.0927 113.467 38.398C113.526 38.5858 113.764 39.2335 114.15 40.1421C114.325 40.5528 114.461 40.7802 114.821 41.47C115.1 42.0028 115.621 42.8798 116.1 43.5997C116.578 44.3196 117.01 44.8489 117.506 45.3492C118.003 45.8495 118.55 46.3048 118.994 46.6584C119.439 47.012 119.763 47.2502 120.36 47.596C120.957 47.9419 121.816 48.3881 122.448 48.6779C123.44 49.1328 124.198 49.2739 124.806 49.3745C125.606 49.507 126.205 49.55 126.874 49.6058C127.588 49.6652 128.194 49.5816 128.836 49.4936C129.313 49.4283 130.103 49.373 131.059 49.1912C132.014 49.0093 133.112 48.716 134.063 48.3931C135.013 48.0701 135.784 47.7264 136.906 47.0778C138.027 46.4292 139.477 45.4862 140.615 44.6502C141.753 43.8142 142.536 43.1138 143.132 42.5209C143.728 41.9281 144.114 41.4639 144.348 41.1745C144.582 40.885 144.652 40.7843 144.839 40.563" stroke="#020205" stroke-width="3.00096" stroke-linecap="round"/>
<path d="M108.932 93.8789C108.973 93.9201 109.014 93.9613 109.566 94.4557C110.118 94.9501 111.179 95.8964 111.823 96.4936C112.468 97.0908 112.663 97.3102 113.14 97.7344C113.616 98.1586 114.369 98.7809 114.905 99.1884C115.441 99.596 115.738 99.7699 116.185 99.9677C116.632 100.166 117.219 100.382 117.743 100.538C118.267 100.694 118.71 100.782 119.439 100.835C120.167 100.887 121.168 100.9 121.912 100.877C122.656 100.855 123.114 100.797 123.533 100.723C123.952 100.649 124.318 100.561 124.674 100.439C125.031 100.317 125.366 100.163 126.256 99.5511C127.146 98.9393 128.581 97.8741 129.463 97.1429C130.346 96.4117 130.634 96.0467 130.87 95.703C131.105 95.3593 131.281 95.0479 131.461 94.7272" stroke="#020205" stroke-width="3.00096" stroke-linecap="round"/>
<path d="M105.453 95.1878C105.458 95.1902 105.463 95.1927 105.909 95.2019C106.355 95.2112 107.241 95.2271 107.736 95.2295C108.307 95.2322 108.444 95.208 108.71 95.1849C109.673 95.0644 109.778 95.0492 109.846 95.0308C109.881 95.0212 109.916 95.0113 109.973 95.001" stroke="#020205" stroke-width="3.00096" stroke-linecap="round"/>
<path d="M104.248 79.9346C103.907 80.3037 103.567 80.6728 103.157 81.136C102.748 81.5993 102.281 82.1455 101.641 83.0023C101.001 83.8591 100.202 85.0099 99.7828 85.6271C99.2042 86.4781 98.9932 87.1007 98.819 87.544C98.7208 87.7939 98.5375 88.2694 98.3916 88.7642C98.3323 88.9655 98.3474 89.8135 98.3823 91.1167C98.3973 91.68 98.4543 92.0425 98.6757 92.8054C98.8971 93.5684 99.2933 94.7204 99.5938 95.4939C99.8943 96.2673 100.087 96.6273 100.262 96.9283C100.575 97.4678 100.83 97.7938 101.1 98.1081C101.572 98.6574 102.04 99.2012 102.538 99.6366C102.835 99.8963 103.252 100.199 103.723 100.517C104.193 100.836 104.712 101.151 105.382 101.451C106.053 101.752 106.859 102.027 107.761 102.195C108.663 102.363 109.635 102.416 110.244 102.433C111.071 102.457 111.478 102.378 111.921 102.269C112.184 102.204 112.515 102.081 112.934 101.918C113.353 101.755 113.846 101.546 114.247 101.357C115.281 100.804 115.5 100.658 115.732 100.473C115.784 100.433 115.834 100.404 115.907 100.374" stroke="#020205" stroke-width="3.00096" stroke-linecap="round"/>
<path d="M98.2814 88.4875C97.8636 88.0739 97.4791 87.7116 96.7639 86.9272C96.4727 86.6078 96.1313 86.0724 95.691 85.3946C95.366 84.8944 95.1711 84.005 94.9195 82.9718C94.6639 81.9216 94.6506 80.9336 94.6446 79.461C94.6424 78.9344 94.7887 78.5447 95.1559 77.6673C95.4426 76.9824 96.0211 75.8494 96.4559 75.1003C97.1065 73.9795 97.5972 73.6171 98.0027 73.3464C99.6446 72.3932 100.489 71.9909 100.966 71.8268C101.297 71.7169 101.81 71.5532 102.387 71.3682" stroke="#020205" stroke-width="3.00096" stroke-linecap="round"/>
<path d="M125.021 100.721C126.386 101.743 126.763 101.996 127.603 102.462C128.848 103.154 129.84 103.448 130.246 103.598C131.71 104.141 132.215 104.336 133.63 104.657C134.682 104.896 136.692 105.318 137.794 105.565C139.037 105.843 139.312 105.92 140.442 106.078C141.436 106.217 143.279 106.49 146.262 106.6C149.244 106.711 153.309 106.654 157.141 106.305C160.972 105.957 164.446 105.317 166.903 104.736C169.359 104.154 170.693 103.649 173.604 101.826C176.515 100.002 180.962 96.8743 183.668 94.8628C186.375 92.8513 187.205 92.0506 188.218 91.0664" stroke="#020205" stroke-width="3.00096" stroke-linecap="round"/>
<path d="M96.2205 74.2587C95.3177 73.8844 95.1005 73.7989 94.6934 73.6713C94.3317 73.5578 93.6633 73.3202 92.916 73.1205C92.1686 72.9208 91.3647 72.7597 90.0197 72.5415C88.6748 72.3234 86.8131 72.053 85.7423 71.8914C84.6715 71.7298 84.4481 71.6852 83.8503 71.5043C83.2524 71.3234 82.2867 71.0075 81.636 70.7572C80.9853 70.507 80.6788 70.3319 80.232 69.9972C79.7853 69.6624 79.2075 69.1732 78.7531 68.7386C77.9519 67.9723 77.6046 67.4616 77.4291 67.086C77.3026 66.8154 77.1353 66.3667 76.9727 65.9C76.6468 64.9646 76.5023 64.3258 76.4741 63.8606C76.4244 63.0412 76.4586 62.407 76.4952 62.1772C76.5287 61.9671 76.5959 61.7032 76.7516 61.2097C76.8575 60.8738 77.1261 60.403 77.3481 60.0582C77.7172 59.485 78.2745 59.1171 79.0621 58.7125C79.5251 58.4747 80.1814 58.3095 80.9892 58.177C81.797 58.0444 82.7529 57.9849 84.1053 58.1011C85.4577 58.2172 87.1777 58.5108 91.4084 59.3538C95.6391 60.1967 102.329 61.5801 107.969 63.1141C113.609 64.648 117.997 66.2905 121.145 67.6609C124.293 69.0314 127.051 71.5115 132.181 74.7177C137.311 77.9238 138.978 81.7712 150.777 81.7712C162.576 81.7712 171.083 76.6414 173.861 74.0764" stroke="#020205" stroke-width="3.00096" stroke-linecap="round"/>
<path d="M29.293 57.436C29.2756 57.4244 28.9803 57.1991 28.5154 56.8433C28.3369 56.7067 28.2748 56.6594 28.0498 56.4809C27.8248 56.3023 27.4387 55.994 27.1882 55.7893C26.9378 55.5846 26.8346 55.493 26.5753 55.2665C26.3161 55.0401 25.904 54.6817 25.6508 54.4534C25.1932 54.0408 25.0782 53.9096 24.6665 53.4887C24.329 53.1437 23.7321 52.53 23.3768 52.1523C22.7773 51.5149 22.7454 51.3456 22.7108 51.2055C22.6731 51.0527 22.6697 50.9052 22.6902 50.7713C22.7121 50.6281 22.9928 50.6086 23.1525 50.5829C23.3873 50.5452 23.953 50.7587 24.2775 51.0049C24.4328 51.1226 24.6143 51.2753 24.754 51.4163C24.9886 51.653 25.2992 51.9965 25.541 52.1899C25.7825 52.3829 25.9821 52.4928 26.3682 52.7871C26.8273 53.1369 27.0597 53.3553 27.2567 53.5565C27.6431 53.9511 28.0553 54.3303 28.2112 54.4571C28.2918 54.5228 28.4038 54.5864 28.5217 54.6401C28.6137 54.682 28.8392 54.4025 29.1244 54.0496C29.3123 53.817 29.3987 53.5715 29.5228 53.2912C29.6646 52.9707 29.8894 52.6661 30.2219 52.1417C30.4561 51.7725 30.7877 51.1723 30.9991 50.8158C31.2104 50.4594 31.2824 50.3593 31.4397 50.1145C31.5969 49.8698 31.8372 49.4834 31.9733 49.2534C32.1094 49.0235 32.134 48.9618 32.289 48.6745C32.4439 48.3873 32.7284 47.8764 33.3592 46.9724C33.9901 46.0685 34.9587 44.7871 35.583 43.9461C36.2074 43.105 36.458 42.7431 36.6295 42.5088C36.979 42.0309 37.1531 41.9052 37.4829 41.6391C37.8205 41.3667 38.0631 41.3574 38.5327 41.2611C38.9415 41.1772 39.2221 41.2231 39.2759 41.2612C39.4912 41.4135 39.3022 41.8914 39.1965 42.3161C39.1587 42.4682 39.0706 42.6423 38.8789 43.0067C38.7497 43.2522 38.5637 43.625 38.3036 44.0449C38.0435 44.4648 37.7169 44.9215 37.5409 45.1724C37.345 45.4516 37.2064 45.6398 37.0033 45.8885C36.9007 46.0141 36.6647 46.2935 36.2595 46.7624C36.0668 46.9854 35.9193 47.1942 35.5388 47.6306C35.1583 48.0669 34.5541 48.7286 33.9052 49.3937C33.2563 50.0588 32.5809 50.7072 32.2185 51.0615C31.856 51.4159 31.827 51.4565 31.7058 51.5806C31.5846 51.7047 31.3722 51.9111 31.0718 52.1905C30.7714 52.4699 30.3894 52.8162 30.1687 53.0251C29.8922 53.2868 29.6788 53.5507 29.3311 53.9302C28.7426 54.5726 28.5233 54.8437 28.4624 54.9834C28.3775 55.1784 28.5169 55.5462 28.6043 56.0227C28.65 56.2714 28.7984 56.429 28.901 56.5995C28.9936 56.7534 29.1017 56.9015 29.2283 57.0904C29.3228 57.2315 29.4032 57.3437 29.5255 57.42C29.7618 57.5673 30.0826 56.9281 30.3298 56.4969C30.595 56.0341 30.7046 55.6364 30.7886 55.5C30.8385 55.419 30.9131 55.3206 31.1019 54.9999C31.2908 54.6791 31.5942 54.1407 31.7557 53.8477C31.9329 53.5262 32.0037 53.3499 32.1078 53.1201C32.2951 52.7067 32.5712 52.102 32.7569 51.7822C32.9051 51.527 33.1619 51.0828 33.373 50.7496C33.5842 50.4164 33.7418 50.2075 33.9777 49.8346C34.2136 49.4617 34.5229 48.9312 34.7367 48.5382C34.9505 48.1453 35.0593 47.9062 35.2764 47.4659C35.4934 47.0255 35.8154 46.3912 36.0099 45.9985C36.2681 45.4771 36.4008 45.179 36.5639 44.8832C36.9086 44.3847 37.1515 44.0121 37.2957 43.7731C37.325 43.7218 37.3392 43.6924 37.3606 43.6551" stroke="#020205" stroke-width="3.00096" stroke-linecap="round"/>
<path d="M33.8592 45.9082C33.4728 45.9537 33.0864 45.9992 32.5757 46.0579C32.065 46.1166 31.4418 46.1871 31.0784 46.2331C30.715 46.2791 30.6305 46.2986 30.2177 46.3474C29.805 46.3962 29.0667 46.4737 27.6291 46.6884C26.1915 46.9032 24.077 47.2529 22.953 47.433C21.829 47.6132 21.7597 47.6132 21.4421 47.6648C21.1244 47.7164 20.5605 47.8197 20.2188 47.8877C19.7726 47.9765 19.6225 48.018 19.5443 48.0361C19.4087 48.0676 19.4738 48.2944 19.4654 48.4881C19.4586 48.6428 19.4625 48.9125 19.5418 49.8115C19.621 50.7105 19.7794 52.2307 19.8804 53.3136C19.9814 54.3964 20.02 54.9958 20.1373 55.7782C20.2546 56.5607 20.4493 57.5081 20.6964 58.4071C20.9436 59.306 21.2374 60.1278 21.3971 60.5832C21.6318 61.2522 21.6914 61.5767 21.7666 61.7647C21.8447 61.9602 21.9037 62.0575 21.966 62.1363C21.9985 62.1774 22.0672 62.1866 22.5792 62.1986C23.0911 62.2106 24.053 62.2164 24.8413 62.1886C25.6296 62.1608 26.2152 62.0992 26.7321 62.061C27.2489 62.0227 27.6792 62.0097 28.0239 61.9867C28.3686 61.9638 28.6146 61.9313 30.2431 61.6578C31.8715 61.3844 34.875 60.871 36.4649 60.5923C38.0548 60.3136 38.1401 60.2851 38.2115 60.2579C38.436 60.1722 38.5257 60.0927 38.5567 60.0459C38.5724 60.0222 38.5502 59.9824 38.2386 58.3907C37.9269 56.7991 37.3167 53.6528 36.9427 51.8232C36.5686 49.9936 36.4493 49.576 36.3849 49.3377C36.3205 49.0993 36.3147 49.0528 36.1848 48.5751C36.0549 48.0973 35.8012 47.1898 35.6656 46.7066C35.53 46.2234 35.5202 46.1922 35.5031 46.1251" stroke="#020205" stroke-width="3.00096" stroke-linecap="round"/>
<path d="M43.9961 49.2174C44.2038 49.197 44.4114 49.1766 47.9219 48.7373C51.4325 48.2981 58.2395 47.4405 61.857 46.9699C65.4746 46.4993 65.6964 46.4416 65.8484 46.3991C66.0003 46.3565 66.0757 46.3308 66.3367 46.3086C66.5976 46.2864 67.0418 46.2685 67.4994 46.25" stroke="#020205" stroke-width="3.00096" stroke-linecap="round"/>
<path d="M45.6055 58.6877C46.6381 58.6354 47.6708 58.583 50.3031 58.2429C52.9354 57.9029 57.136 57.2768 60.0353 56.9195C62.9347 56.5622 64.4053 56.4928 65.34 56.4322C67.0594 56.3208 67.4648 56.1858 67.8204 56.096C67.9109 56.0775 68.0311 56.0608 68.119 56.0402C68.2069 56.0195 68.2589 55.9955 68.3255 55.9707" stroke="#020205" stroke-width="3.00096" stroke-linecap="round"/>
<path d="M29.2559 82.1484C29.2559 82.1525 29.2559 82.1567 34.8893 81.5335C40.5228 80.9102 51.7898 79.6594 58.0773 78.9794C64.3647 78.2994 65.3313 78.2281 66.7254 78.0537C68.1196 77.8793 69.9119 77.604 70.9431 77.4363C72.5298 77.1119 72.9211 76.9553 73.2042 76.819C73.272 76.7867 73.3371 76.762 73.4422 76.7236" stroke="#020205" stroke-width="3.00096" stroke-linecap="round"/>
<path d="M27.8535 72.6166C28.0114 72.5847 28.1692 72.5529 33.1102 72.0969C38.0512 71.6409 47.7707 70.7618 54.1692 70.0323C60.5676 69.3027 63.3506 68.7494 64.9273 68.4146C66.504 68.0797 66.79 67.9801 67.2749 67.8616C67.7599 67.7431 68.4351 67.6087 68.9574 67.489C70.3197 67.1467 70.707 67.1117 70.9349 67.109C71.0428 67.1063 71.1349 67.1009 71.3804 67.0566" stroke="#020205" stroke-width="3.00096" stroke-linecap="round"/>
<path d="M31.4316 92.4755C31.4616 92.4679 31.4916 92.4603 37.2805 91.5042C43.0693 90.5481 54.6161 88.6438 60.9569 87.5661C67.2977 86.4884 68.0826 86.2951 68.8582 86.1786C70.3668 85.9522 71.2453 85.9708 71.4899 85.9083C71.6307 85.8688 71.8052 85.8134 71.932 85.7811C72.0589 85.7488 72.1328 85.7412 72.3636 85.7334" stroke="#020205" stroke-width="3.00096" stroke-linecap="round"/>
<path d="M32.7656 102.478C32.7698 102.478 32.774 102.478 39.2918 101.452C45.8095 100.425 58.8408 98.3721 65.6047 97.3009C72.3685 96.2296 72.4702 96.2024 72.6345 96.1655C73.3099 96.0138 73.6109 95.9666 73.9027 95.8953C73.9698 95.8791 74.0348 95.8609 74.1012 95.8494C74.1675 95.8379 74.2332 95.8337 74.3391 95.8164" stroke="#020205" stroke-width="3.00096" stroke-linecap="round"/>
<path d="M14.513 94.3397C14.5151 94.3376 14.5171 94.3355 15.458 93.6622C16.3989 92.9889 18.2786 91.6444 19.362 90.8112C20.4455 89.978 20.6758 89.6968 20.9354 89.3095C21.195 88.9222 21.4769 88.4372 21.6538 88.0999C21.9165 87.5987 21.9803 87.3162 22.015 87.1574C22.0298 87.0898 22.0338 87.0475 22.0283 86.7744C22.0228 86.5013 22.0064 85.9985 21.9929 85.7218C21.9739 85.3303 21.841 84.8673 21.7145 84.4325C21.6641 84.2588 21.5285 83.961 21.4173 83.7217C21.2249 83.3076 21.0461 83.0638 20.9033 82.9118C20.6047 82.5938 20.3168 82.5236 19.7687 82.3122C19.5498 82.2278 19.1442 82.1821 18.4901 82.1245C18.1509 82.0946 17.794 82.1049 17.5372 82.113C17.1331 82.1258 16.9129 82.1716 16.3583 82.2836C15.874 82.3814 14.9751 82.5497 14.3763 82.6905C13.7775 82.8314 13.5054 82.9366 13.3401 83.0047C13.1748 83.0728 13.1245 83.1007 12.8765 83.2159C12.6284 83.331 12.184 83.5327 11.4897 83.9369C10.7953 84.3412 9.86448 84.942 9.22675 85.3983C8.58902 85.8545 8.27259 86.1479 7.9196 86.5224C7.56661 86.897 7.18663 87.3438 6.88583 87.7357C6.58504 88.1276 6.37495 88.4511 6.23683 88.691C6.02018 89.0674 5.93666 89.3677 5.85467 89.7209C5.80536 89.9334 5.77258 90.2202 5.74568 90.5756C5.71878 90.931 5.70698 91.3482 5.70379 91.5979C5.7006 91.8476 5.70637 91.9172 5.77999 92.2594C5.85361 92.6016 5.99489 93.2143 6.14576 93.6893C6.29664 94.1643 6.45282 94.4829 6.57048 94.7081C6.68815 94.9333 6.76256 95.0555 6.87948 95.2082C6.9964 95.3608 7.15357 95.5403 7.68632 96.0184C8.21907 96.4966 9.12263 97.268 9.82739 97.8089C10.5321 98.3498 11.0107 98.6368 11.3705 98.8412C11.7303 99.0456 11.9569 99.1587 12.1435 99.2411C12.3301 99.3235 12.4699 99.3717 12.7416 99.4327C13.0132 99.4937 13.4125 99.566 13.6812 99.6033C14.0739 99.6577 14.2478 99.6458 14.5455 99.6537C14.8012 99.6605 15.2695 99.6564 15.5355 99.6519C15.8016 99.6474 15.8513 99.6384 16.0727 99.6337C16.2942 99.6291 16.6859 99.6291 16.9691 99.6154C17.6143 99.5843 17.7544 99.5294 17.9061 99.5033C18.0083 99.477 18.1103 99.4559 18.1887 99.4462C18.2241 99.4408 18.2507 99.4345 18.2844 99.4279" stroke="#020205" stroke-width="3.00096" stroke-linecap="round"/>
<path d="M5.87642 87.6975C5.87226 87.6933 5.50314 87.3683 4.86808 86.786C4.59314 86.5339 4.44196 86.3405 4.30709 86.1687C4.17222 85.997 4.06533 85.8452 3.83202 85.3585C3.59871 84.8719 3.24223 84.055 3.02246 83.4981C2.80269 82.9413 2.73043 82.6692 2.67021 82.3027C2.61 81.9363 2.56402 81.4837 2.54033 81.0663C2.51665 80.6489 2.51665 80.2803 2.54809 79.9372C2.57954 79.5941 2.64243 79.2875 2.70315 79.039C2.76388 78.7906 2.82053 78.6094 2.90676 78.3994C2.99298 78.1894 3.10706 77.9561 3.22524 77.7651C3.34341 77.5741 3.46221 77.4326 3.76392 77.1423C4.06564 76.8519 4.54667 76.4171 5.08948 75.9941C5.6323 75.5711 6.22234 75.1732 6.71628 74.8761C7.21023 74.579 7.59021 74.3949 8.18058 74.145C8.77094 73.8952 9.56018 73.5852 10.1406 73.3879C10.721 73.1905 11.0687 73.115 11.8383 73.0615C12.6078 73.0081 13.7886 72.9788 14.6751 72.9982C15.5615 73.0177 16.1178 73.0867 16.5851 73.1689C17.0525 73.251 17.4139 73.3442 17.628 73.4033C17.8997 73.4784 18.1417 73.6301 18.6506 74.025C18.9843 74.2839 19.4264 74.7167 19.7139 74.9726C20.0015 75.2284 20.1096 75.3083 20.2874 75.4742C20.4651 75.6402 20.7092 75.8899 20.9308 76.1544C21.1525 76.4189 21.3444 76.6907 21.5386 77.0214C21.7328 77.3521 21.9235 77.7334 22.0382 77.9821C22.1987 78.33 22.2563 78.6045 22.3135 78.9446C22.4186 79.5681 22.3137 79.7616 22.2831 79.9859C22.2426 80.2832 22.1028 80.4876 21.9433 80.8292C21.8552 81.0179 21.7754 81.1356 21.7136 81.2697C21.6567 81.393 21.5691 81.4919 21.4914 81.6168C21.4716 81.6508 21.4512 81.6851 21.4208 81.7383C21.3903 81.7915 21.3505 81.8627 21.3094 81.936" stroke="#020205" stroke-width="3.00096" stroke-linecap="round"/>
<path d="M3.74718 76.124C3.74511 76.1219 3.74303 76.1198 3.53801 75.8254C3.333 75.531 2.92512 74.9443 2.61758 74.4593C2.31004 73.9742 2.1152 73.6086 1.96898 73.2559C1.82276 72.9033 1.73105 72.5746 1.65909 72.2555C1.58713 71.9365 1.5377 71.6368 1.51495 71.1821C1.49219 70.7274 1.49762 70.1267 1.51648 69.7262C1.53534 69.3258 1.56747 69.1439 1.63386 68.8996C1.70025 68.6554 1.79992 68.3542 1.97862 67.977C2.15731 67.5998 2.412 67.1557 2.59155 66.8731C2.77109 66.5905 2.86777 66.4828 2.99163 66.3646C3.11549 66.2464 3.26361 66.1209 3.57972 65.8916C3.89583 65.6623 4.37545 65.333 4.75974 65.1049C5.14402 64.8769 5.41845 64.76 5.79631 64.6276C6.17418 64.4952 6.64717 64.3507 6.92216 64.2706C7.25801 64.1727 7.55425 64.1168 8.1529 64.0141C8.51993 63.9512 9.02216 63.9096 9.84632 63.8739C10.6705 63.8381 11.8031 63.8205 12.7759 63.8781C13.7487 63.9356 14.5274 64.0689 15.2112 64.2365C15.895 64.4042 16.4603 64.6023 16.9268 64.8133C17.3933 65.0243 17.7439 65.2422 18.0555 65.4661C18.3671 65.6899 18.6292 65.913 18.9137 66.1942C19.1981 66.4754 19.4971 66.8079 19.7104 67.0617C19.9238 67.3155 20.0425 67.4805 20.2214 67.8398C20.4003 68.1991 20.6358 68.7477 20.7757 69.0933C20.9155 69.439 20.9526 69.565 20.9933 69.9102C21.034 70.2554 21.0772 70.8161 21.0912 71.1376C21.1125 71.6273 20.9585 72.0085 20.7983 72.419C20.7383 72.5729 20.6373 72.7214 20.3858 73.0833C20.0543 73.4775 19.7192 73.8418 19.6636 73.8993C19.6373 73.9246 19.6149 73.9421 19.5603 73.985" stroke="#020205" stroke-width="3.00096" stroke-linecap="round"/>
<path d="M17.4017 92.6725C18.2567 96.9473 20.3513 107.036 21.8903 113.192C23.1621 118.279 24.8134 124.593 25.831 128.441C26.1476 129.638 27.2732 130.435 28.5068 130.322C34.4318 129.783 44.2928 128.658 48.822 127.299C54.7706 125.514 83.8965 118.211 92.1735 114.605C93.1338 114.186 93.5885 113.16 93.4011 112.129C92.2335 105.706 90.1564 94.8415 89.2196 92.0312C88.1936 88.9533 86.2272 77.4966 85.3722 72.153M82.8073 58.046C82.5936 55.2673 81.9096 48.0427 80.8836 41.3739C79.9962 35.6059 79.3647 30.0617 79.0719 27.1479C79.0056 26.4879 78.4557 25.9842 77.7924 25.9867C72.6692 26.006 63.1815 26.1515 58.4405 26.6256C52.0282 27.2668 37.2799 28.5493 28.9438 29.8318C23.2206 30.7123 14.8842 32.6003 9.93305 33.7935C8.69537 34.0918 7.87638 35.2568 8.01151 36.5227C8.53309 41.4089 9.4718 49.3787 10.3481 54.1986C11.3741 59.8414 12.0581 62.9621 12.2718 63.817" stroke="#020205" stroke-width="3.00096"/>
<defs>
<filter id="filter0_g_509_3831" x="74.1351" y="0.000315666" width="141.005" height="141.004" filterUnits="userSpaceOnUse" color-interpolation-filters="sRGB">
<feFlood flood-opacity="0" result="BackgroundImageFix"/>
<feBlend mode="normal" in="SourceGraphic" in2="BackgroundImageFix" result="shape"/>
<feTurbulence type="fractalNoise" baseFrequency="0.029686957597732544 0.029686957597732544" numOctaves="3" seed="3160" />
<feDisplacementMap in="shape" scale="3.2337436676025391" xChannelSelector="R" yChannelSelector="G" result="displacedImage" width="100%" height="100%" />
<feMerge result="effect1_texture_509_3831">
<feMergeNode in="displacedImage"/>
</feMerge>
</filter>
</defs>
</svg>
