<svg width="316" height="290" viewBox="0 0 316 290" fill="none" xmlns="http://www.w3.org/2000/svg">
<g filter="url(#filter0_g_405_3038)">
<circle cx="185.832" cy="154.766" r="87.7563" fill="#E60611"/>
</g>
<path d="M239.622 177.311C238.44 177.284 237.258 177.258 235.835 177.31C234.412 177.362 232.783 177.494 231.682 177.64C230.041 177.858 229.277 178.212 228.866 178.41C228.029 178.815 226.547 179.457 225.484 180.187C224.982 180.531 224.712 180.944 224.356 181.472C223.665 182.495 223.252 183.411 223.173 184.005C222.941 185.73 223.305 186.436 223.463 186.9C223.69 187.565 224.047 188.08 225.078 189.655C225.541 190.363 225.982 190.734 226.473 191.159C226.922 191.547 227.388 191.875 227.932 192.234C228.792 192.8 229.193 192.964 230.331 193.335C230.965 193.541 231.342 193.681 231.754 193.774C232.209 193.877 232.641 193.867 233.106 193.933C233.883 194.043 234.733 193.867 235.428 193.801C235.902 193.787 236.383 193.735 236.806 193.655C237.046 193.628 237.335 193.628 237.632 193.628" stroke="#020205" stroke-width="3.82046" stroke-linecap="round"/>
<path d="M232.934 190.365C233.984 190.155 234.736 190.02 235.54 189.993C237.105 189.941 238.475 190.125 239.085 190.258C239.327 190.311 239.432 190.338 239.604 190.351C239.777 190.365 240.013 190.365 240.257 190.365" stroke="#020205" stroke-width="3.82046" stroke-linecap="round"/>
<path d="M237.152 190.843C237.152 190.895 237.389 191.605 237.931 192.916C238.821 195.068 239.777 195.353 240.412 195.854C241.633 196.819 242.401 196.917 243.054 197.104C243.837 197.327 244.818 197.37 245.664 197.436C247.053 197.544 248.135 197.423 248.479 197.383C249.299 197.288 250.149 197.053 251.129 196.682C251.674 196.475 252.68 196.182 253.667 195.744C255.652 194.863 256.706 194.081 256.983 193.895C257.259 193.711 257.529 193.603 257.714 193.391C257.923 193.152 258.743 192.388 259.896 191.078C260.707 189.899 261.084 189.173 261.19 188.881C261.243 188.748 261.296 188.642 261.509 188.375" stroke="#020205" stroke-width="3.82046" stroke-linecap="round"/>
<path d="M226.01 179.62C225.958 179.567 225.143 178.831 223.896 177.691C223.309 177.153 222.936 176.336 222.498 175.263C222.05 174.165 222.588 173.015 222.693 172.106C222.936 170.006 223.277 168.556 223.37 168.371C223.48 168.151 223.7 167.683 224.124 167.14C224.419 166.761 225.366 166.067 226.822 165.087C227.936 164.337 229.24 164.1 230.38 163.822C230.839 163.71 231.047 163.622 231.983 163.45C232.919 163.278 234.574 163.016 235.662 162.88C236.751 162.745 237.224 162.745 237.875 162.876C238.526 163.008 239.34 163.27 239.904 163.484C240.468 163.699 240.757 163.856 241.054 164.019" stroke="#020205" stroke-width="3.82046" stroke-linecap="round"/>
<path d="M225.531 164.814C224.789 162.349 224.63 161.713 224.55 160.813C224.434 159.525 224.841 158.396 225.052 157.867C225.383 157.038 226.084 155.907 226.631 155.132C226.926 154.713 228.122 153.942 229.62 152.987C230.378 152.505 230.836 152.372 231.246 152.186C231.617 152.019 232.004 151.92 233.385 151.67C234.576 151.454 236.79 151.235 238.255 151.1C239.72 150.964 240.376 150.964 241.49 151.07C242.603 151.175 244.153 151.385 245.03 151.493C246.062 151.62 246.49 151.68 247.229 151.904C249.205 152.504 249.621 152.689 249.98 152.861C250.365 153.007 250.604 153.14 250.763 153.193C250.843 153.219 250.922 153.246 251.003 153.273" stroke="#020205" stroke-width="3.82046" stroke-linecap="round"/>
<path d="M256.416 156.535C256.469 156.535 256.521 156.535 257.165 157.034C257.81 157.533 259.044 158.531 260.363 159.978C261.682 161.425 263.048 163.29 263.791 164.329C264.636 165.511 264.773 165.794 264.932 166.019C265.103 166.262 265.329 166.747 265.831 168.394C266.224 169.685 266.7 171.958 266.971 173.201C267.337 174.881 267.373 175.476 267.387 176.154C267.398 176.65 267.111 177.805 266.818 178.714C266.446 179.511 266.207 179.883 266.049 180.121C265.969 180.254 265.89 180.411 265.729 180.653" stroke="#020205" stroke-width="3.82046" stroke-linecap="round"/>
<path d="M239.859 150.486C239.859 150.434 239.859 150.381 239.899 149.553C239.938 148.725 240.017 147.122 240.215 145.64C240.413 144.158 240.729 142.845 240.917 142.103C241.14 141.224 241.318 140.7 241.621 139.774C242.022 138.554 242.59 137.595 242.908 137.025C243.338 136.256 243.678 135.552 244.299 134.757C244.638 134.323 245.364 133.678 245.966 133.143C247.029 132.196 248.185 131.519 249.192 130.962C250.471 130.255 251.875 129.606 252.355 129.407C252.762 129.237 253.413 129.234 254.237 129.3C254.958 129.357 255.591 129.605 257.231 130.503C258.042 130.947 258.509 131.724 258.96 132.36C259.688 133.387 260.128 134.641 260.329 135.346C260.655 136.492 260.528 137.058 260.607 138.113C260.667 138.903 260.634 140.218 260.608 141.039C260.559 142.588 260.211 143.213 259.879 143.97C259.549 144.724 259.017 145.946 258.685 146.703C258.376 147.409 258.114 148.281 257.744 149.115C257.001 150.789 257.159 151.36 257 152.378C256.743 154.02 257.052 154.57 257.185 155.048C257.212 155.338 257.264 155.58 257.37 155.791C257.423 155.924 257.476 156.107 257.61 156.376" stroke="#020205" stroke-width="3.82046" stroke-linecap="round"/>
<path d="M268.097 175.025C268.097 174.952 269.016 175.722 270.812 177.461C272.669 179.259 273.404 180.591 273.552 180.997C274.086 182.461 274.55 184.584 274.87 186.044C275.02 186.728 274.962 187.491 275.129 188.415C275.613 191.103 275.299 192.61 275.186 193.929C275.09 195.053 274.631 195.914 273.853 197.639C273.467 198.493 272.778 199.401 272.127 200.368C271.494 201.31 270.477 202.076 269.368 202.853C267.757 203.982 266.356 204.491 265.801 204.658C264.436 205.067 262.426 205.344 261.218 205.438C260.679 205.48 259.497 205.531 257.775 205.458C256.968 205.423 256.309 205.237 254.848 204.665C253.387 204.094 251.146 203.102 249.918 202.536C248.103 201.699 247.318 201.191 246.225 200.672C244.822 200.005 244.385 199.483 243.921 199.26C243.331 198.977 242.865 198.593 242.381 198.203C241.971 197.873 241.417 197.628 240.897 197.238C240.213 196.725 239.38 195.852 238.725 195.271C238.632 195.178 238.558 195.068 238.484 194.956C238.409 194.844 238.335 194.734 238.148 194.509" stroke="#020205" stroke-width="3.82046" stroke-linecap="round"/>
<path d="M147.129 94.7488C147.362 93.387 148.312 90.8172 148.666 90.6516C148.831 90.5746 148.974 90.5329 149.14 90.4853C149.307 90.4376 149.494 90.3907 149.755 90.6715C150.482 91.4537 150.683 92.6593 150.659 93.4873C150.628 94.5688 149.454 95.2661 148.649 95.7892C148.416 95.9398 148.13 96.119 147.914 96.1687C147.699 96.2185 147.558 96.1247 147.415 95.7714C146.729 94.0751 147.081 93.2364 147.223 92.3835C147.439 91.0854 148.17 90.7702 148.548 90.557C148.725 90.4569 148.926 90.4845 149.14 90.6018C149.639 90.8758 149.97 91.2891 150.184 91.525C150.256 91.6672 150.256 91.8548 150.233 92.0452C150.209 92.2357 150.162 92.4233 150.114 92.7588" stroke="#020205" stroke-width="3.82046" stroke-linecap="round"/>
<path d="M204.411 103.277C204.224 103.089 204.268 101.82 204.575 99.9961C204.686 99.3335 204.929 99.2513 205.307 99.3671C205.685 99.483 206.248 99.8113 206.585 100.121C207.588 101.044 206.737 103.359 206.237 104.506C206.097 104.829 205.692 104.887 205.385 104.935C205.221 104.96 205.031 104.889 204.841 104.771C204.129 103.756 203.843 101.676 203.984 100.72C204.032 100.577 204.079 100.437 204.269 100.007" stroke="#020205" stroke-width="3.82046" stroke-linecap="round"/>
<path d="M148.822 111.528C149.35 112.823 149.877 114.118 150.233 114.917C150.588 115.715 150.756 115.979 151.526 116.822C152.296 117.665 153.662 119.08 155.062 120.228C156.461 121.377 157.852 122.216 158.808 122.744C159.764 123.272 160.243 123.464 160.91 123.695C161.577 123.925 162.416 124.189 163.411 124.397C164.407 124.605 165.534 124.748 167.229 124.822C168.925 124.897 171.155 124.897 172.411 124.885C173.668 124.873 173.883 124.849 174.078 124.812C174.274 124.776 174.441 124.728 176.482 124.368C178.522 124.007 182.43 123.336 184.875 122.894C187.32 122.453 188.183 122.261 188.772 122.114C189.654 121.894 190.184 121.725 190.679 121.592C191.218 121.448 192.117 120.832 193.23 120.119C193.931 119.669 194.998 119.185 196.232 118.508C196.843 118.118 197.111 117.923 197.497 117.622C197.762 117.393 198.17 117.009 198.59 116.614" stroke="#020205" stroke-width="3.82046" stroke-linecap="round"/>
<path d="M217.063 78.4006C215.982 78.8202 212.383 79.7826 210.395 80.2648C208.377 80.7543 207.191 80.8429 204.771 80.9349C203.012 81.0018 199.732 80.9843 195.82 80.5881C191.908 80.1918 187.463 79.3769 184.347 78.69C181.231 78.0031 179.579 77.469 178.657 77.158C177.173 76.6579 176.17 76.1509 173.316 74.6733C170.97 73.4586 166.544 70.8314 163.809 69.2704C160.205 67.214 158.795 66.4782 157.928 66.0945C156.936 65.6554 156.01 65.2593 154.838 64.6979C153.759 64.1806 152.214 63.454 151.141 62.8815C150.627 62.6075 149.699 62.1493 148.476 61.6889C147.49 61.3177 145.209 61.15 142.381 61.0238C140.334 60.9325 138 61.4904 135.753 61.8772C133.712 62.2285 132.357 62.6075 131.344 62.8154C128.857 63.3258 126.461 64.1823 124.982 64.7944C122.92 65.6472 120.962 67.1157 119.2 68.3816C118.241 69.0705 117.181 69.829 115.508 71.1589C115.162 71.4342 114.992 71.6307 114.91 71.6416C114.076 71.7518 114.983 68.8654 115.311 67.4433C115.551 66.3999 116.195 65.0918 117.224 63.5392C117.791 62.6844 118.458 61.9493 119.514 60.9667C121.357 59.2517 123.37 57.8114 124.67 57.0454C125.417 56.6058 127.489 55.7465 130.894 54.6364C133.516 53.7815 134.936 53.7385 135.599 53.5967C137.832 53.1188 139.076 53.1407 141.276 52.9866C144.41 52.7671 146.628 52.9878 147.241 53.0689C147.495 53.1026 147.64 53.0965 150.207 53.6777C152.774 54.259 157.761 55.4214 163.192 56.9211C168.624 58.4207 174.348 60.2223 177.422 61.2056C180.495 62.189 180.743 62.2995 181.849 62.6384C182.955 62.9773 184.911 63.5414 186.561 63.9461C188.211 64.3509 189.496 64.5792 191.142 65.0208C192.787 65.4624 194.755 66.1105 197.435 67.1648C200.114 68.2191 203.446 69.66 205.58 70.5953C208.557 71.8997 209.593 72.3765 210.072 72.578C210.79 72.8808 211.357 73.2023 212.245 73.602C214.235 74.4982 215.962 75.5972 217.575 76.71C218.692 77.4799 220.397 78.6888 221.575 79.5552C224.208 81.491 225.217 82.3078 226.579 83.4925C228.873 85.4883 229.429 85.8356 231.065 87.1258C232.839 88.5245 234.53 89.3023 235.36 89.7947C236.268 90.3326 236.955 90.8134 238.317 91.6102C241.449 93.4414 243.719 94.7691 244.088 94.9917C244.652 95.3319 245.859 96.0926 246.903 96.8206C247.209 97.0341 247.512 97.1621 247.744 97.0904C247.925 97.0346 247.922 96.5258 247.971 95.0853C248.02 93.6447 248.042 91.182 248.004 89.5193C247.947 87.0654 247.744 85.964 247.69 85.429C247.647 84.999 247.306 83.1426 246.722 79.9561C246.199 77.1027 245.503 75.377 245.11 74.5787C244.278 72.8915 243.572 71.4577 242.858 70.2151C242.153 68.9879 241.46 68.1174 240.866 67.0601C239.577 64.7658 238.576 63.09 238.392 62.6677C238.218 62.268 237.737 61.4585 237.035 60.2561C236.396 59.1616 235.111 57.7012 233.732 56.1482C233.129 55.4695 232.381 54.7969 230.748 53.3728C228.407 51.3309 226.624 50.392 226.035 50.0387C224.775 49.2821 223.01 47.9477 221.29 46.9285C220.475 46.4454 219.722 46.0732 218.196 45.2797C215.873 44.0716 214.256 43.393 213.087 42.8622C210.217 41.5595 207.693 40.7034 206.791 40.4763C206.279 40.3475 204.765 39.9542 201.902 39.4464C198.859 38.9067 197.035 39.0759 196.702 39.0069C195.521 38.7619 193.955 38.5071 193.235 38.4543C191.908 38.3568 190.947 38.2013 188.877 38.0948C187.372 38.0174 184.516 37.8904 182.812 37.845C180.642 37.7872 179.983 37.9003 178.697 38.1271C175.535 38.6847 173.214 39.3665 172.759 39.5174C171.915 39.7975 170.376 40.2232 169.524 40.4987C168.929 40.691 168.389 40.9607 167.443 41.2777C166.395 41.629 164.963 42.3858 164.235 42.7224C162.411 43.5659 159.778 45.2992 158.72 46.0391C156.668 47.4737 154.597 48.65 153.725 49.3713C153.069 49.9142 152.425 50.6257 151.962 51.0625C151.536 51.4823 150.961 51.9712 150.178 52.7267C150.001 52.8861 149.876 52.9763 149.62 53.1654" stroke="#020205" stroke-width="3.82642" stroke-linecap="round"/>
<path d="M114.566 70.748C114.77 71.6417 115.321 72.5856 117.255 75.2296C117.949 76.1791 118.389 76.4853 118.869 76.9135C119.974 77.899 121.195 78.9364 122.163 79.5863C123.443 80.4453 124.104 80.6677 125.391 81.2218C126.189 81.5656 127.204 81.7706 128.284 82.0398C128.918 82.1976 129.614 82.3554 130.22 82.4987C130.696 82.6114 131.215 82.6641 131.909 82.7171C132.984 82.7991 133.634 82.9181 134.288 82.9819C134.617 83.0351 134.907 83.0787 135.141 83.1071C135.254 83.1258 135.358 83.153 135.581 83.181" stroke="#020205" stroke-width="3.82642" stroke-linecap="round"/>
<path d="M147.953 111.965C147.953 112.037 147.953 112.109 148.013 113.548C148.073 114.988 148.193 117.793 148.375 120.041C148.556 122.29 148.796 123.896 148.919 124.819C149.068 125.932 149.091 126.396 149.643 127.875C150.103 129.107 151.106 131.247 151.888 132.742C152.67 134.238 153.245 135.005 153.59 135.448C153.934 135.891 154.03 135.987 154.739 136.768C155.447 137.548 156.766 139.011 157.685 139.98C158.604 140.949 159.084 141.381 159.558 141.759C160.464 142.481 161.15 142.938 161.704 143.36C162.554 144.007 163.306 144.368 163.632 144.525C163.949 144.677 164.538 144.972 165.755 145.334C166.509 145.558 167.572 145.744 169.171 145.844C170.769 145.943 172.879 145.919 174.565 145.787C176.252 145.654 177.45 145.415 178.835 145.075C180.22 144.736 181.754 144.304 183 143.854C184.246 143.404 185.158 142.949 185.735 142.618C186.559 142.146 186.99 141.778 187.497 141.501C187.769 141.352 188.052 141.151 188.692 140.501C189.331 139.851 190.314 138.748 190.977 137.928C191.639 137.108 191.951 136.605 192.771 134.679C193.59 132.753 194.909 129.421 195.6 127.62C196.351 125.665 196.388 125.335 196.497 125.045C196.765 124.329 197.138 123.616 197.598 121.841C197.77 121.178 197.914 120.807 198.12 120.419C198.507 119.688 198.229 119.304 198.314 118.977C198.444 118.473 198.568 118.046 198.653 117.525C198.665 117.343 198.689 117.197 198.726 116.944C198.738 116.763 198.738 116.475 198.738 116.179" stroke="#020205" stroke-width="3.82046" stroke-linecap="round"/>
<path d="M171.492 135.794C171.516 135.794 171.54 135.794 172.823 135.686C174.106 135.578 176.648 135.362 178.005 135.287C179.456 135.207 179.725 135.406 180.267 135.778C182.162 137.08 182.219 137.802 182.462 138.178C182.665 138.492 183.497 139.73 183.976 140.515C184.154 140.807 184.255 141.169 184.424 141.532C184.472 141.629 184.52 141.725 184.557 141.811C184.594 141.896 184.618 141.968 184.642 142.115" stroke="#020205" stroke-width="3.82046" stroke-linecap="round"/>
<path d="M158.488 137.829C158.512 137.781 158.536 137.733 159.076 137.253C159.616 136.772 160.671 135.861 161.298 135.344C162.344 134.482 162.869 134.245 163.991 133.739C165.422 133.092 166.623 132.84 166.986 132.756C167.489 132.638 168.269 132.622 170.166 132.61C171.107 132.603 171.492 132.718 172.024 132.767C172.786 132.837 173.356 133.009 173.672 133.166C174.006 133.333 174.398 133.613 174.689 133.832C174.834 133.929 174.956 134.05 175.077 134.195C175.149 134.268 175.245 134.34 175.489 134.559" stroke="#020205" stroke-width="3.82046" stroke-linecap="round"/>
<path d="M299.069 54.5675C298.35 56.3896 297.788 57.592 297.365 58.2074C297.127 58.5541 296.871 58.9906 296.232 59.6685C295.592 60.3463 294.585 61.2574 293.839 61.8946C292.663 62.8985 291.88 63.3571 291.096 63.6949C289.932 64.1968 289.021 64.3997 288.635 64.472C288.146 64.5634 286.898 64.6423 285.277 64.582C284.371 64.5484 283.839 64.4483 283.188 64.4124C281.62 64.3258 281.102 64.0371 280.063 63.6749C279.662 63.5354 278.926 63.1675 277.862 62.672C277.061 62.2986 276.645 61.9549 276.403 61.7736C275.579 61.1549 274.346 60.3085 273.499 59.6558C272.838 59.1463 272.189 58.6375 271.79 58.2986C271.221 57.8152 271.05 57.6196 270.929 57.5706C270.725 57.4874 270.566 57.9328 269.929 58.3418C269.403 58.6796 268.405 59.1824 267.647 59.6459C266.351 60.4386 265.387 61.1521 264.601 61.5756C263.62 62.1039 262.24 63.065 261.535 63.3455C260.559 63.7333 260.322 63.8424 260.201 63.963C259.848 64.3133 260.973 64.9787 262.095 65.8248C263.08 66.567 263.856 66.8699 264.205 67.0141C264.89 67.2971 265.549 67.6683 266.009 67.8256C266.318 67.9315 266.928 68.1035 268.038 68.4537C269.418 68.8891 270.37 69.0255 271.019 69.0855C272.394 69.2123 273.517 69.3888 273.988 69.4008C274.437 69.4122 275.353 69.4614 276.491 69.4734C277.102 69.4799 277.441 69.5341 278.307 69.4502C280.235 69.2633 281.583 69.0015 281.788 68.9652C282.281 68.878 283.344 68.7117 284.197 68.5297C285.04 68.3499 286.012 68.0825 286.511 67.8758C286.986 67.6789 287.539 67.5971 288.808 66.9454C289.448 66.6169 289.937 66.2908 290.711 65.7942C291.172 65.4988 291.487 65.1763 291.935 64.8011C292.542 64.2931 292.892 64.0386 293.183 63.7832C293.499 63.5063 293.812 63.0941 294.128 62.7301C294.376 62.4439 294.805 62.1016 295.036 61.7613C295.273 61.414 295.533 61.1324 295.715 60.8048C295.908 60.4563 295.993 60.0906 296.09 59.7996C296.19 59.5007 296.357 59.1708 296.55 58.7952C296.863 58.1874 296.986 57.8383 297.276 57.4391C297.729 56.8159 298.076 56.3853 298.209 56.0823C298.365 55.7297 298.559 55.3449 298.706 54.9442C298.762 54.7896 298.827 54.6408 298.864 54.5079C298.9 54.3757 298.634 54.3495 298.202 54.2536C297.178 54.0267 295.999 53.4566 295.092 52.9004C294.475 52.5219 293.627 51.9556 292.574 51.3867C291.779 50.957 291.249 50.9115 290.499 50.7176C289.957 50.5772 288.378 50.1632 287.519 49.8697C287.191 49.7576 286.697 49.6517 286.296 49.5304C286.214 49.5057 286.139 49.5776 286.102 49.6383C286.03 49.7558 285.921 50.3485 285.595 51.3631C285.054 53.0484 284.661 53.4268 284.346 53.9601C284.22 54.1749 283.984 54.5646 283.465 55.2762C282.245 56.9519 281.829 57.4692 281.428 57.9807C281.104 58.3949 280.714 58.8279 280.35 59.1435C280.052 59.4021 279.745 59.7244 279.454 59.9431C279.179 60.1502 278.946 60.403 278.655 60.585C278.365 60.7664 277.762 60.9116 277.275 61.0816C277.082 61.1063 276.911 61.1303 276.766 61.1666C276.693 61.1789 276.621 61.1789 276.547 61.1789" stroke="#020205" stroke-width="3.82046" stroke-linecap="round"/>
<path d="M291.27 95.4996C291.305 95.4824 291.339 95.4653 292.299 95.4222C293.26 95.3791 295.145 95.3105 296.185 95.2923C297.225 95.2741 297.362 95.3084 297.819 95.4975C298.275 95.6866 299.046 96.0294 299.812 96.506C300.578 96.9825 301.315 97.5825 301.721 97.9172C302.182 98.2981 302.436 98.7164 302.791 99.3132C303.249 100.084 303.753 100.779 303.849 101.048C303.936 101.293 304.099 101.661 304.213 102.043C304.265 102.218 304.462 103.041 304.705 104.184C304.876 104.993 304.862 105.903 304.862 106.578C304.863 107.685 304.81 109.04 304.879 108.91C305.043 108.603 305.26 108.227 305.766 107.822C306.182 107.49 307.01 107.024 307.502 106.733C308.139 106.358 308.633 106.064 309.17 105.657C309.48 105.422 310.137 104.888 311.132 104.196C312.008 103.586 312.393 103.5 312.79 103.266C313.301 102.966 313.553 102.721 313.787 102.547C313.842 102.507 313.848 102.427 313.84 102.357C313.823 102.214 313.676 101.925 313.512 101.528C313.386 101.223 313.071 100.647 312.357 99.2854C311.881 98.3786 311.111 97.0672 310.679 96.3358C310.248 95.6045 310.162 95.5016 309.929 95.1744C309.697 94.8472 309.32 94.2986 308.92 93.7932C308.144 92.8129 307.513 92.2801 307.219 92.0986C306.883 91.8908 306.51 91.6402 305.722 91.1641C305.151 90.8188 304.674 90.6003 304.266 90.4271C303.921 90.2801 303.085 89.9957 302.483 89.8295C302.102 89.7244 301.628 89.5272 301.167 89.3537C300.482 89.0955 300.017 89.042 299.376 88.9033C298.594 88.7341 297.557 88.5049 297.116 88.4787C296.724 88.4554 296.448 88.4182 296.319 88.4093C296.199 88.4012 295.965 88.693 295.362 89.2532C294.962 89.6243 294.313 90.1048 293.909 90.438C293.338 90.9096 293.107 91.153 292.874 91.3854C292.16 92.0986 291.775 92.6739 291.298 93.1951C291.001 93.5193 290.856 93.8187 290.648 94.1823C290.44 94.5116 290.267 94.8233 290.189 95.0399C290.18 95.1006 290.18 95.1692 290.18 95.2398" stroke="#020205" stroke-width="3.82046" stroke-linecap="round"/>
<path d="M253.543 37.8638C253.543 37.8398 253.543 37.8158 253.723 37.0483C253.902 36.2807 254.262 34.7702 254.507 33.8362C254.752 32.9023 254.872 32.5906 255.198 31.9505C255.523 31.3104 256.051 30.3514 256.706 29.3899C257.361 28.4283 258.129 27.4932 258.752 26.8317C259.77 25.7505 260.491 25.2482 260.902 24.8617C261.338 24.4507 261.847 24.1577 262.654 23.8562C263.212 23.6478 264.108 23.4348 264.781 23.2154C265.901 22.85 266.45 22.5346 266.931 22.3058C267.87 21.8594 268.701 21.6141 269.268 21.5055C270.866 21.199 271.245 21.2748 272.11 21.2265C274.219 21.1087 275.414 21.1535 275.039 21.1415C274.558 21.1261 274.13 20.9123 272.391 20.2722C271.993 20.1257 271.854 20.0172 271.181 19.5122C270.507 19.0073 269.309 18.0962 268.631 17.6029C267.66 16.8961 267.084 16.6751 266.079 15.9493C265.627 15.6225 265.314 15.4633 264.963 15.1487C264.815 15.0161 264.635 14.954 264.358 14.9776C264.172 14.9935 263.913 15.145 262.758 15.5425C261.604 15.9399 259.566 16.6112 258.396 16.981C257.226 17.3508 256.987 17.3987 256.228 17.7351C255.469 18.0715 254.198 18.6949 252.728 19.5794C251.259 20.464 249.628 21.5909 248.393 22.567C247.157 23.5431 246.366 24.3343 245.899 24.8258C245.431 25.3173 245.311 25.4851 244.89 26.1829C244.468 26.8808 243.749 28.1035 243.295 28.9372C242.63 30.1564 242.404 31.03 242.21 32.0315C241.804 34.1381 241.918 34.521 241.966 34.6659C242.101 35.0728 243.146 35.6304 244.322 36.2389C246.609 37.4221 247.292 37.1605 247.729 37.2219C248.118 37.2765 248.983 37.3785 249.799 37.4399C250.32 37.5005 250.805 37.5245 251.37 37.5608C251.839 37.5732 252.678 37.5732 253.688 37.5005" stroke="#020205" stroke-width="3.82046" stroke-linecap="round"/>
<path d="M167.321 2.78298C165.555 3.00094 165.022 3.09684 164.166 3.39835C162.854 3.86043 161.97 4.50123 161.716 4.71883C161.228 5.13739 160.544 5.63681 159.589 6.59111C159.047 7.13262 158.161 8.18694 157.583 8.90985C156.734 9.97366 156.448 10.6753 156.231 11.1828C156.037 11.633 155.747 12.3442 155.348 13.1786C154.852 14.2145 154.558 14.9626 154.522 15.4349C154.475 16.0297 154.365 16.9926 154.195 17.6388C154.056 18.1689 154.098 19.3378 154.037 20.1693C153.98 20.9683 153.952 21.9315 153.832 22.8568C153.741 23.5569 153.735 23.899 153.77 24.2376C153.799 24.5016 154.768 25.1065 156.039 25.9416C156.901 26.5085 157.799 27.0231 158.238 27.3148C158.581 27.5424 159.085 27.799 159.593 28.1136C159.973 28.3482 160.272 28.5256 160.515 28.5873C160.832 28.6679 160.587 27.5389 160.697 25.1708C160.762 23.7597 161.048 22.8855 161.156 22.4274C161.32 21.7362 161.507 20.8781 161.761 20.1762C161.9 19.7917 162.065 19.6153 162.497 19.0864C162.864 18.6381 163.601 17.8862 164.091 17.3951C164.582 16.9039 164.821 16.7121 165.58 16.2657C166.339 15.8192 167.61 15.1239 168.336 14.7417C169.589 14.0828 170.873 13.6592 171.641 13.3552C172.801 12.8956 173.688 12.6406 174.378 12.3144C174.682 12.1706 173.865 10.9529 172.958 9.64546C172.573 9.09124 172.167 8.55166 171.623 7.74121C171.004 6.81883 170.519 6.2718 170.241 5.83697C169.518 4.70751 168.851 3.95124 168.315 3.20909C168.05 2.88324 167.806 2.56647 167.613 2.31254C167.515 2.20247 167.42 2.13055 167.321 1.91113" stroke="#020205" stroke-width="3.82046" stroke-linecap="round"/>
<path d="M63.4591 240.438C63.3905 241.158 63.3209 241.82 63.2261 242.407C63.1297 243.005 62.7345 243.758 62.1392 244.63C61.5406 245.508 60.7601 245.856 60.3885 246.064C60.1109 246.219 59.876 246.324 59.6516 246.445C59.4115 246.575 58.6517 246.824 57.5285 247.283C56.0586 247.882 55.5315 247.796 55.0633 247.823C54.2875 247.866 53.1754 247.832 52.8811 247.762C52.6087 247.698 52.1386 247.417 51.8075 247.338C51.6312 247.295 51.4784 247.588 50.98 248.001C50.5745 248.336 49.8303 248.893 49.382 249.253C48.5623 249.912 48.3967 250.134 48.2317 250.306C48.0412 250.506 47.8253 250.635 47.6601 250.783C47.4896 250.935 47.979 251.258 48.2904 251.596C48.4441 251.763 48.74 251.985 49.4114 252.519C49.8839 252.895 50.6655 253.43 51.1657 253.764C52.1533 254.423 52.5843 254.479 53.025 254.558C53.734 254.684 54.1592 254.618 54.6269 254.713C55.0898 254.807 55.5097 254.809 56.1068 254.809C56.6459 254.81 57.2571 254.568 58.6136 254.377C59.0406 254.317 59.5021 254.205 60.1947 253.963C60.8874 253.722 61.7959 253.345 62.4181 253.099C63.0404 252.853 63.3489 252.751 64.0907 252.303C64.8324 251.856 65.998 251.068 66.6413 250.61C67.2847 250.152 67.3704 250.05 67.6288 249.791C68.307 249.112 68.8944 248.526 69.145 248.232C69.3241 248.021 69.8953 247.404 70.648 246.504C71.2376 245.799 71.5788 245.305 71.6572 245.036C71.7079 244.862 71.7003 244.698 71.7094 244.611C71.7383 244.336 70.9253 244.473 70.1631 244.231C69.8968 244.147 69.5437 243.973 69.0497 243.731C67.9294 243.181 67.1314 242.759 66.7946 242.612C66.0864 242.304 65.6074 241.807 65.2358 241.556C64.4813 241.01 64.2735 240.82 64.1268 240.647C64.0486 240.56 63.9629 240.474 63.7707 240.282" stroke="#020205" stroke-width="3.82046" stroke-linecap="round"/>
<path d="M2.16987 80.1472C2.20415 80.25 2.23844 80.3529 2.91603 81.0658C3.59363 81.7787 4.9135 83.0986 6.15909 84.1042C7.40468 85.1098 8.536 85.7612 10.3272 86.5167C12.1185 87.2722 14.5354 88.1121 16.2776 88.6219C18.0197 89.1318 19.0139 89.286 20.2374 89.3826C21.461 89.4792 22.8837 89.5135 23.9766 89.4883C25.0694 89.4631 25.7894 89.3774 26.2717 89.299C26.7539 89.2206 26.9768 89.152 27.6915 88.8681C28.4063 88.5843 29.6061 88.0872 30.37 87.7283C31.1338 87.3693 31.4252 87.1636 32.1838 86.4063C32.9424 85.649 34.1594 84.3462 34.8207 83.6494C35.6591 82.766 36.0336 82.1771 36.3821 81.8101C36.5778 81.604 36.7971 81.2743 36.9802 81.0136C37.1741 80.7375 36.2642 81.0988 35.6925 81.3237C35.438 81.4239 35.2238 81.48 34.8196 81.6263C33.3134 82.1712 32.9222 82.2758 32.5147 82.389C32.1188 82.499 31.7098 82.6571 30.4146 82.9682C29.7339 83.1317 29.0441 83.2118 28.3696 83.2549C27.8027 83.2912 26.8661 83.1952 25.8114 83.0656C25.0625 82.9736 24.6108 82.8487 24.3085 82.7622C24.0297 82.6825 23.4706 82.5724 22.7873 82.3906C21.855 82.1425 20.7675 81.7761 20.3429 81.585C19.8553 81.3655 19.417 81.0666 18.7095 80.5144C18.3049 80.1986 17.6281 79.6049 17.2492 79.2875C16.8231 78.9307 16.543 78.6777 16.1454 78.2801C15.4679 77.6026 15.0008 76.721 14.8014 76.4083C14.6357 76.1487 14.3266 75.6323 13.85 74.8171C13.6113 74.4087 13.4249 74.1748 13.2 73.8805C13.1469 73.8111 13.1132 73.7592 13.0527 73.7499C12.9061 73.7272 12.2354 74.153 11.3009 74.7152C10.8318 74.9975 10.4662 75.2973 9.90495 75.6515C8.96858 76.2425 8.50899 76.4062 7.79295 76.7945C7.39709 77.0092 6.68579 77.3184 6.26375 77.529C5.84172 77.7396 5.72173 77.8253 5.24853 78.0495C3.96383 78.658 3.05342 79.0216 2.94122 79.0733C2.6384 79.2636 2.29246 79.4366 2.06676 79.5667C2.01456 79.5929 1.96314 79.6101 1.91016 79.6278" stroke="#020205" stroke-width="3.82046" stroke-linecap="round"/>
<path d="M72.4199 215.086C72.9003 215.146 74.619 215.477 76.9082 215.962C77.8566 216.163 78.8408 216.539 80.2351 216.949C81.3065 217.263 82.4229 217.27 83.5165 217.451C84.6772 217.643 86.277 218.24 87.4721 218.557C89.1669 219.008 89.6143 218.968 90.2353 218.788C91.2156 218.503 92.1911 217.696 92.7984 217.347C93.6367 216.866 94.6167 216.06 95.3605 215.558C96.1315 215.038 97.4627 214.544 98.6051 213.936C99.0356 213.706 100.372 212.91 102.16 211.728C103.546 210.812 104.202 210.266 105.271 209.542C106.113 208.973 107.631 208.099 108.495 207.559C109.943 206.655 110.63 206.051 111.78 205.309C112.322 204.96 113.194 204.392 114.078 203.828C115.826 202.712 116.91 202.016 117.453 201.639C118.312 201.041 119.394 200.441 120.272 199.805C121.603 198.841 122.551 198.165 123.157 197.876C123.705 197.615 124.158 197.255 124.629 196.921C124.962 196.684 125.312 196.527 125.691 196.314C126.054 196.109 125.768 195.435 125.722 194.995C125.654 194.344 125.766 193.253 125.903 192.45C126.249 190.427 126.343 189.461 126.404 188.885C126.523 187.759 126.586 187.034 126.632 185.516C126.674 184.118 126.647 181.445 126.662 179.994C126.679 178.391 126.738 177.757 126.723 176.924C126.695 175.332 126.707 173.508 126.814 173.008C126.975 172.25 126.92 170.607 127.071 169.067C127.191 167.841 127.284 166.626 127.36 165.355C127.447 163.882 127.405 162.862 127.451 162.215C127.561 160.641 127.436 159.495 127.391 159.193C127.31 158.657 127.435 158.131 127.526 157.348C127.849 154.57 127.648 153.768 127.724 152.932C127.798 152.108 127.649 151.548 127.467 151.473C126.824 151.205 125.921 150.821 125.482 150.639C124.714 150.32 124.283 150.154 123.919 150.032C123.545 149.907 123.132 149.699 122.736 149.426C122.411 149.202 121.949 149.093 121.282 148.925C120.633 148.762 120.28 148.607 119.825 148.47C119.298 148.312 118.915 147.97 118.536 147.697C118.309 147.606 118.065 147.485 117.823 147.333C117.702 147.272 117.581 147.242 117.458 147.12" stroke="#020205" stroke-width="3.82046" stroke-linecap="round"/>
<path d="M77.6542 216.699C77.1017 217.834 76.7403 218.619 76.5473 219.059C76.3132 219.594 76.0274 219.969 75.4121 220.484C74.9035 220.911 73.9374 221.599 73.148 222.062C72.3585 222.525 71.76 222.725 70.8915 222.943C70.023 223.161 68.9026 223.391 67.773 223.525C66.6434 223.659 65.5384 223.689 64.9077 223.698C64.2771 223.706 64.1543 223.69 63.7918 223.606C63.4293 223.521 62.8308 223.368 62.2922 223.174C61.7537 222.979 61.2933 222.749 60.8873 222.5C60.1187 222.029 59.5656 221.506 59.1631 221.12C58.87 220.838 58.6345 220.575 58.0032 219.845C57.4914 219.252 56.6659 218.147 56.1697 217.47C55.6735 216.794 55.5507 216.564 55.2112 215.747C54.8717 214.93 54.3192 213.533 53.9655 212.238C53.6118 210.944 53.4737 209.792 53.4026 209.061C53.3047 208.056 53.3467 207.647 53.4007 207.338C53.4769 206.901 53.6253 206.531 53.7644 206.222C54.1243 205.422 54.3843 204.889 54.6789 204.438C54.7456 204.336 54.8336 204.268 55.2491 203.952C55.6646 203.636 56.4166 203.083 56.8577 202.768C57.3991 202.381 57.7472 202.236 58.2418 202.066C58.7838 201.879 59.2823 201.863 59.7762 201.84C60.0865 201.826 60.5157 201.771 61.0287 201.747C61.5416 201.724 62.1248 201.724 62.548 201.747C63.2193 201.783 63.5925 201.909 64.0625 202.04C64.9663 202.293 65.716 202.436 66.0023 202.544C66.4649 202.72 66.8015 203.04 67.6051 203.766C67.8662 204.003 68.0999 204.307 68.3952 204.695C68.6906 205.083 69.0282 205.559 69.2635 205.934C69.4988 206.31 69.6216 206.571 69.7693 206.943C70.103 207.784 70.3057 208.496 70.3908 208.852C70.4705 209.185 70.5229 209.427 70.6236 209.683C70.7332 209.962 70.7713 210.248 70.8485 210.566C70.8905 210.74 70.9103 211.084 70.9801 211.487C71.1027 212.195 71.2977 213.194 71.3447 213.481C71.3887 213.75 71.5609 214.046 71.6777 214.303C71.8869 214.605 72.0418 214.791 72.2585 214.916C72.3208 214.931 72.3822 214.931 72.4455 214.978" stroke="#020205" stroke-width="3.82046" stroke-linecap="round"/>
<path d="M59.839 221.396C59.2097 221.81 58.5805 222.225 57.911 222.53C57.2416 222.836 56.551 223.02 56.0264 223.138C55.5018 223.256 55.1642 223.302 54.6603 223.325C54.1564 223.349 53.4964 223.349 53.0107 223.326C52.2311 223.289 51.8408 223.179 51.6092 223.117C50.9975 222.954 50.3712 222.746 49.7804 222.397C49.6098 222.296 49.3797 222.173 48.9005 221.749C48.4212 221.326 47.6999 220.604 47.2209 220.102C46.7419 219.6 46.527 219.339 46.071 218.645C45.615 217.95 44.9244 216.83 44.4996 216.099C43.9062 215.079 43.779 214.653 43.679 214.299C43.4802 213.595 43.2674 213.057 43.2288 212.833C43.1871 212.591 43.1279 212.328 43.0509 211.851C42.996 211.51 42.8818 210.974 42.8188 210.106C42.7558 209.239 42.7405 208.057 42.7402 207.41C42.74 206.686 42.8632 206.346 43.0948 205.789C43.3629 205.145 43.7771 204.594 44.0712 204.145C44.296 203.802 44.6747 203.247 45.209 202.635C45.6252 202.158 46.2247 201.897 46.8923 201.515C47.4192 201.215 47.8855 201.213 48.5245 201.051C49.0228 200.924 49.8848 200.751 50.5731 200.656C51.2613 200.561 51.7525 200.561 52.1436 200.584C52.8133 200.623 53.203 200.731 53.4502 200.808C54.1713 201.034 54.6135 201.66 54.7693 201.87C54.8312 201.986 54.9088 202.111 55.0016 202.227C55.0484 202.281 55.0944 202.327 55.1418 202.375" stroke="#020205" stroke-width="3.82046" stroke-linecap="round"/>
<path d="M46.2136 219.769C46.2136 219.799 46.0447 220.045 45.6048 220.525C45.0517 221.127 44.5245 221.334 44.255 221.434C43.2467 221.809 42.8819 221.799 42.411 221.9C41.0513 222.19 40.7119 221.846 40.3168 221.738C40.0036 221.652 39.5506 221.428 38.8786 221.135C38.4906 220.966 38.0378 220.688 37.5934 220.401C37.149 220.113 36.7347 219.806 36.314 219.425C35.4433 218.637 34.9753 218.079 34.8053 217.917C34.3866 217.518 34.1852 217.197 33.9678 216.832C33.7107 216.402 33.3648 215.881 32.8295 214.921C32.4762 214.287 32.371 213.724 32.2163 213.415C32.0367 213.056 31.9213 212.594 31.8206 211.984C31.6834 211.153 31.7041 210.423 31.6343 209.737C31.5881 209.282 31.6106 208.605 31.7104 207.759C31.8101 206.912 32.0096 205.914 32.1584 205.308C32.3555 204.506 32.617 204.16 32.8337 203.85C33.0016 203.61 33.1597 203.399 33.4146 203.145C33.7782 202.781 34.1354 202.346 34.5605 202.021C35.0018 201.684 35.6222 201.446 36.2259 201.222C36.6619 201.06 37.0346 201.012 37.5973 200.873C37.9871 200.776 38.6051 200.703 39.0518 200.655C40.102 200.544 40.6598 200.515 41.2044 200.584C41.5843 200.633 41.9182 200.763 42.3268 200.855C43.5899 201.141 43.932 201.582 44.1822 201.863C44.2287 201.91 44.2901 201.956 44.3524 202.002C44.4147 202.049 44.4761 202.095 44.5393 202.189" stroke="#020205" stroke-width="3.82046" stroke-linecap="round"/>
<path d="M31.5681 207.535C30.2961 207.141 29.7502 206.96 27.4601 206.371C26.0032 205.996 23.4013 205.633 22.011 205.401C20.5038 205.15 19.7764 205.019 18.7465 204.777C18.0838 204.621 17.3489 204.503 16.3058 204.276C15.124 204.019 14.2827 203.926 13.9047 203.82C13.505 203.708 12.6195 203.533 11.5136 203.245C10.232 202.912 8.76718 202.593 7.99016 202.501C6.89027 202.371 5.519 201.865 4.9417 201.712C4.46411 201.586 3.73023 201.441 2.8504 201.017C1.75993 200.491 2.09067 199.11 1.98285 198.453C1.85742 197.689 1.96693 196.467 2.0429 195.544C2.15335 194.202 2.48191 193.196 2.55879 192.449C2.6107 191.944 2.69481 191.523 2.80127 190.813C2.91951 190.023 2.84676 189.31 2.89225 188.661C2.96915 187.564 2.87769 186.731 2.81719 185.798C2.76649 185.016 2.75668 183.604 2.71119 182.652C2.6657 181.7 2.60565 181.249 2.5597 180.402C2.51375 179.554 2.48373 178.323 2.55833 177.239C2.63294 176.154 2.81309 175.253 2.9059 174.489C3.17436 172.278 3.08969 171.357 3.16521 170.132C3.26051 168.585 3.24073 167.142 3.33171 166.099C3.44587 164.791 3.48275 163.353 3.66472 162.172C3.85547 160.933 3.87762 160.255 3.92357 159.558C3.95883 159.023 5.11502 158.406 6.9179 157.618C9.42538 156.522 9.78986 155.917 10.6833 155.433C11.3685 155.067 12.0918 154.765 12.6418 154.567C12.7332 154.521 12.8233 154.461 12.9161 154.399" stroke="#020205" stroke-width="3.82046" stroke-linecap="round"/>
<path d="M14.0078 163.224C15.5691 163.464 16.7938 163.678 18.1063 163.919C18.9962 164.083 20.3495 164.281 21.1056 164.389C21.8617 164.497 21.9818 164.497 23.0945 164.678C24.2073 164.858 26.309 165.218 27.5719 165.404C28.8348 165.589 29.1951 165.589 32.8036 166.205C36.4121 166.82 43.2578 168.051 46.8895 168.716C50.5212 169.38 50.7313 169.44 51.8455 169.651C52.9596 169.862 54.9713 170.222 56.0977 170.438C57.2241 170.654 57.4042 170.714 58.4278 170.91C59.4514 171.106 61.3129 171.436 62.347 171.606C63.8001 171.845 64.4701 171.927 65.3204 172.124C66.1933 172.326 67.0487 172.413 69.7559 172.821C71.128 173.027 72.2039 173.232 73.5073 173.383C74.4187 173.489 75.5067 173.596 76.4061 173.747C77.203 173.881 78.4801 173.96 79.091 174.035C79.6352 174.103 80.6019 174.142 81.9544 174.293C82.215 174.324 82.3652 174.324 82.4875 174.339C82.6099 174.354 82.7 174.384 82.7928 174.415" stroke="#020205" stroke-width="3.82046" stroke-linecap="round"/>
<path d="M82.9082 174.299C83.3375 173.955 83.666 173.671 84.1614 173.294C85.1673 172.528 86.0078 172.109 86.5568 171.819C87.0043 171.582 87.7713 171.121 89.4359 170.266C91.1005 169.411 93.6335 168.166 95.0028 167.482C96.5096 166.729 96.9126 166.473 97.4106 166.191C97.7932 165.975 98.5141 165.542 99.4567 165.044C100.217 164.642 100.643 164.413 101.12 164.066C101.502 163.787 102.073 163.46 102.593 163.07C102.921 162.823 103.739 162.334 104.812 161.63C105.324 161.294 105.845 161.074 106.462 160.695C107.505 160.056 108.795 159.382 109.133 159.143C109.302 159.024 109.555 158.861 110.234 158.474C111.6 157.694 112.505 157.104 112.796 156.975C113.42 156.698 113.978 156.282 114.346 155.925C114.707 155.574 115.364 155.135 116.057 154.528C116.816 153.863 117.253 153.765 117.675 153.56C118.055 153.375 118.489 153.245 118.749 153.093C118.879 153.007 119.031 152.941 119.183 152.877C119.249 152.833 119.291 152.769 119.336 152.768" stroke="#020205" stroke-width="3.82046" stroke-linecap="round"/>
<path d="M27.6819 164.476C27.5303 163.891 27.1862 163.159 26.8912 162.645C26.7913 162.471 26.0407 162.03 24.9895 161.466C24.2404 161.064 23.6072 160.855 22.6445 160.434C22.0637 160.18 21.2693 159.925 20.7876 159.674C20.4657 159.506 20.0724 159.294 19.5966 159.046C18.7144 158.585 18.2732 158.341 17.6019 157.897C17.2317 157.652 16.9501 157.56 16.6248 157.332C16.143 156.995 15.519 156.541 14.7726 155.957C14.4008 155.666 14.11 155.436 13.7841 155.11C13.4732 154.8 13.1993 154.352 12.8627 154.058C12.4658 153.713 12.1156 152.987 11.8323 152.411C11.6692 152.08 11.659 151.664 11.5933 151.273C11.4945 150.685 11.4417 150.384 11.4303 149.659C11.4186 148.91 11.5705 147.869 11.7335 147.435C11.8772 147.052 12.1117 146.569 12.4591 145.659C12.7295 144.95 13.1525 144.594 14.2557 143.06C14.8434 142.242 15.061 141.84 15.2676 141.58C15.4822 141.309 15.8195 141.082 16.1776 140.799C16.5863 140.477 16.9904 140.192 17.489 139.846C17.6042 139.766 17.663 139.694 17.7284 139.682C17.7938 139.67 17.8582 139.713 17.9021 139.767C18.1275 140.046 18.2927 140.515 18.6277 141.186C19.0461 142.023 19.85 142.919 20.222 143.388C20.4654 143.695 20.7633 143.962 21.0566 144.299C21.4094 144.704 21.8483 145.09 22.2487 145.502C22.5128 145.774 22.8019 145.958 23.1271 146.25C23.503 146.588 24.5738 147.19 25.8999 147.865C26.2881 148.063 27.0899 148.084 27.8426 147.954C28.0629 147.916 28.3519 147.673 28.8274 147.37C30.0797 146.573 30.933 145.592 31.0856 145.277C31.2469 144.943 31.4105 144.659 31.7247 143.244C32.076 141.662 31.4352 140.975 31.1848 140.507C30.7344 139.666 30.3931 139.325 30.0471 138.935C29.7639 138.616 29.0531 137.619 28.2081 136.286C27.7933 135.632 27.5954 135.465 27.5521 135.335C27.5303 135.27 27.5089 135.205 27.5515 135.14C27.7748 134.797 28.2868 134.836 28.818 134.803C29.5669 134.757 30.3021 134.706 31.9569 134.726C32.4492 134.733 32.9196 134.855 33.5278 134.921C34.8625 135.065 35.6823 135.095 35.8121 135.149C35.9507 135.207 36.8454 135.655 38.1567 136.273C38.9083 136.627 39.3439 137.088 40.3196 138.03C40.625 138.325 40.7561 138.564 40.9074 138.78C41.0739 139.018 41.8132 139.901 42.7668 141.276C43.3498 142.117 43.3795 143.113 43.5096 144.13C43.67 145.384 43.4888 145.784 43.4134 146.131C43.3295 146.517 43.1428 146.975 42.9798 147.378C42.8124 147.791 42.6653 148.319 41.8769 150.255C41.4553 151.29 41.2342 151.638 41.0827 151.942C40.8867 152.335 40.801 152.787 40.6488 153.501C40.4916 154.238 40.6481 154.847 41.0134 155.848C41.3347 156.727 42.0226 158.329 42.5372 159.427C43.3206 161.098 43.8134 161.764 43.9647 162.067C44.0431 162.224 44.1588 162.37 44.5468 162.962C44.9349 163.555 45.6003 164.585 46.0934 165.288C47.1714 166.824 47.4126 167.077 47.6403 167.445C47.8465 167.728 48.0631 168.03 48.3015 168.302C48.3669 168.357 48.4313 168.4 48.4976 168.444" stroke="#020205" stroke-width="3.82046" stroke-linecap="round"/>
<path d="M13.2246 162.645C13.59 162.379 13.6898 162.301 14.003 162.115C14.2871 161.945 14.8099 161.599 15.1087 161.413C15.4569 161.196 15.6066 161.116 15.8383 160.961C16.1669 160.742 16.5259 160.595 16.8573 160.424C17.617 160.032 17.7013 159.808 17.8458 159.725C17.9726 159.652 18.1116 159.575 18.2723 159.487C18.4116 159.41 18.5438 159.321 18.677 159.248C18.8101 159.154 18.9428 159.065 19.1036 158.977C19.1426 158.944 19.1756 158.9 19.2095 158.854" stroke="#020205" stroke-width="3.82046" stroke-linecap="round"/>
<path d="M46.0246 121.869C45.0716 121.371 44.682 121.241 43.6012 120.82C42.9237 120.555 42.2973 120.634 41.9076 120.644C41.0405 120.668 39.9985 120.742 39.479 120.785C38.4935 120.868 37.8974 121.11 36.8458 121.499C36.4113 121.66 36.0305 121.76 35.3302 122.062C34.8059 122.288 33.9216 122.621 33.3608 122.863C32.8001 123.104 32.5854 123.233 32.0563 123.471C31.5271 123.709 30.6899 124.053 29.8615 124.455C29.0331 124.857 28.2389 125.308 27.7546 125.594C26.7012 126.216 26.0129 126.617 25.6011 126.791C24.8592 127.104 24.1082 127.591 23.6379 127.853C23.4775 127.943 23.3231 128.027 23.2148 128.049C23.0922 128.074 23.1058 127.704 23.0733 127.176C23.0131 126.198 23.1696 125.212 23.461 124.423C24.039 122.858 24.4699 122.458 24.8605 121.526C24.985 121.229 25.3578 120.531 25.8236 119.535C26.0579 119.033 26.3349 118.642 26.6699 118.047C27.2752 116.972 27.98 116.172 28.352 115.507C28.4853 115.269 28.7202 115.062 29.1944 114.588C30.142 113.641 30.7374 112.85 30.8672 112.645C31.1106 112.259 31.4523 111.897 32.1015 111.183C32.5494 110.689 32.9471 110.142 33.5322 109.567C34.0649 109.043 34.6612 108.795 35.9622 108.107C37.1191 107.496 39.2595 106.303 41.0522 105.513C42.845 104.722 44.2188 104.357 45.1842 104.126C46.1495 103.895 46.6647 103.809 47.6921 103.711C48.7196 103.613 50.2437 103.506 51.1254 103.429C52.5749 103.303 53.0915 103.222 53.6523 103.125C54.0393 103.058 54.6423 103.007 56.358 102.909C58.0737 102.811 60.8857 102.683 62.388 102.627C64.3002 102.556 64.7796 102.636 64.9526 102.637C65.3437 102.637 65.538 102.204 65.8526 101.922C66.1116 101.69 66.4696 101.445 66.9038 101.239C67.3813 101.012 67.9006 100.795 69.5438 100.038C70.5409 99.5782 71.0009 99.5147 71.6608 99.3416C72.618 99.0907 73.4519 99.1023 73.7765 99.0915C74.7072 99.0608 76.0097 99.1231 76.7028 99.2964C77.8923 99.594 78.3085 100.077 78.57 100.337C79.1431 100.908 80.0648 101.811 80.4776 102.482C80.626 102.724 80.7387 102.939 80.8789 103.274C81.0893 103.776 81.5818 104.733 82.1122 106.117C82.6259 107.458 82.6473 108.359 82.6687 108.673C82.7177 109.388 82.8424 110.758 82.659 111.849C82.5855 112.286 82.2362 112.544 81.9005 112.881C81.64 113.142 81.3047 113.369 80.9147 113.639C80.0017 114.273 79.0722 114.302 78.5625 114.464C77.5647 114.782 76.8397 114.692 76.145 114.725C75.7978 114.741 74.978 114.779 73.9378 114.768C73.1282 114.76 72.2238 114.628 70.8025 114.573C69.9635 114.541 68.7996 114.433 67.9374 114.378C67.3626 114.341 66.2809 114.453 65.4668 114.853C64.365 115.395 63.96 116.227 63.2434 116.999C62.8478 117.426 62.4833 117.532 62.2121 117.76C61.9238 118.002 61.6377 118.182 61.3664 118.41C61.0868 118.645 60.7491 118.768 60.1865 118.952C59.3016 119.242 58.8848 119.223 58.3859 119.289C58.2545 119.306 58.1263 119.353 57.2657 119.515C56.4051 119.677 54.8166 119.956 53.5583 120.228C52.2999 120.501 51.4198 120.758 50.8913 120.902C49.7151 121.221 48.8451 121.565 48.5625 121.728C48.2894 121.885 47.9774 122.043 47.6629 122.129C47.522 122.173 47.3913 122.216 47.2615 122.249C47.1961 122.26 47.1317 122.26 46.9353 122.325" stroke="#020205" stroke-width="3.82046" stroke-linecap="round"/>
<path d="M65.2158 102.29C65.1293 102.745 64.914 103.648 64.7933 104.37C64.679 105.053 64.5874 105.432 64.5113 105.737C64.4477 105.991 64.4352 106.343 64.3812 106.809C64.3473 107.103 64.3051 107.921 64.6609 109.494C64.9787 110.898 65.3667 111.266 65.4757 111.634C65.575 111.97 65.9079 112.392 66.0718 112.751C66.2157 113.066 66.5155 113.347 66.6573 113.608C66.7327 113.737 66.7984 113.868 66.8632 114.009C66.9064 114.085 66.9708 114.171 67.0372 114.259" stroke="#020205" stroke-width="3.82046" stroke-linecap="round"/>
<path d="M77.2506 99.623C76.2319 100.663 76.0589 100.966 75.5287 102.835C75.3309 103.533 75.2991 104.022 75.2451 104.629C75.1489 105.711 75.169 106.577 75.223 107.221C75.2548 107.601 75.2991 108.034 75.3746 108.382C75.5306 109.101 76.0134 109.855 76.0904 110.214C76.1596 110.536 76.6183 111.262 76.9787 111.861C77.3011 112.398 77.5745 112.957 77.77 113.26C78.0065 113.519 78.333 113.802 78.6254 114.008C78.7461 114.085 78.8105 114.107 78.8768 114.129" stroke="#020205" stroke-width="3.82046" stroke-linecap="round"/>
<path d="M47.0664 122.585C47.4099 124.173 47.7533 125.762 48.0483 127.053C48.3433 128.343 48.5794 129.288 48.7226 129.828C48.8951 130.479 49.146 131.359 49.4602 132.573C49.6502 133.307 49.8193 133.771 50.0034 134.539C50.2448 135.546 50.5348 136.352 50.6864 136.687C50.8232 136.99 50.9037 137.306 51.0978 137.845C51.4576 138.844 51.7057 139.691 51.9431 140.402C52.1141 140.914 52.3094 141.758 52.4736 142.318C52.6379 142.878 52.7452 143.135 52.8864 143.611C53.0275 144.088 53.1992 144.775 53.395 145.966C53.5908 147.157 53.8055 148.831 53.9161 149.758C54.0267 150.685 54.0267 150.814 54.0374 150.955C54.0481 151.097 54.0696 151.247 54.2524 153.75C54.4352 156.253 54.7786 161.104 54.9663 163.657C55.154 166.21 55.1754 166.318 55.1865 166.416C55.3001 167.425 55.6529 169.029 55.7069 169.3C55.7394 169.615 55.8045 169.81 55.8477 169.94C55.8695 170.005 55.891 170.07 55.9131 170.136" stroke="#020205" stroke-width="3.82046" stroke-linecap="round"/>
<path d="M61.1172 118.487C61.1816 119.689 61.246 120.892 61.3436 122.584C61.4411 124.277 61.5699 126.423 61.6577 127.615C61.7584 128.981 61.8542 129.327 61.9082 129.652C61.956 129.939 62.1781 130.925 62.4165 132.258C62.5134 132.799 62.5483 132.992 62.72 133.928C62.8689 134.739 63.2352 136.216 63.4336 137.032C63.659 137.961 63.7406 138.217 63.9449 139.175C64.1175 139.984 64.4711 141.442 64.9164 142.87C65.3616 144.298 65.8983 145.651 66.2284 146.53C66.692 147.764 66.8838 148.407 67.0893 148.873C67.252 149.241 67.641 150.158 68.096 151.458C68.3671 152.233 68.5744 153.023 68.8561 153.911C68.9736 154.282 69.009 154.499 69.2243 155.21C69.4396 155.922 69.826 157.124 70.0787 157.861C70.3314 158.599 70.4387 158.835 70.8804 160.792C71.3221 162.749 72.0949 166.419 72.493 168.836C72.8911 171.253 72.8911 172.305 72.9126 172.879" stroke="#020205" stroke-width="3.82046" stroke-linecap="round"/>
<path d="M42.541 140.242C42.7717 140.027 43.5139 139.423 44.2485 138.967C44.9165 138.551 45.6076 138.383 46.2411 138.051C47.0393 137.633 47.6088 137.298 47.8871 137.189C48.54 136.935 49.144 136.724 49.3688 136.538C49.4695 136.46 49.5783 136.413 49.6867 136.367C49.7337 136.336 49.7644 136.29 49.8425 136.196" stroke="#020205" stroke-width="3.82046" stroke-linecap="round"/>
<path d="M91.7559 114.779C92.271 115.702 92.7862 116.625 93.5883 117.595C94.3904 118.564 95.4637 119.551 96.3278 120.221C97.192 120.891 97.8145 121.213 98.425 121.464C99.5928 121.946 100.706 122.151 101.529 122.302C102.013 122.391 102.529 122.52 103.446 122.617C104.723 122.753 105.61 122.629 105.859 122.596C106.412 122.524 106.976 122.39 107.581 122.261C108.136 122.142 108.581 122.13 109.119 122.055C111.205 121.764 111.615 121.502 112.049 121.296C112.785 120.948 113.004 120.505 113.653 119.37C113.911 118.92 113.873 118.489 113.862 118.143C113.835 117.292 112.963 116.299 112.411 115.617C112.014 115.126 111.598 114.803 111.002 114.294C110.21 113.618 109.82 113.415 109.171 113.058C108.821 112.864 108.161 112.638 107.561 112.43C105.649 111.768 105.027 111.635 104.519 111.582C103.971 111.524 103.553 111.397 102.937 111.343C102.112 111.271 101.471 111.31 100.976 111.278C99.9243 111.209 99.0004 111.31 98.5889 111.396C98.0568 111.508 97.2473 111.807 96.3877 112.284C95.8353 112.591 95.7252 114.056 95.8097 114.929C95.8837 115.692 96.481 116.014 96.7744 116.275C97.0829 116.549 97.4568 116.73 97.7394 116.882C98.1513 117.104 99.0362 117.617 99.7432 117.858C100.293 118.045 100.796 118.032 101.131 118.053C101.619 118.085 102.419 118.162 103.328 118.14C104.379 118.116 105.194 117.946 105.751 117.891C106.137 117.853 106.434 117.686 106.641 117.447C106.866 117.188 106.999 116.84 107.021 116.678C107.063 116.36 106.417 116.039 105.895 115.81C105.524 115.648 105.287 115.474 104.865 115.322C104.702 115.3 104.55 115.278 104.226 115.246C103.989 115.235 103.603 115.235 103.139 115.17" stroke="#020205" stroke-width="3.82046" stroke-linecap="round"/>
<path d="M90.8005 115.911C90.7705 116.001 90.7405 116.091 90.3347 117.804C89.9289 119.517 89.1482 122.85 88.7311 124.687C88.3139 126.524 88.2839 126.764 88.0282 127.788C87.7725 128.813 87.2921 130.614 87.0146 131.602C86.7014 132.718 86.5852 132.955 86.4646 133.752C86.3625 134.428 86.224 135.66 86.1466 136.43C86.0693 137.199 86.0693 137.469 85.9492 138.299C85.6283 140.516 85.3414 142.203 85.3264 142.748C85.3113 143.294 85.0102 144.592 84.6313 146.258C84.4313 147.138 84.3115 147.933 84.0995 149.037C83.8837 150.16 83.8256 151.029 83.7196 151.588C83.609 152.172 83.4626 153.208 83.0249 155.876C82.7063 157.819 82.3171 160.976 82.0705 162.675C81.8239 164.375 81.7639 164.525 81.5077 165.578C81.2516 166.631 80.8012 168.583 80.5392 169.663C80.1507 171.265 79.9442 172.106 79.6407 173.605C79.5793 173.928 79.5493 174.078 79.5488 174.05C79.5484 174.023 79.5784 173.812 79.6093 173.414" stroke="#020205" stroke-width="3.82046" stroke-linecap="round"/>
<path d="M113.818 119.097C113.818 119.127 113.818 119.157 113.623 120.313C113.428 121.47 113.038 123.751 112.446 126.293C111.855 128.835 111.074 131.567 110.597 133.14C110.12 134.713 109.97 135.043 109.862 135.378C109.755 135.713 109.695 136.044 109.319 137.67C108.942 139.296 108.252 142.209 107.851 143.799C107.402 145.581 107.147 146.566 106.92 147.93C106.694 149.29 106.239 150.66 105.753 151.936C105.151 153.518 104.631 154.941 104.343 155.562C104.039 156.218 103.932 156.792 103.72 157.233C103.443 157.809 103.115 158.792 102.901 159.356C102.686 159.921 102.658 160.311 102.522 160.751C102.387 161.186 102.203 161.585 101.991 161.949C101.771 162.328 101.566 162.677 101.354 163.041C101.293 163.133 101.233 163.223 101.172 163.314C101.111 163.406 101.051 163.496 100.898 163.68" stroke="#020205" stroke-width="3.82046" stroke-linecap="round"/>
<path d="M43.8516 145.483C45.7914 144.422 46.3955 144.06 47.0943 143.755C48.21 143.269 49.853 142.058 50.3252 141.829C50.4316 141.784 50.5517 141.724 50.6586 141.663C50.7655 141.602 50.8556 141.542 51.1304 141.298" stroke="#020205" stroke-width="3.82046" stroke-linecap="round"/>
<path d="M110.998 136.111C112.18 136.444 112.603 136.686 114.282 138.258C114.891 138.829 115.303 139.022 115.515 139.203C115.695 139.357 115.729 139.688 115.699 140.051C115.658 140.553 115.005 141.112 114.548 141.494C114.063 141.903 113.547 142.297 113.365 142.464C113.274 142.54 113.184 142.6 113 142.844" stroke="#020205" stroke-width="3.82046" stroke-linecap="round"/>
<path d="M116.367 140.296C117.516 141.412 118.427 142.751 118.898 143.04C119.117 143.174 119.218 143.419 119.233 143.661C119.266 144.173 118.825 144.51 118.461 144.919C118.033 145.4 117.734 146.357 117.43 146.891C117.073 147.517 116.884 147.997 116.58 149.177C116.393 149.907 116.216 150.574 116.17 151.635C116.147 152.163 115.943 152.637 115.822 153.048C115.692 153.486 115.459 153.791 115.261 154.124C115.063 154.489 114.942 154.852 115.017 155.262C115.003 155.339 114.913 155.369 114.82 155.399" stroke="#020205" stroke-width="3.82046" stroke-linecap="round"/>
<path d="M63.1426 135.747C63.8641 135.957 65.4445 136.384 66.1274 136.55C66.445 136.627 67.0204 136.777 68.2428 137.049C71.5414 137.783 72.1774 137.809 72.6487 137.93C73.2913 138.096 73.9662 138.173 74.4534 138.294C75.5687 138.572 77.2726 139.052 77.8044 139.129C78.4288 139.219 79.2124 139.296 80.2888 139.447C81.45 139.609 82.0039 139.629 82.8832 139.674C83.3757 139.7 83.7944 139.81 84.1588 139.947C84.3404 140.052 84.5232 140.144 84.7048 140.205C84.7962 140.235 84.8863 140.265 85.0701 140.296" stroke="#020205" stroke-width="3.82046" stroke-linecap="round"/>
<path d="M65.4141 141.024C66.1947 141.205 67.7679 141.538 69.6472 141.902C70.557 142.078 70.9624 142.085 71.3254 142.176C71.6788 142.265 73.1051 142.417 75.4357 142.856C77.4834 143.241 78.5751 143.632 78.9077 143.753C79.6487 144.023 80.3921 144.147 81.1823 144.299C81.6175 144.383 82.0316 144.542 82.5025 144.603C82.9424 144.755 83.3373 144.785 83.5188 144.845C83.6102 144.876 83.7003 144.906 84.0661 144.937" stroke="#020205" stroke-width="3.82046" stroke-linecap="round"/>
<path d="M129.388 255.556C127.81 254.482 126.859 253.794 126.068 253.255C124.33 252.071 122.458 251.264 121.428 250.902C120.784 250.676 119.185 250.271 117.007 249.66C115.283 249.177 112.721 249.182 110.742 249.091C108.018 248.967 107.365 249.496 105.893 249.881C102.83 250.681 101.178 250.988 99.7272 251.485C98.3251 251.966 97.0052 252.977 96.5363 253.295C95.9881 253.667 95.8805 254.604 95.5986 255.282C95.2691 256.075 94.6629 256.639 94.2165 257.182C93.6995 257.811 93.6759 258.942 93.4425 260.364C93.0574 262.712 93.8615 263.917 94.1202 264.776C94.4241 265.785 94.9384 266.765 95.3848 267.489C95.8767 268.287 96.5778 269.071 97.5852 270.267C98.4024 271.238 99.5276 272.052 101.262 273.387C101.899 273.877 102.808 274.63 104.535 275.712C106.81 277.136 108.669 277.798 109.371 278.091C111.337 278.912 114.009 280.013 115.067 280.353C116.098 280.684 118.635 281.41 120.48 281.89C121.333 282.112 122.26 282.229 123.243 282.478C125.475 283.041 126.337 283.043 127.136 283.112C128.167 283.2 129.942 283.046 131.374 282.909C133.281 282.726 134.211 282.503 135.569 282.096C136.961 281.679 137.773 281.508 138.407 281.214C139.064 280.91 139.742 280.694 140.493 280.4C141.434 280.032 142.228 279.023 142.743 278.592C143.307 278.121 143.726 277.531 144.033 276.988C144.428 276.287 144.573 275.272 144.899 273.76C145.222 272.263 145.742 271.52 146.094 270.256C146.711 268.035 147.612 266.285 148.344 264.153C148.673 263.191 149.44 261.76 150.521 260.263C151.17 259.365 151.459 258.003 153.446 254.598C154.445 252.885 154.741 252.125 155.513 250.927C155.949 250.25 156.473 249.278 157.314 247.77C158.489 245.661 159.099 243.986 159.497 243.377C160.284 242.17 161.298 240.96 162.214 239.49C163.273 237.792 163.739 236.62 164.488 234.97C165.486 232.769 167.021 230.739 167.442 230.308C168.793 228.926 170.488 225.902 170.98 225.313C171.098 225.176 171.191 225.042 171.285 224.906C171.379 224.77 171.472 224.635 171.708 224.361" stroke="#020205" stroke-width="3.82046" stroke-linecap="round"/>
<path d="M124.361 250.484C124.748 249.691 125.135 248.898 125.957 247.256C126.779 245.613 128.026 243.146 128.732 241.676C129.438 240.207 129.567 239.81 130.085 238.68C130.602 237.551 131.505 235.7 132.206 234.35C132.907 233 133.38 232.207 134.032 230.895C135.564 227.81 136.513 225.651 136.967 225.052C138.043 223.632 138.768 223.114 139.312 222.579C139.793 222.107 140.503 220.542 141.308 219.464C141.935 218.624 142.675 218.395 143.197 217.884C143.83 217.265 144.326 216.304 144.76 215.88C144.891 215.636 145.064 215.412 145.302 215.212C145.412 215.101 145.498 214.969 145.586 214.565" stroke="#020205" stroke-width="3.82046" stroke-linecap="round"/>
<path d="M215.665 261.403C214.097 261.403 212.529 261.403 210.546 261.779C208.563 262.155 206.211 262.906 204.907 263.337C203.073 263.944 202.072 264.435 201.368 265.017C200.768 265.512 200.438 266.264 199.669 267.136C199.022 267.87 198.342 268.897 198.06 269.992C197.794 271.028 197.78 274.494 197.919 276.577C197.988 277.604 199.172 279.071 199.874 279.903C200.426 280.557 200.991 281.174 201.874 281.999C202.712 282.783 203.554 283.185 203.925 283.385C204.318 283.597 205.87 284.429 208.727 285.676C210.178 286.31 211.722 286.747 213.428 287.13C215.134 287.513 216.978 287.778 218.505 287.915C221.176 288.154 222.648 288.007 223.713 287.763C225.812 287.283 227.445 286.802 228.211 286.647C230.131 286.257 231.353 285.464 233.375 284.464C235.974 283.178 238.249 282.252 239.132 281.695C239.76 281.299 241.36 279.807 243.733 277.511C245.399 275.9 245.984 274.841 246.309 274.263C246.77 273.442 247.424 271.329 248.146 268.786C248.743 266.682 248.408 264.756 247.48 262.507C246.93 261.173 246.082 260.202 245.247 259.268C244.117 258.004 242.685 256.9 241.615 256.075C240.981 255.587 239.34 254.361 236.712 252.446C233.611 250.185 233.273 249.488 232.481 248.819C232.111 248.505 231.229 247.573 228.981 245.132C227.44 243.46 225.395 240.658 224.049 238.783C222.086 236.049 221.489 234.758 220.564 233.207C219.803 231.933 218.532 229.624 217.659 227.844C215.898 223.42 215.528 222.353 215.13 221.634C215.06 221.5 215.014 221.367 214.966 221.097" stroke="#020205" stroke-width="3.82046" stroke-linecap="round"/>
<path d="M194.566 230.893C195.339 233.401 196.111 235.909 196.616 237.473C197.122 239.036 197.336 239.58 198.047 240.842C198.759 242.104 199.96 244.069 200.622 245.186C201.623 246.874 202.32 248.32 203.443 250.657C205.516 254.969 206.051 255.338 206.312 255.908C206.762 256.891 207.352 257.702 207.828 258.378C208.392 259.013 208.826 259.435 208.999 259.751C209.086 259.899 209.172 260.025 209.26 260.281" stroke="#020205" stroke-width="3.82046" stroke-linecap="round"/>
<path d="M120.556 13.6447C120.218 17.5724 119.814 19.1872 119.423 20.2146C119.146 20.9408 118.288 21.7379 117.831 22.2805C117.404 22.7875 117.001 23.2622 116.51 23.6194C115.927 24.0436 115.274 24.6178 114.733 24.974C113.711 25.6463 113.14 25.6015 112.632 25.8383C112.067 26.1016 111.447 26.2113 110.752 26.4313C110.291 26.5773 109.989 26.6858 109.786 26.7534C109.684 26.7875 109.583 26.821 109.783 26.8886C110.467 27.1202 111.272 27.261 111.913 27.4805C112.746 27.7654 113.877 28.1736 115.043 28.7818C116.904 29.7518 117.54 30.9184 118.216 31.6628C118.676 32.1682 118.794 33.0179 119.031 33.5941C119.354 34.38 119.709 35.0503 119.844 35.7276C120.065 36.8268 120.014 37.9303 120.149 38.4216C120.21 38.6435 120.251 38.8794 120.268 39.0324C120.347 39.755 120.42 36.8856 120.555 36.0228C120.845 34.175 121.335 33.3614 121.774 32.6846C122.193 32.0388 122.755 31.6338 123.163 31.0586C123.799 30.1605 124.044 29.6014 124.264 29.1776C124.818 28.1143 127.086 27.3332 128.124 26.9917C128.791 26.7721 129.698 26.5527 130.209 26.3479C130.309 26.3079 130.412 26.2804 130.346 26.2631C129.722 26.0988 129.097 26.1442 128.401 25.942C127.406 25.6526 126.859 25.4003 126.283 25.129C125.788 24.8957 125.334 24.5873 124.894 24.3501C124.195 23.9733 123.609 23.3028 123.115 22.8598C122.558 22.3598 122.455 21.37 122.065 19.8843C121.68 18.4122 121.505 17.8132 121.454 17.1364C121.369 16.4586 121.302 15.6467 121.183 14.6147C121.166 14.292 121.166 13.9232 120.963 13.3398" stroke="#020205" stroke-width="3.82046" stroke-linecap="round"/>
<path d="M78.7169 70.2558C78.6483 71.1814 78.613 71.744 78.5359 72.1995C78.361 73.2319 78.0255 74.0632 77.7666 74.4001C77.2909 75.0189 76.7638 75.4646 75.9003 76.0529C75.4172 76.382 74.442 76.7913 73.9049 77.064C73.0085 77.5191 72.3321 77.7522 71.7757 77.8047C71.2301 77.8561 71.0304 77.9776 70.7792 78.047C70.6658 78.0783 70.5624 78.1335 70.5273 78.2026C70.4715 78.3125 71.0262 78.3755 71.8451 78.6251C73.0904 79.0047 73.9023 79.4835 74.1184 79.6305C74.392 79.8166 74.6123 79.8995 75.044 80.4421C75.8546 81.461 76.0325 81.8204 76.3436 82.2702C76.6306 82.6852 76.7763 83.4981 77.0277 83.9841C77.3933 84.6907 77.4526 85.1956 77.5131 85.7317C77.6652 87.0789 77.7819 87.3269 77.7905 87.3967C77.8328 87.742 77.8681 86.6719 77.8944 86.2041C77.9228 85.6964 78.1102 84.9089 78.266 84.2737C78.3359 83.9887 78.5257 83.762 78.801 83.2719C79.3839 82.2342 79.8066 81.4246 80.0482 81.2002C80.665 80.6272 81.3805 80.3857 82.0734 80.0484C82.5243 79.8288 82.9918 79.5546 83.6834 79.3206C84.089 79.1834 84.549 79.19 84.8796 79.1297C85.283 79.0562 85.5204 78.9999 85.7201 78.9737C85.9207 78.9473 84.9708 78.8617 83.4839 78.4729C82.8594 78.3096 82.4765 78.1865 82.0599 77.9701C81.7333 77.8005 81.3504 77.5289 80.9432 77.1312C80.6501 76.8451 80.5183 76.5077 80.3627 76.1103C79.9783 75.1286 79.8077 74.7416 79.7474 74.4557C79.675 74.1121 79.5833 73.5667 79.2636 72.6057C78.9861 71.7717 79.0119 71.2625 78.8818 70.9407C78.8036 70.7238 78.7345 70.5337 78.674 70.3524C78.6478 70.2568 78.6307 70.154 78.561 69.9961" stroke="#020205" stroke-width="3.82046" stroke-linecap="round"/>
<path d="M28.7285 40.5454C30.0466 40.7141 31.1288 40.8503 32.3823 41.019C32.8213 41.0781 34.1368 41.5566 35.965 42.3858C37.3074 42.9947 38.0737 43.5575 38.6681 43.9986C39.6037 44.6926 40.0736 45.1164 40.8525 45.7088C41.4751 46.1824 41.9028 47.0452 42.3275 47.5558C42.7066 48.0115 43.1568 48.6386 43.4627 49.1645C43.7302 49.6245 43.9372 50.0959 44.4946 51.262C44.7825 51.8643 44.8518 52.5002 45.0718 53.1608C45.3178 53.8992 45.2929 56.5448 45.2085 58.2251C45.1778 58.8377 45.0896 59.5101 45.174 60.1564C45.209 60.425 45.2248 60.6655 45.3259 60.8012C45.7525 61.3735 47.4879 59.689 48.4741 58.9075C48.9545 58.5269 49.5915 58.0955 50.0676 57.8049C50.4699 57.5593 50.9796 57.0448 51.5914 56.6876C52.2163 56.3227 52.8108 56.0265 53.2854 55.773C53.7048 55.5489 53.6259 54.3741 53.7945 52.5261C53.8426 51.9993 53.8962 51.423 53.9978 50.3606C54.1469 48.8018 53.7976 46.9903 53.4084 45.5854C53.0579 44.3201 52.6442 43.3258 52.3063 42.7999C51.9614 42.2632 50.8902 40.895 50.189 40.0389C49.7705 39.5278 49.2236 38.9215 48.8344 38.5145C48.3932 38.0531 47.87 37.7021 47.243 37.2783C46.6435 36.8731 46.0083 36.4155 45.0759 35.8388C44.6099 35.5506 44.11 35.3302 43.2813 34.7723C42.1857 34.0348 40.9638 34.0437 40.1295 33.8389C39.5064 33.686 38.7586 33.6352 37.844 33.4665C37.5085 33.4046 37.2658 33.3984 37.0463 33.3476C36.4006 33.1981 35.7425 34.3099 34.5936 35.2743C33.6486 36.0676 32.2263 36.8484 31.2376 37.6467C30.7969 38.0024 30.4581 38.4764 29.9668 38.9856C29.7468 39.1553 29.576 39.325 29.4073 39.5277C29.3057 39.6298 29.1716 39.7304 28.8301 40.0373" stroke="#020205" stroke-width="3.82046" stroke-linecap="round"/>
<path d="M65.7062 18.7495C67.2777 18.6042 68.2208 18.7001 69.4257 19.0972C70.2353 19.3639 71.3979 19.9018 72.087 20.2211C72.9607 20.626 73.2608 20.8557 73.5267 21.0007C73.7565 21.126 74.4668 21.6033 75.5791 22.3164C76.4343 22.8647 76.9174 23.3492 77.3275 23.8073C77.9219 24.4711 78.4424 25.1888 78.8896 25.7203C79.3085 26.2181 79.7015 27.0509 80.173 28.0419C80.5671 28.8701 80.7208 29.4761 80.8654 29.9585C81.3269 31.4984 81.6174 32.5522 81.6777 33.2512C81.857 35.3301 81.6174 35.9401 81.6413 36.5097C81.6454 36.6073 81.9545 36.3331 82.4511 35.9818C82.8304 35.7135 83.9568 34.9571 85.1857 34.1183C86.0338 33.5395 86.6276 33.4023 87.8005 32.7019C88.6701 32.1827 89.5351 31.7312 89.9467 31.5976C90.3237 31.4751 90.9853 31.1994 91.5451 31.0163C91.6442 30.9839 91.7147 30.9321 91.7638 30.8714C92.1548 30.3877 91.8136 29.046 91.6563 28.3543C91.5336 27.8151 91.5469 27.4694 91.127 26.6281C90.7688 25.9105 89.9638 24.6839 89.5086 23.9817C88.9629 23.1398 88.7142 22.9162 88.2811 22.4349C87.3949 21.4497 86.6079 20.6407 86.1738 20.1339C85.5865 19.4483 84.7458 18.7771 84.044 18.2446C83.5104 17.8397 83.0486 17.5406 82.6124 17.1769C81.8479 16.5398 80.8734 16.041 80.2384 15.6385C79.8746 15.4079 79.3448 15.0224 78.0741 14.4648C77.4508 14.1913 76.5607 13.9558 75.8919 13.7974C75.4133 13.6841 75.08 13.6158 74.777 13.5308C74.6024 13.4818 74.3535 13.6144 74.0756 13.7836C73.8352 13.93 72.859 14.4579 71.5156 15.2447C70.4857 15.8479 69.6324 16.2299 68.7849 16.6048C68.3813 16.7833 68.0573 16.9085 66.8614 17.3913C66.1916 17.7077 65.9249 17.829 65.78 17.8893C65.707 17.9256 65.635 17.9736 65.4883 18.023" stroke="#020205" stroke-width="3.82046" stroke-linecap="round"/>
<path d="M262.602 223.955C262.602 224.003 262.554 224.723 262.47 225.836C262.429 226.376 262.121 227.217 261.673 228.391C261.43 229.028 261.103 229.474 260.608 230.126C259.472 231.623 258.778 231.921 258.318 232.285C257.934 232.588 257.495 232.697 255.624 233.12C254.32 233.415 253.91 233.327 253.474 233.388C253.376 233.401 253.304 233.4 253.363 233.424C253.605 233.522 253.931 233.545 254.209 233.557C254.56 233.572 255.739 233.858 257.348 234.269C258.564 234.58 258.823 234.924 259.174 235.239C259.374 235.418 260.053 236.251 261.046 237.304C261.857 238.165 262.287 239.404 262.577 240.021C262.748 240.386 262.916 240.712 263.038 241.064C263.213 241.569 263.256 242.116 263.329 242.541C263.343 242.628 263.377 242.698 263.401 242.699C263.487 242.703 263.474 241.787 263.486 240.565C263.497 239.435 264.199 238.391 264.478 237.726C264.846 236.847 265.504 236.094 266.498 235.05C267.179 234.335 267.662 234.153 267.978 234.03C268.541 233.811 269.741 233.449 270.242 233.316C270.645 233.208 270.956 233.037 271.163 232.941C271.634 232.722 270.039 232.432 269.23 232.19C268.049 231.837 267.448 231.512 266.963 231.113C266.44 230.681 265.081 229.558 264.396 228.824C264.009 228.411 263.694 228.098 263.487 227.807C263.252 227.476 262.919 226.72 262.736 226.197C262.602 225.724 262.554 225.289 262.469 224.805C262.457 224.659 262.457 224.491 262.53 224.246" stroke="#020205" stroke-width="3.82046" stroke-linecap="round"/>
<defs>
<filter id="filter0_g_405_3038" x="96.0164" y="64.95" width="179.631" height="179.632" filterUnits="userSpaceOnUse" color-interpolation-filters="sRGB">
<feFlood flood-opacity="0" result="BackgroundImageFix"/>
<feBlend mode="normal" in="SourceGraphic" in2="BackgroundImageFix" result="shape"/>
<feTurbulence type="fractalNoise" baseFrequency="0.02768385037779808 0.02768385037779808" numOctaves="3" seed="3160" />
<feDisplacementMap in="shape" scale="4.1196112632751465" xChannelSelector="R" yChannelSelector="G" result="displacedImage" width="100%" height="100%" />
<feMerge result="effect1_texture_405_3038">
<feMergeNode in="displacedImage"/>
</feMerge>
</filter>
</defs>
</svg>
