<svg width="157" height="153" viewBox="0 0 157 153" fill="none" xmlns="http://www.w3.org/2000/svg">
<g filter="url(#filter0_g_1156_2908)">
<circle cx="74.1972" cy="72.7949" r="53.7499" fill="#E60611"/>
</g>
<path d="M50.4093 44.2386C50.3387 44.168 50.5494 43.1786 50.9767 41.6994C51.1311 41.165 51.2628 41.1025 51.5645 41.225C51.8661 41.3475 52.3602 41.6651 52.6325 41.9876C53.0905 42.5303 52.8351 43.5198 52.5683 44.4637C52.4045 45.043 51.7335 45.5542 50.9141 46.1066C50.5979 46.3199 50.4478 46.3414 50.3221 46.2361C49.4388 45.4956 50.052 43.9199 50.3724 43.2963C50.4446 43.1348 50.4799 42.9936 50.5334 42.8679C50.5868 42.7422 50.6574 42.6363 50.9441 42.3133" stroke="#020205" stroke-width="2.34" stroke-linecap="round"/>
<path d="M74.4762 49.0524C74.4056 48.3454 74.2976 46.9506 74.5628 46.6479C74.7357 46.4507 75.2164 46.4511 75.5052 46.5383C75.794 46.6255 75.9351 46.8726 76.0255 47.0881C76.4433 48.0843 76.1523 49.2653 76.0105 49.4786C75.8145 49.7738 75.2634 49.8011 74.7826 49.7835C74.474 49.7721 74.2634 49.6236 74.0853 49.4637C74.0131 49.3744 73.9778 49.2685 73.9596 48.8609C73.9414 48.4534 73.9414 47.7475 73.9414 47.0202" stroke="#020205" stroke-width="2.34" stroke-linecap="round"/>
<path d="M48.485 51.7266C48.485 51.7972 48.4144 52.7159 48.4663 54.4412C48.5476 57.1454 49.837 57.5709 50.4247 58.2474C52.0066 60.0682 53.2961 60.354 54.0785 60.6208C54.8388 60.8801 56.6364 60.9251 59.3035 60.8016C62.0631 60.6738 63.6359 60.1058 63.9739 59.9812C64.1337 59.9223 64.2766 59.8919 65.2141 59.4854C66.1516 59.079 67.8811 58.3025 68.878 57.8318C70.0867 57.22 70.4107 57.0393 70.6594 56.8975C70.8022 56.7911 70.9787 56.6146 71.2675 56.4328" stroke="#020205" stroke-width="2.34" stroke-linecap="round"/>
<path d="M25.1037 85.0196C24.6633 85.3402 23.98 85.8511 23.3253 86.2014C22.585 86.5975 21.657 86.9981 20.9937 87.2692C20.5521 87.4496 20.1048 87.4624 19.7855 87.4777C18.9341 87.5186 18.555 86.2323 17.764 85.5103C16.3672 84.2353 15.1981 83.9006 14.0808 83.7489C11.4137 83.3867 10.7349 84.678 10.0358 85.2983C9.35885 85.899 8.72327 87.0016 8.55504 87.7953C8.37997 88.6212 8.55316 90.3063 8.97747 91.5353C9.2381 92.2902 9.57901 92.8913 10.197 93.3179C10.8477 93.7669 11.4614 94.1919 12.5502 94.5296C13.3306 94.7716 14.7301 94.6244 15.6578 94.2686C15.8004 94.1182 15.9308 93.8914 16.0989 93.5252C16.2671 93.159 16.469 92.6604 16.657 91.99" stroke="#020205" stroke-width="2.34" stroke-linecap="round"/>
<path d="M93.2255 26.0209C92.5633 26.2779 90.3592 26.8674 89.1415 27.1628C87.9054 27.4626 87.1791 27.5168 85.6967 27.5732C84.6191 27.6141 82.6103 27.6034 80.2144 27.3608C77.8186 27.1181 75.0959 26.6189 73.1874 26.1982C71.2789 25.7775 70.2671 25.4504 69.702 25.2599C68.793 24.9535 68.1792 24.643 66.4309 23.738C64.9937 22.994 62.2831 21.3849 60.6077 20.4288C58.4005 19.1693 57.5368 18.7186 57.0059 18.4836C56.3985 18.2146 55.831 17.972 55.1134 17.6282C54.4521 17.3113 53.5058 16.8663 52.8487 16.5157C52.5341 16.3478 51.9654 16.0672 51.2165 15.7852C50.6128 15.5579 49.2158 15.4551 47.4833 15.3778C46.2297 15.3219 44.8 15.6636 43.4236 15.9005C42.1738 16.1157 41.344 16.3479 40.7234 16.4752C39.1999 16.7878 37.7326 17.3124 36.8264 17.6873C35.5638 18.2096 34.3643 19.1091 33.2852 19.8844C32.698 20.3064 32.0485 20.7709 31.0241 21.5855C30.812 21.7541 30.7081 21.8745 30.6575 21.8812C30.1466 21.9486 30.7022 20.1807 30.903 19.3097C31.0504 18.6706 31.4447 17.8694 32.0753 16.9185C32.4225 16.395 32.8311 15.9447 33.4778 15.3428C34.6066 14.2924 35.8392 13.4102 36.6358 12.9411C37.0931 12.6718 38.3621 12.1455 40.4477 11.4656C42.0537 10.942 42.9232 10.9157 43.3294 10.8288C44.6973 10.5361 45.4593 10.5495 46.807 10.4551C48.7264 10.3207 50.0849 10.4558 50.46 10.5055C50.616 10.5262 50.7043 10.5224 52.2768 10.8784C53.8492 11.2344 56.9036 11.9464 60.2302 12.865C63.5568 13.7835 67.0632 14.8869 68.9455 15.4892C70.8279 16.0915 70.98 16.1591 71.6574 16.3667C72.3347 16.5743 73.5327 16.9198 74.5433 17.1677C75.5539 17.4156 76.3409 17.5554 77.3489 17.8259C78.3569 18.0964 79.5621 18.4934 81.2033 19.1391C82.8446 19.7849 84.8853 20.6674 86.1924 21.2403C88.0155 22.0392 88.6504 22.3312 88.9433 22.4547C89.3832 22.6401 89.7308 22.837 90.2745 23.0819C91.4936 23.6308 92.551 24.3039 93.5394 24.9855C94.2232 25.457 95.2673 26.1975 95.9892 26.7281C97.602 27.9138 98.22 28.4141 99.0539 29.1397C100.459 30.3621 100.799 30.5748 101.802 31.365C102.888 32.2217 103.924 32.6981 104.432 32.9998C104.988 33.3292 105.409 33.6237 106.244 34.1117C108.162 35.2333 109.552 36.0465 109.778 36.1828C110.124 36.3912 110.863 36.8572 111.502 37.3031C111.69 37.4338 111.875 37.5122 112.018 37.4683C112.128 37.4341 112.126 37.1225 112.156 36.2402C112.186 35.3578 112.2 33.8495 112.176 32.8311C112.142 31.3281 112.017 30.6535 111.984 30.3258C111.958 30.0624 111.749 28.9254 111.391 26.9737C111.071 25.226 110.645 24.169 110.404 23.6801C109.895 22.6467 109.462 21.7685 109.025 21.0074C108.593 20.2558 108.168 19.7226 107.805 19.075C107.015 17.6698 106.402 16.6433 106.29 16.3847C106.183 16.1399 105.888 15.6441 105.458 14.9076C105.067 14.2372 104.28 13.3428 103.435 12.3916C103.066 11.9759 102.608 11.5639 101.607 10.6917C100.173 9.44098 99.0816 8.86592 98.7211 8.64953C97.9491 8.18614 96.8678 7.36883 95.8146 6.74455C95.3154 6.44866 94.8541 6.22071 93.9195 5.7347C92.4966 4.99473 91.5061 4.57909 90.7901 4.25403C89.0325 3.45613 87.4864 2.93176 86.934 2.79268C86.6207 2.71379 85.6929 2.47291 83.9393 2.16187C82.0757 1.83132 80.9583 1.93491 80.7545 1.89265C80.0312 1.74263 79.072 1.58655 78.6312 1.55418C77.8184 1.49449 77.2297 1.39927 75.9618 1.33403C75.0403 1.28662 73.2907 1.20884 72.2469 1.18103C70.9181 1.14563 70.5141 1.2149 69.7265 1.35381C67.7899 1.69533 66.3685 2.1129 66.0899 2.20533C65.5727 2.3769 64.6299 2.63765 64.108 2.8064C63.7438 2.92418 63.4134 3.08934 62.8338 3.2835C62.1915 3.49868 61.3148 3.96219 60.8689 4.16839C59.7516 4.68502 58.1387 5.74667 57.4907 6.19982C56.234 7.07854 54.9656 7.79897 54.4317 8.24077C54.0298 8.5733 53.635 9.00907 53.3515 9.27662C53.0905 9.53373 52.7387 9.83316 52.2588 10.2959C52.1506 10.3936 52.0743 10.4488 51.9172 10.5646" stroke="#020205" stroke-width="2.34365" stroke-linecap="round"/>
<path d="M30.4473 21.334C30.572 21.8813 30.9092 22.4595 32.0938 24.0789C32.5191 24.6605 32.7885 24.848 33.0825 25.1103C33.7593 25.7139 34.5071 26.3493 35.1002 26.7473C35.8842 27.2735 36.2891 27.4097 37.0771 27.7491C37.5661 27.9596 38.188 28.0852 38.8494 28.2501C39.2373 28.3468 39.6636 28.4434 40.0347 28.5311C40.3266 28.6002 40.6442 28.6325 41.0695 28.6649C41.7281 28.7152 42.126 28.788 42.5263 28.8271C42.7283 28.8597 42.9059 28.8864 43.0489 28.9038C43.1185 28.9152 43.1821 28.9319 43.3182 28.9491" stroke="#020205" stroke-width="2.34365" stroke-linecap="round"/>
<path d="M7.73798 88.3778C6.36727 89.1529 5.66049 89.5711 3.74284 90.7424C2.80285 91.3165 2.12904 92.2059 1.61538 93.1182C1.08525 94.0597 1.10702 94.9035 1.27881 95.6208C1.48255 96.4716 2.71029 97.2656 3.6701 97.7208C3.85765 97.8097 4.03558 97.811 4.13133 97.9077C4.32919 98.1077 3.80568 98.9288 3.47553 99.7931C2.97083 101.114 3.91094 102.797 4.46665 103.519C5.00508 104.218 5.85949 104.407 6.52193 104.678C7.40909 105.041 7.32179 106.459 7.73027 107.091C8.30709 107.982 9.31156 108.392 9.99374 108.606C10.6988 108.828 11.5507 108.873 12.8008 108.849C14.6957 108.813 15.6134 108.245 16.2848 107.941C16.9255 107.65 17.4817 107.079 18.0941 106.536C18.8526 105.863 19.6273 105.113 20.1065 104.366C20.3138 104.043 22.0056 103.766 25.0336 103.217C30.1958 102.281 30.9338 101.042 31.5335 100.61C31.6847 100.508 31.8372 100.434 32.2138 100.196C32.5905 99.9579 33.1867 99.5571 33.9412 98.9624" stroke="#020205" stroke-width="2.34" stroke-linecap="round"/>
<path d="M7.56195 105.538C8.68398 105.333 10.5138 104.847 11.7284 104.503C14.2216 103.428 15.5481 102.382 16.5224 101.717C16.6663 101.604 16.804 101.461 17.101 101.295" stroke="#020205" stroke-width="2.34" stroke-linecap="round"/>
<path d="M20.331 102.898C20.2772 102.477 19.9943 101.865 19.4979 101.209C19.2567 100.948 19.0373 100.834 18.8353 100.679C18.6333 100.525 18.4554 100.334 17.9668 100.176" stroke="#020205" stroke-width="2.34" stroke-linecap="round"/>
<path d="M4.58473 98.0151C5.15564 97.8866 5.72655 97.7581 7.46538 97.5073C9.20422 97.2564 12.0937 96.8872 13.6645 96.7142C15.2353 96.5412 15.3999 96.5757 15.5705 96.6381C16.5193 96.9849 17.2996 98.3493 17.5436 99.1892C17.5947 99.3804 17.6682 99.5377 17.7428 99.6973C17.8174 99.8569 17.8909 100.014 17.9667 100.176" stroke="#020205" stroke-width="2.34" stroke-linecap="round"/>
<path d="M107.709 93.9099C108.03 94.1848 108.573 94.6587 109.157 95.1792C109.396 95.3918 109.479 95.6779 109.594 96.071C109.657 96.2832 109.711 96.5461 109.745 97.0189C109.816 97.98 109.722 98.1901 109.665 98.5026C109.608 98.8128 109.549 99.2545 109.509 99.498C109.461 99.7849 109.352 100.054 109.312 100.302C109.223 100.845 109.271 101.037 109.311 101.199C109.358 101.389 109.583 101.523 109.78 101.702C109.925 101.835 110.424 102.066 110.907 102.27C111.241 102.411 111.872 102.484 112.204 102.45C112.386 102.431 112.591 102.392 112.748 102.369C112.938 102.34 113.249 102.184 113.713 102.062C114.117 101.956 114.327 101.918 114.518 101.883C114.818 101.828 115.205 101.467 115.478 101.253C115.821 100.984 116.154 100.624 116.548 100.091C116.696 99.8918 116.93 99.4562 117.196 98.8379C117.373 98.4247 117.429 98.02 117.481 97.5526C117.569 96.762 117.464 96.503 117.366 95.9846C117.31 95.6863 117.234 95.17 117.193 94.8128C117.151 94.2723 117.14 94.0491 117.122 93.9569C117.116 93.8991 117.116 93.8189 117.116 93.7363" stroke="#020205" stroke-width="2.34" stroke-linecap="round"/>
<path d="M115.414 102.032C115.895 102.216 116.59 102.356 117.313 102.425C117.679 102.46 117.809 102.426 117.901 102.391C118.031 102.342 118.465 102.334 119.043 102.253C119.394 102.204 119.728 102.068 120.184 101.866C120.42 101.761 120.674 101.675 120.976 101.525C121.635 101.196 122.009 100.91 122.09 100.824C122.177 100.73 122.447 100.495 122.8 100.08C123.296 99.4948 123.386 99.049 123.576 98.559C123.685 98.2789 123.778 97.9201 123.906 97.2273C124.033 96.5346 124.182 95.5151 124.259 94.8352C124.336 94.1553 124.336 93.846 124.301 93.5273" stroke="#020205" stroke-width="2.34" stroke-linecap="round"/>
<path d="M122.912 100.504C123.675 100.319 123.975 100.227 124.471 100.049C125.256 99.7659 125.804 99.4057 125.954 99.3075C126.074 99.2296 126.416 98.968 126.849 98.5575C127.06 98.3584 127.135 98.214 127.308 97.9266C127.435 97.7146 127.595 97.3413 127.747 96.889C127.898 96.4367 128.024 95.9097 128.089 95.6096C128.166 95.2546 128.166 95.1245 128.171 94.6423C128.177 94.2288 128.143 93.4728 128.114 92.9687C128.072 92.2341 128.015 91.9308 127.912 91.4887C127.824 91.1115 127.603 90.4395 127.474 90.0397C127.31 89.5331 127.183 89.3276 127.004 89.011C126.473 88.0697 126.315 87.6964 126.147 87.5162C125.985 87.342 125.806 87.175 125.523 86.858C125.133 86.4209 124.822 86.087 124.695 85.9947C124.297 85.7056 123.62 85.197 123.353 84.9937C123.016 84.738 122.486 84.3985 122.086 84.1491C121.903 84.0349 121.733 83.9577 121.519 83.8134C121.281 83.68 121.177 83.622 121.108 83.5932C121.073 83.5758 121.038 83.5529 120.934 83.5293" stroke="#020205" stroke-width="2.34" stroke-linecap="round"/>
<path d="M109.235 98.7346C109.052 98.7346 108.625 98.8262 108.099 98.9823C107.594 99.132 107.165 99.5434 107.066 99.7578C106.934 100.043 106.794 100.261 106.667 100.51C106.489 100.858 106.539 101.048 106.516 101.233C106.479 101.525 106.447 101.881 106.429 102.283C106.387 103.257 106.378 103.93 106.285 103.976C106.076 104.081 105.903 104.242 105.736 104.346C105.59 104.436 105.303 104.508 105.082 104.543C104.813 104.586 104.356 104.693 103.781 104.723C103.31 104.748 103.161 104.544 102.878 104.411C102.711 104.332 102.548 104.266 102.391 104.185C102.35 104.164 102.305 104.139 102.276 104.11C102.063 103.9 102.2 103.329 102.171 103.104C102.101 102.559 102.015 102.334 101.957 102.045C101.917 101.842 101.911 101.525 101.859 101.081C101.746 100.119 101.956 99.7427 102.02 99.4589C102.115 99.0384 102.338 98.6311 102.552 98.2271C102.629 98.0817 102.835 97.7539 103.186 97.194C103.753 96.2927 104.05 96.2129 104.282 96.0276C104.562 95.8026 105.089 95.4624 105.456 95.1887C105.894 94.862 106.422 94.8813 106.827 94.7777C107.232 94.6738 107.556 94.6501 107.949 94.5807C108.043 94.5689 108.1 94.5689 108.158 94.5632C108.216 94.5574 108.274 94.546 108.367 94.5342" stroke="#020205" stroke-width="2.34" stroke-linecap="round"/>
<path d="M102.119 96.9294C101.982 96.6316 101.876 96.3063 101.813 96.023C101.777 95.8614 101.657 95.4749 101.536 94.7537C101.473 94.3792 101.494 93.9752 101.517 93.6541C101.557 93.101 101.748 92.5356 101.927 92.0037C102.084 91.5387 102.269 91.0988 102.402 90.8265C102.576 90.4704 102.904 89.9081 103.165 89.4501C103.419 89.0048 103.796 88.6453 103.999 88.4253C104.107 88.3084 104.293 88.0791 104.593 87.7042C104.76 87.4954 104.984 87.272 105.314 86.9821C105.644 86.6922 106.079 86.3486 106.338 86.1314C106.677 85.8471 106.988 85.5453 107.507 85.1584C108.32 84.553 108.541 84.5483 108.691 84.4962C108.911 84.4209 109.062 84.3747 109.131 84.3343C109.166 84.3168 109.2 84.3053 109.305 84.2588" stroke="#020205" stroke-width="2.34" stroke-linecap="round"/>
<path d="M93.6875 112.152C94.8732 112.376 95.6603 112.492 96.1437 112.548C97.4085 112.695 97.635 112.961 97.8705 113.034C98.1306 113.114 98.5401 113.172 99.5508 113.051C100.046 112.992 100.274 112.977 100.654 112.881C101.097 112.768 101.921 112.525 102.877 112.242C103.405 112.086 103.866 112.023 104.98 111.757C105.275 111.683 105.389 111.65 105.486 111.618C105.534 111.602 105.583 111.586 105.632 111.569" stroke="#020205" stroke-width="2.34" stroke-linecap="round"/>
<path d="M98.543 113.22C98.543 113.252 98.543 113.284 98.575 113.958C98.6071 114.631 98.6712 115.945 98.7857 117.347" stroke="#020205" stroke-width="2.34" stroke-linecap="round"/>
<path d="M99.9473 141.172C100.909 140.851 101.39 140.736 101.947 140.672C102.185 140.644 102.619 140.395 103.382 140.259C104.145 140.122 105.523 139.882 106.305 139.726C107.239 139.54 107.524 139.44 107.831 139.416C108.176 139.389 108.639 139.182 109.14 139.004C109.471 138.887 109.71 138.858 111.449 138.32C113.088 137.814 116.282 136.901 118.958 136.19C121.634 135.479 123.701 135.014 124.862 134.767C126.023 134.52 126.215 134.504 127.909 134.031C129.602 133.558 132.791 132.628 134.529 132.134C136.268 131.639 136.46 131.607 136.632 131.566C136.95 131.491 137.256 131.396 137.915 131.227C138.417 131.099 139.248 130.85 140.029 130.646C140.811 130.442 141.516 130.282 142.192 130.16C142.867 130.037 143.492 129.957 143.982 129.868C144.816 129.716 145.236 129.519 145.517 129.39C146.006 129.166 146.69 129.163 147.288 129.082C147.567 129.044 147.789 128.969 148.329 128.8C148.87 128.631 149.719 128.358 150.212 128.21C151.133 127.933 151.789 127.835 152.187 127.698C152.555 127.571 152.907 127.399 153.207 127.293C153.28 127.269 153.344 127.237 153.417 127.212C153.49 127.188 153.57 127.172 153.701 127.155" stroke="#020205" stroke-width="2.34" stroke-linecap="round"/>
<path d="M128.744 95.8374C130.25 95.7092 131.154 95.6111 131.477 95.5465C132.233 95.395 132.465 95.3683 133.287 95.504C133.771 95.5841 134.539 95.9607 136.594 96.47C138.648 96.9794 141.949 97.6844 143.674 98.0556C145.398 98.4268 145.446 98.4428 145.952 98.5472C146.457 98.6516 147.418 98.8439 148.13 98.999C149.804 99.364 150.123 99.4139 150.447 99.5271C150.951 99.7033 151.32 99.7538 151.653 99.8589C151.917 99.9425 152.243 99.9966 152.559 100.11C152.986 100.262 153.344 100.417 153.765 100.708C154.028 100.89 154.203 101.064 154.405 101.436C154.529 101.664 154.527 101.938 154.575 102.189C154.618 102.413 154.769 102.794 154.834 103.24C154.906 103.727 155.044 103.977 155.069 104.438C155.086 104.755 155.061 105.077 155.021 105.361C154.974 105.691 154.964 106.081 154.883 106.615C154.837 106.922 154.818 107.182 154.778 107.53C154.758 107.698 154.754 107.878 154.729 108.232C154.683 108.905 154.705 109.432 154.681 110.05C154.66 110.572 154.673 111.518 154.657 112.101C154.641 112.684 154.608 112.876 154.592 113.24C154.575 113.603 154.575 114.132 154.543 114.613C154.483 115.513 154.381 116.067 154.373 116.318C154.358 116.781 154.269 117.424 154.22 118.219C154.188 118.727 154.074 119.206 153.88 120.555C153.809 121.046 153.831 121.344 153.807 121.618C153.774 121.987 153.718 122.619 153.597 123.307C153.488 123.926 153.507 124.578 153.628 125.396C153.653 126.015 153.685 126.443 153.734 126.596C153.75 126.685 153.75 126.797 153.75 126.913" stroke="#020205" stroke-width="2.34" stroke-linecap="round"/>
<path d="M74.8403 107.914C74.7058 108.541 74.6365 109.649 74.6477 110.916C74.656 111.853 74.7493 112.393 74.7612 113.445C74.7639 113.685 74.7275 113.819 74.7048 115.077C74.682 116.334 74.6596 118.709 74.6369 120.012C74.6141 121.314 74.5917 121.471 74.5802 122.224C74.5686 122.977 74.5686 124.322 74.5574 125.048C74.5452 125.842 74.5007 126.628 74.4783 127.782C74.4574 128.856 74.3873 129.713 74.4212 130.488C74.4493 131.128 74.4328 132.272 74.5 132.95C74.5869 133.827 74.9299 134.083 75.1442 134.274C75.8659 134.921 76.9212 135.192 77.2839 135.339C77.6392 135.483 78.0078 135.6 78.3929 135.758C78.8966 135.965 79.4109 136.052 80.1237 136.211C80.336 136.258 81.3058 136.436 82.7649 136.775C83.5357 136.954 84.4543 137.206 85.5858 137.444C85.9988 137.53 86.0897 137.524 86.9875 137.715C87.8854 137.905 89.5887 138.286 91.5867 138.83C93.5848 139.374 95.826 140.069 97.0254 140.449C98.5636 140.965 99.5744 141.036 99.9473 141.172" stroke="#020205" stroke-width="2.34" stroke-linecap="round"/>
<path d="M99.629 140.784C99.6738 139.249 99.7648 138.251 99.8212 137.395C99.861 136.79 99.8327 135.646 99.7991 134.911C99.7349 133.509 99.5842 133.247 99.5387 132.716C99.494 132.195 99.3804 131.889 99.3461 131.053C99.3292 130.64 99.2446 130.327 99.1651 129.987C99.1088 129.557 98.9729 129.149 98.8938 128.968C98.8595 128.877 98.8371 128.788 98.7461 128.56" stroke="#020205" stroke-width="2.34" stroke-linecap="round"/>
<path d="M75.043 107.37C76.3958 107.032 77.6672 106.669 78.075 106.555C78.3794 106.47 78.6411 106.306 79.1264 106.137C80.2302 105.752 80.6785 105.808 81.558 105.549C83.0374 105.113 83.9792 105.107 84.73 104.926C85.4601 104.749 86.3827 104.518 87.8201 104.147C89.0523 103.83 91.3194 103.306 92.7097 102.995C94.5414 102.586 95.1668 102.503 95.595 102.346C96.9377 101.852 97.8135 101.552 98.5388 101.417C99.2768 101.278 100.189 101.123 100.736 100.93C101.234 100.85 101.574 100.828 101.789 100.794C101.891 100.782 101.981 100.782 102.073 100.782" stroke="#020205" stroke-width="2.34" stroke-linecap="round"/>
<path d="M108.4 112.929C108.432 112.913 108.464 112.897 109.386 112.705C110.308 112.512 112.118 112.143 113.075 111.978C114.032 111.812 114.08 111.86 114.105 111.973C114.247 112.62 114.032 113.251 113.992 113.672C113.948 114.135 113.968 114.563 113.944 115.157C113.892 116.424 113.951 117.347 113.976 117.524C114.015 117.815 114.032 119.004 113.952 119.895C113.913 120.325 113.774 120.778 113.685 120.989C113.593 121.205 113.483 121.457 113.152 121.942C112.837 122.403 112.625 122.559 112.423 122.64C112.197 122.731 111.738 122.737 111.138 122.657C110.454 122.565 109.954 122.608 109.849 122.519C109.578 122.29 109.389 122.058 109.218 121.856C108.994 121.59 108.789 121.185 108.684 120.933C108.578 120.682 108.482 120.328 108.384 119.786C108.316 119.405 108.254 119.032 108.174 118.453C108.021 117.346 107.753 116.572 107.729 116.098C107.736 114.322 107.785 114.143 107.809 113.958C107.817 113.822 107.817 113.597 107.817 113.366" stroke="#020205" stroke-width="2.34" stroke-linecap="round"/>
<path d="M139.471 106.268C140.09 106.153 140.523 106.048 141.075 105.904C141.508 105.791 142.268 105.657 142.686 105.569C143.164 105.468 143.53 105.389 144.038 105.319C144.467 105.261 144.769 105.215 145.128 105.18C145.221 105.171 145.313 105.146 145.389 105.162C145.465 105.179 145.522 105.237 145.557 105.295C145.671 105.483 145.65 105.757 145.616 106.453C145.592 106.941 145.593 107.857 145.598 108.438C145.604 109.019 145.627 109.237 145.638 109.716C145.65 110.194 145.65 110.928 145.645 111.345C145.639 111.763 145.627 111.843 145.541 112.142C145.455 112.441 145.295 112.957 145.143 113.371C144.88 114.093 144.644 114.505 144.489 114.73C144.195 115.155 143.617 115.372 143.296 115.547C142.946 115.738 142.539 115.802 141.621 115.808C141.261 115.811 141.103 115.664 140.907 115.548C140.736 115.448 140.502 115.214 140.202 114.879C139.867 114.505 139.749 114.126 139.726 113.803C139.668 112.985 139.587 112.691 139.506 112.402C139.373 111.925 139.344 111.592 139.206 111.066C139.081 110.593 139.101 110.353 139.084 109.914C139.061 109.337 139.032 108.548 139.014 108.34C138.989 108.039 139.008 107.761 139.026 107.449C139.031 107.379 139.043 107.344 139.049 107.258C139.055 107.171 139.055 107.034 139.089 106.823" stroke="#020205" stroke-width="2.34" stroke-linecap="round"/>
<path d="M75.2363 113.123C76.2298 113.363 77.2232 113.604 78.416 113.864C79.6087 114.124 80.9707 114.396 81.9287 114.625C82.8867 114.853 83.3994 115.029 83.7276 115.152C84.0559 115.275 84.1841 115.339 84.5866 115.468C84.9891 115.597 85.6621 115.79 86.2171 115.929C87.1832 116.171 87.6659 116.247 87.867 116.303C88.6034 116.509 88.991 116.603 89.5734 116.724C90.5562 116.928 90.9177 116.991 91.4596 117.144C91.7703 117.232 92.0835 117.298 92.5503 117.427C93.9498 117.814 94.2845 117.865 94.6409 117.978C94.9252 118.068 95.4634 118.284 96.0648 118.456C96.3394 118.534 97.0482 118.657 97.6591 118.795C98.0195 118.877 98.2505 118.885 98.7834 119.07C98.9897 119.142 99.2211 119.08 99.6239 118.959C100.233 118.775 100.759 118.756 101.322 118.587C102.483 118.238 103.317 118.044 103.486 117.971C104.008 117.747 105.09 117.64 105.727 117.485C106.23 117.331 106.488 117.267 106.723 117.21C106.796 117.202 106.892 117.202 107.088 117.105" stroke="#020205" stroke-width="2.34" stroke-linecap="round"/>
<path d="M113.887 116.133C115.067 115.762 115.375 115.664 116.57 115.432C117.682 115.215 119.832 114.862 121.298 114.552C122.765 114.242 123.486 114.002 124.21 113.822C124.934 113.642 125.639 113.53 126.074 113.472C126.51 113.414 126.654 113.414 127.185 113.334C127.716 113.254 128.629 113.094 129.444 112.987C130.259 112.881 130.948 112.833 131.495 112.752C132.042 112.671 132.427 112.559 132.897 112.437C133.368 112.315 133.913 112.187 134.418 112.041C135.939 111.601 136.269 111.36 136.642 111.27C137.047 111.173 137.516 110.955 137.727 110.882C137.921 110.776 138.067 110.728 138.204 110.704C138.292 110.695 138.421 110.695 138.553 110.695" stroke="#020205" stroke-width="2.34" stroke-linecap="round"/>
<path d="M145.836 109.239C146.958 108.918 147.648 108.737 148.258 108.593C148.759 108.474 149.638 108.224 150.124 108.084C150.816 107.885 151.03 107.718 151.869 107.475C152.49 107.296 152.956 107.216 153.167 107.143C153.403 107.061 153.652 106.973 153.887 106.948C153.992 106.924 154.09 106.892 154.195 106.868C154.252 106.859 154.316 106.859 154.382 106.859" stroke="#020205" stroke-width="2.34" stroke-linecap="round"/>
<path d="M153.945 101.179C153.945 101.195 153.945 101.211 153.256 101.395C152.567 101.58 151.189 101.932 150.351 102.13C149.263 102.387 148.864 102.425 148.582 102.481C148.255 102.547 147.413 102.682 146.329 102.909C145.904 102.998 145.727 103.007 145.099 103.136C144.471 103.264 143.398 103.504 142.773 103.636C142.148 103.768 142.003 103.784 140.623 104.073C139.243 104.361 136.631 104.922 135.19 105.219C133.748 105.516 133.556 105.532 133.305 105.58C132.744 105.688 132.307 105.807 132.009 105.864C131.837 105.896 131.63 105.968 130.361 106.201C129.092 106.435 126.769 106.835 125.54 107.058C124.311 107.28 124.247 107.312 123.685 107.433C123.123 107.554 122.066 107.762 121.481 107.869C120.653 107.992 120.41 108.057 120.241 108.114C120.152 108.138 120.056 108.154 119.859 108.268" stroke="#020205" stroke-width="2.34" stroke-linecap="round"/>
<path d="M128.294 96.0615C128.606 96.2347 129.134 96.6482 129.496 96.9289C129.652 97.0495 129.808 97.539 129.977 97.9812C130.056 98.1889 130.099 98.3749 130.156 98.8013C130.288 99.7782 130.11 99.9488 130.122 100.094C130.129 100.18 130.099 100.33 130.076 100.487C130.042 100.72 129.579 100.69 129.325 100.834C128.707 101.185 128.468 101.372 128.035 101.673C127.855 101.797 127.681 101.87 127.519 101.997C127.311 102.16 127.079 102.217 126.762 102.223C126.684 102.225 126.64 102.172 126.61 102.131C126.468 101.935 126.512 101.616 126.402 101.149C126.305 100.736 126.35 100.472 126.136 100.176C126.084 100.112 126.061 100.066 126.049 99.9967C126.037 99.9273 126.037 99.8356 126.037 99.7412" stroke="#020205" stroke-width="2.34" stroke-linecap="round"/>
<path d="M105.049 67.5293C105.497 67.7056 105.946 67.8818 106.834 68.277C107.722 68.6723 109.036 69.2812 110.65 70.3559C112.265 71.4307 114.139 72.9529 115.185 73.8412C116.428 74.8965 116.669 75.2646 116.863 75.4746C116.949 75.5683 116.992 75.6526 117.362 76.0544C117.731 76.4562 118.42 77.1772 118.895 77.7169C119.642 78.5659 120.066 79.1801 120.398 79.5683C120.658 79.872 120.845 80.1361 121.015 80.3471C121.254 80.6436 121.668 81.3801 122.026 81.9485C122.211 82.2425 122.495 82.6115 122.69 82.896C122.912 83.2204 123.062 83.5505 123.2 83.9154C123.224 83.989 123.24 84.0371 123.265 84.0939C123.289 84.1507 123.321 84.2148 123.403 84.3779" stroke="#020205" stroke-width="2.34" stroke-linecap="round"/>
<path d="M96.3105 80.0566C97.4642 80.7617 98.1226 81.1569 98.6203 81.4939C99.0592 81.7911 99.8551 82.3756 100.308 82.7128C101.072 83.2821 101.44 83.6322 101.667 83.9318C101.906 84.247 102.489 84.8908 102.897 85.4208C103.077 85.6545 103.302 85.9143 103.585 86.2945C103.836 86.5786 104.03 86.8689 104.144 87.0964C104.176 87.1452 104.224 87.1933 104.176 87.2428" stroke="#020205" stroke-width="2.34" stroke-linecap="round"/>
<path d="M84.0527 137.078C84.4613 137.444 84.953 137.767 85.4473 138.172C85.6757 138.359 86.1811 137.99 86.4473 138.172C86.5519 138.243 87.5412 138.091 87.9473 138.172C88.2238 138.227 86.9394 138.286 86.0937 138.498C85.2505 138.709 84.4955 139.123 83.9971 139.238C83.4903 139.354 82.9425 139.591 82.3858 139.805C81.7747 140.04 81.5068 140.318 81.1972 140.52C80.6904 140.85 80.1398 141.36 79.9099 141.726C79.7442 141.99 79.4984 142.717 79.3352 143.708C79.2549 144.196 79.1304 144.6 79.0776 145.142C79.0028 145.911 79.4891 146.883 79.8496 147.508C79.97 147.717 80.2015 148.004 80.7081 148.438C81.4775 149.097 82.2731 149.391 82.7067 149.581C83.2271 149.81 83.565 150.036 83.7826 150.158C84.1294 150.351 84.4366 150.454 85.4389 150.65C86.3663 150.832 88.1566 151.112 89.156 151.262C90.3088 151.434 90.6162 151.405 91.4332 151.383C92.1099 151.364 93.3163 151.272 94.4164 151.147C95.5165 151.021 96.4732 150.851 97.0523 150.733C97.6314 150.614 97.8038 150.553 99.0095 150.22C100.215 149.888 102.449 149.285 103.813 148.859C105.178 148.433 105.605 148.201 105.876 148.044C106.255 147.824 106.749 147.591 107.461 147.317C108.349 146.975 108.657 146.698 109.052 146.44C109.395 146.216 109.702 145.955 110.094 145.689C110.752 145.243 111.154 144.837 111.27 144.699C111.822 144.046 112.043 142.757 112.145 142.307C112.279 141.711 112.094 141.246 111.897 140.857C111.839 140.744 110.888 140.213 110.447 139.672" stroke="#020205" stroke-width="2.34" stroke-linecap="round"/>
<path d="M56.7406 121.337C56.6427 121.342 55.8918 122.066 54.7478 123.226C54.1629 123.819 53.7127 124.212 53.2796 124.716C52.9803 125.065 52.6637 125.553 52.1528 126.221C51.1449 127.539 50.9683 128.389 50.5706 129.091C49.8993 130.275 49.4339 130.92 49.0106 131.389C48.678 131.757 48.5057 132.207 48.341 132.649C48.0762 133.36 47.7278 134.005 47.491 134.501C47.2167 135.076 47.0528 135.898 46.9565 136.474C46.7961 137.431 46.7703 138.714 46.7428 139.163C46.7183 139.563 46.5876 140.036 46.5428 140.623C46.5054 141.111 46.1403 141.991 45.9682 142.523C45.7825 143.098 45.7186 143.502 45.4822 144.208C45.3303 144.661 45.0066 145.1 44.5557 145.507C44.0461 145.967 43.3807 146.298 42.8843 146.545C42.2558 146.858 41.1383 147.004 39.8028 147.318C39.3511 147.424 38.7406 147.519 38.0109 147.593C37.2813 147.668 36.4488 147.709 35.7983 147.717C34.7046 147.73 33.8283 147.617 33.0923 147.505C31.9095 147.325 30.5777 147.059 29.4291 146.906C28.8587 146.83 28.3532 146.749 27.2719 146.394C26.3473 146.091 25.5529 145.748 24.2795 145.291C23.7988 145.119 23.1309 144.877 22.3148 144.657C21.8566 144.534 21.1645 144.207 20.0155 143.732C18.8559 143.254 18.2414 142.862 18.0775 142.796C17.8714 142.714 17.2753 142.294 16.4555 141.752C15.4095 141.062 14.4912 139.705 13.9774 139.109C13.6857 138.771 13.6089 137.966 13.6994 136.824C13.8737 134.626 14.8122 134.282 15.107 133.957C15.3822 133.654 15.6093 133.35 15.8942 133.087C16.2167 132.79 16.586 132.557 16.9613 132.364C17.4159 132.131 17.9123 131.797 18.4857 131.631C19.2097 131.423 19.8922 131.227 20.6138 131.079C21.9691 130.802 22.5233 130.799 24.0524 130.722C24.939 130.677 25.7282 130.961 26.1587 131.1C26.6643 131.264 27.3348 131.351 27.928 131.545C28.4251 131.708 28.7768 131.899 29.112 132.155C29.5009 132.452 29.7717 132.446 29.9344 132.487C30.022 132.509 30.1216 132.527 30.1593 132.268C30.4001 130.612 30.226 129.6 30.3275 128.913C30.4533 128.061 30.9164 127.061 31.5463 125.6C31.9966 124.556 32.9349 122.657 33.4619 121.596C34.0729 120.366 34.2901 120.099 34.5067 119.742C34.858 119.165 35.3535 118.584 35.8659 117.954C36.5248 117.143 37.0506 116.318 37.6386 115.721C38.8489 114.49 39.408 113.871 39.8603 112.968C40.0102 112.669 40.1354 112.494 40.253 112.376C40.3253 112.335 40.4233 112.33 40.5319 112.263C40.6405 112.196 40.7568 112.068 40.8767 111.935" stroke="#020205" stroke-width="2.34" stroke-linecap="round"/>
<defs>
<filter id="filter0_g_1156_2908" x="19.1857" y="17.7833" width="110.023" height="110.023" filterUnits="userSpaceOnUse" color-interpolation-filters="sRGB">
<feFlood flood-opacity="0" result="BackgroundImageFix"/>
<feBlend mode="normal" in="SourceGraphic" in2="BackgroundImageFix" result="shape"/>
<feTurbulence type="fractalNoise" baseFrequency="0.045198779553174973 0.045198779553174973" numOctaves="3" seed="3160" />
<feDisplacementMap in="shape" scale="2.5232253074645996" xChannelSelector="R" yChannelSelector="G" result="displacedImage" width="100%" height="100%" />
<feMerge result="effect1_texture_1156_2908">
<feMergeNode in="displacedImage"/>
</feMerge>
</filter>
</defs>
</svg>
