<svg width="282" height="62" viewBox="0 0 282 62" fill="none" xmlns="http://www.w3.org/2000/svg">
<path d="M270.528 43.4377C268.275 43.4377 266.286 42.951 264.562 41.9776C262.838 40.9764 261.475 39.6136 260.474 37.8893C259.5 36.1372 259.014 34.1348 259.014 31.882C259.014 29.6015 259.5 27.5991 260.474 25.8748C261.475 24.1227 262.838 22.7599 264.562 21.7865C266.286 20.7853 268.275 20.2847 270.528 20.2847C272.752 20.2847 274.727 20.7853 276.451 21.7865C278.176 22.7599 279.525 24.1227 280.498 25.8748C281.499 27.5991 282 29.6015 282 31.882C282 34.1348 281.513 36.1372 280.54 37.8893C279.566 39.6136 278.217 40.9764 276.493 41.9776C274.769 42.951 272.78 43.4377 270.528 43.4377ZM270.528 39.6831C271.974 39.6831 273.253 39.3494 274.366 38.6819C275.478 38.0145 276.34 37.0967 276.952 35.9286C277.592 34.7605 277.912 33.4117 277.912 31.882C277.912 30.3524 277.592 29.0036 276.952 27.8355C276.34 26.6396 275.478 25.7079 274.366 25.0404C273.253 24.373 271.974 24.0392 270.528 24.0392C269.081 24.0392 267.802 24.373 266.69 25.0404C265.577 25.7079 264.701 26.6396 264.061 27.8355C263.422 29.0036 263.102 30.3524 263.102 31.882C263.102 33.4117 263.422 34.7605 264.061 35.9286C264.701 37.0967 265.577 38.0145 266.69 38.6819C267.802 39.3494 269.081 39.6831 270.528 39.6831Z" fill="#020205"/>
<path d="M246.955 53.0326C246.343 53.0326 245.843 52.824 245.453 52.4068C245.064 52.0175 244.869 51.5169 244.869 50.905C244.869 50.2653 245.064 49.7508 245.453 49.3615C245.843 48.9721 246.343 48.7774 246.955 48.7774C248.068 48.7774 249.041 48.5271 249.875 48.0265C250.71 47.5537 251.363 46.9002 251.836 46.0658C252.337 45.2315 252.587 44.272 252.587 43.1873V22.5791C252.587 21.9394 252.782 21.4249 253.171 21.0356C253.588 20.6462 254.103 20.4515 254.715 20.4515C255.354 20.4515 255.869 20.6462 256.258 21.0356C256.648 21.4249 256.842 21.9394 256.842 22.5791V43.1873C256.842 45.1063 256.411 46.8028 255.549 48.2768C254.715 49.7508 253.56 50.905 252.086 51.7393C250.612 52.6015 248.902 53.0326 246.955 53.0326ZM254.715 16.7387C253.964 16.7387 253.31 16.4745 252.754 15.9461C252.226 15.3899 251.961 14.7363 251.961 13.9854C251.961 13.2345 252.226 12.5948 252.754 12.0664C253.31 11.5102 253.964 11.2321 254.715 11.2321C255.466 11.2321 256.105 11.5102 256.634 12.0664C257.19 12.5948 257.468 13.2345 257.468 13.9854C257.468 14.7363 257.19 15.3899 256.634 15.9461C256.105 16.4745 255.466 16.7387 254.715 16.7387Z" fill="#020205"/>
<path d="M237.911 43.4377C235.659 43.4377 233.67 42.951 231.946 41.9776C230.222 40.9764 228.859 39.6136 227.858 37.8893C226.884 36.1372 226.397 34.1348 226.397 31.882C226.397 29.6015 226.884 27.5991 227.858 25.8748C228.859 24.1227 230.222 22.7599 231.946 21.7865C233.67 20.7853 235.659 20.2847 237.911 20.2847C240.136 20.2847 242.111 20.7853 243.835 21.7865C245.559 22.7599 246.908 24.1227 247.882 25.8748C248.883 27.5991 249.384 29.6015 249.384 31.882C249.384 34.1348 248.897 36.1372 247.923 37.8893C246.95 39.6136 245.601 40.9764 243.877 41.9776C242.153 42.951 240.164 43.4377 237.911 43.4377ZM237.911 39.6831C239.358 39.6831 240.637 39.3494 241.749 38.6819C242.862 38.0145 243.724 37.0967 244.336 35.9286C244.975 34.7605 245.295 33.4117 245.295 31.882C245.295 30.3524 244.975 29.0036 244.336 27.8355C243.724 26.6396 242.862 25.7079 241.749 25.0404C240.637 24.373 239.358 24.0392 237.911 24.0392C236.465 24.0392 235.186 24.373 234.073 25.0404C232.961 25.7079 232.085 26.6396 231.445 27.8355C230.806 29.0036 230.486 30.3524 230.486 31.882C230.486 33.4117 230.806 34.7605 231.445 35.9286C232.085 37.0967 232.961 38.0145 234.073 38.6819C235.186 39.3494 236.465 39.6831 237.911 39.6831Z" fill="#020205"/>
<path d="M213.912 29.0034C213.912 27.3347 214.315 25.8468 215.122 24.5397C215.956 23.2047 217.069 22.1479 218.459 21.3692C219.85 20.5905 221.379 20.2011 223.048 20.2011C224.717 20.2011 225.954 20.4792 226.761 21.0354C227.595 21.5639 227.915 22.2035 227.72 22.9544C227.637 23.3438 227.47 23.6497 227.22 23.8722C226.997 24.0669 226.733 24.192 226.427 24.2477C226.121 24.3033 225.788 24.2894 225.426 24.2059C223.646 23.8444 222.047 23.8166 220.629 24.1225C219.21 24.4284 218.084 24.9986 217.249 25.8329C216.443 26.6672 216.04 27.7241 216.04 29.0034H213.912ZM213.954 43.2706C213.286 43.2706 212.772 43.1038 212.41 42.77C212.049 42.4085 211.868 41.8801 211.868 41.1848V22.5373C211.868 21.8698 212.049 21.3553 212.41 20.9937C212.772 20.6322 213.286 20.4514 213.954 20.4514C214.649 20.4514 215.164 20.6322 215.497 20.9937C215.859 21.3275 216.04 21.842 216.04 22.5373V41.1848C216.04 41.8523 215.859 42.3668 215.497 42.7283C215.164 43.0899 214.649 43.2706 213.954 43.2706Z" fill="#020205"/>
<path d="M196.323 43.3125C195.711 43.3125 195.197 43.1178 194.78 42.7284C194.39 42.3113 194.196 41.7968 194.196 41.1849V30.9225C194.196 29.3373 193.903 28.044 193.319 27.0428C192.735 26.0416 191.943 25.3046 190.942 24.8318C189.968 24.3312 188.842 24.0809 187.563 24.0809C186.394 24.0809 185.338 24.3173 184.392 24.7901C183.446 25.2629 182.696 25.9026 182.139 26.7091C181.583 27.4878 181.305 28.3917 181.305 29.4207H178.677C178.677 27.6686 179.094 26.1111 179.928 24.7484C180.79 23.3578 181.959 22.2593 183.433 21.4527C184.907 20.6462 186.561 20.2429 188.397 20.2429C190.316 20.2429 192.026 20.6601 193.528 21.4944C195.058 22.301 196.254 23.4969 197.116 25.0821C198.006 26.6674 198.451 28.6142 198.451 30.9225V41.1849C198.451 41.7968 198.242 42.3113 197.825 42.7284C197.436 43.1178 196.935 43.3125 196.323 43.3125ZM179.177 43.3125C178.566 43.3125 178.051 43.1178 177.634 42.7284C177.244 42.3113 177.05 41.7968 177.05 41.1849V22.5791C177.05 21.9394 177.244 21.4249 177.634 21.0356C178.051 20.6462 178.566 20.4515 179.177 20.4515C179.817 20.4515 180.332 20.6462 180.721 21.0356C181.11 21.4249 181.305 21.9394 181.305 22.5791V41.1849C181.305 41.7968 181.11 42.3113 180.721 42.7284C180.332 43.1178 179.817 43.3125 179.177 43.3125Z" fill="#020205"/>
<path d="M162.165 43.4376C159.912 43.4376 157.924 42.9509 156.199 41.9775C154.475 40.9763 153.112 39.6136 152.111 37.8893C151.138 36.1371 150.651 34.1347 150.651 31.882C150.651 29.6015 151.138 27.599 152.111 25.8747C153.112 24.1226 154.475 22.7599 156.199 21.7865C157.924 20.7853 159.912 20.2846 162.165 20.2846C164.39 20.2846 166.364 20.7853 168.089 21.7865C169.813 22.7599 171.162 24.1226 172.135 25.8747C173.136 27.599 173.637 29.6015 173.637 31.882C173.637 34.1347 173.15 36.1371 172.177 37.8893C171.203 39.6136 169.855 40.9763 168.13 41.9775C166.406 42.9509 164.418 43.4376 162.165 43.4376ZM162.165 39.6831C163.611 39.6831 164.89 39.3494 166.003 38.6819C167.115 38.0144 167.977 37.0966 168.589 35.9286C169.229 34.7605 169.549 33.4116 169.549 31.882C169.549 30.3524 169.229 29.0035 168.589 27.8354C167.977 26.6396 167.115 25.7079 166.003 25.0404C164.89 24.3729 163.611 24.0392 162.165 24.0392C160.719 24.0392 159.439 24.3729 158.327 25.0404C157.214 25.7079 156.338 26.6396 155.699 27.8354C155.059 29.0035 154.739 30.3524 154.739 31.882C154.739 33.4116 155.059 34.7605 155.699 35.9286C156.338 37.0966 157.214 38.0144 158.327 38.6819C159.439 39.3494 160.719 39.6831 162.165 39.6831ZM162.332 16.8638C161.72 16.8638 161.205 16.6692 160.788 16.2798C160.399 15.8626 160.204 15.3481 160.204 14.7363C160.204 14.1522 160.371 13.6794 160.705 13.3179L164.793 9.22962C165.21 8.81245 165.711 8.60387 166.295 8.60387C166.934 8.60387 167.449 8.81245 167.838 9.22962C168.228 9.64679 168.422 10.1613 168.422 10.7732C168.422 11.0513 168.381 11.3155 168.297 11.5658C168.214 11.8161 168.061 12.0386 167.838 12.2333L163.792 16.2798C163.402 16.6692 162.916 16.8638 162.332 16.8638Z" fill="#020205"/>
<path d="M146.297 43.2706C144.906 43.2706 143.655 42.923 142.542 42.2277C141.43 41.5046 140.554 40.5312 139.914 39.3075C139.274 38.0838 138.954 36.7072 138.954 35.1775V15.2785C138.954 14.6666 139.149 14.166 139.538 13.7767C139.928 13.3873 140.428 13.1926 141.04 13.1926C141.652 13.1926 142.153 13.3873 142.542 13.7767C142.931 14.166 143.126 14.6666 143.126 15.2785V35.1775C143.126 36.29 143.432 37.2217 144.044 37.9726C144.656 38.7235 145.407 39.0989 146.297 39.0989H147.715C148.216 39.0989 148.633 39.2936 148.966 39.683C149.328 40.0723 149.509 40.5729 149.509 41.1848C149.509 41.7966 149.272 42.2972 148.8 42.6866C148.355 43.076 147.771 43.2706 147.048 43.2706H146.297ZM137.035 24.8734C136.451 24.8734 135.979 24.7065 135.617 24.3728C135.255 24.0391 135.075 23.6219 135.075 23.1213C135.075 22.5651 135.255 22.1201 135.617 21.7863C135.979 21.4526 136.451 21.2857 137.035 21.2857H146.672C147.256 21.2857 147.729 21.4526 148.09 21.7863C148.452 22.1201 148.633 22.5651 148.633 23.1213C148.633 23.6219 148.452 24.0391 148.09 24.3728C147.729 24.7065 147.256 24.8734 146.672 24.8734H137.035Z" fill="#020205"/>
<path d="M123.111 43.4376C120.858 43.4376 118.869 42.9509 117.145 41.9775C115.421 40.9763 114.058 39.6136 113.057 37.8893C112.083 36.1371 111.597 34.1347 111.597 31.882C111.597 29.6015 112.083 27.5991 113.057 25.8747C114.058 24.1226 115.421 22.7599 117.145 21.7865C118.869 20.7853 120.858 20.2847 123.111 20.2847C125.336 20.2847 127.31 20.7853 129.034 21.7865C130.759 22.7599 132.108 24.1226 133.081 25.8747C134.082 27.5991 134.583 29.6015 134.583 31.882C134.583 34.1347 134.096 36.1371 133.123 37.8893C132.149 39.6136 130.8 40.9763 129.076 41.9775C127.352 42.9509 125.363 43.4376 123.111 43.4376ZM123.111 39.6831C124.557 39.6831 125.836 39.3494 126.949 38.6819C128.061 38.0144 128.923 37.0966 129.535 35.9286C130.175 34.7605 130.495 33.4116 130.495 31.882C130.495 30.3524 130.175 29.0035 129.535 27.8355C128.923 26.6396 128.061 25.7079 126.949 25.0404C125.836 24.3729 124.557 24.0392 123.111 24.0392C121.664 24.0392 120.385 24.3729 119.273 25.0404C118.16 25.7079 117.284 26.6396 116.644 27.8355C116.005 29.0035 115.685 30.3524 115.685 31.882C115.685 33.4116 116.005 34.7605 116.644 35.9286C117.284 37.0966 118.16 38.0144 119.273 38.6819C120.385 39.3494 121.664 39.6831 123.111 39.6831Z" fill="#020205"/>
<path d="M97.8247 43.4376C95.6554 43.4376 93.7087 42.937 91.9843 41.9358C90.26 40.9068 88.8973 39.5162 87.8961 37.7641C86.8949 36.012 86.3804 34.0374 86.3525 31.8403V12.8173C86.3525 12.1776 86.5472 11.6631 86.9366 11.2738C87.3537 10.8844 87.8683 10.6897 88.4801 10.6897C89.1198 10.6897 89.6343 10.8844 90.0236 11.2738C90.413 11.6631 90.6077 12.1776 90.6077 12.8173V24.0809C91.5811 22.9128 92.7492 21.9951 94.1119 21.3276C95.5025 20.6323 97.0182 20.2847 98.6591 20.2847C100.689 20.2847 102.511 20.7992 104.124 21.8282C105.737 22.8294 107.002 24.2061 107.92 25.9582C108.866 27.6825 109.339 29.6432 109.339 31.8403C109.339 34.0374 108.824 36.012 107.795 37.7641C106.794 39.5162 105.431 40.9068 103.707 41.9358C101.983 42.937 100.022 43.4376 97.8247 43.4376ZM97.8247 39.6831C99.2431 39.6831 100.509 39.3494 101.621 38.6819C102.733 37.9866 103.61 37.041 104.249 35.8451C104.917 34.6492 105.25 33.3143 105.25 31.8403C105.25 30.3385 104.917 29.0035 104.249 27.8355C103.61 26.6674 102.733 25.7496 101.621 25.0821C100.509 24.3868 99.2431 24.0392 97.8247 24.0392C96.4342 24.0392 95.1687 24.3868 94.0285 25.0821C92.916 25.7496 92.04 26.6674 91.4003 27.8355C90.7606 29.0035 90.4408 30.3385 90.4408 31.8403C90.4408 33.3143 90.7606 34.6492 91.4003 35.8451C92.04 37.041 92.916 37.9866 94.0285 38.6819C95.1687 39.3494 96.4342 39.6831 97.8247 39.6831Z" fill="#020205"/>
<g filter="url(#filter0_g_770_6827)">
<circle cx="40.4097" cy="29.2359" r="24.0244" fill="#E60611"/>
</g>
<path d="M30.5269 10.6655C30.5583 10.6498 30.6684 10.6417 30.8344 10.6652C30.9713 10.6846 31.0174 10.8077 31.045 10.8589C31.1121 10.9832 31.0651 11.1163 31.0415 11.1558C30.9895 11.2428 30.8365 11.3297 30.6936 11.3578C30.5691 11.3823 30.4562 11.3145 30.3808 11.2395C30.2928 11.1518 30.2895 10.9826 30.3013 10.8798C30.3366 10.824 30.3921 10.7922 30.467 10.7685C30.5106 10.7604 30.5654 10.7604 30.6219 10.7604" stroke="#020205" stroke-width="1.72082" stroke-linecap="round"/>
<path d="M44.6763 18.4275C44.8487 18.3492 44.961 18.2931 45.0162 18.2772C45.182 18.2294 45.3405 18.3719 45.4356 18.4076C45.4869 18.4268 45.5385 18.4747 45.5899 18.5338C45.6991 18.6594 45.5632 18.9322 45.4562 19.1115C45.3843 19.232 45.2784 19.274 45.1674 19.2979C45.0337 19.3266 44.9379 19.2427 44.8389 19.1835C44.7172 19.1106 44.6293 19.0371 44.5815 18.9423C44.5576 18.7919 44.636 18.54 44.7195 18.3607C44.7471 18.3328 44.7941 18.3093 44.8425 18.2851" stroke="#020205" stroke-width="1.72082" stroke-linecap="round"/>
<path d="M30.0069 14.5345C29.9122 14.7951 29.8331 15.0316 29.7737 15.2538C29.7108 15.4886 29.6119 15.8377 29.5913 16.2739C29.5816 16.4812 29.6665 16.6306 29.7337 16.9031C29.822 17.2616 29.7695 17.5085 29.797 17.6912C29.8208 17.8486 29.8645 17.9837 29.892 18.1225C29.9237 18.2822 29.9594 18.4348 30.0894 18.731C30.2046 18.9938 30.26 19.1546 30.4727 19.5693C30.5395 19.6996 30.646 19.8178 30.7766 19.9725C30.9073 20.1271 31.0718 20.3073 31.2663 20.4902C31.4607 20.6731 31.68 20.8533 31.9497 21.0519C32.2194 21.2505 32.5327 21.462 32.7451 21.5945C33.0521 21.786 33.2347 21.8458 33.4081 21.8971C33.8442 22.0261 34.1361 22.0593 34.5159 22.1543C34.6689 22.1926 34.8485 22.2416 35.1244 22.2888C35.2837 22.3161 35.4787 22.3674 35.705 22.3916C36.1798 22.4424 36.5028 22.4237 36.6566 22.4355C36.8645 22.4516 37.2134 22.4082 37.5928 22.3607C37.9179 22.3201 38.0459 22.2895 38.3533 22.1752C38.507 22.1181 38.7381 21.9909 38.9924 21.8873C39.2466 21.7837 39.513 21.6975 39.7168 21.6178C40.0604 21.4836 40.2928 21.3167 40.4784 21.1823C40.7003 21.0218 40.8314 20.992 40.9777 20.9127C41.1638 20.7861 41.2984 20.6831 41.3695 20.6397C41.4014 20.6197 41.4249 20.6041 41.4491 20.5879" stroke="#020205" stroke-width="1.72082" stroke-linecap="round"/>
<path d="M41.0565 48.1791C41.1562 48.4353 41.281 48.7279 41.4063 49.0084C41.5561 49.3437 41.5844 49.5618 41.6519 49.7216C41.7239 49.8923 41.852 50.1741 41.9672 50.4107C42.1038 50.6913 42.1865 50.8396 42.2621 51.0023C42.4239 51.3503 42.6586 51.5768 42.7926 51.7169C42.9689 51.9012 43.0917 51.9992 43.258 52.1571C43.5334 52.4186 43.8763 52.8068 44.012 52.9755C44.1593 53.1586 44.3918 53.2894 44.5076 53.3827C44.6494 53.4972 44.764 53.6036 45.1611 53.9592C45.3437 54.1227 45.666 54.4126 45.8869 54.5937C45.989 54.6775 46.0888 54.75 46.2077 54.8314C46.2545 54.8634 46.3087 54.8662 46.3249 54.8694C46.4485 54.8941 46.0604 54.7918 45.8534 54.7662C45.4679 54.7185 45.359 54.8732 45.1362 54.9245C44.9097 54.9766 44.6649 55.0822 44.4161 55.1779C44.1429 55.2829 44.0232 55.4074 43.8848 55.4975C43.6583 55.6449 43.4122 55.8732 43.3094 56.0367C43.2353 56.1547 43.1255 56.4795 43.0526 56.9226C43.0167 57.1408 42.961 57.321 42.9374 57.5635C42.904 57.907 43.1213 58.3415 43.2824 58.6209C43.3363 58.7142 43.4398 58.8426 43.6662 59.0366C44.0101 59.3313 44.3657 59.4626 44.5595 59.5477C44.7921 59.6498 44.9431 59.751 45.0404 59.8053C45.1954 59.8919 45.3327 59.9377 45.7807 60.0255C46.1952 60.1067 46.9954 60.232 47.4421 60.2987C47.9574 60.3756 48.0948 60.363 48.46 60.3528C48.7624 60.3443 49.3016 60.3032 49.7933 60.2473C50.2851 60.1913 50.7127 60.1152 50.9715 60.0623C51.2303 60.0094 51.3074 59.982 51.8463 59.8333C52.3852 59.6846 53.3837 59.4153 53.9935 59.2248C54.6033 59.0343 54.7942 58.9307 54.9153 58.8605C55.085 58.7621 55.3057 58.6583 55.624 58.5357C56.021 58.3829 56.1584 58.2591 56.3349 58.1436C56.4882 58.0433 56.6254 57.9269 56.8008 57.8079C57.0949 57.6085 57.2744 57.4271 57.3265 57.3654C57.573 57.0737 57.6719 56.4973 57.7173 56.2965C57.7775 56.0299 57.6944 55.8221 57.6064 55.6483C57.5807 55.5976 57.5461 55.5447 57.3493 55.3027C57.1524 55.0606 56.7938 54.6314 56.4781 54.2991C56.1623 53.9668 55.9003 53.7446 55.7084 53.5898C55.408 53.3475 55.2604 53.2411 55.067 53.0659C54.9023 52.9167 54.5877 52.6618 53.9336 51.9803C53.2794 51.2988 52.2916 50.2028 51.7614 49.6039C51.2312 49.005 51.1885 48.9366 51.019 48.6929C50.8494 48.4493 50.5541 48.0326 50.3719 47.7645C50.0282 47.2588 49.9213 47.0349 49.8491 46.867C49.8009 46.7548 49.6874 46.6339 49.5065 46.3384C49.2428 45.9079 49.2342 45.8079 49.186 45.7234C49.1804 45.692 49.1785 45.6528 49.1609 45.6139C49.1433 45.575 49.11 45.5374 49.0509 45.4762" stroke="#020205" stroke-width="1.72082" stroke-linecap="round"/>
<path d="M30.9028 49.1071C30.4523 49.6962 30.3734 50.0762 30.1956 50.3898C29.8956 50.9191 29.6876 51.2074 29.4983 51.417C29.3497 51.5816 29.2727 51.7826 29.199 51.9802C29.0807 52.2979 28.925 52.5864 28.8192 52.8081C28.6966 53.0649 28.6233 53.4326 28.5802 53.6897C28.5086 54.1175 28.497 54.6909 28.4847 54.8916C28.4738 55.0704 28.4154 55.282 28.3953 55.5442C28.3786 55.7623 28.2154 56.1557 28.1385 56.3937C28.0555 56.6505 28.0269 56.8313 27.9213 57.1465C27.8534 57.3491 27.7087 57.5452 27.5071 57.7273C27.2794 57.933 26.982 58.0807 26.7601 58.1913C26.4792 58.3313 25.9797 58.3965 25.3828 58.5367C25.1809 58.5841 24.908 58.6266 24.5819 58.6598C24.2557 58.693 23.8836 58.7115 23.5929 58.7149C23.1041 58.7208 22.7124 58.6703 22.3834 58.6203C21.8547 58.54 21.2594 58.421 20.7461 58.3525C20.4911 58.3184 20.2652 58.2823 19.7819 58.1238C19.3686 57.9883 19.0135 57.8352 18.4444 57.6308C18.2295 57.5536 17.931 57.4455 17.5662 57.3475C17.3614 57.2924 17.0521 57.1461 16.5385 56.9341C16.0202 56.7201 15.7456 56.5452 15.6723 56.5157C15.5802 56.4787 15.3137 56.291 14.9473 56.0491C14.4798 55.7404 14.0693 55.1341 13.8397 54.8678C13.7093 54.7166 13.675 54.3565 13.7154 53.8462C13.7933 52.8637 14.2128 52.7101 14.3446 52.5649C14.4676 52.4293 14.5691 52.2934 14.6964 52.176C14.8406 52.0431 15.0056 51.9392 15.1734 51.8529C15.3766 51.7484 15.5984 51.5993 15.8547 51.5254C16.1783 51.432 16.4834 51.3445 16.8059 51.2786C17.4117 51.1548 17.6594 51.1531 18.3429 51.1188C18.7392 51.0989 19.0919 51.2255 19.2843 51.2879C19.5103 51.3612 19.81 51.3999 20.0751 51.4868C20.2973 51.5596 20.4545 51.6451 20.6043 51.7595C20.7782 51.8923 20.8992 51.8893 20.9719 51.9078C21.0111 51.9178 21.0556 51.9257 21.0724 51.8099C21.1801 51.0696 21.1023 50.6176 21.1476 50.3101C21.2038 49.9295 21.4109 49.4825 21.6924 48.8295C21.8937 48.3628 22.313 47.5141 22.5486 47.0399C22.8217 46.4903 22.9188 46.3706 23.0156 46.2114C23.1726 45.9531 23.3941 45.6937 23.6231 45.4119C23.9176 45.0495 24.1526 44.6809 24.4154 44.4137" stroke="#020205" stroke-width="1.72082" stroke-linecap="round"/>
<path d="M60.9997 37.5593C61.0865 37.6765 61.8702 38.3904 62.4523 39.012C62.7331 39.3119 63.0469 39.736 63.2824 40.0281C63.441 40.2249 63.6375 40.4408 63.8222 40.6818C63.9056 40.7906 63.9731 40.9178 63.9585 41.0448C63.9094 41.4714 63.4235 41.3749 63.1778 41.594C62.9796 41.7706 62.891 42.086 62.698 42.5157C62.4364 43.0982 62.3599 43.4006 62.2376 43.8964C62.1751 44.1498 62.1782 44.3887 62.1448 44.7336C62.1094 45.1002 62.7874 45.9113 63.1889 46.1843C63.4726 46.3772 64.3721 46.0823 64.7962 45.8948C65.0116 45.7996 65.1103 45.2893 65.2543 44.9552C65.3049 44.8378 65.2901 44.6908 65.3348 44.5543C65.3557 44.4905 65.3697 44.437 65.406 44.497C65.6741 44.9405 65.6539 45.2539 65.8147 45.4217C66.0046 45.6199 66.1846 45.8297 66.3987 46.0365C66.5936 46.2246 66.9834 46.3823 67.4259 46.3444C68.053 46.2906 68.4314 45.9749 68.4758 45.8629C68.5891 45.5772 68.6163 45.2473 68.6831 45.0776C68.7771 44.8389 68.9235 45.4868 69.0298 45.59C69.2118 45.7666 69.4897 45.725 69.6796 45.7362C70.3068 45.7729 70.4952 45.2183 70.6908 44.9419C70.8397 44.7314 70.8733 44.2333 70.9094 43.9412C70.9288 43.7837 71.2096 44.4095 71.3606 44.648C71.4743 44.8276 71.7958 44.6114 72.1 44.5204C72.3303 44.4514 72.4836 44.175 72.6687 43.968C72.8136 43.806 72.9002 43.2117 72.9084 42.7579C72.9159 42.3453 72.7858 41.8123 72.7262 41.555C72.625 41.1178 72.4309 40.4302 72.1886 39.6645C72.1318 39.485 72.0796 39.4055 71.8808 38.8241C71.682 38.2426 71.329 37.1648 71.1279 36.5756C70.8565 35.7803 70.5886 35.4476 70.2646 34.9582C70.0567 34.6443 69.8505 34.191 69.6872 33.8677C69.5224 33.5415 69.2429 33.3295 68.9775 32.993C68.8337 32.8106 68.4233 32.2179 67.8532 31.3712C67.3222 30.5827 66.9478 30.3514 66.6817 30.0872C66.4844 29.8914 66.256 29.6329 65.9274 29.3004C65.7598 29.1308 65.5837 28.9724 65.3938 28.8396C65.2179 28.7165 64.6518 28.2074 63.7585 27.4913C62.8211 26.7399 62.5413 26.5968 62.1741 26.2949C61.4241 25.7733 61.1124 25.6154 60.7828 25.479C60.6394 25.4126 60.4074 25.295 60.1538 25.1298" stroke="#020205" stroke-width="1.72082" stroke-linecap="round"/>
<path d="M14.223 17.763C13.1889 18.081 12.4044 18.5668 11.3971 17.7305C10.1702 16.712 12.4399 14.4642 13.3012 14.0976C14.3755 13.6402 15.6816 13.7322 16.6843 14.3466C18.3964 15.3957 16.3083 18.5523 15.4742 19.4225" stroke="#020205" stroke-width="1.72082" stroke-linecap="round"/>
<path d="M4.37681 16.0864C4.69099 16.2066 4.89568 16.2849 5.07377 16.3776C5.44561 16.5713 5.7175 16.773 5.84683 16.8762C6.02955 17.0219 6.24215 17.1723 6.45923 17.3586C6.73326 17.5938 7.02293 17.8105 7.20905 17.9935C7.51785 18.297 7.85338 18.7332 7.93351 18.8797C8.11608 19.2134 8.13358 19.3624 8.14753 19.4673C8.16147 19.5721 8.16575 19.6894 8.16816 19.8024C8.1718 19.9737 8.16749 20.2036 8.1421 20.3679C8.09711 20.659 7.87401 20.7789 7.69219 20.8755C7.57779 20.9363 7.3927 21.0009 7.23555 21.0531C7.11208 21.0942 6.98459 21.0938 6.8668 21.0986C6.69423 21.1056 6.5397 21.0897 6.31355 21.0445C6.05106 20.9919 5.66661 20.8303 5.39285 20.7049C5.27631 20.6516 5.16822 20.5899 5.05598 20.5264C4.93109 20.4556 4.81696 20.4058 4.37308 20.1329C4.18914 20.0198 4.10205 19.9832 4.00074 19.9238C3.88698 19.8572 3.74387 19.7965 3.60989 19.7246C3.50196 19.6709 3.36405 19.6015 3.18323 19.5117C3.11983 19.4832 3.02701 19.4477 2.93137 19.4111" stroke="#020205" stroke-width="1.72082" stroke-linecap="round"/>
<path d="M6.65959 13.1705C6.68757 13.1812 6.98458 13.2865 7.45546 13.4624C7.88245 13.6219 8.04114 13.7911 8.30571 13.9885C8.3938 14.0542 8.55165 14.1705 8.79034 14.3704C9.1595 14.6797 9.26698 14.8632 9.40223 15.02C9.55016 15.1916 9.70429 15.458 9.77413 15.594C9.85493 15.7514 9.9739 15.8967 10.0424 16.0153C10.0977 16.1112 10.1676 16.3637 10.2284 16.5558C10.2899 16.7498 10.2535 16.9675 10.2165 17.0962C10.1751 17.2403 10.1391 17.3936 10.0674 17.613C10.0123 17.7816 9.96324 17.9803 9.86995 18.2248C9.79513 18.4209 9.65462 18.491 9.57467 18.5736C9.45329 18.699 9.32442 18.7838 8.96351 18.8928C8.79371 18.9441 8.64433 18.9099 8.48435 18.9155C8.37458 18.9157 8.30259 18.9133 8.25261 18.9067C8.22638 18.901 8.19839 18.8903 8.16956 18.8793" stroke="#020205" stroke-width="1.72082" stroke-linecap="round"/>
<path d="M3.3015 19.8439C3.23963 19.9201 3.04516 20.2132 2.76012 20.6455C2.57357 20.9284 2.45528 21.0407 2.34305 21.173C2.09592 21.4643 1.92732 21.7291 1.87175 21.842C1.76035 22.0682 1.66211 22.2493 1.58103 22.4074C1.50732 22.5512 1.33671 22.9703 1.20658 23.3642C1.07949 23.749 1.03679 23.884 0.990257 24.1346C0.929959 24.4595 0.876901 24.9062 0.885971 25.0449C0.895904 25.1968 0.911954 25.4409 0.974038 25.6453C1.12073 26.1282 1.42955 26.4622 1.55447 26.6031C1.69974 26.767 1.76172 26.8504 2.12255 27.1225C2.51529 27.4187 2.87341 27.5953 3.05253 27.6555C3.31596 27.744 3.44427 27.7466 3.63616 27.7948C4.04023 27.8963 4.27247 27.8703 4.44368 27.8685C4.57843 27.8671 4.75727 27.7286 4.92966 27.6138C5.14899 27.4678 5.27572 27.3472 5.6837 26.9919C5.89638 26.8067 6.13575 26.502 6.29831 26.2845C6.34789 26.2182 6.50373 25.9952 6.72155 25.6631C6.94822 25.3175 7.07006 25.1851 7.26616 24.8994C7.42617 24.6663 7.63758 24.3279 7.77392 24.1559C7.85874 24.049 7.99003 23.8824 8.19661 23.6125C8.26327 23.5253 8.3126 23.4503 8.46655 23.2089C8.59431 23.0087 8.80372 22.6384 8.92238 22.4274C9.06366 22.1762 9.11688 22.061 9.19604 21.9402C9.25869 21.8447 9.42328 21.5835 9.63282 21.1978C9.76295 20.9583 9.86954 20.7197 10.0095 20.4836C10.1887 20.1811 10.3544 19.8205 10.4745 19.6143C10.5505 19.4836 10.6346 19.3474 10.8253 19.0642C10.9209 18.9221 10.967 18.8026 11.0285 18.6956C11.0778 18.6099 11.1511 18.5367 11.3461 18.297C11.3885 18.2409 11.4067 18.2146 11.4239 18.1915C11.441 18.1684 11.4565 18.1494 11.4724 18.1298" stroke="#020205" stroke-width="1.72082" stroke-linecap="round"/>
<path d="M7.99634 24.228C8.2062 24.4356 8.35539 24.5824 8.65323 24.8184C8.90562 25.0183 9.38116 25.3655 9.66082 25.5688C9.94049 25.7721 10.0144 25.8171 10.0846 25.8632C10.1549 25.9093 10.2193 25.9554 10.9405 26.3559C11.6617 26.7565 13.0378 27.5102 13.8151 27.9284C14.5924 28.3466 14.7293 28.4064 14.9135 28.4908C15.0976 28.5753 15.3248 28.6825 16.0259 28.9414C16.7271 29.2003 17.8954 29.6075 18.5486 29.8291" stroke="#020205" stroke-width="1.72082" stroke-linecap="round"/>
<path d="M12.2461 14.3517C12.2136 14.3055 12.1915 14.144 12.1531 13.8607C12.1317 13.7028 11.9702 13.344 11.7739 12.902C11.658 12.6412 11.5462 12.4716 11.3661 12.1855C11.1899 11.9054 10.9947 11.7824 10.5717 11.3784C10.0365 10.8672 9.86118 10.8368 9.70761 10.7651C9.6682 10.7467 9.62785 10.7219 9.41458 10.636C9.20132 10.5501 8.81674 10.403 8.52591 10.3086C8.056 10.1561 7.75744 10.1424 7.58904 10.1546C7.40005 10.1684 7.17343 10.2853 6.81464 10.4335C6.28551 10.6521 6.158 10.8524 6.02774 10.9613C5.86543 11.097 5.72113 11.4436 5.64964 11.7507C5.61115 11.9161 5.55367 12.166 5.52641 12.2929C5.49937 12.4189 5.45681 12.5734 5.41209 12.68C5.38783 12.7379 5.10167 12.7611 4.66372 12.8319C4.26523 12.8964 4.01867 12.9961 3.89907 13.0567C3.64804 13.1839 3.33434 13.3815 3.19017 13.5028C3.05772 13.6141 2.87754 14.067 2.80929 14.3001C2.77997 14.4002 2.78155 14.5367 2.7778 14.6677C2.77307 14.8328 2.82633 15.0996 2.84997 15.2586C2.86734 15.3753 2.89136 15.4581 2.89268 15.5097C2.89718 15.6862 2.57564 15.8235 2.3892 15.9821C2.18217 16.1582 2.08476 16.2501 1.97769 16.3541C1.81976 16.5074 1.79083 16.6666 1.73411 16.7816C1.6735 16.9045 1.60162 17.0295 1.44463 17.4501C1.35608 17.6873 1.37146 18.0239 1.38656 18.3791C1.40583 18.8327 1.59427 19.2192 1.66604 19.418C1.76602 19.6951 1.83532 19.7988 1.94472 20.0067C2.05224 20.211 2.10753 20.2957 2.18198 20.4306C2.22197 20.5013 2.26211 20.5512 2.29748 20.5902C2.31389 20.6135 2.3272 20.6439 2.36291 20.6837" stroke="#020205" stroke-width="1.72082" stroke-linecap="round"/>
<path d="M9.91972 10.7543C10.4216 9.83527 11.6481 8.70907 11.1603 7.73413C10.1953 5.8051 10.9811 2.67607 12.9648 1.72083C14.4993 0.981858 16.13 1.31787 17.6379 1.92882C17.7844 1.98818 17.3615 2.22889 17.0215 2.52837C16.4993 2.98836 15.9275 3.50706 15.5699 4.11699C15.4494 4.32265 15.7105 5.78576 15.945 6.01722C16.5401 6.60477 17.4471 6.85997 18.2775 6.59269C18.8712 6.40157 19.9835 4.23904 20.444 4.31459C21.1183 4.42521 21.5176 6.14383 21.4891 6.76637C21.4214 8.24622 20.8129 10.5585 19.1551 10.9525C16.9457 11.4776 14.5464 10.6224 14.0973 13.6787" stroke="#020205" stroke-width="1.72082" stroke-linecap="round"/>
<path d="M15.7014 19.5277C15.8288 19.591 16.0419 19.8464 16.4038 20.1132C17.1158 20.6383 18.3432 21.1903 19.1422 21.4994C20.0978 21.8691 20.1956 21.8809 20.8349 22.0089" stroke="#020205" stroke-width="1.72082" stroke-linecap="round"/>
<defs>
<filter id="filter0_g_770_6827" x="15.8214" y="4.64761" width="49.1766" height="49.1767" filterUnits="userSpaceOnUse" color-interpolation-filters="sRGB">
<feFlood flood-opacity="0" result="BackgroundImageFix"/>
<feBlend mode="normal" in="SourceGraphic" in2="BackgroundImageFix" result="shape"/>
<feTurbulence type="fractalNoise" baseFrequency="0.12383376061916351 0.12383376061916351" numOctaves="3" seed="3160" />
<feDisplacementMap in="shape" scale="1.1277980804443359" xChannelSelector="R" yChannelSelector="G" result="displacedImage" width="100%" height="100%" />
<feMerge result="effect1_texture_770_6827">
<feMergeNode in="displacedImage"/>
</feMerge>
</filter>
</defs>
</svg>
