<svg width="430" height="378" viewBox="0 0 430 378" fill="none" xmlns="http://www.w3.org/2000/svg">
<g clip-path="url(#clip0_621_12896)">
<g filter="url(#filter0_g_621_12896)">
<circle cx="294.498" cy="174.358" r="89.6464" fill="#E60611"/>
</g>
<path d="M210.24 159.821C208.7 159.853 205.671 159.9 204.008 159.862C202.497 159.827 199.628 159.823 197.962 159.786C195.916 159.74 195.336 159.586 194.391 159.489C190.732 159.112 189.824 159.229 189.326 158.96C188.376 158.447 188.288 156.305 187.79 155.442C187.072 154.199 186.446 152.786 185.205 151.078C184.428 150.009 183.985 149.589 182.954 148.805C182.331 148.331 181.314 148.12 180.054 147.887C178.389 147.58 175.683 147.704 174.394 147.937C173.261 148.142 172.758 148.511 170.475 149.497C169.014 150.128 168.162 150.789 167.534 151.405C166.753 152.171 165.957 152.803 165.284 153.505C164.67 154.144 164.154 155.234 163.781 156.409C163.492 157.319 163.714 158.35 164.206 159.501C164.548 160.302 165.13 160.703 165.683 161.094C166.219 161.473 168.103 161.341 169.362 161.308C170.35 161.281 171.793 160.973 172.649 160.791C173.269 160.659 173.867 160.427 174.598 160.096C175.358 159.754 175.719 159.453 175.9 159.465C176.914 159.536 176.211 161.093 176.388 161.894C176.529 162.532 176.728 163.148 177.016 163.872C177.45 164.963 178.145 165.995 179.194 167.375C179.794 168.164 180.503 168.828 181.125 169.288C181.675 169.558 182.273 169.77 183.074 170.26C183.258 170.378 183.381 170.45 183.508 170.524" stroke="black" stroke-width="3.94532" stroke-linecap="round"/>
<path d="M165.196 153.618C164.87 153.05 164.464 152.485 163.891 152.045C163.263 151.561 162.199 151.382 160.131 151.03C158.105 150.685 156.685 150.972 156.134 151.148C153.607 151.955 151.716 153.181 150.979 153.765C150.266 154.329 149.828 155.432 149.563 156.305C149.354 156.992 149.315 157.965 149.26 161.1C149.239 162.299 149.707 163.075 150.104 163.85C150.375 164.38 150.796 164.769 150.958 165.129C151.318 165.932 149.886 166.338 149.412 166.896C148.884 167.517 148.545 168.465 148.106 169.675C147.639 170.963 147.514 172.143 147.631 173.39C147.699 174.121 148.099 174.868 148.473 175.768C149.019 177.078 150.033 177.96 150.705 178.514C151.362 179.056 151.99 179.255 152.158 179.456C152.56 179.936 151.587 180.757 151.515 183.002C151.479 184.113 151.984 185.474 152.467 186.682C152.765 187.426 153.3 188.057 153.854 188.821C154.59 189.836 155.534 190.483 156.922 191.149C158.03 191.681 158.992 191.653 159.968 191.711C162.059 191.837 163.413 191.512 164.345 191.282C165.337 191.038 166.178 190.39 166.893 189.715C167.422 189.217 167.66 188.602 168.114 187.459C168.627 186.166 168.011 183.978 167.716 183.156C167.644 182.966 167.566 182.733 167.504 182.538C167.443 182.343 167.4 182.193 167.324 181.942" stroke="black" stroke-width="3.94532" stroke-linecap="round"/>
<path d="M160.348 181.693C161.65 182.061 163.359 182.282 164.312 182.162C165.026 182.073 165.708 181.987 166.781 181.761C167.929 181.52 168.743 181 169.456 180.506C170.139 180.033 170.336 179.336 170.569 178.64C170.791 177.978 170.844 177.162 170.941 176.067C171.145 173.762 170.682 172.761 170.314 172.051C170.076 171.698 169.817 171.371 169.542 171.064C169.399 170.91 169.25 170.76 168.998 170.541" stroke="black" stroke-width="3.94532" stroke-linecap="round"/>
<path d="M159.24 170.347C162.783 171.211 163.472 171.363 166.57 171.368C167.777 171.37 168.629 170.769 169.313 170.35C170.054 169.896 170.272 168.927 170.714 167.978C171.011 167.34 170.959 166.356 170.856 165.51C170.719 164.397 170.357 163.836 170.099 163.204C170.022 163.046 169.948 162.896 169.877 162.755C169.806 162.614 169.742 162.485 169.482 162.062" stroke="black" stroke-width="3.94532" stroke-linecap="round"/>
<path d="M164.027 192.212C164.453 193.46 165.306 195.231 166.197 196.838C166.717 197.774 168.496 199.064 170.651 200.342C172.325 201.335 174.102 201.32 176.25 201.325C179.384 201.333 180.23 200.431 181.612 199.227C182.866 198.133 183.148 196.923 183.693 194.863C184.281 192.64 183.789 190.942 183.674 190.174C183.266 187.455 183.119 186.496 182.928 185.499C182.693 184.279 182.307 183.681 181.861 182.199C181.209 180.033 180.381 178.221 179.971 177.113C179.413 175.606 178.854 172.908 178.678 171.759C178.548 170.913 178.361 170.354 178.055 169.261C177.81 168.384 177.62 167.677 177.472 167.04C177.33 166.43 177.2 165.848 177.043 165.259C176.919 164.691 176.854 164.218 176.8 163.853C176.768 163.68 176.725 163.53 176.648 163.052" stroke="black" stroke-width="3.94532" stroke-linecap="round"/>
<path d="M173.699 190.909C173.753 190.337 173.883 189.643 174.099 188.996C174.185 188.738 174.335 188.665 174.453 188.677C175.099 188.742 175.18 190.055 175.194 190.864C175.199 191.186 175.065 191.469 174.911 191.722C174.834 191.849 174.688 191.92 174.563 191.905C174.439 191.89 174.321 191.772 174.255 191.601C174.189 191.431 174.178 191.21 174.167 190.984" stroke="black" stroke-width="3.94532" stroke-linecap="round"/>
<path d="M183.254 184.842C185.145 185.567 187.423 186.218 189.69 186.675C190.65 186.868 191.234 186.928 193.003 187.09C194.773 187.251 197.712 187.497 199.56 187.686C201.408 187.876 202.076 188.001 203.679 188.109C205.283 188.218 207.803 188.304 209.371 188.356C210.939 188.407 211.479 188.421 211.846 188.417C212.213 188.413 212.391 188.392 212.639 188.37" stroke="black" stroke-width="3.94532" stroke-linecap="round"/>
<path d="M159.726 151.279C159.783 150.783 159.839 150.287 159.887 147.764C159.935 145.242 159.973 140.709 160.008 138.304C160.045 135.76 160.118 135.478 160.034 135.222C159.671 134.113 157.364 134.606 156.214 134.502C155.338 134.423 154.424 134.423 151.925 133.923C150.778 133.692 149.764 133.367 148.867 132.979C148.19 132.685 147.59 132.264 146.731 131.559C145.449 130.506 145.021 129.459 144.755 128.882C144.454 128.229 144.251 126.747 144.058 125.587C143.95 124.933 144.061 124.117 144.25 122.455C144.513 120.138 144.665 119.429 144.84 118.803C145.039 118.09 145.421 117.28 145.995 115.53C146.937 112.657 148.009 110.309 148.61 109.033C150.055 105.961 150.788 104.15 151.224 103.038C151.805 101.557 151.904 100.9 152.251 100.278C152.654 99.5583 153.056 98.9453 153.411 98.2961C153.814 97.5594 154.286 96.7367 154.61 96.1711C154.774 95.8863 155.08 95.3072 155.852 93.7882C157.289 90.9575 158.23 88.6355 158.538 87.7508C159.051 86.2804 159.451 85.0143 159.78 84.0232C160.179 82.8193 160.622 81.7435 161.004 80.9926C161.422 80.1695 161.967 79.5976 163.418 77.9667C164.167 77.1246 164.951 76.6786 166.066 76.0057C166.942 75.4776 167.936 75.4318 168.723 75.3358C169.523 75.2381 170.718 75.8967 172.109 76.8872C172.786 77.369 173.483 78.4284 174.466 80.0264C175.691 82.0175 176.606 83.9086 177.13 85.0948C177.79 86.5878 178.612 89.4083 179.395 91.6223C179.847 92.9017 180.363 94.3195 180.79 95.9211C181.17 97.3478 181.967 99.9976 182.459 101.644C183.12 103.854 183.599 105.236 184.108 106.836C184.875 109.248 185.092 110.004 185.787 111.855C186.321 113.278 187.157 115.697 187.718 117.551C188.686 120.752 188.798 122.206 188.868 123.184C188.962 124.525 189.137 125.301 189.117 126.916C189.097 128.436 188.227 129.076 187.39 130.254C186.908 130.933 186.126 131.189 185.335 131.553C183.317 132.483 181.866 132.529 179.45 132.669C175.215 132.915 173.985 132.803 173.459 133.078C173.199 133.215 173.338 133.687 173.305 134.531C173.232 136.427 173.313 138.747 173.358 140.509C173.394 141.949 173.722 143.507 173.96 144.834C174.018 145.181 174.067 145.517 174.103 145.952C174.115 146.202 174.115 146.508 174.115 146.824" stroke="black" stroke-width="3.94532" stroke-linecap="round"/>
<path d="M160.619 138.419C161.219 139.002 161.8 139.464 163.108 140.148C164.081 140.657 164.834 140.592 165.865 140.678C168.748 140.919 170.054 140.304 171.231 139.98C172.004 139.662 172.662 139.32 172.931 139.148C173.054 139.051 173.149 138.933 173.246 138.779" stroke="black" stroke-width="3.94532" stroke-linecap="round"/>
<path d="M340.283 180.086C340.724 180.608 342.336 182.47 343.187 183.387C343.369 183.583 343.527 183.883 344.642 185.392C345.758 186.902 347.811 189.624 349.162 191.522C351.981 195.485 352.378 196.492 353.375 198.937C354.126 200.78 355.17 203.927 355.923 206.207C357.111 209.806 357.546 211.832 357.746 213.172C358.159 215.942 358.283 217.555 358.422 218.578C358.489 219.067 358.459 220.305 358.423 221.875C358.393 223.196 356.908 223.88 355.502 224.717C354.476 225.329 353.189 225.994 351.795 226.864C349.248 228.451 347.854 230.286 346.825 231.798C346.003 233.006 346.181 234.524 346.341 235.523C346.477 236.379 347.182 237.314 348.062 238.272C348.762 239.032 350 239.095 352.14 239.538C354.189 239.561 355.323 239.361 356.193 239.212C356.388 239.163 356.581 239.094 357.16 238.98" stroke="black" stroke-width="3.94532" stroke-linecap="round"/>
<path d="M358.936 234.983C358.898 235.341 358.784 237.542 358.909 239.236C358.987 240.302 359.599 241.947 360.517 243.618C361.234 244.922 362.187 245.262 363.048 245.651C364.222 246.181 365.521 245.934 366.709 245.631C368.771 245.106 369.307 243.925 370.001 242.866C370.389 242.115 370.652 241.513 370.777 241.152C370.845 240.97 370.926 240.791 371.197 240.117" stroke="black" stroke-width="3.94532" stroke-linecap="round"/>
<path d="M368.996 245.093C369.168 245.529 369.499 245.99 369.976 246.406C370.751 247.082 373.272 246.937 374.848 246.707C375.827 246.564 376.64 245.343 377.454 244.505C378.348 243.584 378.653 242.422 379.108 241.171C379.275 240.679 379.53 239.945 379.766 239.181C380.003 238.418 380.214 237.649 380.431 236.771" stroke="black" stroke-width="3.94532" stroke-linecap="round"/>
<path d="M378.75 245.055C379.355 245.336 380.523 245.482 381.446 245.405C382.408 245.325 383.278 244.64 384.112 243.948C385.052 243.168 386.061 241.401 386.905 240.049C387.485 239.118 388 237.753 388.342 236.599C388.987 234.419 389.496 232.212 389.666 230.709C389.886 228.751 389.677 225.716 389.412 223.146C389.298 222.043 388.829 219.986 388.043 217.19C387.693 215.942 386.945 213.634 385.516 209.814C385.184 208.926 385.02 208.392 383.909 205.835C382.938 203.6 381.131 199.467 380.134 197.236C379.137 195.005 379.002 194.804 378.198 193.254C377.393 191.705 375.921 188.814 374.477 186.181C373.032 183.547 371.657 181.259 370.886 180.001C369.473 177.695 367.391 174.577 365.988 172.529C365.208 171.481 364.591 170.686 364.289 170.315C364.154 170.138 364.057 169.984 363.914 169.742" stroke="black" stroke-width="3.94532" stroke-linecap="round"/>
<path d="M347.489 238.586C347.198 238.688 344.724 239.778 343.005 240.637C341.759 241.259 340.291 242.638 338.193 244.629C337.314 245.464 336.957 246.715 336.657 247.631C336.284 249.007 335.556 252.075 335.302 253.776C335.276 254.236 335.256 254.855 335.234 255.494" stroke="black" stroke-width="3.94532" stroke-linecap="round"/>
<path d="M327.018 258.196C327.018 257.264 327.041 255.038 327.189 251.989C327.348 248.692 328.476 247.15 329.369 245.119C329.742 244.27 330.145 243.693 331.017 242.211C332.486 239.717 333.571 238.796 334.261 238.31C335.295 237.584 336.409 236.975 337.862 236.132C339.033 235.452 340.374 234.852 341.914 234.183C343.16 233.785 343.978 233.609 344.598 233.438C344.755 233.397 344.916 233.362 345.323 233.291" stroke="black" stroke-width="3.94532" stroke-linecap="round"/>
<path d="M335.133 256.723C335.602 257.42 336.09 257.991 337.184 258.419C339.651 259.385 342.167 258.909 343.797 259.334C344.863 259.612 345.368 260.698 346.133 260.79C348.369 261.061 350.081 260.017 351.496 259.827C354.151 259.472 355.075 259.998 356.44 260.439C357.271 260.708 358.144 260.984 362.894 260.29C364.823 260.009 365.694 260.601 366.458 261.042C367.612 261.707 369.121 261.88 371.057 261.865C372.366 261.854 373.766 261.412 375.411 261.575C377.496 261.782 378.927 262.415 380.088 262.127C382.35 261.568 383.941 260.448 384.722 260.253C387.128 259.652 390.031 260.458 391.787 259.64C393.244 258.961 394.459 259.708 395.486 259.911C397.621 260.332 398.638 259.354 399.112 258.955C400.032 258.181 402.542 259.263 403.59 258.971C403.714 258.812 403.812 258.571 403.885 258.343C403.958 258.115 404.004 257.908 404.051 257.59" stroke="black" stroke-width="3.94532" stroke-linecap="round"/>
<path d="M336.184 254.261C338.52 252.937 339.228 252.535 340.253 251.995C341.477 251.35 344.052 251.29 347.684 251.324C349.591 251.341 352.122 249.951 353.282 249.554C354.145 249.259 355.078 249.72 355.846 249.711C356.532 249.703 357.194 249.106 358.225 248.545C358.676 248.299 358.969 247.922 359.476 247.835C360.831 247.602 362.665 248.285 363.973 248.421C364.733 248.5 365.415 248.135 366.122 247.912C367.315 247.536 368.387 248.518 370.136 248.77C371.676 248.992 372.77 248.512 373.888 248.208C376.156 247.593 378.875 248.462 380.448 248.609C381.668 248.723 383.048 248.044 385.989 248.166C388.154 248.255 389.248 249.51 392.169 249.73C394.266 249.888 396.718 251.396 397.988 251.468C399.208 251.537 399.809 251.991 400.868 252.564C401.547 253.028 402.138 253.467 402.711 254.008C403.02 254.273 403.364 254.519 403.822 254.773" stroke="black" stroke-width="3.94532" stroke-linecap="round"/>
<path d="M388.73 238.01C389.176 238.13 391.556 239.13 393.709 240.342C395.157 241.157 396.657 242.7 397.978 243.948C398.738 244.665 399.679 245.791 400.53 247.074C401.009 247.795 401.292 248.76 401.546 249.623C401.729 250.377 401.866 251.033 401.951 251.468C402.009 251.691 402.099 251.917 402.253 252.397" stroke="black" stroke-width="3.94532" stroke-linecap="round"/>
<path d="M390.35 231.836C393.058 232.301 394.337 232.738 396.322 233.835C397.827 234.668 398.667 235.551 399.707 236.314C400.356 236.791 401.829 238.067 403.146 239.266C404.917 240.878 406.265 242.893 406.913 243.79C407.522 244.635 407.939 246.135 408.299 247.301C408.644 248.418 408.764 249.288 409.235 250.766C409.545 251.739 409.828 252.807 410.011 253.682C410.261 254.962 410.57 256.636 410.698 257.868C410.722 258.266 410.722 258.73 410.722 259.209" stroke="black" stroke-width="3.94532" stroke-linecap="round"/>
<path d="M411.341 260.46C410.79 261.405 409.968 262.323 408.924 263.167C408.078 263.85 406.518 264.584 404.019 265.578C402.423 266.213 399.409 267.349 397.045 268.15C394.681 268.951 393.051 269.359 392.068 269.617C390.796 269.951 388.492 270.435 385.216 271.034C383.517 271.345 381.59 271.673 378.833 272.043C376.525 272.353 374.972 272.281 371.842 272.372C369.178 272.45 364.326 272.44 361.727 272.442C358.93 272.445 358.442 272.377 356.864 272.053C353.247 271.31 350.721 270.467 350.003 270.217C348.673 269.754 346.659 269.311 344.769 268.781C342.846 268.242 341.335 267.526 340.356 267.07C339.053 266.463 338.133 265.741 336.588 264.904C335.508 264.319 334.031 263.479 332.646 262.915C330.654 262.103 330.013 261.404 329.428 260.977C328.619 260.299 328.091 259.931 327.555 259.448C327.422 259.332 327.297 259.241 327.168 259.147" stroke="black" stroke-width="3.94532" stroke-linecap="round"/>
<path d="M327.414 260.101C327.612 261.947 327.904 266.699 328.342 269.896C328.727 272.702 328.993 275.483 329.447 278.33C330.171 282.882 331.251 288.066 331.879 291.894C332.29 294.404 332.969 297.681 333.882 300.748C335.945 307.681 336.312 309.248 336.667 310.577C337.007 311.854 338.758 312.886 340.606 313.656C344.12 315.122 345.885 314.94 348.864 315.84C350.662 316.382 352.117 316.596 356.737 317.574C361.055 318.487 362.929 318.138 366.625 318.677C368.012 318.88 369.837 319.074 372.888 319.182C380.16 319.441 384.821 319.225 385.539 319.046C387.813 318.478 390.297 318.313 392.077 317.751C393.467 317.312 394.814 316.61 396.385 315.423C397.626 314.485 399.547 311.74 400.673 309.379C401.412 307.83 401.588 305.861 401.991 303.824C402.332 302.097 402.787 300.224 403.251 298.73C404.026 296.234 404.253 293.395 404.551 291.459C404.865 289.419 405.01 287.719 405.245 286.124C405.649 283.379 405.755 281.415 406.103 279.29C406.462 277.093 406.864 275.145 407.193 273.505C407.559 271.679 407.983 269.772 408.227 268.166C408.594 266.809 409.03 265.335 409.561 264.038C409.691 263.725 409.808 263.416 409.999 262.81" stroke="black" stroke-width="3.94532" stroke-linecap="round"/>
<path d="M254.943 249.354C254.766 249.615 254.335 250.212 253.519 251.229C252.516 252.477 250.307 254.319 247.298 257.02C245.752 258.407 244.38 260.059 243.097 261.622C241.813 263.186 240.715 264.669 239.698 266.156C238.681 267.643 237.779 269.09 236.259 271.369C234.739 273.648 232.629 276.715 231.496 278.387C230.249 280.227 229.378 281.84 228.01 284.28C226.597 286.798 226.265 287.754 225.706 288.367C224.217 290 221.458 288.355 220.541 288.263C219.385 288.147 218.511 288.015 212.457 287.907C210.094 287.864 209.059 288.436 207.272 289.25C206.273 289.705 205.568 290.88 204.874 292.547C204.271 293.993 204.039 295.141 204.002 296.844C203.976 298.095 204.928 299.912 206.573 302.327C207.698 303.977 209.817 305.769 211.945 307.625C214.205 309.597 216.129 310.458 218.19 311.352C219.945 312.113 221.959 312.941 223.901 313.599C225.254 314.058 226.261 314.438 230.777 315.585C234.596 316.555 237.257 316.964 238.214 317.067C240.637 317.328 242.371 317.25 243.239 317.19C244.569 317.1 246.29 316.786 248.153 316.668C250.609 316.512 252.887 315.898 254.673 314.95C255.39 314.571 256.346 313.485 257.547 312.1C260.205 309.034 261.54 306.791 262.158 305.637C264.366 301.518 265.169 299.944 265.97 298.461C266.716 297.079 268.733 293.307 269.941 290.781C270.593 289.417 271.069 288.361 271.628 287.018C272.883 284 273.884 281.374 274.831 280.019C276.937 277.004 277.433 275.931 278.766 274.02C279.667 272.726 281.075 270.812 282.245 268.997C284.432 265.605 285.494 263.533 286.203 262.738C288.114 260.597 288.672 259.847 290.156 256.401C290.6 255.471 290.887 255.023 291.214 254.553C291.373 254.335 291.514 254.158 291.862 253.649" stroke="black" stroke-width="3.94532" stroke-linecap="round"/>
<path d="M295.986 259.821C295.844 260.239 295.562 261.283 295.183 263.044C294.771 264.967 294.767 267.006 294.907 269.374C295.096 272.572 295.894 275.164 296.428 276.668C297.347 279.255 297.967 280.941 298.663 282.52C299.82 285.142 301.106 287.479 302.076 288.959C304.288 292.336 305.735 293.394 306.904 294.648C307.811 295.621 308.945 296.682 311.992 299.628C312.648 300.262 312.821 300.391 312.197 300.615C310.21 301.325 308.355 301.569 307.087 302.051C302.841 303.665 301.918 304.456 301.109 305.022C300.296 305.591 299.274 306.916 298.647 307.976C298.158 308.803 297.61 309.905 297.465 311.124C297.108 314.109 298.181 316.407 298.989 317.805C299.754 319.128 301.124 319.42 303.007 319.971C304.115 320.295 304.89 320.139 306.898 320.183C308.659 320.222 311.926 320.221 314.143 320.16C317.435 320.069 318.817 319.775 319.531 319.672C321.657 319.368 325.345 319.29 327.609 319.03C329.314 318.834 330.178 318.661 331.271 318.303C332.94 317.756 333.814 317.231 334.604 316.835C335.312 316.479 335.976 316.055 336.622 315.568C337.409 314.874 337.961 314.391 338.46 313.842C338.588 313.698 338.721 313.55 338.898 313.356" stroke="black" stroke-width="3.94532" stroke-linecap="round"/>
<path d="M249.441 116.978C249.083 116.343 248.864 115.89 248.837 115.599C248.803 115.238 249.066 114.868 249.309 114.561C249.509 114.31 249.865 114.157 250.31 114.103C250.7 114.056 250.956 114.372 251.107 114.577C251.578 115.215 250.656 117.036 250.038 117.599C249.931 117.696 249.756 117.614 249.642 117.53C249.445 117.291 249.332 116.772 249.284 116.158C249.262 115.903 249.245 115.762 249.564 115.523" stroke="black" stroke-width="3.94532" stroke-linecap="round"/>
<path d="M301.299 138.475C301.374 138.399 301.782 138.283 302.423 138.21C302.864 138.159 303.241 138.555 303.623 138.908C303.965 139.224 304.052 139.611 304.095 139.93C304.199 140.696 303.701 141.267 303.216 141.741C302.971 141.981 302.432 142 301.861 141.976C301.425 141.958 301.177 141.59 300.984 141.294C300.793 141.002 300.698 140.7 300.699 140.434C300.799 140.192 300.947 139.964 301.123 139.749C301.228 139.646 301.365 139.556 301.842 139.491" stroke="black" stroke-width="3.94532" stroke-linecap="round"/>
<path d="M248.755 127.872C248.755 127.891 248.538 129.299 248.21 132.009C247.91 134.489 248.12 135.852 248.185 136.673C248.339 138.614 248.512 140.422 248.792 141.315C248.986 141.934 249.346 142.486 249.933 143.338C250.789 144.584 251.936 145.848 253.02 146.899C253.935 147.786 254.987 148.535 255.909 149.182C256.378 149.511 257.361 150.071 259.541 151.168C260.85 151.826 262.719 152.373 264.095 152.789C266.314 153.46 268.279 153.63 269.995 153.679C270.88 153.704 271.979 153.529 273.756 153.322C275.615 153.106 276.713 152.767 277.451 152.686C278.032 152.622 279.021 152.442 280.42 152.035C281.818 151.628 283.594 150.982 284.745 150.519C287.152 149.317 288.11 148.655 288.517 148.214C288.602 148.118 288.705 148.042 288.811 147.964" stroke="black" stroke-width="3.94532" stroke-linecap="round"/>
<path d="M246.533 107.41C247.009 107.145 248.523 106.35 251.525 105.716C254.646 105.058 256.409 106.153 257.459 106.498C258.657 106.892 259.745 109.004 260.193 109.711C260.488 110.277 260.64 110.903 260.807 111.656C260.853 111.831 260.893 111.97 260.962 112.198" stroke="black" stroke-width="3.94532" stroke-linecap="round"/>
<path d="M296.496 124.27C297.367 123.784 299.849 122.537 300.84 122.291C301.859 122.037 303.543 122.381 306.041 123.025C307.557 123.415 308.909 124.305 309.556 124.788C310.327 125.363 310.674 126.448 311.022 127.493C311.124 127.843 311.245 128.155 311.389 128.491C311.454 128.656 311.504 128.814 311.696 129.201" stroke="black" stroke-width="3.94532" stroke-linecap="round"/>
<path d="M233.555 110.855C233.359 110.812 233.163 110.769 231.982 110.318C230.801 109.866 228.64 109.007 227.443 108.504C226.06 107.924 224.832 107.21 222.511 105.862C221.23 105.118 219.877 104.026 218.955 103.239C216.597 101.225 216.084 99.7173 215.551 98.7959C214.849 97.5837 214.417 96.3542 214.027 94.3904C213.554 92.0093 213.925 90.1135 214.04 89.5771C214.139 89.1138 214.45 88.7009 215.107 87.8083C216.432 86.0065 217.832 84.629 218.919 83.8879C220.452 82.8434 221.606 82.384 222.394 82.0639C223.057 81.7948 224.241 81.2771 226.463 80.6314C228.686 79.9856 231.908 79.2193 236.045 78.7473C240.182 78.2753 245.136 78.1209 251.311 78.2145C257.486 78.3082 264.733 78.6547 271.527 79.3272C278.32 79.9997 284.441 80.9877 289.702 82.0592C294.964 83.1307 299.181 84.2557 305.438 86.5997C311.695 88.9438 319.865 92.4729 324.211 94.4052C328.557 96.3375 328.831 96.5662 329.467 97.04C330.102 97.5138 331.089 98.2258 333.521 99.6147C335.953 101.004 339.798 103.048 341.924 104.145C344.049 105.242 344.338 105.331 345.376 105.815C346.414 106.3 348.192 107.177 349.374 107.784C351.102 108.672 352.434 109.605 353.705 110.547C354.652 111.249 355.717 112.163 356.733 113.026C357.559 113.727 358.6 114.608 359.268 115.202C359.68 115.607 360.067 115.947 360.313 116.121C360.437 116.22 360.56 116.341 360.8 116.55" stroke="black" stroke-width="3.94532" stroke-linecap="round"/>
<path d="M215.826 97.826C216.416 96.3751 217.067 95.3925 218.01 94.4422C219.057 93.3867 220.581 92.0257 222.194 90.9541C222.937 90.4604 224.276 89.9582 225.446 89.4838C226.617 89.0094 227.633 88.6708 229.298 88.207C230.964 87.7433 233.248 87.1646 236.59 86.8503C239.931 86.5361 244.261 86.5037 247.444 86.6712C250.627 86.8387 252.533 87.2071 256.424 88.24C260.314 89.2728 266.133 90.959 273.343 94.0553C280.553 97.1515 288.978 101.607 294.878 104.541C300.777 107.476 303.896 108.755 305.933 109.526C308.798 110.611 309.867 110.753 310.362 110.801C311.244 110.887 312.503 111.118 315.466 111.213C317.71 111.286 321.46 111.207 323.654 111.151C326.376 111.081 328.009 110.648 329.874 110.136C331.704 109.634 332.312 108.967 332.827 108.364C333.451 107.633 334.884 106.822 336.529 105.802C337.275 105.233 337.734 104.757 338.138 104.185C338.265 104.027 338.43 103.861 338.864 103.454" stroke="black" stroke-width="3.94532" stroke-linecap="round"/>
<path d="M247.127 78.4102C247.263 77.9914 247.9 76.499 248.679 75.0439C249.648 73.2368 250.745 71.1396 252.114 69.4398C253.578 67.6214 256.194 66.0776 258.77 64.4805C261.518 62.7766 262.41 62.3549 263.816 61.4866C264.522 61.0507 265.81 60.6163 267.239 60.0672C267.944 59.7961 270.122 59.2435 273.431 58.322C275.361 57.7846 277.767 57.1621 281.502 56.049C283.474 55.4613 285.635 54.9423 287.535 54.5492C289.435 54.1561 291.018 53.9341 293.173 53.8039C295.328 53.6738 298.006 53.6422 299.496 53.6416C300.986 53.641 301.206 53.6724 302.833 53.7165C304.461 53.7607 307.488 53.8168 309.671 53.9579C311.853 54.099 313.097 54.3234 315.805 55.0425C318.512 55.7617 322.644 56.9687 325.674 57.7809C330.483 59.07 332.677 59.4791 333.372 59.718C334.194 60.0008 335.573 60.5215 337.713 61.5898C338.962 62.2135 340.448 63.1829 342.203 64.4514C343.958 65.7199 345.912 67.304 347.345 68.5484C349.691 70.5843 350.66 71.6496 351.469 72.5597C353.4 74.7317 354.716 76.6829 355.12 77.3961C355.505 78.0775 355.789 78.6951 356.391 80.0295C357.716 82.9708 358.739 85.0862 359.041 85.9882C360.377 89.9813 361.021 92.8286 361.245 93.9207C361.329 94.3286 361.468 96.5888 361.583 99.8569C361.694 103.017 361.736 106.501 361.599 107.583C361.552 108.433 361.497 110.495 361.489 113.27C361.481 114.442 361.464 115.134 361.447 115.847" stroke="black" stroke-width="3.94532" stroke-linecap="round"/>
<path d="M291.812 82.081C291.935 81.2866 292.581 78.9272 294.814 75.7267C295.609 74.5859 296.713 73.1311 297.858 71.2622C298.545 70.1412 299.746 69.18 300.83 68.0543C303.65 65.1258 304.85 64.2113 306.137 63.3806C308.379 61.9339 311.105 60.1493 312.402 59.5887C314.27 58.7812 315.855 58.2891 317.491 57.9655C318.812 57.6769 319.698 57.4451 320.505 57.2983C320.719 57.2699 320.949 57.2534 321.185 57.2363" stroke="black" stroke-width="3.94532" stroke-linecap="round"/>
<path d="M310.357 88.0783C310.878 86.3581 311.768 84.1984 312.461 82.6907C312.857 81.8315 313.442 80.663 314.606 79.2336C315.948 77.5856 317.218 76.9353 319.333 75.3272C320.921 74.1201 322.952 73.3031 325.955 72.2053C327.58 71.6111 330.306 70.7582 332.019 70.2359C334.345 69.5268 335.236 69.4248 336.572 69.368C339.666 69.2363 342.541 69.3157 344.342 69.5268C347.803 70.1318 348.539 70.2273 348.952 70.2813C349.155 70.3123 349.345 70.3507 349.814 70.4679" stroke="black" stroke-width="3.94532" stroke-linecap="round"/>
<path d="M272.508 78.629C272.554 78.1822 272.712 77.2749 273.345 75.1083C273.833 73.434 274.51 72.544 275.073 71.1429C275.342 70.4749 275.992 69.5511 277.018 68.0974C279.336 64.8142 280.459 63.2548 281.826 61.8531C283.473 60.1639 285.15 59.3336 285.852 58.7653C286.728 58.0562 287.408 57.4559 288.406 56.5117C289.22 55.7891 289.871 55.196 290.168 54.9468C290.312 54.8149 290.44 54.6716 290.804 54.3662" stroke="black" stroke-width="3.94532" stroke-linecap="round"/>
<path d="M169.233 231.801C169.076 231.801 167.206 231.547 163.552 231.053C159.811 230.546 156.901 230.258 154.849 230.091C150.924 229.77 147.881 229.218 145.624 228.818C142.799 228.318 138.73 228.266 136.252 228.443C134.88 228.541 133.724 229.545 132.505 230.229C131.336 230.885 129.878 230.982 128.479 231.255C126.322 231.676 124.883 230.72 123.25 230.541C120.945 230.287 119.296 229.51 114.744 229.263C112.145 229.123 106.928 229.966 103.761 230.965C101.617 231.642 99.7057 232.037 98.456 231.524C96.841 230.86 96.5596 229.389 95.7342 228.281C95.2041 227.57 94.4668 227.06 93.7578 226.739C90.0442 225.058 83.184 226.452 81.2948 226.018C79.8061 225.676 78.4534 225.301 77.2112 224.872C75.4932 224.279 74.0568 222.91 72.7434 222.92C71.546 222.928 70.4313 223.666 69.5993 223.54C69.2755 223.491 69.2379 223.163 69.409 222.743C70.2217 220.751 72.5496 219.879 74.2093 218.884C75.6855 217.999 77.7693 216.937 79.7176 216.189C81.2247 215.611 82.6112 215.949 84.7086 216.231C87.9894 216.672 90.7006 215.245 92.1869 214.846C96.4391 213.706 98.689 213.189 104.325 213.148C106.995 213.128 109.393 214.674 111.696 215.369C113.375 215.876 117.405 214.869 120.892 213.759C125.404 212.322 126.73 212.437 129.474 211.834C131.328 211.427 132.715 212.733 134.84 214.144C139.136 216.996 140.255 217.842 142.167 218.028C143.622 218.169 146.346 217.693 148.217 218.025C150.243 218.384 151.471 220.478 152.724 221.37C153.65 222.029 155.148 222.909 156.2 223.951C156.621 224.369 156.407 225.059 156.167 225.541C155.568 226.742 153.518 226.596 151.758 226.874C150.497 227.074 149.322 227.214 148.212 227.545C147.89 227.651 147.505 227.778 147.161 227.904C146.817 228.03 146.526 228.151 146.107 228.335" stroke="black" stroke-width="3.94532" stroke-linecap="round"/>
<path d="M157.764 223.076C160.275 222.894 161.803 222.963 163.501 223.135C165.071 223.294 167.409 223.794 169.593 224.155C170.597 224.321 173.716 224.74 177.838 225.46C181.741 226.243 186.229 226.995 188.151 227.145C188.837 227.17 189.862 227.17 190.919 227.17" stroke="black" stroke-width="3.94532" stroke-linecap="round"/>
<path d="M76.4305 216.874C76.3721 216.874 74.2838 216.859 68.0371 216.424C63.8377 216.132 57.5921 215.178 53.8687 214.752C49.156 214.213 47.7005 214.375 46.9518 214.464C46.6158 214.504 46.3697 214.538 42.7585 215.237C39.1473 215.937 32.1786 217.302 28.362 218.064C24.5454 218.826 24.0919 218.945 22.659 219.102C18.8346 219.52 16.4628 219.903 16.727 220.33C17.2815 221.226 20.6539 221.045 22.7727 221.172C23.3378 221.205 25.4972 221.284 28.916 221.396C31.5249 221.481 32.883 221.697 36.094 221.914C39.0595 222.114 44.7326 222.565 49.2032 222.975C53.6738 223.386 56.7686 223.761 58.462 223.954C61.0006 224.243 62.5119 224.349 64.7175 224.629C66.4642 224.851 67.6186 224.595 68.5593 224.112C69.3926 223.686 70.2218 223.112 70.8852 222.694C71.0584 222.599 71.2317 222.512 71.4537 222.421" stroke="black" stroke-width="3.94532" stroke-linecap="round"/>
<path d="M16.4046 220.803C16.4046 220.832 16.4046 220.861 16.3729 222.411C16.3413 223.962 16.2779 227.033 16.2301 231.14C16.1824 235.247 16.1522 240.296 16.1211 245.498" stroke="black" stroke-width="3.94532" stroke-linecap="round"/>
<path d="M16.7163 244.648C14.6748 245.052 10.9322 245.646 7.33763 246.006C2.69661 246.47 -0.635599 247.235 -1.25897 247.448C-2.27069 247.795 -3.42304 247.954 -4.5657 248.387C-4.99888 248.552 -5.39664 248.647 -5.76724 248.796C-5.95763 248.872 -6.17275 248.895 -6.28831 250.742C-6.40387 252.59 -6.41848 256.246 -6.41313 259.334C-6.40778 262.421 -6.38204 264.828 -6.37806 266.906C-6.3665 272.944 -6.06468 274.471 -5.42913 275.284C-5.24578 275.519 -5.03463 275.797 -4.87562 276.026C-4.7166 276.255 -4.6161 276.429 -4.51256 276.607" stroke="black" stroke-width="3.94532" stroke-linecap="round"/>
<path d="M-6.18555 305.6C-6.11599 305.618 -6.04644 305.636 -3.72617 305.68C-1.40591 305.723 3.16295 305.791 5.86946 305.886C9.28623 306.005 10.3654 306.328 11.7348 306.612C12.7415 306.82 14.4055 307.031 16.8245 307.172C19.2434 307.313 22.3732 307.346 27.4 307.886C32.4268 308.427 39.2558 309.473 42.8972 310.012C46.5386 310.551 46.7853 310.551 52.6667 311.36C58.5482 312.169 70.0567 313.788 76.2804 314.622C82.5041 315.456 83.0942 315.456 83.5698 315.475C84.0455 315.494 84.3888 315.532 85.9902 315.552C87.5916 315.571 90.4406 315.571 93.7512 315.87C97.0617 316.168 100.747 316.765 103.091 317.072C105.435 317.38 106.325 317.38 108.535 317.554C110.745 317.727 114.249 318.075 117.852 318.613C121.455 319.151 125.052 319.868 127.039 320.265C129.027 320.661 129.295 320.716 130.679 321.015C132.063 321.313 134.553 321.852 136.741 322.162C138.928 322.471 140.737 322.534 142.395 322.705C145.52 323.028 148.437 323.44 150.713 323.457C151.752 323.464 153.177 323.592 155.404 323.729C157.172 323.838 159.961 324.055 163.235 324.087C165.908 324.418 167.262 324.804 167.776 324.854C168.092 324.871 168.522 324.871 168.966 324.871" stroke="black" stroke-width="3.94532" stroke-linecap="round"/>
<path d="M168.697 325.091C168.697 325.062 171.151 324.388 175.146 323.374C177.987 322.653 179.696 322.355 181.348 321.893C182.612 321.539 184.307 321.256 185.6 320.818C186.984 320.348 188.321 319.604 189.139 319.238C189.511 319.072 190.036 319.027 190.566 318.85C191.534 318.525 191.517 316.45 191.726 314.673C191.912 313.094 192.137 311.628 192.349 307.757C192.514 304.756 192.422 299.635 192.409 296.877C192.391 293.038 191.957 291.052 190.614 289.277C189.786 288.182 189.314 287.494 189.317 287.047C189.323 285.891 190.652 284.734 191.314 283.817C191.851 283.074 191.751 281.484 191.62 279.788C191.533 278.661 191.436 276.297 191.295 273.318C191.059 268.343 191.641 266.413 191.78 265.299C191.908 264.279 191.957 262.993 191.875 262.003C191.8 261.101 191.498 260.26 191.192 259.461C190.813 258.47 189.94 257.636 189.563 256.737C189.495 256.5 189.466 256.281 189.472 256.073C189.479 255.865 189.522 255.675 189.566 255.479" stroke="black" stroke-width="3.94532" stroke-linecap="round"/>
<path d="M-5.97461 248.712C-3.64473 248.98 0.650372 249.526 1.96193 249.632C3.07662 249.722 5.09752 249.95 14.5338 250.309C23.9701 250.667 40.7592 251.166 53.3162 251.94C65.8732 252.714 73.6893 253.749 78.9203 254.318C84.1513 254.887 86.5602 254.959 92.8748 255.573C99.1893 256.187 109.336 257.34 121.221 258.276C133.105 259.211 146.419 259.893 153.654 260.293C160.89 260.694 161.644 260.792 162.33 260.849C164.449 261.027 165.349 261.087 166.322 261.222C166.807 261.289 167.252 261.337 167.653 261.376C167.856 261.399 168.055 261.432 168.479 261.466" stroke="black" stroke-width="3.94532" stroke-linecap="round"/>
<path d="M168.785 261.242C169.765 260.819 171.57 260.62 173.066 260.392C174.923 260.109 175.856 259.941 176.916 259.729C177.848 259.543 180.073 258.86 182.134 258.42C183.157 258.203 184.367 257.818 185.845 257.722C186.933 257.52 187.715 257.344 188.662 257.115C188.897 257.077 189.098 257.077 189.306 257.077" stroke="black" stroke-width="3.94532" stroke-linecap="round"/>
<path d="M-3.46484 277.059C3.58762 278.061 7.47625 278.462 8.58961 278.638C8.97386 278.698 9.49404 278.803 14.1191 278.85C18.7441 278.898 27.4561 278.898 32.3208 278.944C37.9405 278.998 39.1129 279.179 39.8143 279.196C40.3188 279.207 40.9658 279.279 42.0613 279.329C43.56 279.397 46.8472 279.648 51.5813 279.857C53.8923 279.959 56.009 280.216 58.7524 280.788C61.4957 281.36 64.7995 282.282 66.6248 282.774C69.523 283.556 71.8226 283.924 73.2963 284.052C73.7205 284.089 74.3086 284.218 76.8114 284.498C79.3142 284.777 83.7118 285.223 86.2722 285.452C89.4185 285.734 90.5241 285.751 95.7391 286.039C100.459 286.299 109.396 286.62 114.221 286.841C119.494 287.083 120.148 287.2 120.942 287.254C122.529 287.361 125.419 287.668 129.498 288.126C134.212 288.656 137.116 289.463 138.046 289.57C140.539 289.859 142.161 290.236 147.454 291.131C150.112 291.58 152.901 292.401 156.515 292.856C159.997 293.187 163.016 293.528 165.024 293.755C166.072 293.833 167.178 293.833 168.66 293.776" stroke="black" stroke-width="3.94532" stroke-linecap="round"/>
<path d="M168.969 293.317C170.596 292.624 171.809 292.256 174.673 291.416C178.368 290.332 179.925 290.298 181.848 289.875C182.85 289.655 184.09 289.201 185.69 288.797C186.865 288.61 187.452 288.388 187.814 288.24C188.004 288.18 188.206 288.151 188.981 288.121" stroke="black" stroke-width="3.94532" stroke-linecap="round"/>
<path d="M19.4609 280.119V306.352" stroke="black" stroke-width="3.94532" stroke-linecap="round"/>
<path d="M70.64 284.623C70.64 284.652 70.6543 285.551 70.6293 288.303C70.5866 292.996 70.444 296.164 70.5199 296.817C70.6073 298.983 70.6185 300.667 70.5791 302.804C70.5657 304.735 70.5657 308.386 70.5657 312.147" stroke="black" stroke-width="3.94532" stroke-linecap="round"/>
<path d="M124.324 288.341V318.407" stroke="black" stroke-width="3.94532" stroke-linecap="round"/>
<path d="M42.1875 252.866C42.3127 254.24 42.4102 255.146 42.493 256.511C42.6927 259.802 42.6464 262.603 42.5803 263.609C42.4771 265.183 42.3102 267.283 42.3421 268.851C42.438 270.038 42.4747 271.538 42.3242 274.039C42.2895 274.896 42.2895 276.015 42.201 277.472" stroke="black" stroke-width="3.94532" stroke-linecap="round"/>
<path d="M96.4231 256.709C96.4231 256.819 96.4046 259.577 96.4064 263.819C96.4072 265.664 96.6083 268.179 96.7119 272.044C96.7844 274.747 96.7445 277.548 96.6577 280.296C96.7041 282.097 96.7991 282.787 96.8426 283.376C96.8574 283.733 96.8574 284.21 96.8574 284.701" stroke="black" stroke-width="3.94532" stroke-linecap="round"/>
<path d="M168.844 261.675C168.844 261.704 168.84 263.823 168.646 267.642C168.405 272.376 167.961 274.192 168.177 275.638C168.509 277.861 168.602 279.416 168.688 280.845C168.867 283.789 168.523 284.981 168.358 286.347C168.122 288.295 168.529 289.369 168.79 290.767C169.127 292.576 168.956 295.33 169.248 296.329C169.554 297.375 169.632 299.984 169.43 301.918C169.291 303.252 169.043 305.803 169.071 308.621C169.093 310.85 169.636 312.046 169.644 312.952C169.651 313.847 169.452 314.725 169.333 315.553C169.17 316.684 169.097 317.732 169.07 321.072C169.094 321.793 169.141 321.992 169.172 322.261C169.203 322.529 169.218 322.86 169.233 323.2" stroke="black" stroke-width="3.94532" stroke-linecap="round"/>
<path d="M168.674 261.02C168.674 258.806 168.637 255.459 168.898 253.113C169.154 250.815 169.589 248.15 169.591 245.875C169.592 244.854 169.465 244.107 169.415 242.115C169.366 240.123 169.366 236.91 169.388 235.159C169.409 233.409 169.452 233.219 169.497 232.891" stroke="black" stroke-width="3.94532" stroke-linecap="round"/>
<path d="M169.779 232.725C170.916 232.182 173.636 231.338 175.075 230.947C175.991 230.699 178.212 230.152 181.194 229.644C182.574 229.408 185.525 228.774 188.061 227.873C189.031 227.564 189.815 227.461 190.495 227.38C190.797 227.343 191.011 227.314 191.318 227.239" stroke="black" stroke-width="3.94532" stroke-linecap="round"/>
<path d="M191.32 227.239C191.32 228.025 191.32 228.812 191.335 231.063C191.35 233.315 191.38 237.008 191.362 240.088C191.331 245.524 191.161 248.369 191.087 249.487C191.021 252.364 190.881 253.201 190.713 253.995C190.662 254.212 190.607 254.457 190.494 254.876" stroke="black" stroke-width="3.94532" stroke-linecap="round"/>
<path d="M125.812 231.443C125.812 233.31 125.812 235.177 125.875 238.656C125.938 242.135 126.064 247.17 126.105 249.895C126.146 252.619 126.097 252.88 126.072 253.525C126.047 254.17 126.047 255.191 126.09 256.678" stroke="black" stroke-width="3.94532" stroke-linecap="round"/>
<path d="M63.4609 226.151C63.4609 226.723 63.605 230.426 63.8738 235.937C64.0995 240.565 64.7953 243.795 64.9801 245.472C65.0435 246.687 65.0807 247.97 65.1156 249.088C65.1322 249.646 65.1466 250.184 65.0729 250.957" stroke="black" stroke-width="3.94532" stroke-linecap="round"/>
<path d="M16.252 245.913C17.5088 246.593 18.8747 246.881 20.9438 247.408C22.513 247.808 24.9416 247.929 26.6576 248.069C27.9056 248.171 29.6735 248.401 31.7821 248.827C33.5528 249.185 34.4086 249.306 38.0224 250.183C39.5404 250.527 40.3647 250.677 40.8116 250.73C41.0396 250.758 41.2703 250.787 41.8575 250.816" stroke="black" stroke-width="3.94532" stroke-linecap="round"/>
</g>
<defs>
<filter id="filter0_g_621_12896" x="202.747" y="82.6077" width="183.501" height="183.501" filterUnits="userSpaceOnUse" color-interpolation-filters="sRGB">
<feFlood flood-opacity="0" result="BackgroundImageFix"/>
<feBlend mode="normal" in="SourceGraphic" in2="BackgroundImageFix" result="shape"/>
<feTurbulence type="fractalNoise" baseFrequency="0.022811843082308769 0.022811843082308769" numOctaves="3" seed="3160" />
<feDisplacementMap in="shape" scale="4.2083406448364258" xChannelSelector="R" yChannelSelector="G" result="displacedImage" width="100%" height="100%" />
<feMerge result="effect1_texture_621_12896">
<feMergeNode in="displacedImage"/>
</feMerge>
</filter>
<clipPath id="clip0_621_12896">
<rect width="430" height="378" fill="white"/>
</clipPath>
</defs>
</svg>
