<svg width="430" height="378" viewBox="0 0 430 378" fill="none" xmlns="http://www.w3.org/2000/svg">
<g clip-path="url(#clip0_621_21037)">
<g filter="url(#filter0_g_621_21037)">
<circle cx="234.609" cy="179.826" r="90.3907" fill="#E60611"/>
</g>
<path d="M186.537 190.364C186.416 190.188 185.817 188.685 185.397 187.614C184.851 186.222 182.813 183.881 181.781 182.966C181.044 182.312 179.069 181.41 176.961 180.259C176.055 179.764 175.679 179.514 174.63 178.921C172.477 177.704 170.946 176.742 170.438 176.47C170.114 176.297 169.681 176.005 168.027 175.112C166.374 174.218 163.518 172.719 161.97 171.927C160.283 171.065 159.735 170.935 158.021 170.718C154.402 170.26 151.711 170.535 151.145 170.641C149.864 170.882 148.877 172.161 148.46 172.845C148.032 173.548 147.948 174.952 148.225 176.765C148.65 178.043 149.234 179.112 151.219 181.094C151.869 181.702 152.551 182.305 153.318 182.992" stroke="black" stroke-width="3.93783" stroke-linecap="round"/>
<path d="M156.025 181.499C155.2 182.251 154.633 182.743 152.618 185.011C151.646 186.104 150.935 187.365 150.54 188.222C149.823 189.774 150.24 191.384 150.583 192.554C150.883 193.575 151.748 194.314 152.253 194.898C152.373 195.027 152.491 195.146 152.596 195.267C152.7 195.388 152.787 195.507 152.875 195.629" stroke="black" stroke-width="3.93783" stroke-linecap="round"/>
<path d="M155.858 193.28C155.55 193.514 154.824 194.041 154.066 194.924C153.151 195.99 152.799 196.8 152.153 197.799C151.585 198.677 151.479 199.447 151.348 200.221C151.095 201.724 151.638 202.807 151.955 203.516C152.728 205.24 154.255 206.409 155.282 207.121C156.631 208.056 158.342 208.632 159.128 208.802C160.787 209.064 162.861 209.253 164.057 209.302C164.661 209.312 165.704 209.312 166.843 209.279" stroke="black" stroke-width="3.93783" stroke-linecap="round"/>
<path d="M163.051 204.587C163.261 204.89 165.32 206.823 166.811 208.036C168.249 209.206 169.359 209.475 170.646 209.972C172.055 210.515 172.829 210.632 173.943 210.726C174.663 210.789 176.473 210.832 178.807 210.781C179.723 210.731 180.094 210.631 180.831 210.353" stroke="black" stroke-width="3.93783" stroke-linecap="round"/>
<path d="M179.312 211.705C181.106 213.181 183.271 214.192 184.57 214.745C184.916 214.893 185.231 214.988 186.288 215.368C188.862 216.291 191.066 217.277 192.443 217.848C193.276 218.193 194.444 218.497 196.018 218.85C197.591 219.203 199.551 219.556 201.268 219.738C202.985 219.92 204.401 219.92 205.469 219.885C206.537 219.85 207.214 219.78 209.561 219.707C211.907 219.634 215.903 219.56 218.297 219.463C220.69 219.366 221.361 219.249 222.135 219.053C222.909 218.858 223.764 218.588 225.898 217.723C228.032 216.858 231.419 215.405 233.708 214.29C235.997 213.174 237.087 212.44 238.51 211.429C239.933 210.418 241.656 209.153 242.705 208.352C244.103 207.286 245.348 205.822 246.912 203.985C247.539 203.273 247.83 203.009 248.344 202.607C248.858 202.205 249.588 201.674 250.373 201.126" stroke="black" stroke-width="3.93783" stroke-linecap="round"/>
<path d="M186.264 187.409C187.005 187.854 187.746 188.299 189.493 189.031C191.24 189.764 193.971 190.769 196.1 191.326C198.23 191.882 199.675 191.96 201.307 192.182C202.939 192.405 204.714 192.77 207.1 192.939C209.486 193.108 212.431 193.068 214.299 192.969C216.167 192.871 216.87 192.714 218.414 192.224C219.959 191.734 222.324 190.917 224.56 189.992C226.797 189.068 228.833 188.062 230.177 187.351C232.14 186.313 233.971 184.817 235.964 183.135C237.328 181.893 238.171 181.35 239.122 180.647C239.35 180.455 239.513 180.292 239.682 180.125" stroke="black" stroke-width="3.93783" stroke-linecap="round"/>
<path d="M155.403 167.17C154.846 167.795 153.997 168.597 152.641 169.272C151.471 169.853 150.269 169.66 149.66 169.686C149.01 169.713 147.948 169.814 146.493 169.727C144.182 169.589 143.726 169.074 142.267 168.326C141.536 167.951 140.744 167.242 139.495 165.701C138.67 164.682 138.648 163.647 138.52 162.88C138.422 162.299 138.569 161.855 138.714 161.397C138.869 160.908 139.204 160.612 139.521 160.312C139.949 159.908 140.92 159.481 141.821 159.3C143.726 158.917 144.536 159.003 145.442 158.859C145.905 158.786 146.673 158.683 147.593 158.562C148.512 158.441 149.562 158.314 151.184 158.239C152.806 158.164 154.97 158.145 156.159 158.15C157.825 158.157 158.57 158.365 159.189 158.653C160.049 159.053 161.082 159.492 161.805 159.818C162.561 160.16 163.335 160.702 164.534 161.703C165.224 162.278 166.437 163.23 167.507 164.27C168.578 165.31 169.478 166.401 169.987 167.04C170.874 168.154 171.463 169.062 171.8 169.611C172.055 170.024 172.3 170.399 172.396 170.582C172.45 170.68 172.514 170.787 172.602 170.94" stroke="black" stroke-width="3.93783" stroke-linecap="round"/>
<path d="M139.325 165.177C138.998 165.062 138.203 164.762 135.145 164.217C133.4 163.905 132.837 163.864 132.274 163.814C132.075 163.796 131.783 163.807 131.594 163.846C131.001 163.969 130.836 164.963 130.533 165.859C130.36 166.371 130.246 166.896 130.201 168.321C130.175 169.125 130.535 169.711 130.783 170.229C130.994 170.67 131.431 170.974 131.982 171.208C133.043 171.659 133.661 171.613 134.866 171.952C136.725 172.475 138.399 172.932 139.139 173.21C139.882 173.49 140.534 173.697 141.095 173.928C141.642 174.153 142.173 174.359 142.641 174.511C143.609 174.826 145.088 175.288 146.037 175.552C146.715 175.793 147.097 175.97 147.303 176.061C147.402 176.105 147.491 176.141 147.755 176.265" stroke="black" stroke-width="3.93783" stroke-linecap="round"/>
<path d="M130.804 165.042C130.507 164.938 128.636 164.481 126.17 164.005C124.055 163.596 122.844 163.287 122.154 163.097C120.156 162.546 119.301 162.308 118.647 162.226C117.939 162.137 116.999 162.341 116.514 162.741C116.163 163.03 116.07 163.511 115.895 163.861C115.69 164.269 115.707 164.982 115.839 165.603C115.937 166.066 116.353 166.395 116.738 166.673C117.106 166.938 117.681 167.028 118.363 167.257C119.462 167.624 121.52 167.948 122.607 168.195C123.919 168.493 125.019 168.757 125.684 168.914C127.254 169.283 127.892 169.559 128.719 169.853C129.09 169.979 129.428 170.091 129.721 170.198C129.859 170.253 129.973 170.31 130.112 170.368" stroke="black" stroke-width="3.93783" stroke-linecap="round"/>
<path d="M130.652 171.617C130.067 172.504 129.683 173.524 129.487 174.68C129.159 176.623 129.322 178.065 129.39 178.421C129.44 178.68 129.677 179.169 130.166 180.017C130.771 181.066 131.658 181.793 132.324 182.254C132.862 182.625 133.369 182.764 133.846 182.92C134.444 183.115 135.151 183.305 136.289 183.422C137.051 183.499 138.197 183.498 139.171 183.429C140.928 183.305 141.951 182.925 142.359 182.75C142.625 182.636 143.354 182.285 144.568 181.694C145.677 181.153 146.278 180.399 146.635 179.897C147.024 179.006 147.082 178.523 147.096 177.97C147.097 177.696 147.085 177.433 147.072 177.162" stroke="black" stroke-width="3.93783" stroke-linecap="round"/>
<path d="M135.143 184.285C135.157 184.583 135.235 185.357 135.481 186.167C135.821 187.282 136.642 188.038 137.581 188.752C139.014 189.84 140.225 189.793 140.585 189.893C140.773 189.945 141.002 189.969 141.717 190.056C143.369 190.256 144.59 190.21 144.81 190.152C145.516 189.967 146.682 189.924 147.215 189.753C147.924 189.525 148.908 189.294 149.26 189.006C149.346 188.935 149.415 188.883 149.484 188.836C149.554 188.788 149.623 188.748 149.729 188.653" stroke="black" stroke-width="3.93783" stroke-linecap="round"/>
<path d="M140.24 191.461C140.419 191.844 141.031 192.776 142.026 193.683C143.156 194.714 144.192 195.149 144.423 195.249C144.977 195.49 145.706 195.798 146.364 195.989C147.688 196.373 149.181 196.276 149.944 196.241C150.356 196.166 150.771 196.104 151.001 196.074C151.104 196.061 151.182 196.054 151.331 196.028" stroke="black" stroke-width="3.93783" stroke-linecap="round"/>
<path d="M187.21 127.794C187.233 127.794 187.562 127.938 188.073 128.223C188.642 128.541 188.529 130.198 188.505 131.197C188.491 131.785 188.054 132.278 186.829 133.302C186.543 133.541 186.315 133.496 186.168 133.458C185.6 133.31 185.382 132.359 185.25 131.773C184.983 130.595 185.095 129.933 185.283 129.421C185.614 129.044 186.089 128.601 186.396 128.532C186.478 128.532 186.559 128.543 186.746 128.52" stroke="black" stroke-width="3.93783" stroke-linecap="round"/>
<path d="M228.12 141.677C228.155 141.665 228.449 141.773 228.914 142.017C229.699 142.429 229.685 144.303 229.667 145.028C229.657 145.455 229.192 145.897 228.797 146.331C228.642 146.502 228.528 146.693 228.353 146.843C228.163 147.006 227.905 147.003 227.711 147.001C227.05 146.994 226.347 145.991 225.787 145.022C225.314 144.203 225.522 143.653 225.612 143.178C225.729 142.568 226.449 142.315 226.745 142.223C226.914 142.171 227.078 142.107 227.238 142.082C227.404 142.055 227.591 142.139 227.769 142.241C227.943 142.341 228.005 142.561 228.069 142.771C228.1 143.055 228.072 143.431 228.008 143.791C227.98 143.94 227.961 144.02 227.907 144.238" stroke="black" stroke-width="3.93783" stroke-linecap="round"/>
<path d="M216.842 153.341C216.566 153.685 216.253 154.048 215.665 154.591C215.263 154.962 214.596 155.471 213.664 156.16C212.731 156.848 211.54 157.686 210.593 158.288C209.645 158.889 208.977 159.228 207.755 159.699C206.533 160.17 204.778 160.764 203.676 161.112C202.575 161.46 202.181 161.544 201.315 161.601C200.449 161.659 199.123 161.687 198.37 161.694C197.478 161.704 196.532 161.493 195.207 161.178C194.108 160.916 193.685 160.619 193.047 160.257C192.124 159.732 191.296 159.245 190.633 158.85C190.2 158.592 189.614 158.15 188.993 157.648C188.372 157.147 187.744 156.583 187.11 155.901C185.798 154.489 185.125 153.486 184.942 153.153C184.725 152.76 184.651 152.389 184.552 152.067C184.399 151.57 183.958 150.342 183.484 148.444C183.25 147.51 183.131 146.609 183.037 145.588C182.943 144.567 182.903 143.446 182.909 142.745C182.965 141.798 183.043 141.446 183.102 141.244C183.137 141.139 183.182 141.029 183.262 140.742" stroke="black" stroke-width="3.93783" stroke-linecap="round"/>
<path d="M260.676 115.394C260.619 115.431 259.789 115.701 258.493 116.116C257.825 116.331 256.868 116.787 254.054 117.781C252.058 118.486 248.815 119.319 246.32 119.902C243.825 120.486 242.152 120.723 239.494 120.88C236.836 121.036 233.243 121.104 231.212 121.12C228.82 121.139 228.016 120.988 226.465 120.663C223.54 120.05 221.549 119.455 221.119 119.31C219.706 118.833 218.551 118.406 216.024 117.044C213.757 115.822 209.608 113.314 206.163 111.043C202.718 108.771 200.133 106.758 198.675 105.595C197.217 104.432 196.965 104.181 195.904 103.427C194.843 102.674 192.98 101.427 191.917 100.734C190.661 99.9152 190.237 99.775 189.677 99.6061C188.787 99.3378 187.151 98.9332 184.383 98.5414C182.72 98.3059 180.492 98.3291 177.924 98.5871C175.357 98.8452 172.507 99.4225 170.667 99.8664C168.827 100.31 168.084 100.603 167.186 101.064C165.222 102.071 163.938 102.894 163.203 103.339C160.94 104.706 160.192 105.52 159.687 105.72C158.981 105.999 159.776 103.369 160.147 101.65C160.364 100.649 161.239 99.4664 162.608 97.7327C163.92 96.0714 165.112 95.0395 166.081 94.3708C166.631 93.9908 167.37 93.6331 168.652 93.1498C169.934 92.6666 171.754 92.0954 173.365 91.6771C176.3 90.9152 178 90.6665 178.598 90.5204C179.214 90.3698 179.912 90.3539 181.694 90.2481C183.118 90.1636 185.606 90.1833 188.2 90.4367C190.793 90.6901 193.418 91.2192 194.946 91.5505C196.834 91.9599 197.86 92.2821 199.022 92.5828C199.516 92.7105 199.802 92.8325 201.793 93.5574C203.784 94.2823 207.468 95.6179 209.674 96.454C211.88 97.2901 212.498 97.5861 215.596 98.6549C218.694 99.7237 224.253 101.556 228.317 102.757C232.38 103.958 234.778 104.471 239.413 105.995C244.048 107.519 250.847 110.039 254.782 111.543C258.717 113.047 259.582 113.46 260.278 113.826C262.248 114.86 263.258 115.459 265.437 116.88C266.468 117.552 267.184 117.871 268.102 118.413C268.84 118.848 270.157 119.557 273.912 121.773C277.667 123.989 283.829 127.676 287.101 129.614C290.552 131.659 291.074 131.873 292.429 132.506C295.235 133.817 297.336 134.621 297.769 134.764C298.485 135 300.072 135.685 302.119 136.26C302.483 136.353 302.681 136.434 303.081 136.581C303.48 136.728 304.075 136.939 304.92 137.185" stroke="black" stroke-width="3.93783" stroke-linecap="round"/>
<path d="M198.779 91.4233C199.122 90.6986 200.344 89.3865 201.954 87.8485C202.775 87.0636 203.547 86.2091 204.43 85.4048C206.206 83.7864 207.688 82.5902 208.476 81.7283C209.792 80.2879 212.519 79.1344 213.618 78.3942C214.515 77.79 215.309 76.9669 216.144 76.5983C216.962 76.2371 218.015 76.0138 219.246 75.7132C220.52 75.4019 221.941 74.7616 223.937 74.2393C225.099 73.9354 226.588 73.6558 231.147 73.4727C235.705 73.2896 243.295 73.2379 247.558 73.255C251.821 73.2722 252.528 73.3597 253.037 73.4048C253.545 73.4499 253.834 73.4499 255.453 73.718C257.073 73.9861 260.014 74.5223 261.692 74.8477C263.37 75.1732 263.695 75.2716 264.984 75.8533C266.274 76.435 268.519 77.4969 271.524 79.3797C274.529 81.2626 278.226 83.9342 280.469 85.6279C282.713 87.3217 283.391 87.9566 284.944 89.6688C286.497 91.381 288.905 94.1512 291.119 96.9758C293.333 99.8003 295.28 102.595 296.349 104.153C297.569 105.931 297.764 106.301 298.298 107.238C298.762 108.054 299.565 109.59 300.345 111.263C301.126 112.937 301.845 114.709 302.54 117.012C303.235 119.314 303.884 122.093 304.275 123.685C304.747 125.606 304.957 126.252 305.046 128.058C305.077 129.539 305.077 132.167 305.072 133.753C305.067 135.34 305.058 135.806 305.048 136.287" stroke="black" stroke-width="3.93783" stroke-linecap="round"/>
<path d="M261.788 75.9844C262.13 76.2291 263.313 77.2252 264.012 78.0645C264.351 78.4724 265.042 79.8342 266.081 81.5645C266.665 82.536 266.983 84.1178 267.391 87.2781C267.641 89.2173 267.494 91.8849 267.231 94.6107C266.968 97.3365 266.469 100.052 265.914 102.315C265.359 104.579 264.763 106.308 264.445 107.264C263.932 108.803 263.118 110.226 262.664 111.159C262.1 112.431 261.767 112.888 261.394 113.474C261.291 113.616 261.175 113.732 261.055 113.851" stroke="black" stroke-width="3.93783" stroke-linecap="round"/>
<path d="M233.854 82.399C234.357 82.3928 235.208 82.5133 236.753 83.5475C237.315 83.9236 237.566 84.4747 237.791 84.8804C238.051 85.348 238.005 85.7828 238.045 86.1541C238.106 86.7113 238.026 87.4334 237.793 87.9159C237.585 88.3441 237.096 88.6228 236.676 88.9041C235.995 89.3596 235.229 89.2988 234.259 89.0978C233.693 88.9804 233.011 88.1383 232.245 87.1682C231.672 86.4425 231.589 85.9502 231.127 84.7925C230.658 83.6161 231.059 81.9417 231.208 81.778C231.652 81.2917 232.459 81.7484 233.162 82.0698C233.552 82.2478 233.893 82.6081 234.35 83.2295C235.096 84.245 235.435 85.1639 235.55 85.6031C235.711 86.2171 235.586 86.8693 235.518 87.2956C235.491 87.4647 235.427 87.5278 235.335 87.5184C235.111 87.4225 234.535 86.7587 233.713 85.6215C233.333 85.0592 233.027 84.5267 232.711 83.9781" stroke="black" stroke-width="3.93783" stroke-linecap="round"/>
<path d="M232.194 84.5391C232.169 84.5511 231.923 84.6891 231.328 84.9839C230.511 85.3895 229.165 85.8997 227.857 86.4848C227.375 86.7005 227.268 86.7662 226.564 87.044C225.859 87.3218 224.561 87.8134 223.582 88.2439C221.949 88.9614 221.188 89.5077 220.83 89.7372C220.055 90.2346 219.717 90.4504 219.564 90.7893C219.467 91.0024 219.592 91.2314 219.707 91.3841C219.957 91.7127 220.856 91.7263 221.828 91.691C222.575 91.664 223.092 91.2255 223.679 90.9637C224.131 90.7626 224.933 90.5165 225.692 90.2046C227.175 89.5956 227.952 89.1361 228.259 88.956C229.388 88.294 230.077 88.0997 230.626 87.7689C231.468 87.3721 231.998 87.1697 232.147 87.0832C232.224 87.0335 232.303 86.9721 232.384 86.9089" stroke="black" stroke-width="3.93783" stroke-linecap="round"/>
<path d="M230.844 82.0097C230.974 81.7236 231.301 81.0923 231.707 80.6567C232.127 80.2055 232.806 79.9743 233.189 79.8754C233.643 79.7579 234.553 79.5889 236.164 79.4707C236.762 79.4269 237.768 79.4096 238.753 79.5058C239.39 79.568 240.157 79.7695 241.218 80.2578C241.905 80.5743 242.405 81.2287 242.828 81.7605C243.306 82.3618 243.715 83.9557 243.878 85.2382C243.959 85.878 243.468 86.5033 243.148 86.9436C242.444 87.9133 241.632 88.3042 240.023 89.061C239.629 89.246 238.946 89.3894 237.959 89.6582C236.587 90.0319 235.288 89.7777 234.916 89.6517C234.477 89.5032 234.199 89.0496 233.924 88.7191C233.607 88.225 233.462 87.9177 233.403 87.6717C233.377 87.5288 233.359 87.3492 233.339 87.1642" stroke="black" stroke-width="3.93783" stroke-linecap="round"/>
<path d="M95.0271 186.234C94.9369 186.18 94.6515 185.692 94.2724 184.796C93.9414 184.015 94.1242 183.336 94.2635 182.937C94.567 182.067 95.644 181.464 96.2445 181.247C96.9461 180.994 97.5596 181.476 98.1355 181.863C98.5013 182.109 98.6084 182.94 98.6729 184.492C98.7022 185.198 98.2964 185.869 97.8768 186.52C97.3609 187.321 96.8582 187.473 96.492 187.531C96.3068 187.561 96.1266 187.343 95.897 187.043C95.5308 186.563 95.1475 185.701 94.7868 184.876C94.6234 184.502 94.6191 184.351 94.6145 184.222C94.5992 183.789 95.2684 183.109 95.7738 182.832C95.8678 182.78 95.9468 182.802 96.0004 182.832C96.258 182.976 96.2979 183.685 96.2378 184.431C96.1818 185.126 95.775 185.759 95.5922 186.402C95.1581 187.928 95.4651 188.497 95.4402 188.937C95.4098 189.476 95.4261 189.902 95.4125 191.003C95.3998 192.028 95.408 194 95.5407 195C95.6734 196 95.9387 195.968 96.1875 195.952C96.9693 195.9 97.1897 195.879 97.2829 195.794C97.7444 195.377 97.0623 194.514 96.8816 193.841C96.7339 193.291 96.539 192.299 96.43 191.544C96.2511 190.304 96.3112 189.728 96.2763 189.254C96.2459 188.84 96.2117 188.072 96.1482 187.312C96.0847 186.551 95.9986 185.823 95.9543 185.333C95.9099 184.843 95.9099 184.613 95.9099 184.377" stroke="black" stroke-width="3.93783" stroke-linecap="round"/>
<path d="M119.025 168.262C118.828 168.857 118.691 169.318 118.346 170.045C117.789 171.219 117.037 171.503 116.432 171.833C115.779 172.189 113.922 171.69 113.131 171.426C112.741 171.296 112.529 170.938 111.659 169.713C110.877 168.613 110.702 167.641 110.626 167.353C110.548 167.059 110.545 166.196 110.625 164.763C110.76 162.313 111.276 161.763 111.434 161.361C111.655 160.798 112.222 160.087 112.783 159.634C113.294 159.222 114.188 158.933 114.798 158.762C115.44 158.581 116.057 158.533 116.628 158.515C117.171 158.498 117.704 158.947 118.135 159.257C118.741 159.693 119.015 160.084 119.248 160.521C119.382 160.828 119.521 161.12 119.63 161.334C119.674 161.435 119.693 161.518 119.712 161.604" stroke="black" stroke-width="3.93783" stroke-linecap="round"/>
<path d="M121.813 168.876C121.821 169.191 121.739 170.306 121.465 171.185C121.233 171.931 120.909 172.445 120.399 173.185C119.879 173.939 119.064 174.165 118.27 174.491C118.007 174.6 117.472 174.828 116.343 175.184C114.776 175.678 113.355 175.791 112.619 175.786C112.247 175.783 111.372 175.566 110.088 175.242C108.622 174.872 107.16 174.202 106.343 173.94C105.922 173.804 105.165 173.563 104.294 173.346C102.475 172.892 101.09 172.657 100.451 172.524C99.8413 172.396 99.3012 172.357 98.2512 172.211C96.9702 172.033 96.3002 171.698 94.9092 170.734C94.0064 170.108 93.3477 168.936 92.7885 167.921C92.5359 167.462 92.4855 167.23 92.3462 166.446C92.2301 165.793 92.0547 164.616 91.9601 163.565C91.7859 161.63 92.0112 160.238 92.2585 159.466C92.5669 158.504 92.9027 157.522 93.665 156.296C94.3388 155.211 95.2565 154.66 95.7081 154.3C96.7528 153.466 98.022 153.302 99.2915 152.962C99.9695 152.78 100.729 152.629 102.052 152.408C103.376 152.187 105.244 151.914 106.552 151.756C107.861 151.598 108.552 151.564 111.796 151.126C115.041 150.688 120.818 149.849 124.318 149.285C127.818 148.721 128.867 148.459 129.836 148.241C131.656 147.833 132.678 147.679 133.38 147.606C134.947 147.443 136.173 147.274 137.002 147.13C137.631 147.021 138.691 146.885 139.898 146.794C141.104 146.704 142.426 146.674 143.163 146.665C144.337 146.65 145.284 146.908 147.141 147.631C148.799 148.276 149.42 149.709 149.858 150.42C150.65 151.709 151.099 153.024 151.209 153.609C151.292 154.053 151.299 154.5 151.342 154.968C151.413 155.727 151.249 156.187 151.14 156.559C150.983 156.9 150.848 157.145 150.765 157.299C150.723 157.376 150.684 157.453 150.644 157.551" stroke="black" stroke-width="3.93783" stroke-linecap="round"/>
<path d="M100.611 172.43C100.134 171.804 98.9098 170.265 98.2114 168.966C97.5368 167.711 97.5789 166.489 97.5168 165.899C97.3592 164.402 97.1944 163.27 97.252 162.571C97.2931 162.072 97.5649 160.937 98.0206 158.741C98.2553 157.611 99.1628 156.487 99.665 155.86C100.623 154.664 101.685 153.903 102.506 153.323C103.125 152.886 104.097 152.707 104.513 152.575C105.001 152.422 105.426 152.316 105.806 152.179C106.48 152.006 107.355 151.775 107.572 151.726C107.673 151.703 107.756 151.683 107.842 151.644" stroke="black" stroke-width="3.93783" stroke-linecap="round"/>
<path d="M105.967 151.364C105.933 150.888 105.916 149.357 105.897 147.295C105.89 146.521 105.841 146.298 105.795 143.736C105.748 141.174 105.692 136.279 105.638 133.662C105.571 130.458 105.073 129.607 104.456 128.562C104.138 128.024 103.75 127.729 103.179 127.346C102.593 126.952 101.998 126.858 100.544 126.75C99.3708 126.664 97.3051 126.714 95.9343 126.75C93.9451 126.802 92.757 126.957 91.7891 127.024C90.642 127.102 89.6422 127.345 88.0169 127.587C85.1205 128.019 84.3233 128.195 83.141 128.865C82.4643 129.249 81.9036 129.914 81.3278 130.633C80.4114 131.778 80.1832 132.817 79.9089 133.96C79.8212 134.326 79.7454 134.699 79.7023 137.462C79.6632 139.968 79.6319 144.713 79.6175 147.218C79.6031 149.722 79.6175 149.842 79.625 158.679C79.6324 167.517 79.6324 185.068 79.6324 203.102" stroke="black" stroke-width="3.93783" stroke-linecap="round"/>
<path d="M106.269 173.68C106.269 173.686 106.269 173.692 106.227 179.106C106.186 184.52 106.104 195.343 106.038 201.079C105.973 206.815 105.928 207.137 105.886 207.356C105.785 207.885 105.646 208.284 105.37 208.794C105.161 209.183 104.277 209.944 103.295 210.606C103.015 210.795 102.568 210.963 101.98 211.142C101.392 211.321 100.656 211.471 99.3752 211.689C98.0943 211.906 96.2911 212.187 95.184 212.395C93.7085 212.672 93.1652 212.905 92.1986 213.034C91.4226 213.137 90.0581 213.243 89.2387 213.332C88.1816 213.446 87.3111 213.677 86.2995 213.922C85.4375 214.131 84.6682 214.224 84.2874 214.18C83.8725 214.131 83.3716 213.907 82.4176 213.488C81.619 213.137 81.3518 212.707 81.0273 212.255C80.7198 211.827 80.5047 211.3 80.2083 210.251C80.0705 209.762 79.9931 209.324 79.9262 208.887C79.8512 208.397 79.7219 207.723 79.6277 206.768C79.6223 205.153 79.6469 204.626 79.6499 203.955C79.653 203.6 79.659 203.216 79.6653 202.82" stroke="black" stroke-width="3.93783" stroke-linecap="round"/>
<path d="M87.4946 128.535C86.8319 128.979 86.3681 129.346 86.0118 129.85C85.5886 130.447 84.9015 131.928 84.3749 134.404C84.0363 135.997 84.2022 137.103 84.2063 137.567C84.2122 138.254 84.3057 139.241 84.3133 140.184C84.3162 140.545 84.3363 140.668 84.3442 152.06C84.3521 163.453 84.3521 186.113 84.6409 197.806C84.9298 209.5 85.5075 209.541 85.8246 209.633C86.5352 209.84 86.8082 210.731 87.1279 211.16C87.4658 211.614 87.9491 211.965 88.6317 212.297C88.8502 212.379 89.1026 212.44 89.2876 212.495C89.4727 212.551 89.5827 212.598 89.8513 212.648" stroke="black" stroke-width="3.93783" stroke-linecap="round"/>
<path d="M159.635 105.108C159.837 106.203 160.588 107.53 162.45 109.772C163.307 110.804 164.128 111.477 165.622 112.595C167.063 113.673 167.767 114.352 169.566 115.677C171.139 116.836 173.02 117.811 173.653 118.097C173.963 118.212 174.554 118.358 175.263 118.513C175.541 118.578 175.656 118.612 175.959 118.754" stroke="black" stroke-width="3.93783" stroke-linecap="round"/>
<path d="M225.877 256.587C225.069 257.522 222.706 260.695 220.56 263.547C219.677 264.721 219.308 265.414 218.358 267.546C217.409 269.679 215.915 273.249 215.025 275.293C213.948 277.768 213.351 278.957 212.813 280.647C212.227 282.485 212.178 285.219 212.286 288.419C212.383 291.308 213.741 294.453 214.945 297.536C216.148 300.614 217.25 301.242 218.195 302.164C219.466 303.406 221.691 304.36 223.25 304.801C223.775 304.949 225.436 305.205 228.245 305.432C230.801 305.638 233.353 305.169 235.596 304.719C237.082 304.421 239.64 304.134 242.782 303.68C246.111 303.199 249.557 302.391 251.883 301.876C253.897 301.43 257.647 300.818 260.732 300.095C263.817 299.373 266.132 298.612 268.849 297.427C271.565 296.242 274.612 294.655 276.481 293.615C279 292.214 280.273 290.968 281.554 289.638C283.339 287.662 284.368 286.722 285.079 286.021C285.429 285.687 285.758 285.397 286.481 284.809" stroke="black" stroke-width="3.93783" stroke-linecap="round"/>
<path d="M279.277 292.804C279.701 293.741 280.651 295.384 281.582 296.362C282.925 297.774 284.637 298.354 286.89 299.298C288.006 299.765 288.791 300.034 289.715 300.151C291.502 300.379 294.172 300.015 296.735 299.575C298.369 299.295 299.945 298.501 301.635 297.549C303.885 296.282 305.584 293.686 306.978 291.066C307.395 290.281 307.624 289.345 307.823 287.29C308.023 285.236 308.117 282.059 308.15 280.248C308.189 278.089 307.799 276.238 306.833 272.984C305.673 269.077 304.028 266.887 303.48 266.17C301.679 263.814 299.035 261.816 297.186 260.436C292.971 257.288 291.74 256.982 289.826 256.309C287.465 255.479 284.954 255.959 283.445 256.354C282.961 256.481 282.45 256.732 280.841 257.637C279.233 258.542 276.554 260.129 273.629 262.328C270.705 264.528 267.616 267.291 265.03 270.155C262.443 273.019 260.453 275.899 259.159 277.874C256.564 282.111 255.757 283.311 255.061 284.589C254.92 284.855 254.825 285.04 254.639 285.361" stroke="black" stroke-width="3.93783" stroke-linecap="round"/>
<path d="M281.859 256.611C282.201 255.955 283.085 254.189 283.726 251.949C284.064 250.389 284.634 247.481 284.928 245.765C285.221 244.049 285.221 243.612 285.221 243.162" stroke="black" stroke-width="3.93783" stroke-linecap="round"/>
<path d="M189.162 242.099C188.857 242.318 188.552 242.538 186.898 244.128C185.243 245.718 182.247 248.672 179.815 251.223C177.384 253.774 175.606 255.833 174.273 257.486C170.903 261.667 170.429 262.845 169.198 265.215C167.677 268.141 166.868 270.753 166.517 271.952C165.949 273.893 165.723 275.158 165.663 279.038C165.634 280.903 166.182 282.253 166.809 283.524C168.641 287.241 171.175 288.811 172.725 289.775C173.335 290.154 175.21 290.688 178.045 291.455C179.327 291.801 180.334 291.882 183.605 292.01C186.875 292.137 192.389 292.263 196.193 292.259C199.997 292.256 201.923 292.121 203.859 291.807C209.831 290.475 210.509 290.353 211.004 290.24C211.237 290.197 211.436 290.182 211.641 290.167" stroke="black" stroke-width="3.93783" stroke-linecap="round"/>
<path d="M200.4 274.309C201.17 273.673 202.271 272.94 203.084 272.4C204.635 271.371 206.347 270.309 209.79 268.358C213.167 266.444 214.83 265.244 215.712 264.67C216.749 263.996 218.019 263.603 218.946 263.218C219.782 262.821 220.42 262.482 220.811 262.328C221 262.247 221.172 262.159 221.35 262.069" stroke="black" stroke-width="3.93783" stroke-linecap="round"/>
</g>
<defs>
<filter id="filter0_g_621_21037" x="142.097" y="87.3139" width="185.025" height="185.025" filterUnits="userSpaceOnUse" color-interpolation-filters="sRGB">
<feFlood flood-opacity="0" result="BackgroundImageFix"/>
<feBlend mode="normal" in="SourceGraphic" in2="BackgroundImageFix" result="shape"/>
<feTurbulence type="fractalNoise" baseFrequency="0.022624004632234573 0.022624004632234573" numOctaves="3" seed="3160" />
<feDisplacementMap in="shape" scale="4.2432804107666016" xChannelSelector="R" yChannelSelector="G" result="displacedImage" width="100%" height="100%" />
<feMerge result="effect1_texture_621_21037">
<feMergeNode in="displacedImage"/>
</feMerge>
</filter>
<clipPath id="clip0_621_21037">
<rect width="430" height="378" fill="white"/>
</clipPath>
</defs>
</svg>
