<svg width="430" height="378" viewBox="0 0 430 378" fill="none" xmlns="http://www.w3.org/2000/svg">
<g clip-path="url(#clip0_621_19874)">
<g filter="url(#filter0_g_621_19874)">
<circle cx="282.437" cy="155.518" r="89.6464" fill="#E60611"/>
</g>
<path d="M241.139 94.2131C241.139 93.9088 241.595 92.8941 242.5 91.5635C242.867 91.0247 243.376 91.0294 243.651 91.0295C243.927 91.0295 244.038 91.093 244.173 91.2536C244.864 92.0755 244.747 93.4318 244.378 95.3195C244.126 96.6042 243.324 97.5547 242.852 98.1008C242.67 98.3108 242.531 98.3132 242.372 98.2549C241.562 97.9589 241.104 96.8781 240.69 95.9835C240.35 95.2489 240.665 94.2001 241.125 92.9513C241.644 91.5392 242.225 91.1428 242.458 91.0499C242.766 90.9268 243.058 91.384 243.268 91.6807C243.48 92.0798 243.61 92.4601 243.641 92.7549C243.651 92.9006 243.651 93.0381 243.651 93.1797" stroke="black" stroke-width="3.94532" stroke-linecap="round"/>
<path d="M293.384 105.164C293.974 105.791 294.39 107.759 293.957 109.627C293.779 110.393 293.438 110.807 293.199 111.062C292.921 111.359 292.603 111.513 292.224 111.562C291.606 111.64 291.003 111.541 290.62 111.374C289.542 110.903 289.811 108.445 290.119 107.027C290.295 106.217 291.372 105.641 292.123 105.176C292.246 105.1 292.374 105.104 292.5 105.2C293.193 105.723 293.142 107.638 293.057 108.771C293.035 109.076 292.705 109.438 292.344 109.785C292.193 109.929 291.983 109.841 291.859 109.654C291.734 109.466 291.669 109.14 291.644 108.741C291.62 108.343 291.638 107.882 291.764 107.272" stroke="black" stroke-width="3.94532" stroke-linecap="round"/>
<path d="M236.879 109.043C236.879 109.079 236.955 110.354 237.109 112.489C237.259 114.563 237.665 115.411 237.897 116.059C237.992 116.325 238.661 117.97 239.952 120.754C241.04 123.101 241.973 124.204 242.293 124.542C242.64 124.908 243.363 125.753 244.613 126.966C245.929 128.244 247.426 128.989 248.603 129.518C249.636 129.982 250.645 130.275 251.874 130.557C252.606 130.725 253.587 130.821 254.942 130.863C256.296 130.905 258.001 130.859 259.291 130.771C261.408 130.627 262.89 130.256 264.271 129.846C265.863 129.374 267.015 128.87 267.828 128.603C269.951 127.904 271.208 126.733 272.619 125.263C274.078 123.275 275.017 121.788 275.334 121.24C275.471 121.026 275.558 120.94 275.782 120.606" stroke="black" stroke-width="3.94532" stroke-linecap="round"/>
<path d="M254.582 67.246C254.959 67.2213 255.547 67.0956 257.436 66.9371C259.075 66.7996 262.111 66.7658 263.796 66.7348C265.481 66.7037 265.728 66.7324 267.373 66.775C269.018 66.8177 272.053 66.8733 273.799 66.9299C275.91 66.9982 276.889 67.1281 279.44 67.3598C281.388 67.5367 284.653 67.939 286.479 68.1721C288.306 68.4052 288.591 68.4838 294.851 70.6353C301.111 72.7868 313.337 77.0088 321.616 80.041C329.896 83.0732 333.858 84.7877 336.057 85.7347C339.215 87.0947 340.566 88.3614 341.456 89.1328C342.073 89.6674 342.503 89.939 342.785 90.1684C342.934 90.2894 343.069 90.4497 343.327 90.1867C344.121 89.3757 344.781 87.3523 345.802 84.4424C346.404 82.726 347.066 80.4851 347.596 78.433C348.126 76.3808 348.476 74.5757 348.67 73.5515C348.863 72.5273 348.89 72.3386 348.917 72.0719" stroke="black" stroke-width="3.94532" stroke-linecap="round"/>
<path d="M254.779 66.3205C255.208 65.2675 256.335 62.6652 258.025 58.6307C259.592 54.8888 260.295 52.5706 260.663 51.8129C261.356 49.7111 262.077 47.2413 262.398 46.3631C262.534 46.0031 262.614 45.8168 262.768 45.3066" stroke="black" stroke-width="3.94532" stroke-linecap="round"/>
<path d="M280.598 33.2246C280.83 33.6395 282.117 35.392 284.561 38.3457C285.775 39.8137 287.185 41.0053 288.765 42.1929C290.346 43.3805 292.118 44.4733 293.75 45.2769C295.383 46.0805 296.823 46.5619 298.223 46.9363C299.623 47.3108 300.939 47.5638 302.853 47.7199C304.767 47.8759 307.238 47.9273 309.724 47.7454C312.209 47.5635 314.635 47.1468 315.988 46.8968C317.555 46.6073 318.379 46.3315 319.716 45.9994C321.227 45.6241 323.099 45.1423 324.866 44.3948C326.751 43.3021 327.879 42.6027 328.853 42.1087C329.249 41.8792 329.446 41.6928 329.791 41.2836" stroke="black" stroke-width="3.94532" stroke-linecap="round"/>
<path d="M260.834 32.0986C261.699 34.5602 262.864 36.6399 264.957 39.4628C265.736 40.329 266.682 41.1447 267.716 41.945C268.132 42.2587 268.331 42.3848 268.642 42.5503" stroke="black" stroke-width="3.94532" stroke-linecap="round"/>
<path d="M315.076 48.7383C316.186 49.4245 318.041 50.4544 320.236 51.4373C322.224 52.3277 325.984 54.0183 329.489 55.4384C332.994 56.8585 336.129 57.9582 337.952 58.5808C340.181 59.3421 340.903 59.4555 341.954 59.6476C345.44 60.2842 346.575 60.7286 348.866 61.194C350.352 61.3829 352.971 61.4855 355.779 61.4767C356.784 61.4529 356.936 61.39 357.127 61.2889" stroke="black" stroke-width="3.94532" stroke-linecap="round"/>
<path d="M289.191 15.4851C289.276 15.4428 289.36 15.4005 290.922 14.8354C292.484 14.2702 295.521 13.1835 298.684 12.261C301.847 11.3386 305.042 10.6133 307.379 10.2262C311.071 9.61465 312.729 9.80841 313.581 9.91737C315.304 10.1375 316.619 10.3639 317.931 10.6922C321.013 11.4638 323.707 12.0586 324.731 12.4128C326.246 12.9368 328.349 13.7424 329.636 14.3943C331.056 15.1137 333.703 16.6882 335.495 17.8544C336.516 18.5187 338.121 19.91 340.367 22.1772C343.133 24.9693 344.45 27.2569 344.788 27.839C345.244 28.5409 345.527 29.0508 345.715 29.4106C345.814 29.5951 345.919 29.7835 346.028 30.0133" stroke="black" stroke-width="3.94532" stroke-linecap="round"/>
<path d="M262.025 18.5169C262.255 18.0838 263.101 17.0449 265.025 14.6128C265.681 13.7839 266.685 12.9978 268.184 11.8964C271.255 9.64128 273.587 9.271 274.645 8.95124C275.61 8.65993 277.68 8.64845 280.564 8.72729C283.373 8.80408 285.799 9.37786 287.423 9.80349C288.518 10.0903 289.162 10.4632 290.4 10.9535C291.272 11.3905 291.864 11.7692 292.388 12.1385C292.628 12.3029 292.818 12.4207 293.013 12.5421" stroke="black" stroke-width="3.94532" stroke-linecap="round"/>
<path d="M262.217 44.8804C261.724 45.1062 260.401 45.5331 256.88 45.6664C254.786 45.7457 252.861 45.0812 251.114 44.4805C247.934 43.3872 246.228 41.593 245.051 40.4103C244.461 39.817 243.929 38.6526 242.77 36.4359C242.283 35.5047 242.126 34.7135 241.881 32.8049C241.571 30.3794 242.21 28.9983 242.279 28.0381C242.362 26.8808 243.321 25.6712 244.035 24.4424C245.05 22.6945 246.009 21.6584 247.55 20.523C248.56 19.7788 250.289 18.8336 251.574 18.2698C252.483 17.8715 254.17 17.5507 256.742 17.0998C258.372 16.9701 259.872 16.9113 260.853 16.9261C261.229 16.9621 261.359 17.056 261.634 17.2239" stroke="black" stroke-width="3.94532" stroke-linecap="round"/>
<path d="M345.814 28.0411C348.687 27.8804 351.704 28.0329 353.765 28.5729C354.807 28.8458 356.923 29.7705 358.9 30.6507C361.969 32.017 363.55 34.2384 364.395 35.3854C365.156 36.4181 366.125 38.1792 367.153 40.1294C368.2 42.1149 368.611 43.918 369.003 45.3143C369.531 47.1991 369.079 49.5827 368.92 50.8331C368.537 52.2274 367.762 53.5905 367.216 54.3504C367.099 54.4904 366.964 54.6246 366.552 55.0782" stroke="black" stroke-width="3.94532" stroke-linecap="round"/>
<path d="M350.1 74.9764C350.771 75.3288 352.048 75.8708 353.218 76.1985C355.616 76.8701 356.917 76.8422 357.862 76.9207C359.059 77.0201 360.852 76.8153 363.307 75.8553C364.085 75.551 365.714 74.701 367.876 73.4495C369.93 72.2612 371.333 69.9288 372.324 67.8407C373.299 65.7886 373.122 63.6142 373.131 61.7978C373.135 60.9138 372.825 59.4065 372.53 57.5757C371.896 55.4464 370.976 53.4692 370.605 52.8516C370.447 52.5824 370.351 52.4033 370.253 52.2188" stroke="black" stroke-width="3.94532" stroke-linecap="round"/>
<path d="M278.744 42.857C280.11 42.8323 283.069 42.8663 284.23 43.0106C285.711 43.1945 286.575 43.4323 287.431 43.6193C288.175 43.7819 289.178 43.8819 290.004 44.0634C290.201 44.1158 290.437 44.1964 290.676 44.2864C290.914 44.3765 291.147 44.4737 291.739 44.6547" stroke="black" stroke-width="3.94532" stroke-linecap="round"/>
<path d="M287.4 90.1859C287.793 89.9104 289.306 89.1472 291.108 88.7172C292.192 88.4587 293.07 88.7086 293.574 88.9332C294.145 89.1876 294.871 89.9064 295.778 90.8676C296.568 91.8851 297.157 92.8768 297.509 93.6075C297.648 93.8816 297.703 93.9593 297.779 94.0394" stroke="black" stroke-width="3.94532" stroke-linecap="round"/>
<path d="M246.076 79.6695C246.144 79.601 247.013 79.3246 248.723 78.9594C250.457 78.589 251.653 78.9203 252.108 79.0925C252.496 79.2664 253.051 79.6452 253.784 80.2569C254.143 80.5792 254.478 80.9256 254.841 81.2825" stroke="black" stroke-width="3.94532" stroke-linecap="round"/>
<path d="M185.716 155.496C185.566 155.203 184.855 154.148 183.597 152.737C182.772 151.811 181.467 150.551 180.728 149.847C179.862 149.023 179.55 148.893 178.931 148.536C177.557 147.745 176.067 147.188 174.973 147.03C173.084 146.757 171.903 147.26 170.282 147.926C169.305 148.328 168.148 149.183 167.606 149.45C167.122 149.689 165.603 149.841 163.783 150.023C161.864 150.214 160.038 150.557 159.127 150.938C158.074 151.378 157.298 152.537 157.185 153.175C157.038 154.003 157.417 154.572 157.743 155.605C157.911 156.134 158.331 156.663 159.121 157.529C160.07 158.568 160.953 158.868 161.729 159.334C162.083 159.546 162.618 159.686 163.443 159.959C164.634 160.352 165.895 160.542 167.582 160.641C168.744 160.71 170.538 160.631 171.699 160.58C174.018 160.476 174.786 160.197 175.715 160.011C175.914 159.971 176.045 159.957 176.197 159.93C176.349 159.903 176.518 159.863 176.715 159.822" stroke="black" stroke-width="3.94532" stroke-linecap="round"/>
<path d="M173.748 161.055C173.763 161.326 173.915 162.047 174.308 162.885C174.577 163.458 175.345 164.239 176.291 165.133C176.984 165.788 177.9 166.191 179.014 166.668C180.204 167.177 181.026 167.298 181.29 167.343C182.603 167.495 184.669 167.531 185.513 167.211C185.739 167.104 185.932 166.994 186.131 166.88" stroke="black" stroke-width="3.94532" stroke-linecap="round"/>
<path d="M184.715 152.283C184.73 152.283 185.299 152.265 186.456 152.184C187.676 152.099 189.196 151.828 190.715 151.693C192.606 151.526 194.151 151.309 195.374 151.23C195.696 151.197 195.961 151.155 196.153 151.126C196.345 151.098 196.457 151.084 196.685 151.07" stroke="black" stroke-width="3.94532" stroke-linecap="round"/>
<path d="M197.139 127.681C197.146 127.764 197.274 128.119 198.816 130.831C200.193 133.254 202.94 137.712 204.464 140.381C205.989 143.049 206.249 143.77 207.273 146.209C208.296 148.648 210.074 152.784 211.099 155.259C212.891 159.584 213.604 161.704 214.175 163.046C214.813 164.545 216.543 164.137 217.648 164.448C218.844 164.784 220.057 164.99 220.941 165.15C221.445 165.24 222.45 165.384 224.715 165.747C231.231 166.788 232.427 167.346 234.158 167.667C235.989 168.006 237.868 168.279 239.177 168.564C239.796 168.7 240.436 168.784 241.063 168.941C241.678 169.094 244.558 169.583 249.288 170.472C251.463 170.881 253.208 171.057 256.713 171.271C260.219 171.486 265.439 171.697 268.718 171.771C271.996 171.845 273.175 171.777 277.807 171.065C282.439 170.354 290.488 169.002 294.759 168.255C299.031 167.509 299.281 167.409 299.535 167.314C299.789 167.219 300.039 167.132 300.785 166.983" stroke="black" stroke-width="3.94532" stroke-linecap="round"/>
<path d="M300.785 166.981C301.001 166.639 301.295 166.245 302.43 164.659C303.401 163.304 305.104 160.783 308.555 157.169C312.006 153.555 317.137 148.911 320.598 146.041C324.059 143.171 325.695 142.216 327.756 141.268C329.816 140.32 332.253 139.408 334.217 138.798C336.181 138.188 337.599 137.907 339.45 137.724C341.302 137.541 343.544 137.465 346.621 137.845C349.698 138.225 353.542 139.064 356.52 139.878C359.498 140.692 361.493 141.457 362.84 142.035C364.86 142.903 366.721 144.431 368.752 146.227C369.844 147.303 370.298 147.896 370.578 148.333C370.713 148.54 370.836 148.716 371.232 149.256" stroke="black" stroke-width="3.94532" stroke-linecap="round"/>
<path d="M329.73 181.961C329.523 181.456 328.96 180.315 328.298 179.14C327.541 177.794 327.485 177.273 327.413 176.759C327.317 176.07 326.941 175.221 326.979 174.773C327.025 174.235 327.883 173.962 329.389 173.159C331.929 171.804 332.626 171.762 332.852 171.768C333.518 171.784 334.018 173.373 334.672 174.987C334.904 175.562 335.112 176.092 335.355 176.576C335.705 177.277 336.036 177.972 336.344 178.455C336.687 179.025 336.889 179.435 337.072 179.725C337.151 179.855 337.203 179.95 337.256 180.071" stroke="black" stroke-width="3.94532" stroke-linecap="round"/>
<path d="M325.872 186.911C325.872 186.896 326.353 186.642 327.625 186.104C328.402 185.775 329.501 185.48 330.694 184.998C331.888 184.515 333.158 183.891 333.94 183.487C334.991 182.945 336.208 182.37 337.762 181.741C338.899 181.281 339.433 180.924 340.316 180.591C340.621 180.476 340.83 180.4 341.036 180.4C341.31 180.4 341.666 181.069 342.277 182.111C343.684 184.511 344.029 185.583 344.585 186.383C345.099 187.121 342.668 188.886 341.872 189.675C340.973 190.567 339.473 191.282 339.072 191.495C338.605 191.744 337.991 191.88 337.415 192.038C336.89 192.182 335.949 192.437 335.147 192.584C334.626 192.68 334.207 192.797 333.421 192.92C331.773 193.179 329.727 193.086 328.545 192.958C328.154 192.916 327.803 192.232 327.185 191.243C325.636 188.573 325.33 188.09 325.236 187.878C325.186 187.78 325.134 187.697 325.08 187.613" stroke="black" stroke-width="3.94532" stroke-linecap="round"/>
<path d="M362.645 201.267C360.971 201.303 359.983 201.339 358.997 201.414C358.138 201.479 356.549 201.565 355.351 201.692C353.381 201.901 352.075 202.302 351.181 202.57C350.646 202.729 349.868 202.916 348.185 203.548C347.075 203.965 345.498 204.71 344.602 205.123C343.543 205.611 343.055 206.005 342.36 206.668C340.869 208.091 340.641 209.064 340.347 209.758C339.997 210.586 339.935 211.357 339.713 212.348C339.529 213.172 339.771 214.225 340.19 215.36C340.59 216.446 341.558 216.941 342.61 217.367C343.243 217.624 344.329 217.765 345.831 217.951C347.152 218.113 348.084 217.905 348.309 217.85C349.532 217.553 351.559 216.992 352.632 216.64C354.289 215.989 355.502 215.481 356.012 215.26C356.392 215.111 357.018 214.889 357.865 214.479" stroke="black" stroke-width="3.94532" stroke-linecap="round"/>
<path d="M342.124 217.69C341.87 217.979 341.196 219.108 340.68 221.564C340.324 223.26 340.614 224.524 340.805 225.253C341.274 227.041 342.076 227.893 342.989 228.878C343.874 229.832 345.367 230.085 346.687 230.216C348.61 230.406 350.177 230.139 351.506 229.725C352.571 229.393 354.373 228.644 355.801 227.998C359.315 226.123 359.595 225.886 359.836 225.76C359.968 225.692 360.122 225.616 360.37 225.493" stroke="black" stroke-width="3.94532" stroke-linecap="round"/>
<path d="M347.277 230.891C347.439 231.199 348.322 232.594 349.116 233.453C349.616 233.995 350.429 234.391 351.328 234.826C351.841 235.074 352.525 235.248 353.783 235.383C355.041 235.518 356.866 235.576 357.907 235.597C359.152 235.623 359.866 235.476 360.924 235.219C362.827 234.757 363.695 234.257 365.448 233.467C366.571 232.961 368.134 232.16 369.16 231.615C370.186 231.07 370.617 230.785 371.198 230.272C372.544 229.081 373.416 227.978 373.737 227.444C373.98 227.038 374.63 226.094 375.841 224.334C377.087 222.059 377.762 220.63 377.899 220.135C378.007 219.77 378.194 219.174 378.432 218.424" stroke="black" stroke-width="3.94532" stroke-linecap="round"/>
<path d="M379.242 218.298C379.316 218.283 379.583 218.126 380.225 217.703C381.232 217.039 382.739 216.124 384.258 215.24C385.219 214.681 386.019 213.712 387.295 212.063C388.066 211.066 388.889 209.596 389.414 208.654C389.939 207.712 390.091 207.306 390.384 206.207C390.677 205.108 391.105 203.329 391.342 201.372C391.579 199.415 391.611 197.333 391.547 195.767C391.483 194.202 391.321 193.215 390.969 191.857C390.617 190.5 390.079 188.802 389.439 187.162C388.8 185.521 388.074 183.99 387.257 182.567C386.439 181.144 385.55 179.874 384.672 178.747C383.795 177.62 382.954 176.674 382.376 176.056C381.53 175.154 380.923 174.61 379.681 173.533C378.747 172.722 377.09 171.503 375.042 170.093C372.993 168.682 370.576 167.15 368.854 165.99C367.132 164.831 366.179 164.09 365.326 163.466C363.769 162.328 362.749 161.732 361.545 161.072C360.59 160.547 358.954 159.6 358.044 159.088C357.003 158.519 356.755 158.387 356.485 158.233C356.33 158.153 356.138 158.066 355.918 157.977" stroke="black" stroke-width="3.94532" stroke-linecap="round"/>
<path d="M346.092 187.577C346.845 188.023 348.27 188.743 349.596 189.306C350.476 189.68 351.148 190.063 352.081 190.382C353.035 190.709 353.744 190.97 354.337 191.248C354.972 191.545 355.708 192.362 356.674 194.029C357.71 195.817 357.999 197.225 358.086 197.531C358.34 198.429 358.492 198.87 358.82 199.677C358.897 199.881 358.955 200.039 359.005 200.182C359.055 200.326 359.096 200.448 359.182 200.709" stroke="black" stroke-width="3.94532" stroke-linecap="round"/>
<path d="M358.098 194.361C358.112 194.361 358.657 194.283 359.738 194.172C360.812 194.063 361.989 194.262 363.249 194.399C365.294 194.472 365.613 194.538 365.994 194.628C366.27 194.705 366.712 194.845 367.377 195.108" stroke="black" stroke-width="3.94532" stroke-linecap="round"/>
<path d="M358.129 192.662C358.129 192.632 359.11 191.271 360.684 189.153C361.673 187.821 362.705 187.445 364.764 186.606C365.817 186.318 366.428 186.199 366.682 186.15C366.83 186.113 367.019 186.055 367.281 185.994" stroke="black" stroke-width="3.94532" stroke-linecap="round"/>
<path d="M328.739 193.276C328.525 194.911 328.358 196.054 328.244 196.574C328.167 196.928 327.811 198.26 327.358 200.213C327.001 201.751 326.498 202.463 326.308 202.912C326.049 203.524 325.694 204.327 325.532 204.871C325.395 205.33 325.386 206.601 325.47 207.452C325.519 207.952 325.625 208.373 325.809 209.088C326.041 209.991 326.223 210.726 326.384 211.178C326.642 211.906 327.111 213.278 327.673 214.751C327.886 215.309 327.928 215.489 329.278 218.702C330.628 221.916 333.279 228.158 336.108 233.738C338.936 239.319 341.861 244.048 343.398 246.549C344.935 249.049 344.995 249.179 345.275 249.573C346.601 251.441 347.118 252.046 347.893 252.91C348.337 253.406 349.293 253.674 350.341 254.017C350.587 254.097 350.803 254.103 351.965 254.107C353.128 254.112 355.235 254.093 357.546 253.756C359.857 253.419 362.308 252.764 363.822 252.319C365.337 251.874 365.841 251.659 366.909 251.045C367.977 250.431 369.594 249.425 370.662 248.695C372.252 247.608 372.827 247.009 373.145 246.76C374.172 245.957 374.761 244.967 375.231 244.319C375.563 243.86 375.864 243.173 376.27 241.908C376.556 241.017 376.353 239.744 376.285 239.004C376.151 237.547 375.569 236.236 375.01 234.816C374.609 233.795 374.178 232.637 373.907 232.047C373.574 231.19 373.419 230.822 373.3 230.527C373.245 230.387 373.2 230.268 373.086 230.054" stroke="black" stroke-width="3.94532" stroke-linecap="round"/>
<path d="M162.727 148.713C162.62 148.577 161.458 146.945 159.78 144.587C158.918 143.375 158.35 142.524 157.717 141.65C157.058 140.741 156.437 139.701 155.97 138.87C155.382 137.826 156.143 135.781 156.178 135.314C156.221 134.719 156.486 132.923 156.796 130.716C156.864 130.229 156.917 129.175 156.914 127.537C156.914 126.812 156.853 126.304 156.637 125.326C156.102 122.903 155.59 121.335 155.393 120.821C154.584 118.711 154.112 117.565 153.688 116.688C153.296 115.875 152.56 114.715 152.034 113.957C151.417 113.068 149.951 111.273 149.146 110.322C148.564 109.635 148.1 109.066 146.694 107.668C145.873 106.852 145.072 106.406 144.463 106.043C143.699 105.59 142.929 105.255 141.3 104.915C140 104.643 137.703 104.345 135.679 104.17C133.654 103.994 131.963 103.994 130.761 104.061C129.559 104.129 128.899 104.264 128.109 104.516C127.319 104.768 126.419 105.134 125.319 105.728C124.22 106.322 122.948 107.132 121.791 108.042C120.634 108.952 119.631 109.938 118.865 110.819C118.099 111.7 117.601 112.447 117.185 113.219C116.374 114.724 116.072 115.916 115.991 116.741C115.889 117.776 116.067 118.771 116.488 120.081C116.781 120.996 117.331 122.387 117.667 123.239C118.004 124.09 118.134 124.351 118.573 125.087C119.011 125.822 119.754 127.024 120.28 127.826C121.061 129.016 121.752 129.732 122.45 130.469C122.797 130.834 123.091 131.217 124.349 132.358C125.606 133.498 127.808 135.393 130.197 136.961C132.586 138.53 135.096 139.714 136.468 140.34C137.985 141.032 138.257 141.088 138.949 141.259C140.623 141.671 141.895 141.71 142.507 141.795C144.981 142.139 145.449 142.383 146.312 142.651C146.774 142.794 147.481 143.206 148.349 143.702C150.229 144.775 151.639 145.794 152.309 146.346C152.925 146.853 153.844 147.811 154.469 148.456C155.361 149.379 155.732 149.794 156.172 150.271C156.291 150.427 156.404 150.608 156.496 150.747C156.589 150.887 156.657 150.978 156.843 151.281" stroke="black" stroke-width="3.94532" stroke-linecap="round"/>
<path d="M179.795 168.354C179.805 168.384 179.814 168.413 180.371 169.47C180.927 170.528 182.03 172.612 182.893 174.121C183.755 175.631 184.344 176.502 184.994 177.491C186.351 179.556 187.108 180.787 187.508 181.393C188.437 182.802 189.196 183.837 189.473 184.401C190.523 186.535 190.959 187.56 191.144 188.363C191.488 189.856 191.25 190.817 190.933 191.942C190.477 193.56 189.523 194.335 188.788 194.898C188.245 195.313 187.413 195.272 186.397 195.118C186.082 195.07 185.598 194.86 184.773 194.539C183.801 194.16 182.776 193.385 181.832 192.644C181.21 192.156 180.808 191.803 180.131 191.017C179.609 190.412 178.78 189.342 177.432 187.377C176.085 185.413 174.258 182.575 173.118 180.792C171.979 179.01 171.581 178.369 171.353 177.986C171.124 177.602 171.075 177.496 171.002 177.362" stroke="black" stroke-width="3.94532" stroke-linecap="round"/>
<path d="M153.106 150.877C152.388 151.616 152.021 151.981 150.609 153.667C149.93 154.478 149.67 155.666 149.32 156.877C149.036 157.862 149.02 158.909 149.153 160.474C149.357 162.882 149.873 164.451 150.007 164.832C150.607 166.542 152.256 168.183 152.705 168.59C153.454 169.269 154.234 169.763 154.776 170.029C155.271 170.272 156.661 170.799 158.314 171.197C160.536 171.731 161.421 171.198 162.838 171.15C163.929 171.112 164.664 170.705 165.326 170.434C165.807 170.237 167.174 169.461 168.079 168.758C168.405 168.506 168.525 168.145 168.632 167.929C169.106 166.968 168.632 165.25 168.058 163.854C167.431 162.327 166.481 161.825 166.033 161.518C165.655 161.259 165.192 161.188 164.666 161.02C164.156 160.857 163.611 160.468 163.111 160.234C162.573 159.983 161.901 159.617 161.413 159.367C161.204 159.241 161.016 159.123 160.825 159.01C160.727 158.952 160.626 158.89 160.499 158.826" stroke="black" stroke-width="3.94532" stroke-linecap="round"/>
<path d="M153.014 170.77C153.014 171.416 153.163 172.321 154.024 174.09C154.678 175.432 155.541 176.12 155.832 176.388C156.143 176.674 157.128 177.223 158.446 177.916C159.184 178.305 159.565 178.349 160.531 178.411C161.393 178.467 163.016 178.451 164.251 178.362C167.479 178.131 168.382 177.394 169.095 177.118C169.876 176.815 170.747 176.379 171.258 175.86C171.839 175.27 172.071 174.833 172.164 174.343C172.291 173.673 172.013 173.019 171.862 172.534C171.672 171.927 171.221 171.012 170.73 170.31C170.457 170.019 170.159 169.768 169.891 169.582C169.769 169.497 169.678 169.431 169.561 169.34" stroke="black" stroke-width="3.94532" stroke-linecap="round"/>
<path d="M157.869 179.113C158.202 179.463 159.043 180.273 160.485 181.351C161.491 182.102 162.544 182.647 163.246 183.056C164.221 183.625 165.672 184.114 166.906 184.464C168.17 184.822 169.414 184.611 170.438 184.216C171.193 183.924 171.782 183.3 172.234 182.89C172.446 182.668 172.594 182.456 172.701 182.238C172.763 182.12 172.839 181.989 172.917 181.83" stroke="black" stroke-width="3.94532" stroke-linecap="round"/>
<path d="M188.189 179.78C188.197 179.787 188.205 179.795 189.241 179.773C190.278 179.751 192.343 179.699 194.177 179.588C196.012 179.477 197.555 179.31 198.442 179.223C199.513 179.137 200.817 178.916 202.585 178.547C203.24 178.398 203.403 178.328 203.617 178.209" stroke="black" stroke-width="3.94532" stroke-linecap="round"/>
<path d="M131.97 113.536C131.959 113.514 131.919 113.406 131.867 113.22C131.823 113.062 131.893 112.897 131.996 112.751C132.046 112.679 132.132 112.643 132.221 112.626C132.409 112.592 132.597 112.662 132.763 112.731C132.948 112.807 133.772 113.673 135.157 115.234C135.825 115.987 136.32 116.749 137.17 117.992C138.019 119.236 139.183 120.96 140.039 122.113C140.895 123.265 141.408 123.794 141.809 124.241C142.507 125.019 142.841 125.473 143.193 125.887C143.976 126.809 144.701 127.87 145.115 128.531C145.386 128.963 145.563 129.219 145.716 129.567C145.753 129.651 145.763 129.729 145.746 129.795C145.73 129.861 145.681 129.915 145.615 129.954C145.333 130.123 144.897 129.968 144.547 129.859C144.14 129.732 143.861 129.428 143.653 129.134C143.525 128.951 143.401 128.788 142.96 128.175C142.567 127.629 141.872 126.572 141.26 125.658C140.648 124.744 140.151 123.997 139.789 123.476C139.23 122.673 138.943 122.319 138.554 121.769C137.617 120.447 136.75 119.382 136.417 119.013C136.216 118.79 135.773 118.217 135.102 117.439C134.346 116.56 133.726 115.762 133.478 115.398C132.969 114.65 132.69 114.333 132.472 114.027C132.424 113.952 132.371 113.871 132.323 113.797C132.274 113.722 132.23 113.656 132.168 113.539" stroke="black" stroke-width="3.94532" stroke-linecap="round"/>
<path d="M141.153 111.69C141.142 111.679 141.131 111.556 141.167 111.357C141.182 111.269 141.294 111.239 141.377 111.244C141.544 111.253 142.046 111.795 142.996 112.838C144.159 114.114 144.768 114.994 145.166 115.678C145.514 116.277 146.146 117.394 146.558 118.09C146.97 118.786 147.14 119.029 147.464 119.62C147.788 120.211 148.26 121.142 148.61 121.884C148.96 122.625 149.172 123.148 149.438 123.727C149.993 124.935 150.511 126.054 150.726 126.781C150.794 127.008 150.673 126.974 150.595 126.926C150.139 126.646 149.51 125.608 148.703 124.51C147.715 123.165 147.067 122.197 146.876 121.857C146.655 121.464 146.397 121.074 146.133 120.627C146.052 120.491 145.937 120.341 145.462 119.442C144.987 118.544 144.151 116.902 143.693 115.988C143.169 114.942 142.958 114.42 142.648 113.74C142.159 112.819 141.906 112.347 141.78 112.145C141.722 112.056 141.679 111.996 141.634 111.934" stroke="black" stroke-width="3.94532" stroke-linecap="round"/>
<path d="M125.827 119.134C125.653 118.939 125.243 118.365 125.096 117.92C125.061 117.815 125.09 117.719 125.133 117.638C125.175 117.557 125.25 117.49 125.331 117.448C125.486 117.368 125.717 117.41 125.956 117.475C126.064 117.504 126.138 117.543 126.994 118.609C127.849 119.675 129.483 121.773 130.39 122.92C131.413 124.212 131.894 124.781 132.618 125.716C133.423 126.758 134.16 127.57 134.849 128.404C135.929 129.711 136.801 130.526 136.98 130.755C137.273 131.13 137.696 131.678 137.922 132.075C137.971 132.161 137.972 132.283 137.953 132.369C137.935 132.454 137.876 132.508 137.763 132.512C137.482 132.522 136.525 131.97 135.243 131.223C134.566 130.827 133.985 130.265 133.076 129.357C132.579 128.861 132.081 128.222 131.056 126.805C130.031 125.387 128.512 123.194 127.693 122.006C126.66 120.506 126.463 120.11 126.279 119.789C126.195 119.636 126.1 119.464 125.996 119.265C125.941 119.16 125.882 119.044 125.755 118.793" stroke="black" stroke-width="3.94532" stroke-linecap="round"/>
<path d="M86.6422 203.774C86.5677 203.774 86.4932 203.774 84.9131 203.908C83.3329 204.041 80.2495 204.308 76.1306 205.009C72.0117 205.71 66.9509 206.835 61.1 208.479C55.2491 210.122 48.7615 212.249 45.2656 213.413C41.7698 214.577 41.4622 214.713 40.6039 215.21C38.3261 216.53 36.0996 218.145 34.7876 219.314C34.0649 219.958 33.7382 220.489 33.4543 221.233C33.067 222.248 33.2332 223.91 33.4864 225.813C33.7272 227.624 34.7734 229.039 35.7177 230.354C36.8154 231.882 39.1541 233.74 41.5512 235.608C42.4328 236.295 42.6683 236.411 43.3047 236.696C43.941 236.982 44.9795 237.423 49.615 238.547C54.2505 239.672 62.4515 241.466 70.4451 242.847C78.4387 244.227 85.9763 245.141 91.4579 245.658C96.9394 246.175 100.136 246.269 102.801 246.426C105.465 246.584 107.499 246.803 117.332 247.111C127.165 247.419 144.735 247.809 155.857 247.793C166.979 247.778 171.121 247.345 174.293 246.916C177.465 246.486 179.542 246.074 181.646 245.744C183.75 245.414 185.819 245.179 188.721 244.639C191.623 244.1 195.296 243.262 199.573 241.823C203.849 240.384 208.618 238.37 211.395 237.134C214.856 235.594 216.076 234.464 217.215 233.351C218.117 232.469 219.149 231.474 219.919 230.198C220.949 228.49 220.101 225.675 219.652 224.069C218.951 221.56 218.245 220.832 217.25 219.472C215.786 217.47 214.329 216.29 213.549 215.753C212.955 215.344 211.912 214.722 210.811 214.117C209.71 213.513 208.571 212.961 205.007 211.661C201.442 210.361 195.487 208.331 192.027 207.226C188.567 206.121 187.783 206.004 185.276 205.425C182.77 204.846 178.565 203.809 172.706 202.847C166.848 201.885 159.464 201.031 152.176 200.468C144.888 199.906 137.921 199.661 133.764 199.594C129.608 199.526 128.473 199.642 126.451 199.729C124.429 199.817 121.554 199.872 119.201 200.017C116.848 200.162 115.104 200.394 111.855 200.723C108.607 201.052 103.906 201.471 101.352 201.726C98.7975 201.981 98.5317 202.058 97.0145 202.269C92.7424 202.862 89.6551 203.206 89.1094 203.289C88.4281 203.414 87.6176 203.541 86.8777 203.621C86.5642 203.648 86.3766 203.648 86.1445 203.685" stroke="black" stroke-width="3.94532" stroke-linecap="round"/>
<path d="M33.2246 222.148C33.2815 223.796 33.8637 233.851 35.1795 238.367C35.878 240.764 36.9291 243.286 37.8185 245.233C38.7079 247.181 39.4779 248.456 40.7334 250.199C41.9889 251.943 43.7065 254.116 45.4917 256.138C47.277 258.159 49.0778 259.964 50.0969 260.966C51.116 261.968 51.2988 262.115 53.2831 263.986C55.2674 265.858 59.0478 269.45 62.3165 272.229C65.5852 275.008 68.2277 276.865 71.2991 278.838C74.3705 280.811 77.7907 282.845 80.5594 284.398C83.328 285.951 85.3415 286.962 87.7061 288.006C90.0708 289.05 92.7256 290.096 96.1684 291.041C99.6112 291.986 103.761 292.798 112.737 293.275C121.712 293.753 135.387 293.871 142.541 293.914C149.915 293.958 151.072 293.845 153.141 293.642C155.627 293.399 157.391 292.878 158.576 292.821C160.364 292.734 163.561 292.004 167.943 290.741C170.217 290.086 172.493 289.078 174.22 288.265C177.096 286.911 178.945 285.413 181.817 283.161C183.867 281.554 187.228 279.146 189.765 276.976C194.156 273.222 195.789 270.861 196.596 269.848C198.288 267.725 199.946 265.94 201.087 264.5C202.831 262.298 205.431 259.438 207.568 256.585C208.728 255.035 209.123 254.245 210.17 252.538C211.055 251.095 212.546 248.415 213.586 246.537C215.892 242.37 217.17 240.02 218.074 237.965C218.225 237.625 218.381 237.344 218.74 236.254C219.099 235.165 219.656 233.275 220.278 230.701" stroke="black" stroke-width="3.94532" stroke-linecap="round"/>
<path d="M214.325 163.543C214.093 164.467 213.56 166.612 212.667 171.093C211.999 174.439 210.805 180.721 210.067 184.694C209.329 188.667 209.094 190.144 208.706 192.562C208.318 194.98 207.783 198.294 207.508 200.156C207.095 202.942 207.045 204.098 206.767 206.153C206.71 208.212 206.739 209.665 206.806 210.088C206.843 210.305 206.887 210.526 206.932 210.932" stroke="black" stroke-width="3.94532" stroke-linecap="round"/>
<path d="M210.973 253.915C211.025 255.341 211.086 256.433 211.445 258.23C212.239 262.21 213.096 264.976 213.361 265.904C214.36 269.4 214.752 270.725 215.549 272.777C216.244 274.563 216.507 275.499 216.971 276.757C217.26 277.542 217.559 278.128 217.852 278.494C218.024 278.711 218.355 278.89 219.286 279.31C220.217 279.73 221.766 280.36 228.22 282.001C234.674 283.642 245.988 286.274 251.97 287.646C257.952 289.017 258.261 289.048 259.628 289.314C260.996 289.579 263.414 290.079 265.475 290.453C267.536 290.827 269.167 291.06 270.161 291.226C271.156 291.392 271.464 291.484 275.586 291.764C279.707 292.044 287.632 292.509 292.244 292.84C296.856 293.171 297.915 293.354 302.121 293.449C306.328 293.544 313.65 293.545 317.902 293.476C322.155 293.406 323.116 293.265 325.079 292.758C327.042 292.25 329.979 291.38 332.932 290.666C335.886 289.951 338.767 289.418 340.314 289.03C341.862 288.643 341.988 288.417 341.949 287.341C341.91 286.265 341.703 284.347 341.57 279.312C341.437 274.277 341.385 266.183 341.27 261.248C341.12 254.777 340.799 252.706 340.772 251.778C340.638 249.794 340.705 247.547 340.784 246.117C340.798 245.636 340.813 245.024 340.953 243.893" stroke="black" stroke-width="3.94532" stroke-linecap="round"/>
<path d="M217.59 217.643C218.364 217.885 219.138 218.127 223.462 219.035C227.786 219.942 235.637 221.509 241.062 222.392C246.488 223.275 249.249 223.428 251.226 223.617C253.203 223.807 254.312 224.028 260.169 224.161C266.026 224.293 276.598 224.329 282.247 224.313C287.897 224.298 288.302 224.23 289.555 224.165C292.893 223.991 295.256 223.923 296.9 223.744C300.973 223.299 304.144 223.098 304.98 222.895C306.546 222.514 308.045 222.475 309.001 222.553C309.361 222.582 309.424 222.847 309.467 230.293C309.51 237.74 309.521 252.425 309.547 261.243C309.573 270.06 309.614 272.565 309.481 273.876C309.348 275.187 309.039 275.228 303.568 275.245C298.097 275.261 287.473 275.252 281.217 275.156C274.961 275.06 273.395 274.878 272.36 274.783C271.326 274.689 270.87 274.689 268.115 274.333C265.36 273.977 260.321 273.265 257.546 272.849C254.407 272.378 253.736 272.202 250.811 271.635C248.189 271.128 243.28 270.062 240.391 269.412C237.501 268.763 236.786 268.534 235.21 267.913C231.201 266.33 228.455 265.089 227.57 264.664C226.068 263.943 224.846 263.462 224.409 263.025C223.87 262.485 223.836 261.732 223.691 261.257C223.513 260.671 222.67 257.96 221.359 253.529C219.731 248.022 219.055 246.912 218.749 245.766C218.403 244.464 218.206 243.496 217.929 242.622C217.879 242.421 217.864 242.215 217.849 241.904C217.834 241.593 217.819 241.184 217.803 240.762" stroke="black" stroke-width="3.94532" stroke-linecap="round"/>
<path d="M227.828 230.336C227.914 230.388 228 230.441 229.856 230.766C231.712 231.09 235.335 231.686 238.156 231.993C240.977 232.3 242.888 232.3 244.429 232.405C245.971 232.509 247.085 232.719 255.7 232.985C264.315 233.251 280.396 233.568 288.854 233.684C297.311 233.8 297.657 233.705 298.86 233.559C304.405 232.887 305.409 232.813 306.449 232.62C306.704 232.582 306.972 232.567 307.308 232.552C307.645 232.537 308.041 232.522 308.449 232.506" stroke="black" stroke-width="3.94532" stroke-linecap="round"/>
<path d="M301.479 166.629C301.605 168.125 302.407 170.644 303.92 175.357C304.881 178.353 306.258 182.567 307.584 185.881C309.873 191.599 312.662 195.391 314.677 197.883C316.135 199.685 318.24 201.438 319.885 202.699C321.046 203.453 321.813 204.015 322.48 204.49C322.879 204.764 323.401 205.105 324.006 205.523" stroke="black" stroke-width="3.94532" stroke-linecap="round"/>
<path d="M230.66 301.652C229.951 301.054 227.906 299.584 223.635 299.023C221.367 298.725 217.596 299.067 214.832 299.3C212.069 299.532 210.407 299.911 209.13 300.268C206.985 300.868 205.78 301.477 204.626 302.297C202.493 303.814 200.991 305.559 200.221 306.655C198.628 308.925 198.688 310.352 198.657 311.152C198.605 312.443 198.778 314.907 199.694 317.154C199.988 317.877 200.655 318.594 201.647 319.518C202.639 320.442 204.042 321.498 205.32 322.292C206.597 323.086 207.707 323.585 209.05 324.052C210.394 324.52 211.938 324.939 214.272 325.249C216.606 325.56 219.682 325.748 222.549 325.805C225.415 325.862 227.978 325.781 229.58 325.692C231.749 325.571 232.641 325.409 233.298 325.382C235.629 325.285 238.418 324.939 240.02 324.691C241.384 324.481 243.878 324.188 245.269 323.989C248.361 323.548 251.128 322.818 252.332 322.239C254.235 321.323 255.771 319.649 257.983 317.468C259.215 316.254 259.511 314.369 259.996 311.29C260.29 309.425 260.4 306.908 260.544 305.351C260.737 303.256 260.896 302.51 260.954 301.147C261.095 297.872 261.314 295.486 261.424 294.761C261.546 292.442 261.661 291.808 261.819 291.104C261.873 290.883 261.946 290.607 262.021 290.146" stroke="black" stroke-width="3.94532" stroke-linecap="round"/>
<path d="M226.299 298.857C226.299 297.409 226.407 295.875 226.562 294.186C226.661 293.179 226.858 291.329 226.994 289.344C227.129 287.359 227.198 285.295 227.268 283.168" stroke="black" stroke-width="3.94532" stroke-linecap="round"/>
<path d="M326.731 306.398C324.91 306.678 321.351 307.293 319.59 308.18C318.319 308.82 315.924 310.019 314.377 310.92C312.829 311.822 312.202 312.392 311.394 313.393C310.586 314.395 309.617 315.811 308.899 317.183C307.557 319.748 307.295 321.603 307.467 322.913C307.753 325.1 308.865 327.286 309.786 328.818C310.362 329.775 311.356 330.708 312.985 332.004C316.327 334.662 317.937 334.549 319.544 334.648C320.908 334.733 323.395 334.754 325.287 334.688C329.969 334.523 331.218 333.947 332.731 333.689C333.404 333.575 334.444 333.415 336.828 332.696C338.515 332.187 341.116 331.201 342.622 330.639C344.457 329.953 345.504 329.224 347.018 328.077C348.652 326.839 349.69 325.814 350.303 325.027C351.238 323.826 352.574 322.021 354.254 319.832C356.056 317.485 356.267 315.172 356.487 313.601C356.848 311.03 356.579 309.006 356.397 307.423C356.261 306.244 356.03 304.306 354.202 297.411C352.373 290.515 348.951 278.721 347.177 272.487C345.402 266.252 345.378 265.935 345.341 265.632C345.268 265.048 344.432 262.352 343.235 258.466C342.308 255.456 342.177 253.772 341.978 252.97C341.926 252.775 341.891 252.612 341.861 252.447C341.832 252.281 341.809 252.118 341.785 251.738" stroke="black" stroke-width="3.94532" stroke-linecap="round"/>
<path d="M317.869 307.649C317.517 306.919 317.146 305.989 316.431 303.781C315.654 301.384 315.007 300.359 314.07 298.497C313.257 296.505 312.927 295.88 312.625 295.22C312.564 295.061 312.526 294.912 312.486 294.759" stroke="black" stroke-width="3.94532" stroke-linecap="round"/>
<path d="M77.1438 284.062C77.1343 284.072 77.1248 284.081 76.6613 284.826C76.1979 285.57 75.2807 287.049 72.299 295.376C69.3172 303.703 64.2986 318.834 61.4288 327.32C58.559 335.807 57.9901 337.191 57.5901 338.276C56.9233 340.084 56.6463 341.415 56.4796 342.309C56.3918 342.78 56.0349 344.459 55.331 347.131C54.8509 348.953 54.2151 350.7 53.6653 352.551C52.9539 354.947 53.3647 357.227 53.8555 358.346C54.3178 359.4 54.9673 359.657 55.532 359.874C56.3889 360.203 57.3201 359.603 57.9721 359.154C59.4083 358.165 60.0814 354.603 60.4727 353.603C60.5897 353.305 60.699 352.819 63.8324 345.273C66.9659 337.726 73.1002 323.126 76.4041 315.327C79.708 307.528 79.9957 306.972 80.4349 306.231C80.8741 305.49 81.4561 304.579 82.2404 303.165C83.0247 301.752 83.9937 299.862 84.5486 298.743C85.2411 297.348 85.7209 295.753 86.3643 293.693C86.7206 292.691 86.8586 292.268 87.045 291.581C87.2 291.083 87.4778 290.283 87.7639 289.43" stroke="black" stroke-width="3.94532" stroke-linecap="round"/>
<path d="M138.723 295.173C139.147 296.028 139.572 296.883 142.577 306.575C145.583 316.268 151.156 334.771 154.433 345.394C157.71 356.017 158.52 358.198 158.99 359.436C159.459 360.673 159.563 360.9 160.027 362.072C160.491 363.243 161.312 365.353 161.787 366.543C162.49 368.305 163.012 368.891 163.475 369.396C163.737 369.682 164.003 369.893 164.238 369.984C164.475 370.076 164.949 370.053 165.519 370.014C166.33 369.96 166.903 368.88 167.493 368.05C167.904 367.471 167.683 364.844 167.544 363.27C167.487 362.617 167.305 362.006 166.894 360.366C166.541 358.951 165.974 356.333 165.663 354.905C165.244 352.98 165.157 352.511 164.974 351.625C164.817 350.861 164.426 349.484 163.231 345.718C162.036 341.952 160.022 335.845 158.081 329.08C156.141 322.315 154.334 315.077 153.358 310.93C152.382 306.782 152.291 305.944 152.211 305.368C152.09 304.497 151.903 303.271 151.734 301.73C151.548 300.029 150.784 297.506 150.477 296.35C150.466 296.053 150.445 295.69 150.412 294.975" stroke="black" stroke-width="3.94532" stroke-linecap="round"/>
<path d="M177.452 287.43C177.561 287.613 177.86 288.138 178.266 288.87C178.676 289.61 179.232 290.733 180.667 293.518C181.767 295.651 183.422 299.344 184.331 301.347C185.24 303.35 185.302 303.577 187.333 308.53C189.364 313.483 193.362 323.155 195.746 329.424C198.129 335.694 198.778 338.268 199.112 339.677C199.56 341.565 199.497 343.177 199.386 344.346C199.312 345.124 198.628 345.509 198.11 345.747C197.785 345.897 197.216 345.878 196.6 345.864C195.581 345.84 194.159 344.169 192.744 342.421C192.461 342.072 192.335 341.804 191.277 339.215C190.219 336.626 188.257 331.705 187.022 328.43C185.788 325.155 185.34 323.675 185.09 322.814C184.84 321.954 184.801 321.757 184.321 320.424C183.841 319.09 182.92 316.625 182.378 315.222C181.836 313.818 181.701 313.552 180.767 311.411C179.832 309.271 178.102 305.265 176.975 302.798C175.462 299.483 174.813 298.495 174.345 297.62C173.339 295.738 172.209 293.998 171.655 292.991C171.43 292.58 171.32 292.371 171.243 292.194C171.166 292.016 171.125 291.875 170.924 291.397" stroke="black" stroke-width="3.94532" stroke-linecap="round"/>
<path d="M108.171 293.99C108.103 295.533 108.035 297.076 107.925 302.215C107.815 307.354 107.664 316.042 107.631 320.921C107.597 325.799 107.684 326.604 107.729 327.117C107.791 327.824 107.79 328.161 107.854 329.116C108.01 331.442 108.07 333.164 108.102 333.531C108.209 334.748 108.804 336.181 109.404 336.856C109.681 337.168 110.254 337.075 110.722 337.04C111.065 337.015 111.264 336.758 111.479 336.392C111.627 336.141 111.787 335.719 112.152 334.104C112.516 332.488 113.063 329.682 113.553 326.627C114.044 323.571 114.462 320.35 114.763 318.303C115.18 315.472 115.436 314.425 115.614 313.303C115.751 312.436 116.06 310.978 116.478 308.622C116.896 306.265 117.432 303.058 117.738 301.307C118.148 298.956 118.42 297.716 118.588 296.797C118.648 296.511 118.733 296.006 118.851 295.274C118.918 294.908 119.002 294.553 119.088 294.102" stroke="black" stroke-width="3.94532" stroke-linecap="round"/>
<path d="M244.734 222.805C242.797 222.314 240.749 220.582 239.473 219.079C237.906 217.233 237.482 215.68 237.227 215.195C236.232 213.296 235.769 211.145 235.242 209.081C234.632 206.696 234.848 204.279 235.309 201.888C235.583 200.468 235.469 197.516 236.997 196.713C238.797 195.767 237.786 199.96 238.155 200.573C238.511 201.165 239.145 201.866 239.959 202.541C240.617 203.086 241.357 203.095 241.927 203.092C242.377 203.09 242.524 202.202 242.698 200.606C242.831 199.399 242.78 197.361 242.805 196.185C242.843 194.333 243.339 192.441 244.248 190.82C244.751 189.924 245.514 188.964 246.312 187.988C247.097 187.029 248.682 185.924 250.213 184.799C250.716 184.429 250.725 184.559 250.699 184.673C250.647 184.907 250.408 186.417 250.14 188.808C249.967 190.354 250.199 191.859 250.435 193.427C250.651 194.862 250.78 196.181 251.073 197.316C251.591 199.321 252.967 200.881 253.981 202.621C254.069 202.771 254.119 202.89 254.218 202.945C254.317 203 254.457 202.993 254.615 202.899C256.521 201.762 255.86 197.717 255.903 196.021C255.921 195.28 256.34 194.776 256.655 194.319C257.118 193.645 257.312 195.627 257.4 195.934C257.904 197.682 259.079 200.087 259.383 200.649C259.692 201.222 260.182 201.96 260.564 202.643C261.119 203.636 260.941 205.338 260.846 206.257C260.705 207.614 260.062 208.469 259.132 210.023C258.809 210.561 258.684 210.907 258.696 211.151C258.726 211.769 260.005 211.713 261.343 211.738C262.311 211.756 263.293 211.175 263.43 211.172C263.91 211.161 261.955 215.675 261.592 216.262C261.022 217.184 260.918 218.325 259.638 219.518C257.548 221.465 256.895 221.315 256.351 221.49C255.8 221.667 254.975 222.296 252.844 222.805C251.363 222.855 250.652 223.463 248.46 223.463" stroke="black" stroke-width="3.94532" stroke-linecap="round"/>
<path d="M91.5931 83.5059C91.5591 83.5059 91.5251 83.5059 88.3341 84.0157C85.143 84.5255 78.796 85.5451 74.46 86.4304C70.124 87.3157 67.9913 88.0357 66.4425 88.681C63.9275 89.7289 61.5005 91.7195 58.8011 94.0231C56.8947 95.65 56.1733 96.7779 55.7887 97.4981C54.1714 100.527 55.1608 105.603 55.896 108.036C56.274 109.287 57.5205 111.047 59.2998 113.305C61.1723 115.682 63.6949 117.12 66.6207 118.727C71.1622 121.221 74.7979 122.29 75.6963 122.815C76.2914 123.162 78.4089 125.386 81.4631 128.75C83.0292 130.474 83.2396 131.581 83.3628 132.408C83.5965 133.977 82.3002 136.869 81.3685 138.961C80.4379 141.051 77.1176 143.271 74.2099 145.568C73.6354 146.022 73.4745 146.21 73.3585 146.597C72.5113 149.426 73.356 152.848 73.6167 153.948C73.9367 154.791 74.6245 156.011 75.8377 157.656C76.5722 158.576 77.548 159.667 78.5533 160.792" stroke="black" stroke-width="3.94532" stroke-linecap="round"/>
<path d="M102.832 58.332C102.961 58.3747 105.799 58.7586 110.839 59.5852C114.865 60.2455 117.636 61.7184 119.548 62.6828C120.83 63.3296 123.094 65.4831 125.974 68.2994C127.687 69.9738 127.947 71.4696 128.329 74.1529C128.566 75.8254 128.214 77.2001 127.843 78.6235C127.203 81.0768 125.991 83.472 125.075 85.1066C124.471 86.1837 123.749 86.9294 121.442 88.8483C119.566 90.4077 116.135 93.001 113.062 94.9939C109.989 96.9868 107.347 98.2611 105.299 99.3271C100.066 102.052 98.4163 103.607 96.7697 105.608C93.8115 109.203 94.5303 111.899 94.9964 114.439C95.7124 118.34 97.5513 119.329 98.9668 121.528C100.256 123.531 103.114 126.045 104.742 127.617C106.268 129.089 108.885 131.33 111.08 133.069C112.549 134.233 115.177 137.07 118 140.31C119.79 142.365 120.625 143.639 122.267 146.887C123.234 148.799 123.383 151.729 123.501 154.801C123.392 155.547 123.295 156.031 123.243 156.491C123.213 156.723 123.174 156.956 123.083 157.347" stroke="black" stroke-width="3.94532" stroke-linecap="round"/>
<path d="M103.884 219.844L102.943 218.11L103.884 219.844ZM96.4734 221.714L96.4678 219.742L96.4734 221.714ZM88.5433 221.697L88.5289 223.669L88.5433 221.697ZM80.6877 221.304L80.5051 223.268L80.6877 221.304ZM80.2721 213.587L80.1277 211.619L80.2721 213.587ZM103.884 219.844L102.943 218.11C100.955 219.19 98.8077 219.735 96.4678 219.742L96.4734 221.714L96.479 223.687C99.4567 223.678 102.25 222.977 104.826 221.577L103.884 219.844ZM96.4734 221.714L96.4678 219.742C93.8157 219.749 91.179 219.743 88.5578 219.724L88.5433 221.697L88.5289 223.669C91.1636 223.689 93.8137 223.695 96.479 223.687L96.4734 221.714ZM88.5433 221.697L88.5578 219.724C85.9858 219.705 83.4233 219.577 80.8703 219.34L80.6877 221.304L80.5051 223.268C83.1703 223.516 85.8449 223.65 88.5289 223.669L88.5433 221.697ZM80.6877 221.304L80.8703 219.34C78.3105 219.102 75.776 218.769 73.2666 218.342L72.9355 220.287L72.6044 222.231C75.2131 222.676 77.8468 223.021 80.5051 223.268L80.6877 221.304ZM72.9355 220.287L73.2666 218.342C72.0796 218.14 71.3668 217.89 70.9901 217.676C70.6328 217.472 70.8581 217.478 70.8919 217.806L68.9296 218.008L66.9673 218.21C67.1126 219.621 68.0613 220.549 69.0393 221.105C69.998 221.65 71.2323 221.998 72.6044 222.231L72.9355 220.287ZM68.9296 218.008L70.8919 217.806C70.9309 218.185 70.6658 218.267 70.9778 218.018C71.3111 217.752 71.9838 217.392 73.1564 217.002L72.5348 215.13L71.9132 213.258C70.5707 213.704 69.3851 214.241 68.5166 214.934C67.6269 215.644 66.8167 216.747 66.9673 218.21L68.9296 218.008ZM72.5348 215.13L73.1564 217.002C75.5169 216.219 77.9357 215.736 80.4165 215.554L80.2721 213.587L80.1277 211.619C77.3222 211.825 74.5828 212.372 71.9132 213.258L72.5348 215.13ZM80.2721 213.587L80.4165 215.554C82.9021 215.371 85.3803 215.486 87.8542 215.899L88.1787 213.953L88.5032 212.007C85.7212 211.543 82.9282 211.414 80.1277 211.619L80.2721 213.587ZM88.1787 213.953L87.8542 215.899C90.5213 216.344 93.1754 216.703 95.8163 216.978L96.0203 215.016L96.2243 213.054C93.6656 212.788 91.0919 212.439 88.5032 212.007L88.1787 213.953ZM96.0203 215.016L95.8163 216.978C98.3047 217.237 100.754 217.704 103.165 218.381L103.698 216.482L104.231 214.583C101.605 213.846 98.9355 213.336 96.2243 213.054L96.0203 215.016ZM103.698 216.482L103.165 218.381C104.416 218.733 105.307 219.003 105.864 219.197C106.155 219.297 106.291 219.355 106.326 219.373C106.363 219.391 106.251 219.342 106.104 219.222C106.037 219.167 105.841 219.001 105.676 218.714C105.492 218.394 105.276 217.772 105.55 217.057L107.392 217.764L109.234 218.471C109.515 217.737 109.296 217.095 109.099 216.751C108.921 216.441 108.702 216.25 108.602 216.169C108.389 215.994 108.17 215.883 108.059 215.829C107.801 215.702 107.482 215.582 107.157 215.469C106.484 215.235 105.499 214.939 104.231 214.583L103.698 216.482ZM107.392 217.764L105.55 217.057C105.68 216.719 105.871 216.513 105.908 216.472C105.974 216.398 106.028 216.353 106.043 216.34C106.075 216.312 106.079 216.313 106.025 216.35C105.926 216.418 105.747 216.531 105.466 216.697C104.914 217.025 104.078 217.494 102.943 218.11L103.884 219.844L104.826 221.577C105.973 220.954 106.862 220.457 107.479 220.091C107.783 219.91 108.05 219.745 108.257 219.603C108.356 219.535 108.478 219.448 108.594 219.349C108.651 219.301 108.738 219.224 108.829 219.124C108.89 219.056 109.097 218.826 109.234 218.471L107.392 217.764Z" fill="black"/>
<path d="M107.691 226.494C108.759 226.282 109.454 225.244 109.243 224.176C109.031 223.107 107.994 222.412 106.925 222.623L107.308 224.559L107.691 226.494ZM107.21 224.578L106.827 222.643L106.609 222.686L106.406 222.776L107.21 224.578ZM68.6843 224.698L67.9378 226.524L67.9799 226.541L68.0228 226.556L68.6843 224.698ZM68.3911 224.578L69.1375 222.752L68.961 222.68L68.7739 222.643L68.3911 224.578ZM68.6758 222.623C67.6071 222.412 66.5693 223.107 66.3578 224.176C66.1464 225.244 66.8414 226.282 67.9101 226.494L68.293 224.559L68.6758 222.623ZM107.308 224.559L106.925 222.623L106.827 222.643L107.21 224.578L107.593 226.513L107.691 226.494L107.308 224.559ZM107.21 224.578L106.406 222.776C101.767 224.845 98.4233 225.703 96.2262 225.645L96.1739 227.617L96.1217 229.589C99.2347 229.671 103.248 228.504 108.013 226.38L107.21 224.578ZM96.1739 227.617L96.2262 225.645C93.5686 225.575 90.9245 225.509 88.2936 225.45L88.2488 227.422L88.204 229.394C90.8298 229.454 93.4691 229.519 96.1217 229.589L96.1739 227.617ZM88.2488 227.422L88.2936 225.45C85.718 225.391 83.1534 225.23 80.5997 224.965L80.3967 226.928L80.1936 228.89C82.8528 229.165 85.5229 229.333 88.204 229.394L88.2488 227.422ZM80.3967 226.928L80.5997 224.965C78.0695 224.704 75.6094 224.3 73.2188 223.757L72.7813 225.68L72.3437 227.604C74.8941 228.184 77.511 228.612 80.1936 228.89L80.3967 226.928ZM72.7813 225.68L73.2188 223.757C71.9861 223.476 71.0358 223.256 70.364 223.095C70.0275 223.014 69.7678 222.95 69.5805 222.902C69.3622 222.845 69.314 222.828 69.3457 222.839L68.6843 224.698L68.0228 226.556C68.2783 226.647 68.8155 226.781 69.4443 226.931C70.1382 227.098 71.1059 227.322 72.3437 227.604L72.7813 225.68ZM68.6843 224.698L69.4307 222.872L69.1375 222.752L68.3911 224.578L67.6446 226.404L67.9378 226.524L68.6843 224.698ZM68.3911 224.578L68.7739 222.643L68.6758 222.623L68.293 224.559L67.9101 226.494L68.0082 226.513L68.3911 224.578Z" fill="black"/>
<path d="M174.891 225.518L173.96 223.779L174.891 225.518ZM155.006 221.198L154.757 219.241L155.006 221.198ZM174.891 225.518L173.96 223.779C171.982 224.837 169.848 225.338 167.521 225.277L167.469 227.248L167.417 229.22C170.409 229.3 173.223 228.647 175.821 227.258L174.891 225.518ZM167.469 227.248L167.521 225.277C164.887 225.207 162.274 225.086 159.682 224.914L159.551 226.882L159.42 228.85C162.066 229.026 164.731 229.149 167.417 229.22L167.469 227.248ZM159.551 226.882L159.682 224.914C157.179 224.748 154.74 224.363 152.362 223.76L151.877 225.673L151.393 227.585C154.007 228.247 156.684 228.669 159.42 228.85L159.551 226.882ZM151.877 225.673L152.362 223.76C151.804 223.619 151.406 223.482 151.14 223.363C150.85 223.233 150.831 223.175 150.903 223.254C150.95 223.306 151.039 223.42 151.103 223.601C151.172 223.792 151.193 224.001 151.165 224.2C151.115 224.566 150.934 224.697 151.036 224.594L149.634 223.206L148.232 221.819C147.834 222.221 147.371 222.835 147.257 223.659C147.129 224.585 147.491 225.366 147.985 225.909C148.431 226.4 149.004 226.729 149.526 226.963C150.07 227.207 150.703 227.41 151.393 227.585L151.877 225.673ZM149.634 223.206L151.036 224.594C151.559 224.065 152.794 223.467 155.254 223.155L155.006 221.198L154.757 219.241C152.058 219.583 149.711 220.324 148.232 221.819L149.634 223.206ZM155.006 221.198L155.254 223.155C157.838 222.827 160.45 222.487 163.091 222.135L162.83 220.18L162.569 218.224C159.937 218.576 157.333 218.914 154.757 219.241L155.006 221.198ZM162.83 220.18L163.091 222.135C165.556 221.806 168.028 221.802 170.509 222.122L170.761 220.165L171.014 218.209C168.193 217.845 165.377 217.85 162.569 218.224L162.83 220.18ZM170.761 220.165L170.509 222.122C173.047 222.449 174.373 223.053 174.959 223.61L176.318 222.18L177.677 220.751C176.156 219.304 173.777 218.565 171.014 218.209L170.761 220.165ZM176.318 222.18L174.959 223.61C175.495 224.12 175.943 224.529 176.29 224.819C176.459 224.961 176.639 225.104 176.813 225.222C176.898 225.279 177.021 225.359 177.169 225.431C177.251 225.471 177.618 225.655 178.111 225.655V223.683V221.71C178.374 221.71 178.574 221.765 178.672 221.796C178.781 221.83 178.861 221.867 178.904 221.888C178.951 221.91 178.983 221.929 178.999 221.939C179.016 221.949 179.026 221.956 179.026 221.956C179.026 221.956 179.022 221.953 179.012 221.946C179.002 221.938 178.988 221.928 178.969 221.914C178.933 221.885 178.884 221.846 178.824 221.795C178.573 221.585 178.195 221.243 177.677 220.751L176.318 222.18ZM178.111 223.683V225.655C178.021 225.655 177.589 225.658 177.127 225.389C176.855 225.23 176.546 224.96 176.345 224.542C176.146 224.127 176.128 223.725 176.168 223.425C176.238 222.914 176.489 222.584 176.542 222.513C176.633 222.393 176.717 222.311 176.754 222.276C176.874 222.163 176.969 222.107 176.907 222.148C176.846 222.188 176.7 222.277 176.435 222.428C175.923 222.72 175.102 223.168 173.96 223.779L174.891 225.518L175.821 227.258C176.968 226.645 177.828 226.175 178.389 225.855C178.661 225.7 178.9 225.56 179.072 225.446C179.126 225.411 179.3 225.298 179.46 225.147C179.508 225.102 179.599 225.012 179.695 224.885C179.754 224.807 180.008 224.47 180.078 223.955C180.119 223.653 180.101 223.248 179.9 222.831C179.698 222.412 179.389 222.14 179.114 221.98C178.648 221.709 178.21 221.71 178.111 221.71V223.683Z" fill="black"/>
<path d="M146.399 212.806L145.468 211.067L146.399 212.806ZM126.513 208.486L126.265 206.529L126.513 208.486ZM146.399 212.806L145.468 211.067C143.49 212.125 141.355 212.626 139.029 212.565L138.977 214.537L138.925 216.509C141.917 216.588 144.731 215.935 147.329 214.546L146.399 212.806ZM138.977 214.537L139.029 212.565C136.395 212.495 133.782 212.374 131.189 212.202L131.059 214.17L130.928 216.139C133.574 216.314 136.239 216.438 138.925 216.509L138.977 214.537ZM131.059 214.17L131.189 212.202C128.687 212.036 126.248 211.651 123.869 211.048L123.385 212.961L122.901 214.873C125.515 215.535 128.192 215.957 130.928 216.139L131.059 214.17ZM123.385 212.961L123.869 211.048C123.311 210.907 122.914 210.77 122.647 210.651C122.358 210.521 122.339 210.463 122.411 210.543C122.458 210.594 122.546 210.708 122.611 210.889C122.679 211.08 122.701 211.289 122.673 211.488C122.622 211.854 122.442 211.985 122.544 211.882L121.142 210.494L119.74 209.107C119.341 209.51 118.879 210.123 118.765 210.948C118.637 211.873 118.999 212.655 119.492 213.197C119.939 213.688 120.512 214.017 121.033 214.251C121.578 214.495 122.21 214.698 122.901 214.873L123.385 212.961ZM121.142 210.494L122.544 211.882C123.067 211.353 124.302 210.755 126.762 210.443L126.513 208.486L126.265 206.529C123.566 206.872 121.219 207.612 119.74 209.107L121.142 210.494ZM126.513 208.486L126.762 210.443C129.346 210.115 131.958 209.775 134.599 209.423L134.338 207.468L134.077 205.513C131.445 205.864 128.841 206.203 126.265 206.529L126.513 208.486ZM134.338 207.468L134.599 209.423C137.064 209.094 139.535 209.09 142.017 209.41L142.269 207.453L142.521 205.497C139.701 205.133 136.885 205.138 134.077 205.513L134.338 207.468ZM142.269 207.453L142.017 209.41C144.555 209.737 145.881 210.341 146.467 210.898L147.826 209.468L149.185 208.039C147.663 206.592 145.285 205.853 142.521 205.497L142.269 207.453ZM147.826 209.468L146.467 210.898C147.003 211.408 147.451 211.817 147.797 212.107C147.966 212.249 148.146 212.392 148.321 212.51C148.405 212.567 148.529 212.647 148.676 212.719C148.759 212.759 149.126 212.943 149.619 212.943V210.971V208.998C149.882 208.998 150.082 209.053 150.18 209.084C150.289 209.118 150.369 209.155 150.412 209.176C150.458 209.199 150.491 209.217 150.507 209.227C150.524 209.237 150.533 209.244 150.534 209.244C150.534 209.244 150.53 209.241 150.519 209.234C150.509 209.226 150.495 209.216 150.477 209.202C150.44 209.173 150.392 209.134 150.331 209.083C150.08 208.873 149.703 208.531 149.185 208.039L147.826 209.468ZM149.619 210.971V212.943C149.529 212.943 149.097 212.946 148.635 212.677C148.362 212.518 148.054 212.248 147.853 211.83C147.653 211.416 147.636 211.013 147.676 210.713C147.745 210.202 147.997 209.872 148.05 209.801C148.141 209.681 148.224 209.599 148.261 209.564C148.382 209.451 148.477 209.395 148.414 209.437C148.354 209.476 148.208 209.565 147.943 209.716C147.431 210.008 146.61 210.456 145.468 211.067L146.399 212.806L147.329 214.546C148.476 213.933 149.336 213.463 149.897 213.144C150.169 212.988 150.407 212.848 150.58 212.735C150.634 212.699 150.807 212.586 150.968 212.435C151.015 212.39 151.107 212.3 151.203 212.173C151.262 212.095 151.516 211.758 151.586 211.243C151.627 210.941 151.609 210.536 151.408 210.119C151.206 209.7 150.897 209.429 150.622 209.269C150.156 208.997 149.718 208.998 149.619 208.998V210.971Z" fill="black"/>
<path d="M117.754 232.971L118.684 231.231L117.754 232.971ZM137.639 228.65L137.887 226.693L137.639 228.65ZM117.754 232.971L118.684 231.231C120.663 232.289 122.797 232.79 125.123 232.729L125.176 234.701L125.228 236.673C122.235 236.752 119.422 236.099 116.824 234.71L117.754 232.971ZM125.176 234.701L125.123 232.729C127.757 232.659 130.37 232.538 132.963 232.366L133.094 234.334L133.224 236.303C130.579 236.478 127.913 236.602 125.228 236.673L125.176 234.701ZM133.094 234.334L132.963 232.366C135.465 232.2 137.905 231.815 140.283 231.212L140.767 233.125L141.252 235.037C138.637 235.699 135.961 236.121 133.224 236.303L133.094 234.334ZM140.767 233.125L140.283 231.212C140.841 231.071 141.238 230.934 141.505 230.815C141.794 230.685 141.814 230.627 141.741 230.707C141.694 230.758 141.606 230.872 141.541 231.053C141.473 231.244 141.452 231.453 141.479 231.652C141.53 232.018 141.71 232.149 141.608 232.046L143.01 230.659L144.413 229.271C144.811 229.674 145.273 230.287 145.387 231.112C145.515 232.037 145.153 232.819 144.66 233.361C144.213 233.852 143.641 234.181 143.119 234.415C142.574 234.659 141.942 234.862 141.252 235.037L140.767 233.125ZM143.01 230.659L141.608 232.046C141.085 231.518 139.851 230.919 137.391 230.607L137.639 228.65L137.887 226.693C140.587 227.036 142.933 227.776 144.413 229.271L143.01 230.659ZM137.639 228.65L137.391 230.607C134.807 230.279 132.194 229.939 129.554 229.587L129.814 227.632L130.075 225.677C132.708 226.028 135.312 226.367 137.887 226.693L137.639 228.65ZM129.814 227.632L129.554 229.587C127.088 229.258 124.617 229.254 122.136 229.574L121.883 227.617L121.631 225.661C124.451 225.297 127.268 225.302 130.075 225.677L129.814 227.632ZM121.883 227.617L122.136 229.574C119.598 229.901 118.271 230.505 117.686 231.062L116.326 229.632L114.967 228.203C116.489 226.756 118.867 226.017 121.631 225.661L121.883 227.617ZM116.326 229.632L117.686 231.062C117.15 231.572 116.702 231.981 116.355 232.271C116.186 232.413 116.006 232.556 115.832 232.674C115.747 232.732 115.623 232.811 115.476 232.883C115.394 232.923 115.027 233.108 114.534 233.108V231.135V229.162C114.271 229.162 114.07 229.217 113.972 229.248C113.863 229.282 113.783 229.319 113.74 229.34C113.694 229.363 113.661 229.382 113.645 229.391C113.628 229.401 113.619 229.408 113.619 229.408C113.618 229.408 113.623 229.405 113.633 229.398C113.643 229.39 113.657 229.38 113.675 229.366C113.712 229.337 113.76 229.298 113.821 229.247C114.072 229.037 114.45 228.695 114.967 228.203L116.326 229.632ZM114.534 231.135V233.108C114.624 233.108 115.056 233.11 115.518 232.841C115.79 232.682 116.098 232.412 116.299 231.995C116.499 231.58 116.517 231.177 116.476 230.877C116.407 230.366 116.156 230.036 116.102 229.965C116.012 229.845 115.928 229.763 115.891 229.728C115.771 229.615 115.675 229.559 115.738 229.601C115.799 229.64 115.945 229.729 116.209 229.88C116.722 230.172 117.543 230.62 118.684 231.231L117.754 232.971L116.824 234.71C115.677 234.097 114.817 233.627 114.256 233.308C113.984 233.153 113.745 233.012 113.573 232.899C113.519 232.863 113.345 232.75 113.184 232.599C113.137 232.554 113.045 232.464 112.949 232.337C112.891 232.259 112.636 231.922 112.566 231.407C112.526 231.105 112.544 230.7 112.744 230.283C112.946 229.864 113.256 229.593 113.53 229.433C113.996 229.161 114.435 229.162 114.534 229.162V231.135Z" fill="black"/>
<path d="M67.959 224.395C67.9777 224.016 68.0621 222.659 68.1939 221.773C68.2805 221.192 68.3923 220.065 68.4542 219.385C68.4802 219.021 68.5313 218.781 68.5573 218.565C68.5661 218.429 68.5661 218.242 68.5999 218.066" stroke="black" stroke-width="3.94532" stroke-linecap="round"/>
<path d="M107.344 224.172C107.358 223.827 107.401 223.064 107.479 222.012C107.615 220.556 107.595 219.733 107.57 219.144C107.556 219.001 107.527 218.894 107.481 218.732" stroke="black" stroke-width="3.94532" stroke-linecap="round"/>
<path d="M114.14 231.375C114.097 231.79 113.966 233.324 113.982 234.135C113.995 234.825 114.076 235.337 114.279 235.788C114.477 236.228 115.695 237.008 117.06 238.034C117.643 238.473 117.824 238.562 118.057 238.689C118.46 238.908 119.646 239.185 121.663 239.534C122.77 239.726 124.079 239.742 125.016 239.748C125.953 239.754 126.488 239.697 127.115 239.603C127.743 239.51 128.448 239.38 130.026 239.172C131.605 238.964 134.036 238.681 135.701 238.45C137.365 238.218 138.19 238.047 139.26 237.852C140.33 237.657 141.621 237.443 142.357 237.305C143.239 237.138 143.52 237.012 143.736 236.895C143.927 236.791 143.81 236.458 143.786 236.03C143.633 234.013 143.39 232.642 143.37 232.484C143.361 232.405 143.356 232.325 143.35 232.244" stroke="black" stroke-width="3.94532" stroke-linecap="round"/>
<path d="M120.758 211.602C120.769 212.998 120.841 214.722 121.056 215.359C121.195 215.77 121.353 216.041 121.743 216.409C121.885 216.543 122.126 216.649 122.746 216.872C123.366 217.095 124.377 217.41 125.623 217.712C126.869 218.015 128.321 218.294 129.146 218.445C130.122 218.623 130.511 218.664 131.838 218.741C132.935 218.804 134.897 218.797 136.032 218.796C137.417 218.795 138.271 218.616 139.252 218.396C139.637 218.31 139.789 218.254 140.457 218.128C142.3 217.784 143.634 217.568 143.974 217.495C144.965 217.283 145.41 217.251 146.305 216.982C146.86 216.815 147.45 216.714 147.887 216.524C148.474 216.268 148.48 214.585 148.64 213.752C148.768 213.239 148.832 212.651 148.843 212.435C148.853 212.325 148.875 212.217 148.913 211.985" stroke="black" stroke-width="3.94532" stroke-linecap="round"/>
<path d="M149.172 223.725C149.247 224.806 149.357 225.997 149.463 226.584C149.538 226.997 149.656 227.533 149.682 228.027C149.723 228.794 151.133 229.401 152.763 229.872C154.075 230.251 156.421 230.739 158.945 231.104C161.468 231.47 164.111 231.652 165.732 231.702C167.353 231.752 167.873 231.663 168.362 231.553C168.851 231.443 169.294 231.314 170.286 231.075C171.278 230.835 172.805 230.488 173.718 230.262C175.256 229.881 175.565 229.596 176.561 229.158C177.196 228.878 177.576 228.733 177.837 228.507C177.939 228.335 177.982 228.045 178.01 227.355C178.038 226.666 178.051 225.585 178.064 224.438" stroke="black" stroke-width="3.94532" stroke-linecap="round"/>
<path d="M86.0449 244.505L139.307 218.203M170.212 203.079L149.17 213.381" stroke="black" stroke-width="3.94532" stroke-linecap="round" stroke-linejoin="round"/>
<path d="M73.5527 242.533L124.842 217.765M157.72 201.326L145.007 207.902" stroke="black" stroke-width="3.94532" stroke-linecap="round" stroke-linejoin="round"/>
<path d="M61.2773 240.779L87.5795 227.847M143.252 200.011L107.744 217.545" stroke="black" stroke-width="3.94532" stroke-linecap="round" stroke-linejoin="round"/>
<path d="M49.4453 238.149L73.5556 226.094M127.037 200.011L96.7136 214.915" stroke="black" stroke-width="3.94532" stroke-linecap="round" stroke-linejoin="round"/>
<path d="M40.2363 234.642L68.0727 220.993M108.183 201.326L83.854 213.381" stroke="black" stroke-width="3.94532" stroke-linecap="round" stroke-linejoin="round"/>
<path d="M34.9727 229.382L86.2618 203.957" stroke="black" stroke-width="3.94532" stroke-linecap="round" stroke-linejoin="round"/>
<path d="M99.8574 246.04L116.735 237.711M182.709 205.271L136.023 228.505" stroke="black" stroke-width="3.94532" stroke-linecap="round" stroke-linejoin="round"/>
<path d="M116.516 246.478L129.886 239.464M193.669 208.34L170.435 219.957M151.147 229.162L143.475 232.669" stroke="black" stroke-width="3.94532" stroke-linecap="round" stroke-linejoin="round"/>
<path d="M132.73 246.479L161.224 231.793M203.746 211.409L178.321 223.903" stroke="black" stroke-width="3.94532" stroke-linecap="round" stroke-linejoin="round"/>
<path d="M147.641 247.793L212.519 215.354" stroke="black" stroke-width="3.94532" stroke-linecap="round" stroke-linejoin="round"/>
<path d="M163.857 247.793L217.777 221.053" stroke="black" stroke-width="3.94532" stroke-linecap="round" stroke-linejoin="round"/>
</g>
<defs>
<filter id="filter0_g_621_19874" x="190.687" y="63.7669" width="183.501" height="183.501" filterUnits="userSpaceOnUse" color-interpolation-filters="sRGB">
<feFlood flood-opacity="0" result="BackgroundImageFix"/>
<feBlend mode="normal" in="SourceGraphic" in2="BackgroundImageFix" result="shape"/>
<feTurbulence type="fractalNoise" baseFrequency="0.022811843082308769 0.022811843082308769" numOctaves="3" seed="3160" />
<feDisplacementMap in="shape" scale="4.2083406448364258" xChannelSelector="R" yChannelSelector="G" result="displacedImage" width="100%" height="100%" />
<feMerge result="effect1_texture_621_19874">
<feMergeNode in="displacedImage"/>
</feMerge>
</filter>
<clipPath id="clip0_621_19874">
<rect width="430" height="378" fill="white"/>
</clipPath>
</defs>
</svg>
