<svg width="430" height="378" viewBox="0 0 430 378" fill="none" xmlns="http://www.w3.org/2000/svg">
<g clip-path="url(#clip0_621_9407)">
<g filter="url(#filter0_g_621_9407)">
<circle cx="245.393" cy="169.523" r="89.6464" fill="#E60611"/>
</g>
<path d="M137.731 161.991C137.475 161.755 136.964 161.282 136.447 160.879C135.822 160.391 135.535 159.806 135.168 159.252C134.861 158.788 134.811 158.197 134.651 157.661C134.474 157.068 134.375 156.366 134.298 155.532C134.108 153.468 134.264 152.558 134.349 151.699C134.466 150.526 134.56 150.005 134.911 149.634C135.331 149.189 136.085 149.183 136.48 149.104C136.958 149.009 135.469 149.365 134.848 149.473C133.634 149.685 130.534 149.628 129.344 149.473C128.652 149.383 128.185 148.855 127.463 148.391C126.697 147.898 126.141 147.732 125.465 147.153C124.986 146.743 124.31 146.116 123.812 145.436C123.342 144.793 123.13 142.991 123.195 142.001C123.234 141.396 123.601 140.804 123.921 140.359C124.262 139.887 124.953 139.629 125.809 139.264C126.791 138.846 127.323 138.711 128.142 138.525C128.96 138.338 129.657 138.262 130.29 138.175C131.128 138.059 132.611 137.658 134.251 137.213C136.325 136.651 137.966 136.739 139.196 136.69C141.23 136.608 142.041 136.894 142.927 137.275C143.774 137.639 144.516 138.244 145.529 138.882C146.475 139.477 147.31 140.643 147.714 141.213C148.114 141.778 148.421 142.536 148.879 143.447C149.45 144.583 149.573 146.565 149.64 147.499C149.711 148.482 149.652 149.568 149.512 150.133C149.376 150.678 149.199 151.415 149.019 152.135C148.857 152.782 148.498 153.784 148.186 154.522C148.012 154.839 147.855 155.13 147.738 155.375C147.68 155.496 147.622 155.61 147.533 155.814" stroke="black" stroke-width="3.94532" stroke-linecap="round"/>
<path d="M149.105 153.56C150.113 154.755 151.579 156.022 152.241 156.477C152.818 156.873 153.507 157.231 154.114 157.623C154.973 158.177 156.326 158.606 157.08 158.924C158.166 159.381 159.693 159.663 160.498 159.788C161.15 159.887 161.838 159.958 162.461 159.995C162.757 160.019 163.012 160.056 163.475 160.094" stroke="black" stroke-width="3.94532" stroke-linecap="round"/>
<path d="M123.378 146.983C123.359 147.022 122.862 147.993 122.1 149.517C121.195 151.329 120.583 153.733 120.22 155.007C119.522 157.455 119.485 158.042 119.327 158.592C119.103 159.37 118.774 160.603 118.483 161.805C117.869 164.339 117.831 164.888 117.669 165.452C117.449 166.215 117.36 166.961 117.195 168.029C117.064 168.873 116.788 169.792 116.625 170.701C116.478 171.526 116.257 172.548 116.104 173.62C116.056 173.962 115.994 174.34 115.961 174.774C115.935 175.112 115.88 177.463 115.89 180.893C115.896 182.948 116.511 184.275 116.934 184.968C117.741 186.289 118.318 186.696 119.293 187.054C120.667 187.56 121.983 187.075 122.725 186.958C123.77 186.794 125.071 186.097 125.548 185.812C126.185 185.431 126.462 184.614 127.671 182.764C128.219 181.925 128.432 181.315 128.768 180.594C129.178 179.712 129.282 178.94 129.64 178.007C130.093 176.828 130.314 176.004 130.699 174.773C130.978 173.877 131.298 172.563 131.526 171.743C131.744 170.962 132.092 169.481 132.323 168.567C132.606 167.447 132.842 165.901 132.898 165.22C132.997 164.01 133.059 162.521 133.164 161.287C133.228 160.539 133.432 159.694 133.559 159.093C133.673 158.556 133.824 158.04 133.901 157.494C133.911 157.348 133.911 157.193 133.925 157.051C133.939 156.909 133.968 156.784 134.026 156.596" stroke="black" stroke-width="3.94532" stroke-linecap="round"/>
<path d="M124.605 138.986C124.615 138.803 124.706 138.203 124.878 137.592C125.096 136.814 125.398 134.846 125.73 133.235C125.922 132.307 126.196 131.677 126.474 131.204C126.758 130.722 127.26 130.313 128.64 129.692C129.494 129.307 130.775 129.038 132.44 128.771C133.244 128.643 134.015 128.308 134.789 128.098C135.541 127.894 137.399 127.686 138.718 127.59C139.351 127.544 140.244 127.817 140.888 127.954C141.476 128.079 141.576 129.033 141.634 129.901C141.675 130.513 141.509 131.177 141.327 131.778C141.167 132.304 140.962 132.883 140.483 133.749C140.103 134.507 139.889 134.987 139.689 135.482C139.635 135.603 139.577 135.717 139.518 135.834" stroke="black" stroke-width="3.94532" stroke-linecap="round"/>
<path d="M131.594 174.082C132.048 174.514 133.759 175.898 135.794 177.372C136.937 178.199 138.244 179.273 139.366 180.071C141.316 181.459 142.517 182.041 142.934 182.286C144.074 182.955 145.882 183.852 146.542 184.099C147.552 184.477 150.862 185.654 152.52 186.164C153.258 186.391 154.242 186.665 154.973 186.861C155.864 187.102 157.141 187.283 159.913 187.704C160.947 187.861 161.825 187.911 162.924 187.971C163.788 188.03 164.446 188.088 164.926 188.114C165.26 188.123 165.779 188.123 166.313 188.123" stroke="black" stroke-width="3.94532" stroke-linecap="round"/>
<path d="M139.286 126.702C139.411 126.432 139.581 125.621 139.608 123.065C139.622 121.772 139.305 120.506 139.184 119.877C139.118 119.535 139.181 119.202 139.279 118.917C139.536 118.168 140.701 117.609 141.488 116.836C142.148 116.188 142.697 115.112 143.233 114.113C143.576 113.473 143.838 112.885 144.182 111.963C144.862 110.139 145.269 109.118 145.44 108.488C145.63 107.784 146.011 106.585 146.692 104.298C147.007 103.239 147.211 102.634 147.498 101.74C147.719 101.048 147.875 100.299 148.064 98.2511C148.131 97.5259 148.235 97.0774 148.288 96.6496C148.345 96.1852 148.472 94.3157 148.542 91.2878C148.6 88.7797 148.641 87.4245 148.7 86.8076C148.888 84.8293 148.767 83.7657 148.515 83.2258C148.345 82.8617 147.96 82.7322 147.683 82.7314C147.093 82.7297 146.631 83.297 146.107 83.9084C145.611 84.4872 144.874 85.7969 144.126 86.953C143.622 87.7313 143.27 88.4182 142.914 88.9639C142.464 89.6534 142.09 90.5784 141.726 91.1514C141.239 91.9185 140.569 92.95 139.994 93.8271C139.592 94.4412 139.271 95.0842 138.982 95.613C138.636 96.2477 137.946 97.1553 137.53 97.7076C137.158 98.2021 136.805 98.62 136.478 99.062C136.093 99.5826 135.782 100.004 135.378 100.437C135.268 100.555 135.15 100.677 135.037 100.778C134.924 100.88 134.818 100.956 134.759 100.657C134.568 99.7006 134.692 97.8275 134.719 95.9654C134.738 94.6055 135.058 93.4276 135.306 92.0512C135.647 90.1608 136.025 88.5927 136.183 87.8327C136.561 86.0198 136.861 84.8415 137.09 84.1256C137.262 83.5894 137.424 82.9747 137.649 82.2049C137.874 81.435 137.885 80.8596 137.773 80.3278C137.715 80.0513 137.564 79.8156 137.403 79.6185C137.236 79.4124 136.941 79.3606 136.673 79.3399C136.01 79.2887 134.991 80.2451 134.104 81.2171C132.441 83.0389 130.723 85.1503 130.005 85.9277C129.48 86.4958 128.891 87.1509 128.221 87.9015C126.724 89.5783 125.085 91.7134 124.487 92.5184C123.362 94.0347 122.72 95.1539 122.403 95.6538C122.08 96.164 121.702 97.0259 121.336 97.83C121.037 98.488 120.85 99.3251 120.542 100.904C120.316 102.056 120.206 102.769 120.096 103.619C120.03 104.125 120.015 106.139 120.021 108.864C120.024 110.46 120.176 111.553 119.95 112.377C119.766 113.045 119.192 113.632 118.666 114.378C118.277 114.929 117.919 115.474 117.521 116.093C117.332 116.356 117.126 116.672 116.884 117.071C116.759 117.273 116.628 117.475 116.369 117.965" stroke="black" stroke-width="3.94532" stroke-linecap="round"/>
<path d="M100.698 130.107C100.533 130.171 99.935 130.706 99.4189 131.445C99.0258 132.007 98.7924 132.59 98.6472 133.235C98.5051 133.867 98.4813 134.834 98.6195 135.78C98.712 136.412 99.1989 136.895 99.6324 137.507C99.9815 138 100.567 138.507 101.16 139.142C102.297 140.361 102.801 140.705 103.521 141.081C104.74 141.719 105.464 141.515 106.356 141.527C107.007 141.537 107.53 141.103 108.261 140.729C108.969 140.368 109.19 139.792 109.466 139.211C109.975 138.142 109.694 136.624 109.701 135.926C109.713 134.816 109.435 133.06 109.279 132C109.143 131.077 108.833 130.514 108.557 129.895C108.252 129.214 107.759 128.626 107.237 128.31C106.718 127.996 105.95 128.158 105.267 128.127C104.707 128.101 104.164 128.31 103.637 128.497C103.083 128.693 102.503 128.886 101.844 129.197C101.567 129.367 101.322 129.55 101.109 129.75C101.012 129.855 100.937 129.966 100.772 130.196" stroke="black" stroke-width="3.94532" stroke-linecap="round"/>
<path d="M98.1361 136.704C97.9015 136.81 97.3603 137.129 96.5957 137.63C95.6311 138.263 94.8512 139.063 94.3409 139.6C94.1157 139.836 93.5976 140.933 93.2284 141.649C92.9677 142.154 93.0877 142.895 93.0583 143.61C93.003 144.95 93.1623 145.39 93.2453 145.761C93.3428 146.197 93.5814 146.792 93.7114 147.099C93.956 147.679 94.3722 148.431 94.9627 149.418C95.3287 150.03 95.9028 150.518 96.3546 150.873C96.6381 151.095 97.0829 151.262 97.6077 151.47C98.4957 151.822 99.9398 151.798 100.337 151.767C100.476 151.756 101.162 151.606 102.461 151.282C103.148 151.111 103.834 150.731 104.37 150.405C104.906 150.079 105.256 149.768 105.597 149.36C106.315 148.502 106.68 147.775 106.839 147.443C107.097 146.906 107.102 146.464 107.247 145.463C107.389 144.489 107.173 143.974 107.106 143.629C107.019 143.331 106.977 143.142 106.938 143.017C106.913 142.951 106.876 142.882 106.838 142.811" stroke="black" stroke-width="3.94532" stroke-linecap="round"/>
<path d="M93.2129 145.805C92.7594 146.099 91.7274 146.78 90.9691 147.522C90.01 148.46 89.5208 149.356 89.3951 149.632C89.2759 149.894 89.147 150.249 89.0295 150.626C88.9582 150.856 88.9417 151.621 88.9224 152.75C88.9035 153.854 89.4377 154.635 89.7711 155.108C90.5398 156.198 91.1359 156.419 91.5245 156.674C91.9695 156.967 92.4222 157.155 92.7408 157.273C92.9193 157.338 93.1812 157.384 93.515 157.471C93.8752 157.566 94.9297 157.568 96.4017 157.537C97.8258 157.507 98.2271 157.28 98.6389 157.17C99.2095 157.016 99.7785 156.612 100.14 156.284C100.444 156.008 100.51 155.436 100.613 155.096C100.745 154.602 100.812 154.218 100.828 153.806C100.831 153.625 100.837 153.33 100.843 153.026" stroke="black" stroke-width="3.94532" stroke-linecap="round"/>
<path d="M107.584 127.857C107.697 127.587 107.996 126.925 108.16 126.544C108.461 125.839 108.74 124.836 109.019 124.065C109.26 123.399 109.887 122.146 110.229 121.497C110.384 121.204 110.66 120.952 111.182 120.321C111.593 119.825 112.029 119.528 112.978 119.009C113.794 118.562 114.801 118.625 115.337 118.743C115.909 118.868 116.266 119.365 116.672 119.748C116.848 119.914 117.204 120.292 117.734 120.881C118.78 122.045 119.549 122.924 119.785 123.256C120.292 123.97 120.543 124.414 120.873 124.933C121.256 125.535 121.401 125.774 121.659 126.383C122.131 127.496 121.95 127.876 121.659 128.757C121.461 129.356 121.096 129.766 120.939 130.042C120.443 130.913 119.587 132.279 119.228 132.9C119.018 133.263 118.639 134.168 118.259 134.925C118.107 135.228 117.967 135.584 117.846 135.909C117.768 136.116 117.424 136.928 116.838 138.354C116.308 139.642 115.977 140.312 115.906 140.495C115.8 140.769 115.62 141.202 115.453 141.684C115.337 142.016 114.89 143.152 114.297 144.735C114.083 145.305 114.026 145.394 113.853 145.931C113.679 146.468 113.385 147.45 113.228 147.99C113.071 148.53 113.059 148.6 112.758 149.386C112.456 150.173 111.864 151.675 111.377 152.8C110.575 154.651 110.098 155.426 110.006 155.573C109.919 155.71 109.673 156.148 108.746 157.869C108.019 159.217 106.851 161.574 106.181 162.874C105.273 164.636 105.006 164.991 104.693 165.674C104.333 166.462 104.094 166.808 103.564 167.835C103.171 168.597 102.54 169.528 101.963 170.456C101.617 171.012 100.871 171.854 100.401 172.28C99.9181 172.719 99.6718 173.006 99.3512 173.295C98.81 173.784 98.3639 173.944 97.8964 174.138C97.3613 174.359 96.5794 174.545 94.9033 174.859C93.8743 175.052 93.2318 174.926 92.861 174.788C91.3568 174.229 91.1759 173.946 90.9286 173.679C90.4371 173.148 89.98 172.029 89.8685 171.67C89.7429 171.265 89.6601 170.765 89.6354 170.424C89.6157 170.152 89.5747 169.033 89.5956 167.445C89.6074 166.551 89.7703 165.765 89.9351 164.711C90.1052 163.623 90.3014 163.003 90.3541 162.785C90.6086 161.733 91.1062 160.448 91.3026 159.894C91.4296 159.327 91.5313 158.936 91.7026 158.472C91.7439 158.379 91.774 158.318 91.8397 158.103" stroke="black" stroke-width="3.94532" stroke-linecap="round"/>
<path d="M107.047 162.659C107.423 163.468 108.082 164.657 108.544 165.251C109.323 166.253 110.252 167.198 110.591 167.58C111.029 168.074 111.44 168.328 111.756 168.602C112.043 168.851 112.438 169.095 112.875 169.281C113.173 169.409 113.586 169.548 114.057 169.665C114.647 169.72 115.146 169.74 115.323 169.76C115.432 169.769 115.578 169.778 115.728 169.788" stroke="black" stroke-width="3.94532" stroke-linecap="round"/>
<path d="M121.809 125.743C121.865 125.646 122.121 125.337 122.582 124.877C123.268 124.193 123.934 123.698 124.168 123.427C124.659 122.857 125.159 122.183 125.553 121.823C125.824 121.575 125.948 121.359 126.278 120.841C126.449 120.572 126.558 120.324 126.655 120.119C126.678 120.07 126.688 120.02 126.742 119.995C127.123 119.819 128.13 120.201 128.648 120.311C128.72 120.326 128.793 120.354 128.839 120.393C129.165 120.669 128.71 121.483 128.649 121.809C128.545 122.375 128.499 122.625 128.44 123.244C128.387 123.789 128.337 124.803 128.3 125.35C128.247 126.268 128.255 126.915 128.272 127.315C128.281 127.613 128.292 128.103 128.304 128.608" stroke="black" stroke-width="3.94532" stroke-linecap="round"/>
<path d="M128.582 119.515C128.773 119.033 129.106 118.16 129.332 117.495C129.506 116.98 129.624 116.633 129.801 115.813C129.88 115.447 129.971 115.193 130.31 113.909C130.399 113.569 130.396 113.449 130.352 113.343C130.201 112.981 129.753 113.019 129.464 112.816C129.105 112.565 128.705 111.834 128.528 111.531C128.38 111.278 128.37 110.632 128.309 110.193C128.274 109.937 128.23 109.558 128.227 108.776C128.225 108.369 128.53 108.102 128.949 107.732C129.303 107.419 129.72 107.191 129.987 107.036C130.443 106.772 131.003 106.836 131.417 106.89C131.848 106.947 132.561 107.097 133.221 107.452C133.669 107.694 133.909 108.153 134.132 108.472C134.396 108.849 134.473 109.432 134.574 110.036C134.69 110.725 134.457 111.169 134.352 111.481C134.261 111.75 133.973 111.897 133.797 112.067C133.601 112.255 133.374 112.415 132.991 112.603C132.722 112.734 132.415 112.793 132.125 112.862C131.815 112.939 131.58 112.969 131.416 112.963C131.338 112.957 131.27 112.946 131.079 112.923" stroke="black" stroke-width="3.94532" stroke-linecap="round"/>
<path d="M124.033 104.91C124.173 104.745 124.761 104.187 125.326 103.739C125.628 103.499 126.203 103.086 126.862 102.681C127.522 102.276 128.256 101.898 128.746 101.67C129.724 101.216 130.153 101.173 130.485 101.092C130.881 100.994 131.24 100.945 131.655 100.882C132.532 100.75 132.936 100.948 133.806 101.092C134.129 101.146 134.333 101.182 135.175 101.458C135.779 101.656 136.054 101.92 136.76 102.47C137.328 102.913 137.569 103.342 137.898 103.795C138.166 104.165 138.51 104.747 138.782 105.181C138.889 105.351 139.086 105.839 139.377 106.523C139.725 107.338 139.727 107.892 139.807 108.316C139.868 108.64 139.895 108.981 139.955 109.298C139.968 109.36 139.977 109.41 139.986 109.461C139.995 109.512 140.003 109.562 140.012 109.636" stroke="black" stroke-width="3.94532" stroke-linecap="round"/>
<path d="M203.714 112.028C203.354 112.109 203.073 112.346 202.672 113.051C202.532 113.296 202.575 113.697 202.603 114.182C202.642 114.853 203.305 115.164 203.583 115.35C204.037 115.652 204.654 115.676 205.022 115.551C205.399 115.423 205.59 115.113 205.917 114.722C206.268 114.302 206.343 113.339 206.243 112.808C206.173 112.439 205.764 112.181 205.435 112.013C205.003 111.791 204.566 112.128 204.239 112.274C204.112 112.405 203.999 112.541 203.902 112.663C203.855 112.728 203.816 112.801 203.74 112.961" stroke="black" stroke-width="3.94532" stroke-linecap="round"/>
<path d="M251.716 131.235C251.85 130.862 252.189 130.196 252.333 130.121C252.775 129.892 253.491 130.038 253.997 130.241C254.356 130.384 254.638 130.716 254.89 131.007C255.127 131.281 255.162 131.773 255.117 132.318C255.042 133.213 254.222 133.719 253.699 134.075C253.335 134.323 252.79 134.184 252.294 133.972C251.703 133.719 251.458 133.054 251.178 132.313C251.026 131.91 251.133 131.486 251.366 131.014C251.493 130.758 251.728 130.613 251.973 130.519C252.501 130.317 252.893 130.518 253.204 130.718C253.543 131.105 253.906 131.662 253.922 132.086C253.912 132.192 253.894 132.279 253.853 132.433" stroke="black" stroke-width="3.94532" stroke-linecap="round"/>
<path d="M204.644 126.321C204.644 126.333 204.584 126.75 204.494 127.422C204.446 127.779 204.435 129.152 204.399 131.225C204.38 132.323 204.428 132.729 204.443 132.967C204.463 133.276 204.61 134.364 204.88 135.821C205.065 136.819 205.266 137.327 205.679 138.643C205.906 139.367 206.354 140.311 206.691 140.87C206.795 141.042 207.524 142.101 208.741 143.689C209.434 144.594 210.359 145.235 211.362 145.923C211.862 146.266 212.774 146.576 214.602 147.105C215.656 147.41 217.004 147.635 219.201 147.763C221.398 147.89 224.414 147.874 226.076 147.84C227.738 147.806 227.955 147.755 228.724 147.457C229.492 147.159 230.805 146.617 231.988 145.957C233.171 145.297 234.184 144.537 234.886 143.946C235.995 143.013 236.623 142.281 237.18 141.762C237.62 141.284 238.112 140.58 238.588 139.836C238.764 139.562 238.81 139.498 238.978 139.257" stroke="black" stroke-width="3.94532" stroke-linecap="round"/>
<path d="M311.215 196.876C310.136 196.706 308.537 196.401 307.928 196.266C306.951 196.049 306.208 195.806 305.587 195.61C304.694 195.329 303.635 194.656 302.866 194.244C302.127 193.847 301.423 193.575 300.701 193.181C300.324 192.976 299.286 192.293 298.319 191.665C297.79 191.322 297.04 190.644 296.416 190.13C295.989 189.778 295.652 189.492 295.403 189.42C294.98 189.298 294.556 189.486 293.887 189.637C292.421 189.966 291.285 190.2 290.949 190.32C290.282 190.559 288.762 190.909 287.302 191.282C285.922 191.634 284.833 191.723 284.536 191.755C283.589 191.859 281.991 192.032 281.194 192.046C280.002 192.068 279.13 191.957 278.776 191.795C278.062 191.467 277.459 191.025 277.038 190.559C276.422 189.875 276.073 189.235 275.913 188.834C275.405 187.565 275.806 186.225 276.012 185.758C276.211 185.308 276.869 184.702 278.014 183.804C278.712 183.257 279.703 182.598 280.332 182.187C281.195 181.622 281.657 181.401 282.311 181.057C283.489 180.437 284.62 179.975 285.634 179.501C286.315 179.216 287.333 178.842 288.217 178.575C289.1 178.309 289.817 178.162 290.739 177.955" stroke="black" stroke-width="3.94532" stroke-linecap="round"/>
<path d="M279.759 181.581C279.651 181.518 279.339 181.236 278.811 180.479C278.374 179.852 278.112 179.336 277.83 178.664C277.437 177.727 277.222 176.343 277.182 175.776C277.13 175.043 277.295 174.415 277.433 173.852C277.616 173.11 278.464 172.199 279.016 171.687C279.291 171.432 279.602 171.28 280.243 170.917C282.751 169.498 283.369 169.333 283.931 169.135C284.506 168.933 285.333 168.673 286.584 168.54C287.398 168.453 288.905 168.453 289.736 168.437C290.568 168.421 290.681 168.435 290.785 168.452C290.889 168.468 290.981 168.486 291.2 168.527" stroke="black" stroke-width="3.94532" stroke-linecap="round"/>
<path d="M311.408 196.58C322.483 200.539 327.174 177.021 318.897 172.122C313.844 169.131 311.865 162.973 306.599 160.351C301.479 157.802 271.432 155.896 281.12 168.866" stroke="black" stroke-width="3.94532" stroke-linecap="round"/>
<path d="M321.658 173.631C321.97 173.68 322.713 173.817 322.995 173.876C323.48 173.977 324.066 174.136 324.421 174.203C324.737 174.262 325.03 174.327 325.687 174.43C325.917 174.466 326.077 174.505 326.237 174.52C326.397 174.535 327.385 174.65 328.785 174.847C329.513 174.95 330.081 175.109 330.519 175.232C330.597 175.254 330.655 175.266 330.735 175.274C330.816 175.283 330.918 175.288 331.024 175.293" stroke="black" stroke-width="3.94532" stroke-linecap="round"/>
<path d="M312.785 164.202C312.859 163.821 312.933 163.439 313.134 162.805C313.334 162.172 313.659 161.297 313.867 160.772C314.255 159.788 314.554 159.453 314.831 159.112C315.365 158.455 316.106 157.865 316.638 157.623C317.047 157.436 317.775 157.203 318.415 157.028C319.055 156.853 319.595 156.765 320.427 156.73C321.259 156.694 322.368 156.715 323.374 156.831C324.381 156.947 325.252 157.159 325.835 157.33C326.419 157.501 326.689 157.626 326.905 157.745C327.121 157.865 327.275 157.976 328.417 159.19C329.559 160.404 331.685 162.718 333.666 165.237C335.648 167.757 337.421 170.411 338.757 172.611C340.092 174.812 340.936 176.478 341.658 178.093C342.38 179.708 342.954 181.221 343.341 182.406C343.728 183.59 343.91 184.402 343.998 185.199C344.085 185.996 344.073 186.754 343.935 187.981C343.796 189.209 343.531 190.882 343.148 192.419C342.765 193.955 342.271 195.305 341.633 196.533C340.995 197.761 340.229 198.828 339.568 199.653C338.907 200.478 338.373 201.03 337.553 201.699C336.733 202.368 335.641 203.137 334.603 203.758C333.564 204.379 332.612 204.828 331.927 205.068C331.241 205.308 330.851 205.326 329.207 205.019C327.564 204.711 324.679 204.078 322.627 203.471C320.575 202.863 319.443 202.3 318.049 201.445C316.655 200.59 315.032 199.46 313.795 198.677C312.558 197.895 311.755 197.493 311.237 197.253C310.167 196.819 309.62 196.615 309.099 196.472C308.871 196.417 308.714 196.398 308.553 196.378" stroke="black" stroke-width="3.94532" stroke-linecap="round"/>
<path d="M197.385 242.351C197.064 242.557 196.348 243.033 195.183 243.904C194.119 244.699 192.151 246.285 190.945 247.29C189.738 248.295 189.368 248.689 188.533 249.712C187.698 250.735 186.411 252.375 185.486 253.621C183.993 255.636 183.401 256.6 183.154 256.877C182.799 257.276 182.155 258.251 181.12 259.84C179.881 261.74 179.214 262.992 178.912 263.401C178.387 264.113 178.024 264.797 177.725 265.491C177.183 266.75 176.742 267.749 176.369 268.382C175.267 270.256 174.989 271.209 174.34 272.589C174.005 273.301 173.812 273.974 173.502 274.538C172.901 275.633 172.597 276.121 172.38 276.703C172.327 276.844 172.29 276.959 172.237 277.075C172.185 277.191 172.121 277.306 171.98 277.262C171.564 277.133 170.298 276.001 167.983 274.388C166.786 273.554 165.492 272.76 164.567 272.262C163.161 271.503 161.705 271.237 160.065 270.837C158.606 270.482 157.353 270.126 155.795 269.965C154.816 269.864 153.444 269.882 152.238 269.952C151.032 270.023 150.03 270.187 149.041 270.442C147.079 270.948 145.394 271.922 144.179 272.815C143.481 273.329 143.119 273.759 142.6 274.477C141.709 275.71 141.041 277.076 140.707 278.216C140.342 279.463 140.905 281.244 141.728 283.34C142.153 284.423 142.797 285.457 143.477 286.473C144.157 287.49 144.906 288.435 145.706 289.328C147.282 291.084 148.466 292.056 149.477 292.861C151.469 294.447 152.795 295.671 153.465 296.207C154.002 296.636 154.871 297.468 156.103 298.417C157.334 299.365 158.883 300.425 160.41 301.365C161.938 302.305 163.397 303.094 164.438 303.607C166.031 304.393 167.068 304.696 167.985 304.97C169.054 305.289 169.838 305.371 170.536 305.509C171.968 305.793 173.013 306.119 174.045 306.323C174.932 306.499 176.548 306.865 177.684 307.068C180.171 307.512 181.742 307.404 182.883 307.298C183.415 307.249 183.904 306.946 184.77 306.561C185.465 306.251 185.933 306.012 187.253 305.411C188.188 304.986 188.952 304.274 189.537 303.732C189.929 303.369 190.611 302.486 191.677 301.319C192.415 300.511 192.928 300.043 194.233 297.991C195.4 296.158 197.478 292.65 199.067 290.147C200.656 287.644 201.664 286.235 203.115 284.455C204.566 282.676 206.429 280.569 209.579 276.523C212.728 272.478 217.107 266.559 219.714 262.891C222.322 259.223 223.025 257.985 223.514 257.196C224.207 256.076 225.057 254.956 225.913 253.636C226.288 253.054 226.551 252.735 226.896 252.351C227.044 252.185 227.136 252.075 227.383 251.782" stroke="black" stroke-width="3.94532" stroke-linecap="round"/>
<path d="M308.464 119.333C307.434 118.536 305.097 116.722 303.926 115.831C302.491 114.739 301.43 113.965 300.279 113.228C299.751 112.89 299.053 112.253 298.222 111.533C297.737 111.112 296.129 109.843 293.645 107.8C291.925 106.385 290.172 105.32 287.856 104.111C286.577 103.443 285.009 102.819 284.126 102.422C283.244 102.025 283.075 101.913 280.878 100.811C278.68 99.7086 274.458 97.6204 269.325 95.4602C264.191 93.3001 258.275 91.1313 253.386 89.196C248.498 87.2608 244.816 85.6248 242.761 84.7299C240.402 83.7023 239.311 83.4673 237.794 83.1021C236.251 82.7305 234.988 82.2631 233.519 81.89C232.556 81.6455 231.177 81.2033 227.938 80.6698C224.7 80.1364 219.65 79.5033 215.621 79.1771C211.592 78.851 208.737 78.851 205.446 79.0692C202.155 79.2874 198.514 79.7239 195.09 80.406C191.667 81.088 188.572 82.0023 186.696 82.5914C184.24 83.3627 182.499 84.249 180.536 85.2581C179.369 85.8581 178.167 86.921 176.423 88.537C173.692 91.3403 172.931 92.6016 172.054 94.1799C171.737 94.7733 171.679 94.9453 171.619 95.1226" stroke="black" stroke-width="3.94532" stroke-linecap="round"/>
<path d="M171.83 95.0876C172.213 94.6912 172.79 94.0698 173.445 93.5689C174.395 92.8412 175.688 92.4128 177.251 91.7725C180.452 90.4617 181.806 90.3053 183.168 89.9157C184.889 89.4237 186.22 89.2448 186.933 89.0851C190.117 88.3718 191.886 88.5463 193.699 88.5036C195.315 88.4656 198.347 88.4891 200.303 88.5543C203.055 88.6461 204.262 89.0088 205.437 89.3571C207.351 89.9246 209.055 90.4002 210.235 90.801C211.695 91.2969 213.168 91.7874 214.554 92.181C216.044 92.6042 217.004 93.0213 218.23 93.4351C219.249 93.7787 221.096 94.3183 222.772 94.8531C225.913 95.8551 227.562 96.4705 228.294 96.7901C229.841 97.4649 231.077 97.9608 232.51 98.549C233.726 99.0481 235.979 99.84 241.869 101.159C247.759 102.479 257.227 104.273 264.355 105.239C271.482 106.206 275.981 106.29 279.102 106.226C283.837 106.128 285.789 105.647 286.351 105.501C286.61 105.433 286.815 105.375 287.04 105.307C287.264 105.239 287.502 105.163 288.123 105.004" stroke="black" stroke-width="3.94532" stroke-linecap="round"/>
<path d="M172.162 95.2988C172.511 96.1101 172.946 97.2137 173.497 98.114C174.183 99.236 175.115 99.8354 176.024 100.486C177.315 101.409 178.618 102.583 180.144 103.775C181.021 104.46 182.089 105.16 183.032 105.718C184.157 106.359 184.973 106.778 185.685 107.075C185.835 107.148 185.982 107.246 186.371 107.436" stroke="black" stroke-width="3.94532" stroke-linecap="round"/>
<path d="M206.42 78.8748C207.283 77.6732 208.649 76.1544 210.104 74.8696C211.046 74.038 212.437 73.1474 215.273 70.6555C216.767 69.3423 217.946 68.8212 219.232 68.1765C220.018 67.7831 220.659 67.4209 221.308 67.1328C221.945 66.8501 222.583 66.5876 223.92 66.0801C225.266 65.5692 227.022 64.8714 227.66 64.6841C228.315 64.492 229.099 64.1982 230.747 63.8181C233.244 63.2421 236.083 62.7919 237.954 62.5014C239.152 62.3155 240.028 62.3172 241.155 62.2463C242.426 62.1664 243.43 62.2036 243.944 62.1609C244.69 62.0989 245.884 62.0619 249.553 61.9338C252.474 61.8319 257.55 61.8903 260.871 62.0193C265.619 62.2038 267.338 62.7636 268.261 62.9914C269.907 63.3979 272.033 63.7377 273.721 64.1393C274.52 64.3294 274.942 64.5544 276.856 65.3494C278.501 66.0329 281.55 67.197 283.318 67.9111C286.247 69.094 287.103 70.08 288.137 70.944C288.59 71.3223 289.297 71.9315 290.325 72.9014C291.353 73.8712 292.68 75.1837 294.379 77.3156C296.077 79.4476 298.108 82.3593 300.14 85.9014C302.172 89.4435 304.144 93.5277 305.379 96.1786C306.614 98.8295 307.052 99.9234 307.447 101.336C307.842 102.748 308.181 104.445 308.449 105.945C308.717 107.444 308.903 108.693 309.021 110.555C309.183 114.853 309.252 117.518 309.289 117.837C309.301 118.003 309.301 118.175 309.301 118.352" stroke="black" stroke-width="3.94532" stroke-linecap="round"/>
<path d="M241.557 83.0383C241.872 82.3053 242.123 81.7252 242.403 81.2196C242.815 80.4752 244.509 78.5929 246.583 76.2445C247.717 74.9597 248.367 74.4 249.446 73.2859C250.811 71.8766 252.969 69.808 254.574 68.8156C257.378 67.0823 257.924 66.6514 258.606 66.3293C260.392 65.4851 263.251 64.9046 264.182 64.6054C265.456 64.384 266.799 64.2591 267.472 64.1419C267.634 64.1166 267.794 64.0934 268.134 64.0342" stroke="black" stroke-width="3.94532" stroke-linecap="round"/>
<path d="M260.766 90.9838C262.989 88.3823 264.367 86.7183 265.387 85.7108C266.18 84.9282 267.018 84.2353 268.134 83.3787C271.591 80.7253 272.691 79.8163 273.367 79.3495C274.25 78.7393 275.441 77.9699 276.826 77.041C277.757 76.4173 279.801 75.8745 282.14 75.3239C283.73 74.8813 284.532 74.7857 286.481 74.6588C287.472 74.6328 289.043 74.6328 290.661 74.6328" stroke="black" stroke-width="3.94532" stroke-linecap="round"/>
<path d="M226.574 78.8303C226.868 76.9992 227.313 75.4864 227.867 74.4777C228.412 73.4871 228.939 72.7703 229.24 72.4434C229.602 72.0501 231.109 70.4133 233.274 68.2498C234.595 66.9302 235.73 66.3424 236.469 65.768C237.031 65.3317 237.674 65.1225 238.273 64.838C238.887 64.5466 239.351 64.0912 239.97 63.7445C240.293 63.5931 240.63 63.4631 240.966 63.3518C241.129 63.2986 241.278 63.2521 241.501 63.1689" stroke="black" stroke-width="3.94532" stroke-linecap="round"/>
<path d="M279.045 193.284C278.82 193.658 278.304 194.822 278.066 195.847C277.948 196.353 277.546 198.109 277.107 200.518C276.744 202.507 276.557 205.507 276.737 207.74C277.06 211.756 276.985 212.4 277.393 214.836C277.697 216.648 278.172 218.967 278.611 220.472C279.439 223.31 280.352 225.608 280.857 227.041C281.715 229.476 282.771 231.583 283.555 233.324C284.673 235.804 285.492 237.498 285.755 237.963C285.988 238.376 287.029 240.161 289.287 243.397C290.493 245.126 292.132 246.805 293.295 247.973C295.092 249.775 296.826 250.639 299.397 251.569C301.041 252.164 303.445 252.794 305.365 253.146C308.666 253.498 311.126 253.222 312.866 252.718C313.569 252.491 313.907 252.32 314.668 251.994" stroke="black" stroke-width="3.94532" stroke-linecap="round"/>
<path d="M306.491 197.244C306.536 198.973 306.371 200.959 306.358 203.146C306.346 205.003 307.063 206.804 307.254 208.173C307.42 209.372 308.361 212.182 309.124 213.827C310.162 216.069 311.54 217.552 312.523 218.808C313.302 219.801 314.923 221.175 316.887 222.728C318.102 223.689 318.98 224.223 320.375 224.946C321.538 225.548 324.317 225.469 325.909 225.305C326.864 225.207 328.168 224.499 329.036 224.166C330.351 223.662 331.158 222.923 331.786 222.18C332.437 221.409 333.055 220.396 333.75 219.101C334.916 216.929 335.528 215.044 335.77 213.817C336.005 212.628 336.488 211.625 336.738 209.513C336.793 207.352 336.839 206.093 336.726 205.131C336.689 204.962 336.654 204.787 336.618 204.157" stroke="black" stroke-width="3.94532" stroke-linecap="round"/>
<path d="M286.566 157.26C287.254 156.1 288.929 153.407 289.589 152.442C290.041 151.782 291.634 149.885 294.003 146.995C294.763 146.068 295.898 144.88 297.219 143.622C299.963 141.011 301.808 139.577 302.225 139.157C302.605 138.773 303.763 137.996 305.51 136.891C306.905 136.008 308.591 135.328 310.346 134.611C311.609 134.094 312.338 133.863 312.723 133.769C313.069 133.684 314.338 133.382 317.927 132.952C320.396 132.657 324.216 132.594 326.694 132.576C330.204 132.549 331.749 132.924 333.022 133.289C336.513 134.29 337.771 135.428 339.416 136.485C340.112 136.932 341.042 137.761 342.076 138.691C343.11 139.621 344.187 140.673 346.591 143.856C348.995 147.039 352.693 152.321 354.845 155.487C357.568 159.491 358.181 160.707 358.66 161.456C359.43 162.66 360.035 163.745 360.666 164.801C361.108 165.541 361.683 166.759 362.854 169.239C364.026 171.719 365.747 175.44 368.192 181.895C370.636 188.35 373.751 197.426 375.66 203.726C377.569 210.025 378.177 213.273 378.514 215.149C378.922 217.428 378.945 218.099 378.881 218.539C378.827 218.907 377.877 219.317 375.718 220.13C372.07 221.503 369.36 221.933 368.64 222.064C367.669 222.273 366.806 222.472 366.244 222.581C365.983 222.618 365.769 222.618 365.549 222.618" stroke="black" stroke-width="3.94532" stroke-linecap="round"/>
<path d="M365.542 222.618C365.542 222.301 365.398 221.319 365.189 219.671C364.857 217.06 364.528 215.933 364.476 215.052C364.404 213.827 364.324 212.438 364.162 211.497C364.027 210.717 363.936 210.034 363.747 209.331C363.52 208.489 363.291 207.406 362.671 205.629C362.328 204.647 361.981 203.606 361.719 202.883C361.378 201.94 361.047 201.272 360.792 200.572C360.455 199.643 359.944 198.321 359.647 197.589C359.224 196.546 358.912 195.547 358.583 194.431C358.358 193.671 358.295 193.007 358.059 191.901C357.522 189.388 357.035 186.969 356.675 185.759C356.073 183.736 355.618 180.801 355.368 179.935C355.089 178.967 354.337 176.867 353.515 174.669C353.147 173.685 352.972 172.833 352.399 171.175C351.673 169.072 350.997 167.536 350.683 166.887C349.621 164.695 349.061 163.027 348.63 161.869C348.097 160.439 347.156 158.87 346.477 157.748C345.731 156.517 344.919 154.651 344.024 153.35C342.31 150.856 340.377 148.6 339.24 147.405C338.016 146.115 336.24 144.587 334.885 143.497C333.907 142.711 333.109 142.061 328.689 140.127C327.472 139.595 325.48 139.665 322.814 139.762C321.528 139.81 319.925 140.247 317.098 141.2C315.555 141.72 313.9 142.607 312.094 143.755C310.287 144.903 308.407 146.361 307.015 147.551C304.698 149.532 303.573 151.029 302.941 151.961C302.374 152.721 302.013 153.2 301.805 153.492C301.684 153.648 301.533 153.82 301.342 154.067" stroke="black" stroke-width="3.94532" stroke-linecap="round"/>
<path d="M358.823 194.069C358.857 196.301 358.687 198.082 358.43 200.693C358.292 202.082 358.342 203.62 358.32 205.215C358.297 206.809 358.253 208.419 358.217 210.028C358.148 213.197 358.065 215.127 357.95 215.775C357.638 217.543 357.29 219.527 356.921 221.078C356.636 222.278 356.009 224.28 355.152 226.282C353.421 230.324 351.917 232.39 351.514 232.997C350.232 234.927 349.695 235.872 348.995 236.907C348.005 238.373 345.022 240.962 343.76 242.153C342.57 243.276 340.822 244.505 339.512 245.467C338.299 246.358 337.6 246.667 336.953 247.034C336.216 247.452 335.429 247.841 334.199 248.374C332.971 248.906 330.67 249.728 328.933 250.168C328.128 250.372 327.323 250.395 325.678 250.704C324.734 250.881 323.444 250.931 318.608 251.034C315.509 251.099 313.658 250.938 312.959 250.759C310.953 250.247 310.187 249.644 308.892 248.817C308.156 248.347 307.452 248.003 306.113 246.757C305.011 245.731 303.144 243.812 300.673 240.965C298.203 238.117 295.209 234.375 293.034 231.132C290.859 227.889 289.593 225.257 288.419 221.925C287.246 218.593 286.201 214.639 285.649 212.425C285.097 210.211 285.069 209.856 284.856 208.434C284.643 207.012 284.246 204.533 283.998 202.257C283.751 199.98 283.664 197.981 283.638 196.794C283.612 195.608 283.649 195.295 283.688 194.831" stroke="black" stroke-width="3.94532" stroke-linecap="round"/>
<path d="M300.424 209.624C300.444 209.706 300.465 209.788 301.309 212.285C302.154 214.783 303.821 219.693 304.761 222.383C305.818 225.411 306.605 226.677 307.795 228.505C309.722 231.464 311.129 232.7 312.614 234.078C315.883 237.11 317.009 237.372 318.231 238.01C319.48 238.662 321.115 238.613 322.768 238.761C324.743 238.938 326.226 238.823 327.224 238.756C330.726 238.523 332.591 238.009 334.393 237.525C336.353 236.998 338.256 235.65 339.627 234.476C340.097 234.072 341.225 232.856 342.651 231.185C343.463 230.234 344.053 229.062 344.788 227.428C345.487 225.875 345.643 224.727 345.933 223.749C346.482 221.897 347.206 219.883 347.485 218.041C347.766 216.183 347.968 214.194 348.385 212.164C348.561 211.147 348.663 210.154 348.716 208.007C348.769 205.859 348.769 202.588 348.769 199.217" stroke="black" stroke-width="3.94532" stroke-linecap="round"/>
<path d="M248.243 254.007C248.22 254.051 247.955 255.098 247.558 258.327C247.288 260.52 247.387 263.885 247.387 265.743C247.388 268.657 248.066 271.283 248.351 272.658C248.509 273.414 248.658 274.098 249.349 276.106C250.02 278.058 250.917 279.265 251.366 279.956C252.84 282.228 253.392 283.093 254.975 285.047C256.245 286.616 258.622 289.226 259.904 290.658C261.627 292.583 262.191 293.134 262.473 293.653C263.185 294.965 259.918 294.586 258.144 294.98C257.139 295.202 256.444 295.545 255.018 296.154C254.067 296.56 253.053 296.931 251.619 297.789C250.239 298.615 248.875 300.011 247.581 301.156C245.998 302.555 245.744 303.86 245.381 304.653C244.868 305.772 244.94 308.686 245.29 310.155C245.682 311.8 246.98 312.733 249.07 314.338C251.986 316.579 253.431 316.594 254.188 316.725C254.739 316.82 255.236 316.789 256.829 316.826C258.26 316.859 260.955 316.857 262.494 316.839C264.834 316.812 265.961 316.612 267.568 316.543C268.081 316.522 270.001 316.45 272.752 316.401C275.678 316.348 278.869 315.61 279.779 315.47C281.173 315.255 282.086 315.252 283.797 315.119C285.282 315.004 288.025 314.834 289.943 314.6C294.17 314.082 294.977 313.345 295.724 312.956C296.015 312.805 296.167 312.502 296.266 312.172C296.495 311.411 296.028 308.75 295.47 306.574C295.382 306.228 295.327 305.964 294.533 303.827C293.739 301.691 292.201 297.691 291.334 295.497C290.152 292.504 289.62 291.614 289.117 290.546C289.006 290.311 288.895 290.152 288.122 288.513C287.35 286.874 285.915 283.761 285.151 282.082C284.386 280.403 284.336 280.252 283.433 278.24C282.53 276.228 280.776 272.358 279.769 270.026C278.134 266.243 277.934 265.04 277.661 264.143C277.549 263.776 277.25 262.955 276.943 261.897C276.768 261.297 276.012 259.227 274.845 256.322C274.194 254.703 274.005 253.677 273.892 252.798C273.849 251.943 273.781 251.228 273.677 250.639C273.627 250.238 273.582 249.63 273.536 249.003" stroke="black" stroke-width="3.94532" stroke-linecap="round"/>
<path d="M118.898 133.836C119.109 133.985 119.517 134.213 121.261 134.839C122.372 135.243 123.682 135.721 124.062 135.838C124.149 135.86 124.221 135.875 124.492 135.907" stroke="black" stroke-width="3.94532" stroke-linecap="round"/>
<path d="M82.3189 248.651C86.7026 244.048 91.9177 245.442 93.3259 245.735C96.2192 246.335 99.882 249.925 100.967 251.522C101.959 252.981 102.293 254.329 102.783 255.57C103.487 257.354 104.429 259.386 105.718 261.918C106.316 263.092 107.103 263.891 108.96 265.662C110.245 266.887 111.429 267.03 114.235 267.06C116.73 267.087 118.904 265.457 120.308 264.12C120.975 263.485 122.051 261.307 123.474 258.247C124.997 254.972 124.766 252.498 124.732 248.506C124.712 246.183 124.444 243.261 123.988 240.751C123.532 238.242 122.833 236.236 121.482 233.444C120.13 230.653 118.148 227.137 115.936 224.023C113.724 220.909 111.343 218.305 109.749 216.617C107.464 214.198 106.414 213.232 105.573 212.347C104.126 210.823 102.262 209.357 100.312 208.066C98.0259 206.554 96.2422 205.834 94.0619 204.796C92.2388 203.928 89.0472 202.191 86.2003 200.278C83.3535 198.366 80.9702 196.285 78.8211 194.188C76.6719 192.092 74.8291 190.043 73.5121 188.42C72.195 186.797 71.4595 185.662 70.5743 183.985C68.5657 180.18 67.5553 177.601 67.3561 177.026C66.7053 175.147 65.7785 172.775 65.6579 171.646C65.559 170.72 65.2487 168.869 65.1827 166.501C65.1326 164.706 65.7265 163.853 66.0565 162.968C66.419 161.995 66.9189 160.733 67.5628 159.391C68.0792 158.57 68.7757 157.611 69.5421 156.598C69.9197 156.099 70.2743 155.628 70.7836 154.899" stroke="black" stroke-width="3.94532" stroke-linecap="round"/>
<path d="M64.5628 151.113C55.5763 161.634 57.8688 166.976 57.987 171.059C58.282 181.249 62.8033 189.029 70.0421 195.827C74.4346 199.952 82.7544 206.028 88.2344 208.54C101.064 214.419 114.696 227.394 117.386 241.636C118.747 248.842 120.454 259.829 112.783 259.829C107.084 259.829 109.276 236.595 86.9176 239.191C85.4571 239.203 82.3168 240.014 81.4401 243.171" stroke="black" stroke-width="3.94532" stroke-linecap="round"/>
<path d="M109.13 225.665C108.532 225.821 107.526 225.938 105.735 226.228C104.508 226.426 103.973 226.586 102.341 227.047C101.497 227.286 100.933 227.315 100.517 227.401C99.8136 227.547 98.5862 227.732 96.9232 228.1C93.909 228.767 93.0131 229.037 92.0395 229.23C90.0122 229.631 89.189 229.854 88.5001 230.045C87.5971 230.295 86.9171 230.511 85.5932 230.817C84.3752 231.098 82.0548 231.662 80.8049 231.971C79.075 232.398 78.3987 232.83 77.6846 233.25C77.0683 233.614 76.4602 234.793 76.1198 235.629C75.7509 236.536 75.5475 238.004 75.3052 239.671C75.1862 240.489 74.9821 241.238 74.8619 243.132C74.7416 245.025 74.6876 248.037 74.6803 249.774C74.6715 251.884 74.7566 252.453 74.7778 252.841C74.8007 253.259 74.9673 254.244 75.1476 255.652C75.3996 257.621 75.7794 258.568 76.1502 260.236C76.2753 260.799 76.4563 261.935 76.7702 263.6C77.1122 265.414 77.1219 266.296 77.4038 268.364C77.7563 270.949 77.5769 271.671 77.634 272.19C77.6906 272.704 77.8228 273.035 77.9575 273.201C78.5662 273.948 81.3832 273.502 82.9304 273.353C83.9671 273.253 85.2833 272.842 86.0681 272.59C86.8167 272.349 87.748 272.147 88.331 272.075C88.996 271.993 89.5168 271.899 90.2173 271.809C91.8938 271.594 93.2094 271.3 93.5893 271.217C94.468 271.026 95.9429 270.764 97.6725 270.024C98.7741 269.552 99.4413 269.361 100.033 269.123C100.841 268.8 101.747 268.165 102.731 267.677C103.815 267.064 104.263 266.824 105.084 266.584C105.279 266.533 105.4 266.505 105.643 266.452" stroke="black" stroke-width="3.94532" stroke-linecap="round"/>
<path d="M111.445 228.906C111.459 229.031 111.473 229.156 111.48 233.825C111.487 238.495 111.487 247.706 111.487 257.196" stroke="black" stroke-width="3.94532" stroke-linecap="round"/>
<path d="M103.091 219.075C103.037 219.075 102.982 219.075 101.687 219.381C100.393 219.687 97.8602 220.298 96.2677 220.708C94.0885 221.27 93.3492 221.527 92.5387 221.7C90.7267 222.085 89.4013 222.453 87.938 222.772C86.6283 223.058 84.1799 223.652 82.8385 223.961C81.344 224.304 80.2639 224.504 78.8248 224.799C78.2004 224.927 77.4853 225.073 76.5084 225.346C76.0076 225.486 74.4015 225.772 72.0044 226.265C70.1911 226.637 69.6158 226.983 68.4035 227.275C67.5326 227.471 67.0084 227.645 66.5065 227.85C66.4146 227.925 66.3759 228.032 66.3359 228.351" stroke="black" stroke-width="3.94532" stroke-linecap="round"/>
<path d="M66.3359 228.351V285.561" stroke="black" stroke-width="3.94532" stroke-linecap="round"/>
<path d="M66.9707 286.009C68.3789 285.72 70.3643 285.292 71.4078 285.063C71.9965 284.934 72.4185 284.888 72.8443 284.826C73.4669 284.736 74.2559 284.503 75.0208 284.319C75.6161 284.176 76.5029 283.839 77.1313 283.617C77.9247 283.337 78.7732 283.01 80.4533 282.526C80.9186 282.393 82.4433 281.987 84.7176 281.312C85.8693 280.97 86.8554 280.494 88.0168 280.075C89.0174 279.714 90.0352 279.406 90.7875 279.118C92.1138 278.609 92.573 278.309 93.2783 278.047C93.7696 277.864 94.2272 277.807 94.9473 277.625C95.5353 277.477 96.0841 277.354 97.9263 276.894C98.6696 276.708 99.9007 276.429 100.999 276.259C101.612 276.164 102.609 276.038 105.766 275.525C106.976 275.328 107.662 275.045 109.081 274.478C110.113 274.066 110.712 273.859 111.481 273.552C112.299 273.225 113.666 272.793 114.281 272.619C114.82 272.467 115.47 272.214 115.891 271.9C116.385 271.532 117.082 271.439 117.49 271.198C117.917 270.947 118.287 270.65 118.543 270.246C118.846 269.767 118.949 268.79 119.096 268.017C119.164 267.741 119.249 267.405 119.315 267.048C119.34 266.886 119.347 266.763 119.378 266.589" stroke="black" stroke-width="3.94532" stroke-linecap="round"/>
<path d="M111.787 216.559C113.306 216.29 115.411 216.126 115.836 216.014C116.063 215.954 116.289 215.914 116.523 215.95C117.172 216.049 117.408 217.048 117.664 218.085C117.869 218.911 118.113 219.409 118.225 219.94C118.394 220.745 118.319 221.451 118.352 222.172C118.374 222.676 118.391 223.216 118.357 224.358C118.357 224.709 118.365 225.077 118.376 225.319C118.388 225.561 118.403 225.665 118.419 225.935" stroke="black" stroke-width="3.94532" stroke-linecap="round"/>
<path d="M100.191 233.22C100.177 233.22 100.163 233.22 99.295 233.36C98.4266 233.499 96.7042 233.779 95.3712 234.071C94.0381 234.362 93.1466 234.657 92.5305 234.847C91.6065 235.131 91.203 235.217 90.6349 235.381C90.1429 235.523 89.2309 235.76 88.4196 236.031C87.6083 236.302 86.9235 236.594 86.5381 236.763C86.0842 236.963 85.6337 237.187 84.8732 237.562C83.7078 238.136 83.5314 238.352 83.0253 238.827C82.71 239.123 82.4077 239.7 82.0421 240.484C81.8518 240.892 81.7434 241.361 81.6245 242.586C81.5056 243.81 81.4029 245.786 81.3647 247.319C81.3266 248.852 81.356 249.882 81.3663 250.456C81.3823 251.344 81.3148 251.725 81.2074 252.134C81.0195 252.851 81.1831 253.851 81.2783 254.382C81.3968 255.043 81.563 256.111 81.657 256.7C81.6793 256.84 81.6987 256.915 81.7821 257.376C81.8654 257.837 82.0128 258.683 82.0962 259.175C82.1987 259.781 82.2096 259.985 82.2114 260.139C82.2128 260.257 82.2328 261.046 82.2551 262.198C82.2643 262.675 82.2805 263.087 82.3102 263.759C82.3551 264.772 82.6191 265.103 82.917 265.52C83.1875 265.899 83.6305 265.808 84.0764 265.942C84.5565 266.086 85.0554 266.172 85.3538 266.203C85.6512 266.234 85.8884 266.18 86.1893 266.159C86.8891 266.109 87.7429 266.037 88.3702 265.914C88.8277 265.824 89.1283 265.689 89.7885 265.508C90.0447 265.438 90.2616 265.387 90.4656 265.321C90.6356 265.266 91.4148 265.031 92.5068 264.693C93.25 264.463 93.8518 264.289 94.2165 264.211C94.5581 264.138 94.8511 264.052 95.0227 263.997C95.1884 263.944 95.9059 263.708 96.975 263.393C97.9578 263.104 98.5876 262.735 99.033 262.469C99.6957 262.074 99.8486 261.897 100.153 261.73C100.406 261.591 100.708 261.547 101.031 261.442C101.61 261.255 102.013 261.208 102.539 261.1C102.714 261.055 102.848 261.021 103.016 260.999C103.107 260.991 103.21 260.991 103.395 260.969" stroke="black" stroke-width="3.94532" stroke-linecap="round"/>
<path d="M100.25 233.249C100.699 233.23 101.873 233.207 102.621 233.384C102.947 233.461 103.198 233.625 103.38 233.797C103.643 234.045 103.999 234.917 104.28 235.639C104.361 235.848 104.467 236.449 104.647 237.309C104.721 237.665 104.719 237.868 104.731 238.496C104.742 239.123 104.758 240.171 104.769 240.875C104.786 241.904 104.803 242.292 104.812 242.701C104.837 243.72 104.809 244.466 104.799 244.686C104.796 245.089 104.804 245.475 104.82 245.72C104.827 245.833 104.834 245.924 104.841 246.018" stroke="black" stroke-width="3.94532" stroke-linecap="round"/>
<path d="M65.5742 150.612C65.8169 150.466 66.5273 150.16 66.8708 150.078C66.9932 150.048 67.0237 150.143 67.0481 150.226C67.1773 150.667 67.3337 151.189 67.6912 152.136C67.8337 152.513 67.9965 152.721 68.1254 152.858C68.4464 153.199 69.1704 152.693 69.617 152.51C69.8635 152.409 70.0819 152.425 70.1971 152.49C70.2581 152.619 70.3679 152.945 70.5463 153.387C70.6318 153.588 70.7071 153.738 70.7886 154.001" stroke="black" stroke-width="3.94532" stroke-linecap="round"/>
<path d="M64.8936 143.891C64.8793 142.53 64.7632 141.161 64.6037 140.493C64.5603 140.234 64.5028 139.974 64.4113 139.623C64.3626 139.399 64.309 139.084 64.2539 138.727" stroke="black" stroke-width="3.94532" stroke-linecap="round"/>
<path d="M70.8496 145.101C70.8496 145.096 70.8496 145.09 70.9614 144.705C71.0733 144.32 71.2969 143.556 71.576 142.623" stroke="black" stroke-width="3.94532" stroke-linecap="round"/>
<path d="M75.2266 148.217C75.473 147.937 75.7195 147.656 76.4555 146.978C77.1916 146.299 78.4097 145.232 79.1198 144.581C79.8299 143.93 79.9949 143.727 80.0991 143.59C80.2033 143.453 80.2416 143.389 80.3135 143.306" stroke="black" stroke-width="3.94532" stroke-linecap="round"/>
</g>
<defs>
<filter id="filter0_g_621_9407" x="153.642" y="77.7728" width="183.501" height="183.501" filterUnits="userSpaceOnUse" color-interpolation-filters="sRGB">
<feFlood flood-opacity="0" result="BackgroundImageFix"/>
<feBlend mode="normal" in="SourceGraphic" in2="BackgroundImageFix" result="shape"/>
<feTurbulence type="fractalNoise" baseFrequency="0.022811843082308769 0.022811843082308769" numOctaves="3" seed="3160" />
<feDisplacementMap in="shape" scale="4.2083406448364258" xChannelSelector="R" yChannelSelector="G" result="displacedImage" width="100%" height="100%" />
<feMerge result="effect1_texture_621_9407">
<feMergeNode in="displacedImage"/>
</feMerge>
</filter>
<clipPath id="clip0_621_9407">
<rect width="430" height="378" fill="white"/>
</clipPath>
</defs>
</svg>
